<?xml version="1.0" standalone="no"?>
<!DOCTYPE svg PUBLIC "-//W3C//DTD SVG 1.1//EN" "http://www.w3.org/Graphics/SVG/1.1/DTD/svg11.dtd" >
<svg xmlns="http://www.w3.org/2000/svg" xmlns:xlink="http://www.w3.org/1999/xlink" version="1.1">
<metadata>
Created by FontForge 20170924 at Thu Aug 23 08:15:16 2007
 By www-data
Post Human (c) Teabeer studios. 2007. All Rights Reserved
</metadata>
<defs>
<font id="PostHuman" horiz-adv-x="1139" >
  <font-face 
    font-family="Post Human"
    font-weight="400"
    font-stretch="normal"
    units-per-em="2048"
    panose-1="2 0 0 0 0 0 0 0 0 0"
    ascent="1638"
    descent="-410"
    x-height="1192"
    cap-height="1891"
    bbox="-67 -1180 2164 2340"
    underline-thickness="150"
    underline-position="-292"
    unicode-range="U+0020-F005"
  />
<missing-glyph horiz-adv-x="1536" 
d="M256 0v1280h1024v-1280h-1024zM288 32h960v1216h-960v-1216z" />
    <glyph glyph-name=".notdef" horiz-adv-x="1536" 
d="M256 0v1280h1024v-1280h-1024zM288 32h960v1216h-960v-1216z" />
    <glyph glyph-name=".null" horiz-adv-x="0" 
 />
    <glyph glyph-name="nonmarkingreturn" horiz-adv-x="569" 
 />
    <glyph glyph-name="space" unicode=" " horiz-adv-x="569" 
 />
    <glyph glyph-name="space" unicode="&#xa0;" horiz-adv-x="569" 
 />
    <glyph glyph-name="exclam" unicode="!" horiz-adv-x="569" 
d="M275 2340q27 0 27 -66v-442q0 -974 -56 -1049q-78 -149 -137 -149q-19 7 -19 26v17q29 296 29 740v647q0 160 130 266zM166 292h3q15 -14 43 -23q14 -18 14 -37q-7 -91 -103 -202q-35 -30 -57 -30q-66 15 -66 43v10q0 88 100 203q38 36 66 36z" />
    <glyph glyph-name="quotedbl" unicode="&#x22;" horiz-adv-x="727" 
d="M626 1862q23 0 26 -56v-4l11 -279q0 -252 -45 -306q-68 -129 -134 -145h-11q-14 0 -22 45l3 11l4 171l-11 283q0 139 145 269zM182 1769h11q45 -11 60 -328q0 -209 -104 -317q-46 -56 -75 -56h-11q-14 0 -22 45l7 104q0 179 -41 280v18q0 82 104 213q42 41 71 41z" />
    <glyph glyph-name="numbersign" unicode="#" 
d="M453 1857q24 0 28 -42q-10 -107 -35 -253q288 21 288 31q68 165 148 197l18 4q24 -7 24 -49q0 -68 -17 -134h3l183 28q18 0 21 -35v-7q0 -104 -130 -232q-29 -13 -148 -35l-31 -155h235q28 0 28 -38q0 -94 -112 -218q-30 -28 -56 -28h-130q-6 0 -18 -67
q-80 -173 -144 -186l-11 -4q-21 0 -24 28v11q0 46 24 207q-224 -20 -224 -35q-14 -85 -109 -197q-36 -24 -50 -24h-10q-18 9 -18 28v7l7 151h-3q-86 -25 -113 -25q-45 2 -45 35v11q0 120 151 260q42 17 42 32l14 144h-4l-217 -28q-18 9 -18 28v17q0 94 123 225q68 31 158 35
q0 180 144 302zM415 1284q-18 -117 -18 -168q121 28 250 45l35 148q-105 -14 -267 -25z" />
    <glyph glyph-name="dollar" unicode="$" horiz-adv-x="781" 
d="M221 1859q29 0 53 -157q122 72 198 72h10q48 0 48 -36q0 -69 -84 -162l-29 -12h-5q-13 12 -22 12h-14q-64 0 -192 -80l-43 -36h2q230 0 445 -90q70 -37 109 -68q36 -38 37 -72q0 -109 -136 -230q-86 -60 -140 -77q26 -78 31 -107v-12q0 -69 -87 -157q-17 -10 -26 -10
q-17 0 -32 73q-41 101 -41 164v15h-39q-97 0 -174 41l-2 12v10q0 74 87 159q17 10 26 10q85 -34 148 -34h24q100 0 184 39v5q-131 75 -169 75q-141 55 -351 55q-68 14 -68 68v10q0 86 131 227l34 32q0 13 -27 82v7q0 75 87 162z" />
    <glyph glyph-name="percent" unicode="%" horiz-adv-x="1014" 
d="M688 1571q17 0 19 -31q0 -17 -36 -156q-70 -322 -149 -519l-128 -356q-30 -134 -62 -178q-43 -59 -71 -59h-5q-11 6 -11 19v12q0 46 71 246q23 56 78 223q86 212 128 415q16 55 40 173l31 107q58 104 95 104zM301 1521h19q12 0 41 -14q49 0 113 -85q24 -60 24 -95
q0 -167 -130 -299q-84 -66 -131 -66h-54q-67 0 -142 78q-24 41 -24 100q0 135 119 282q79 85 139 94q10 5 26 5zM147 1289v-26q0 -63 112 -104l23 -3h50q8 0 36 14v3q0 106 -119 149l-28 5h-12q-62 -13 -62 -38zM792 926h10q56 0 94 -78q38 -46 38 -107q0 -144 -106 -298
q-85 -133 -197 -133h-24q-92 0 -133 99q-9 29 -9 62q0 197 147 368q71 73 123 73h22q20 14 35 14zM662 713l-14 5h-3q-50 0 -50 -95v-17q0 -70 83 -99l22 -3h14q77 0 85 48l5 28v29q0 32 -69 116l-26 9l-40 -21h-7z" />
    <glyph glyph-name="ampersand" unicode="&#x26;" horiz-adv-x="1366" 
d="M441 1871q30 0 36 -95q13 -85 19 -85q123 0 222 -91l7 -23v-19q0 -96 -124 -216l-23 -7h-13q-78 89 -209 89h-26q-91 0 -154 -49q23 -114 75 -173q65 -56 206 -56q26 -13 26 -33v-13q0 -109 -130 -225q-144 -83 -144 -117v-20q0 -89 206 -209q73 -36 186 -36q76 0 137 46
q29 94 29 160v16q0 13 -32 52l-4 13v10q0 100 118 216q126 45 163 94q81 75 108 75h10q11 0 16 -35q0 -87 -111 -213q-88 -68 -91 -88q0 -88 -85 -320q-53 -117 -150 -212l-33 -20l10 -45v-17q0 -93 -118 -212q-24 -13 -36 -13q-22 0 -49 124q-13 21 -29 101
q-215 0 -379 193q-46 61 -46 124q0 185 115 327l23 32q-72 29 -105 82q-56 99 -62 186v23q0 228 258 441q36 10 36 39q36 125 117 189z" />
    <glyph glyph-name="quotesingle" unicode="'" horiz-adv-x="290" 
d="M215 1876q40 0 40 -112l16 -144q0 -137 -128 -324q-52 -64 -96 -64q-24 8 -24 32v12q0 51 28 112l-20 220q0 83 112 224q47 44 72 44z" />
    <glyph glyph-name="parenleft" unicode="(" horiz-adv-x="682" 
d="M436 1854h6q17 -8 17 -26v-23q0 -76 -111 -211q-79 -135 -120 -309q-49 -218 -49 -410q0 -116 65 -351q65 -149 130 -225q33 -47 33 -65v-3q0 -100 -118 -218l-35 -13q-40 30 -114 153q-90 166 -91 234q-36 104 -49 286q0 523 247 966q84 142 127 182q34 33 62 33z" />
    <glyph glyph-name="parenright" unicode=")" horiz-adv-x="682" 
d="M158 1847q16 0 34 -37q62 -48 185 -192q103 -140 149 -371l13 -168q0 -341 -124 -664q-203 -415 -290 -415h-7q-17 8 -17 34q0 83 142 286q111 241 111 553q0 282 -155 499q-121 134 -192 199l-7 33q0 97 118 226z" />
    <glyph glyph-name="asterisk" unicode="*" horiz-adv-x="445" 
d="M223 1852q28 0 37 -130l2 -2v-2l127 21q13 -3 13 -25q-3 -56 -66 -128l-8 -4l45 -59v-11q0 -63 -74 -138l-23 -8q-12 0 -60 68l-24 43h-2q-46 -86 -79 -86q-12 0 -14 16v15q0 23 23 98h-2q-9 0 -48 -35l-14 -4h-2q-25 2 -25 21v10q0 52 64 126l33 25l-4 30q0 74 80 153z
" />
    <glyph glyph-name="plus" unicode="+" horiz-adv-x="921" 
d="M529 1533h4q20 -10 20 -32v-20q-32 -140 -32 -240v-92h4l280 44q24 -8 24 -32v-12q0 -109 -124 -248q-26 -33 -124 -48l-60 -8l4 -88q0 -164 -156 -300l-36 -12q-28 8 -28 56l-4 304h-4q-148 -20 -228 -20h-64q-20 10 -20 32v12q0 120 140 260q0 21 184 28q0 229 168 396
q30 20 52 20z" />
    <glyph glyph-name="comma" unicode="," horiz-adv-x="423" 
d="M225 378h8q44 -45 80 -132l8 -52v-36q0 -169 -280 -444q-53 -47 -84 -48q-24 10 -24 36v8q0 122 152 280v4q-44 70 -44 84v20q0 122 144 264z" />
    <glyph glyph-name="hyphen" unicode="-" horiz-adv-x="861" 
d="M184 1097l236 -12l344 8q16 -15 20 -44q-8 -114 -132 -252q-37 -32 -76 -32l-324 -8q-248 7 -248 28l-4 20v12q0 123 144 264q24 16 40 16z" />
    <glyph glyph-name="hyphen" unicode="&#xad;" horiz-adv-x="861" 
d="M184 1097l236 -12l344 8q16 -15 20 -44q-8 -114 -132 -252q-37 -32 -76 -32l-324 -8q-248 7 -248 28l-4 20v12q0 123 144 264q24 16 40 16z" />
    <glyph glyph-name="period" unicode="." horiz-adv-x="569" 
d="M232 432q100 -20 100 -72v-24q0 -114 -156 -280q-83 -56 -124 -56q-52 35 -52 52v16q16 145 104 280q69 84 128 84z" />
    <glyph glyph-name="slash" unicode="/" horiz-adv-x="569" 
d="M527 1837q35 0 35 -61q0 -72 -298 -1370q-50 -253 -160 -363q-51 -43 -74 -43q-30 0 -30 43v18q0 26 277 1231q56 295 82 363q104 182 168 182z" />
    <glyph glyph-name="zero" unicode="0" 
d="M619 1854h4q133 0 264 -202q34 -44 73 -219l26 -228q0 -384 -191 -839q-54 -123 -198 -263q-134 -103 -216 -103h-44q-60 0 -161 99q-158 230 -158 344l-18 114q0 101 66 374q139 429 308 725q115 165 176 165q36 33 69 33zM498 1554q-2 -14 -58 -33q-92 -180 -191 -484
q-47 -196 -47 -260q24 -184 54 -224q73 -147 136 -201q50 -46 99 -52h33q62 0 139 81q121 335 121 605q-30 324 -84 388q-70 131 -202 180z" />
    <glyph glyph-name="one" unicode="1" 
d="M340 1837h4q24 0 27 -72v-809l9 -263v-322q0 -227 -188 -367l-27 -4h-4q-27 0 -27 89v362l-9 251v706q-66 -49 -98 -49q-24 0 -27 44v14q0 129 165 295q19 0 112 98q34 27 63 27z" />
    <glyph glyph-name="two" unicode="2" 
d="M487 1848h26q178 0 228 -251q8 0 8 -65v-26q0 -233 -209 -711q-92 -263 -202 -464h4q43 11 110 11h251q164 0 164 -26l4 -27q0 -110 -137 -251l-42 -15l-34 7l-240 4q-177 0 -315 -34h-19q-19 10 -19 30v19q0 70 110 251q106 178 243 559q122 280 122 407v57
q-37 213 -183 213h-19q-155 -31 -155 -95q-94 -167 -153 -167q-30 0 -30 53q0 171 243 411q139 110 244 110z" />
    <glyph glyph-name="three" unicode="3" 
d="M514 1837h65q120 0 186 -154q12 -36 16 -117q0 -121 -85 -328h4q136 -11 263 -117q121 -118 121 -360q0 -301 -299 -603q-194 -158 -360 -158h-69q-129 6 -295 150q-61 48 -61 93v16q0 101 125 247q42 32 65 32q13 0 45 -52q148 -132 267 -154l32 -4l20 4h12
q140 0 239 85q57 26 57 105q0 179 -81 263q-50 77 -235 121h-149q-21 11 -21 33v12q0 128 154 275q28 47 28 105q0 129 -117 170l-28 8q-124 0 -142 -56q-67 -77 -101 -77h-8q-17 0 -24 52q0 135 174 316q114 93 202 93z" />
    <glyph glyph-name="four" unicode="4" 
d="M900 1867q43 0 51 -138q24 -441 24 -596v-430q0 -114 35 -403q0 -146 -150 -288l-39 -12h-4q-27 0 -32 166q-27 119 -27 387v59l4 260v4h-4q-23 -74 -103 -162q-40 -31 -59 -31h-51l-138 -8h-56l-335 -4q-16 17 -16 32v11q0 153 225 336l304 339q177 233 245 367
q83 111 126 111zM383 995h4l371 8v4l-20 434q-157 -221 -355 -446z" />
    <glyph glyph-name="five" unicode="5" horiz-adv-x="1349" 
d="M170 1861h8q0 -15 281 -48q0 -13 318 -19h4l185 30q22 -7 22 -41q-5 -104 -119 -233q-24 -29 -192 -55l-85 -4q-246 7 -352 26l19 -163v-15h4q128 75 307 93q0 11 266 22q257 0 411 -359q44 -95 44 -214q0 -207 -262 -537q-178 -192 -226 -203q-195 -123 -278 -123
q-141 0 -244 -18q-50 0 -263 96q-11 14 -11 26v11q0 113 134 244l37 15q15 0 210 -81l37 -8q112 19 189 19h67q70 14 244 126q163 164 163 211q0 181 -167 384q-112 108 -225 108q-284 0 -489 -78q-69 -44 -96 -44h-15q-29 0 -29 29v37q-60 342 -60 448l4 18q-11 4 -11 23
v18q0 113 133 244z" />
    <glyph glyph-name="six" unicode="6" 
d="M728 1868l68 -7h26q18 -10 18 -29v-11q0 -111 -130 -239l-37 -14h-18l-76 3q-101 -49 -228 -239q-152 -262 -152 -507v-21q128 188 315 249q94 33 152 33h4q151 0 224 -76q149 -125 149 -300q0 -393 -330 -645q-121 -65 -235 -65q-175 0 -272 112q-75 64 -119 163
q-87 191 -87 344q0 431 366 952q245 297 362 297zM239 634q52 -155 141 -239q95 -98 232 -98h22q84 0 177 58q32 23 32 126v33q0 106 -144 228q-62 47 -152 47h-29q-108 -8 -236 -87z" />
    <glyph glyph-name="seven" unicode="7" 
d="M980 1855q19 -18 19 -55q0 -71 -124 -517q-110 -507 -241 -1032q-59 -192 -164 -251h-25q-10 0 -15 29v22l95 386q160 722 269 1119q-391 0 -637 -47l-142 -15q-15 16 -15 29v11q0 112 131 241q0 16 226 40q122 36 580 36z" />
    <glyph glyph-name="eight" unicode="8" horiz-adv-x="1248" 
d="M658 1845h34l16 -11h15q210 0 277 -134q12 -41 16 -95q0 -153 -99 -342h4q97 -22 205 -152q107 -157 107 -369q0 -290 -198 -563q-140 -179 -305 -179h-91q-305 0 -468 148q-89 60 -137 187q-34 87 -34 213q0 341 285 654h4l-4 38q0 327 301 575q48 30 72 30zM495 1495
v-27q0 -64 106 -137l99 -15q61 0 106 42v15q0 122 -178 145l-46 7l-30 -3h-8l-19 15q-27 0 -30 -42zM449 997h-107q-67 0 -118 -95q-15 -48 -15 -111v-49q0 -138 111 -270q96 -81 220 -130q0 -17 324 -34h3q133 12 133 65q23 65 23 118v49q0 221 -182 373q-64 49 -179 49
q0 7 -57 8h-65q-11 0 -23 38l-30 4z" />
    <glyph glyph-name="nine" unicode="9" 
d="M610 1852q19 0 34 -22l3 3h146q190 0 307 -138q34 -78 34 -116q0 -142 -75 -303q-68 -236 -116 -468q-79 -221 -124 -434q-24 -193 -74 -265q-73 -109 -128 -109q-22 9 -22 34v3q0 121 116 524q47 127 116 445h-4q-212 -145 -382 -145h-89q-105 0 -232 63
q-120 74 -120 232q0 241 247 494q143 115 348 198zM206 1388q0 -135 123 -180q89 -44 236 -44q164 0 344 131q8 4 15 78q-21 69 -112 116q-83 41 -232 41h-34l-33 -4q-23 6 -23 19q-51 0 -273 -138z" />
    <glyph glyph-name="colon" unicode=":" horiz-adv-x="569" 
d="M276 1356q36 -18 36 -60v-24q0 -115 -152 -272q-43 -24 -64 -24h-4q-52 10 -52 48v16q0 112 136 252q61 64 100 64zM204 392h4q48 -14 48 -76q0 -140 -148 -288q-34 -28 -64 -28q-44 18 -44 80v4q0 118 120 260q47 48 84 48z" />
    <glyph glyph-name="semicolon" unicode=";" horiz-adv-x="569" 
d="M300 1365q64 -24 64 -96q0 -142 -156 -300q-49 -28 -68 -28q-72 0 -72 48l-4 40q0 129 144 292q66 44 92 44zM184 361q53 0 76 -172v-12q-9 -122 -136 -296q-54 -52 -80 -52q-25 0 -28 32v16q0 28 20 100l-36 88v16q0 122 144 264z" />
    <glyph glyph-name="semicolon" unicode="&#x37e;" horiz-adv-x="569" 
d="M300 1365q64 -24 64 -96q0 -142 -156 -300q-49 -28 -68 -28q-72 0 -72 48l-4 40q0 129 144 292q66 44 92 44zM184 361q53 0 76 -172v-12q-9 -122 -136 -296q-54 -52 -80 -52q-25 0 -28 32v16q0 28 20 100l-36 88v16q0 122 144 264z" />
    <glyph glyph-name="less" unicode="&#x3c;" horiz-adv-x="1196" 
d="M1010 1856h14q18 -8 18 -36q0 -159 -246 -357q-325 -299 -535 -471l-8 -10q212 -247 364 -354l425 -342q14 -6 14 -25v-11q0 -94 -107 -218q-35 -32 -60 -32q-28 0 -222 171q-253 193 -446 368l-203 228l-18 57v11q0 141 236 336q91 88 364 317q33 38 307 279
q66 89 103 89z" />
    <glyph glyph-name="equal" unicode="=" horiz-adv-x="1196" 
d="M240 1327l488 -12l76 4h284q20 -10 20 -32v-12q0 -124 -148 -268q-29 -16 -112 -16h-264l-512 12q-16 17 -16 32v12q0 122 144 264zM196 723l24 -8h120q97 0 704 -64q20 -15 20 -44q0 -116 -144 -264l-44 -16q-662 64 -744 64h-100q-32 0 -32 36v16q0 95 116 236
q43 44 80 44z" />
    <glyph glyph-name="greater" unicode="&#x3e;" horiz-adv-x="1196" 
d="M183 1877q9 0 114 -145q252 -247 385 -342q164 -157 285 -240l8 -27v-11q0 -116 -137 -255q-21 0 -164 -164q-112 -118 -282 -331q-165 -164 -304 -332q-39 -30 -58 -30q-23 0 -26 30v12q0 159 362 510q205 248 319 373q-11 0 -179 156q-444 357 -506 514v23
q0 97 129 240q32 19 54 19z" />
    <glyph glyph-name="question" unicode="?" horiz-adv-x="1324" 
d="M564 2128h60q283 0 496 -124q152 -122 152 -160v-16q0 -122 -144 -264l-40 -16h-8l-64 16q-82 0 -348 -280q-133 -160 -168 -240q128 -67 128 -188q0 -197 -168 -340l-32 -8q-24 8 -24 32v12l4 76q-18 54 -84 92q-68 29 -68 60v28q9 125 232 476q107 162 344 396
q12 0 40 36v4q-203 80 -392 80h-20l-16 4l-16 -4h-32q-41 0 -116 -16q24 -58 88 -104l4 -24v-8q0 -122 -144 -264l-40 -16h-4q-78 0 -184 288v24q0 100 132 280q80 83 280 148q80 20 152 20zM560 344h12q28 -20 28 -52v-12q0 -122 -144 -264l-40 -16q-35 0 -40 56
q0 118 144 272z" />
    <glyph glyph-name="at" unicode="@" horiz-adv-x="1507" 
d="M872 1862q60 0 177 -33q234 -168 305 -405q41 -143 41 -206q0 -290 -225 -596q-107 -140 -199 -140h-7q-150 0 -210 236q-133 -173 -224 -173q-43 0 -125 44q-41 40 -41 92q0 225 258 497q60 59 125 103q31 33 55 33h4q38 0 92 -85q0 -101 92 -368q56 -77 121 -77h15
q66 80 66 202q0 130 -95 320q-95 148 -236 232q-97 22 -125 22q-200 0 -350 -118q-145 -192 -184 -412v-103q0 -172 122 -393q104 -118 165 -140q190 -92 361 -92q136 0 210 44q11 0 235 103h15q18 -9 18 -29v-12q0 -97 -110 -224q-71 -60 -357 -169q-14 -8 -154 -15
q-165 0 -372 88q-84 37 -173 140q-90 91 -151 364q-11 69 -11 133v62q0 202 173 552q98 174 221 324q173 150 294 170q110 29 184 29zM567 905q0 -34 106 -59h4q11 0 26 118q0 9 -30 33h-3q-54 -25 -103 -92z" />
    <glyph glyph-name="A" unicode="A" horiz-adv-x="963" 
d="M754 1867h3q22 -22 34 -23l6 -24v-9l-10 -97v-13l63 -638q27 -333 74 -631q33 -155 33 -196v-7q0 -89 -110 -206q-22 -19 -43 -23q-31 0 -43 133q-10 31 -10 56q0 12 -143 20h-143l-90 4q-232 -8 -232 -57q-64 -102 -113 -113h-13q-17 9 -17 27v10q0 59 169 435
q240 551 422 1093v26q0 90 113 210q27 23 50 23zM618 1319q-184 -504 -349 -861v-6h3q83 30 190 30h242v3l-83 834h-3z" />
    <glyph glyph-name="B" unicode="B" horiz-adv-x="1076" 
d="M652 1865q167 0 221 -116l11 -72q0 -209 -243 -482h4l65 7h50q208 0 294 -210q8 0 14 -152q0 -150 -145 -384q-101 -141 -202 -235q-152 -141 -243 -163q-15 0 -105 -54l-18 -4q-51 34 -51 98q-112 496 -112 630q-47 489 -47 702q-7 8 -7 40q-20 -9 -80 -65l-36 -11h-4
q-18 10 -18 29v18q0 108 148 257q218 163 460 163zM348 1550q0 -99 25 -442h4q63 89 304 341l3 3v4q0 87 -126 108l-47 4q-148 -5 -163 -18zM398 866q22 -160 105 -555q181 71 232 131q134 125 134 195v8q0 99 -36 141q-68 119 -210 119h-51q-90 0 -174 -39z" />
    <glyph glyph-name="C" unicode="C" horiz-adv-x="1260" 
d="M904 1843h38q175 0 235 -140l4 -30q0 -125 -137 -261q-27 -19 -41 -19q-27 0 -34 60q-62 80 -174 80h-31q-126 0 -306 -121q-137 -112 -182 -227q-46 -86 -64 -273l-4 -45q0 -140 38 -190q88 -161 144 -212q39 -51 136 -94q88 -42 182 -61q261 20 261 34l242 174l23 4
q26 -6 26 -34v-11q0 -88 -106 -220q-167 -144 -329 -234l-276 -23q-212 50 -337 155q-108 123 -197 314l-15 159q26 316 61 371q162 501 548 746q186 98 295 98z" />
    <glyph glyph-name="D" unicode="D" horiz-adv-x="889" 
d="M477 1873q303 0 381 -157q46 -100 46 -292q0 -282 -356 -911l-256 -353q-137 -160 -182 -160q-21 7 -21 28v36q-19 0 -21 46l7 75l-14 659v3q0 166 21 581v78h-4l-28 -10q-50 11 -50 49v8q0 98 121 227q118 64 199 72q40 14 157 21zM274 1570q-18 -321 -21 -527l18 -651
l-4 -50v-4h4q97 147 195 274q243 437 243 599v32q0 269 -161 310q-93 28 -203 28q-71 0 -71 -11z" />
    <glyph glyph-name="E" unicode="E" horiz-adv-x="1212" 
d="M269 1850h66l387 -11h174l3 -4l4 4l22 -4q228 0 228 -18l8 -30q0 -106 -133 -243l-40 -15l-675 15v-18q0 -71 -48 -428q42 33 280 33h115q261 -11 261 -36l4 -15v-15q0 -107 -133 -240l-37 -14l-228 18h-162l-118 -4l-44 -523h3l229 33l177 8h405q159 -8 159 -22l7 -30
q0 -98 -118 -228q-32 -30 -59 -30h-48l-96 11q-653 0 -715 -37l-95 -7h-15q-37 0 -37 63l48 586q0 131 63 637v192q0 65 -15 103q0 116 132 251q27 18 41 18z" />
    <glyph glyph-name="F" unicode="F" horiz-adv-x="1149" 
d="M1089 1941h19q18 -9 18 -30v-18q0 -89 -107 -219q-39 -39 -71 -44l-18 7q-452 -15 -652 -48l-15 -4l-26 -422q239 82 337 82q137 -12 137 -37l4 -23q0 -108 -133 -244l-41 -15l-122 15q-50 0 -200 -45l-12 -318v-59l8 -234q0 -133 -145 -274l-37 -11q-22 8 -22 30l-7 281
q0 272 70 1234h-4l-14 -4h-37q-19 9 -19 30v11q0 115 137 252l41 14l18 -3q315 73 474 74q53 10 419 22z" />
    <glyph glyph-name="G" unicode="G" horiz-adv-x="1512" 
d="M836 1855h67q32 0 39 -46q0 -105 -123 -239l-43 -17h-7q-16 17 -45 17q-166 0 -323 -175q-175 -236 -194 -425q-14 -84 -14 -194v-45q0 -48 70 -271q107 -116 162 -116q120 -56 218 -56q179 0 474 155q195 128 204 203q-17 110 -112 187l-85 56q-133 0 -365 -67
q-155 -64 -155 -91q-103 -109 -140 -109q-21 7 -21 28v10q0 134 228 341q121 87 242 116q213 60 362 60q172 -92 222 -232q11 0 14 -91q0 -213 -225 -475q-169 -173 -288 -224q-105 -67 -327 -130q-84 -25 -183 -25q-95 0 -291 88q-134 105 -134 165q-63 198 -63 288v39
q0 266 77 460q88 236 243 453q192 271 442 355z" />
    <glyph glyph-name="H" unicode="H" horiz-adv-x="1151" 
d="M1036 1860h11q18 -9 18 -28v-15l-7 -63l35 -675l11 -742q0 -116 -135 -248l-35 -11q-25 8 -25 46l-4 440v22h-3q-594 -122 -689 -181l-4 -4v-124q0 -146 -138 -266l-32 -11q-20 0 -25 46l11 809l-25 671q0 151 131 274q26 17 43 17q32 -13 32 -53l-11 -67l25 -614
l-3 -267v-152l-4 -36h4q48 54 266 125l415 95v7h4l-4 11l-32 586l-3 92q0 187 145 305z" />
    <glyph glyph-name="I" unicode="I" horiz-adv-x="765" 
d="M705 1891q14 -14 14 -28v-17q0 -87 -108 -211q-32 -31 -74 -31h-14q-12 0 -25 -302l-59 -969l305 21q18 0 21 -35q0 -112 -130 -238q0 -16 -333 -35l-284 -46q-18 9 -18 28v11q0 117 140 242l120 24v4q66 1114 66 1203v74q-128 -14 -235 -35q-21 0 -24 28v14
q0 100 119 228q18 18 179 42z" />
    <glyph glyph-name="J" unicode="J" horiz-adv-x="1307" 
d="M830 1857l422 -4h39q17 -9 17 -28v-10q0 -108 -126 -232l-35 -14h-57v-229q0 -130 -45 -549q-107 -423 -342 -619q-78 -92 -302 -158q-107 -14 -197 -14q-102 40 -120 95q-61 112 -73 236q-11 76 -11 133v11q0 122 56 334q87 172 148 172q22 0 25 -28v-14l-36 -243v-31
q0 -137 53 -271q32 -76 88 -99l25 -7q343 0 457 218q56 150 56 299l25 282v288l-7 123v42l3 25l-91 4l-303 -4l-24 -3q-21 7 -21 28v21q0 90 119 221q29 18 50 18z" />
    <glyph glyph-name="K" unicode="K" horiz-adv-x="1243" 
d="M182 1865h8q49 0 59 -446v-72l-4 -379l-4 -47h4q297 222 616 501q215 187 265 269q51 59 83 59q25 0 28 -31v-24q0 -202 -514 -620l-197 -170q255 -83 489 -202q155 -94 159 -106l3 -16v-16q0 -116 -146 -261l-43 -12q-323 203 -755 332l-4 -12q0 -418 -31 -418
q-87 -194 -166 -194h-4q-15 0 -24 47q28 730 28 996v182q0 166 -32 359v4q0 121 142 261z" />
    <glyph glyph-name="L" unicode="L" horiz-adv-x="958" 
d="M232 1889q17 -9 17 -27v-10q-9 -82 -24 -793q-13 -143 -13 -515v-210h34q250 0 457 -44q240 -11 240 -37l4 -20v-7q0 -89 -112 -214q-32 -20 -51 -20q-63 10 -247 24q-174 40 -396 40h-44l-38 -6h-17q-11 0 -20 37l3 68v78q0 350 21 870h3l-3 3l3 17q0 583 24 583
q55 141 142 183h17z" />
    <glyph glyph-name="M" unicode="M" horiz-adv-x="1415" 
d="M199 1854h7q27 -20 124 -236q228 -337 372 -567q0 9 375 608q109 195 177 195q37 0 37 -214l45 -758q15 -541 53 -593l3 -23q0 -106 -120 -236q-32 -30 -60 -30q-67 0 -79 623l-48 777v26h-4q-249 -392 -300 -499q-83 -199 -147 -225q0 -10 -37 -19h-19q-80 84 -203 300
l-146 218h-4l-4 -413v-278q0 -225 -56 -289q-75 -120 -124 -120q-41 0 -41 68l15 79l8 1328q0 124 135 259q27 19 41 19z" />
    <glyph glyph-name="N" unicode="N" horiz-adv-x="1387" 
d="M1319 1836q27 0 27 -68v-64l13 -355v-61l4 -13l-4 -4l4 -40v-146l6 -574q0 -252 -44 -315q-72 -125 -131 -132q-13 1 -27 34q-159 180 -413 561q0 18 -318 409q-38 48 -193 284h-6v-3q-10 -382 -51 -1075q0 -163 -142 -271l-20 -3h-4q-12 0 -20 41l44 848q13 301 13 555
v64q0 166 142 274l61 27q16 0 44 -58q120 -146 284 -402l315 -395q0 -9 274 -399h3q0 592 -20 963v37q0 163 132 271z" />
    <glyph glyph-name="O" unicode="O" horiz-adv-x="1593" 
d="M911 1856h38q24 -31 79 -31q160 -71 316 -179q113 -121 168 -275q48 -158 48 -226q0 -570 -264 -843q-88 -105 -158 -147q-221 -145 -303 -145q-18 -10 -86 -10h-3q-250 0 -413 110q-69 31 -168 127q-68 68 -113 169q-52 142 -52 247q0 491 364 894q129 136 231 185
q198 124 316 124zM189 907v-37q0 -259 217 -430q215 -158 443 -158h41q127 0 289 113q122 73 151 169q41 153 41 388q0 63 -72 251q-53 99 -130 182q-270 169 -341 169h-7l-27 -11q-19 0 -28 31q-111 -10 -299 -134q-118 -85 -192 -203q-86 -180 -86 -330z" />
    <glyph glyph-name="P" unicode="P" horiz-adv-x="1193" 
d="M650 1845h114q146 0 293 -108q131 -120 131 -279q0 -239 -188 -509q-117 -130 -202 -161q-249 -98 -387 -98q-62 -13 -209 -17l-10 -192v-148l7 -80q0 -110 -115 -229q-22 -19 -44 -24q-33 0 -33 138v40q0 197 23 462l-3 750q0 27 -27 139v13q0 101 118 219l34 17l20 -4
q159 61 289 61q29 10 189 10zM212 1545l3 -639v-4h4q21 47 121 47q249 0 495 81q148 54 148 121q20 41 20 81v34q0 111 -121 215q-131 91 -279 91q-232 0 -391 -27z" />
    <glyph glyph-name="Q" unicode="Q" horiz-adv-x="1532" 
d="M924 1854h9q25 -28 51 -28q127 -43 220 -110q101 -89 122 -145q182 -275 182 -424l3 -22q0 -342 -201 -688v-3q176 -189 176 -198v-13q0 -97 -113 -210l-34 -13q-15 0 -167 173q-33 41 -50 53q-251 -213 -446 -213q-43 -10 -104 -10q-200 0 -327 107q-81 52 -163 176
q-82 182 -82 311v88q0 217 154 541q76 140 211 301q160 169 223 192q208 132 317 132zM742 1565q-16 5 -16 16q-247 -78 -399 -280q-119 -160 -151 -377l-6 -88l3 -16h-3l3 -3v-38q0 -103 78 -273q97 -127 164 -160q103 -85 279 -85h13q220 19 220 34q12 0 91 48
q-69 83 -100 88l-10 31v6q0 96 113 208l32 12h3q34 0 176 -166h3q104 182 104 414q0 123 -129 327q-65 118 -132 186q-145 108 -289 135q-37 -19 -47 -19z" />
    <glyph glyph-name="R" unicode="R" horiz-adv-x="963" 
d="M352 1848h44q140 0 366 -79q167 -78 167 -232v-44q0 -209 -218 -492q-75 -75 -216 -195q165 -88 332 -222q133 -122 133 -140v-17q0 -100 -127 -225l-37 -11l-174 157q-195 148 -414 250q-18 -420 -30 -420q-74 -159 -137 -175l-10 -3q-23 0 -28 44q35 662 35 950
q0 463 -21 516l3 3q-12 0 -20 41q0 103 123 239q97 55 229 55zM219 1568l3 -41v-280l3 -17h-3l3 -4v-3l-6 -325q22 29 174 69q132 55 229 150q123 87 123 188q0 117 -103 167q-83 50 -253 82l-112 14h-58z" />
    <glyph glyph-name="S" unicode="S" horiz-adv-x="1192" 
d="M669 1838h24q223 0 406 -144l14 -38q0 -92 -101 -217q-40 -39 -67 -39h-3q-51 61 -109 81q-137 70 -255 70h-39q-161 -20 -294 -123q-52 -58 -52 -150q17 -94 59 -140q68 -91 333 -91q194 -8 430 -109q126 -76 172 -206l7 -91q0 -166 -182 -392q-226 -249 -553 -249h-35
q-220 0 -361 207v14q0 109 126 234l39 14q9 0 112 -105q89 -77 224 -77h38q231 0 389 140l10 18q0 112 -129 199q-49 34 -224 84q-122 35 -319 35q-151 0 -262 116q-67 112 -67 182l4 17v21q0 135 108 350q59 107 179 221q193 150 378 168z" />
    <glyph glyph-name="T" unicode="T" horiz-adv-x="1034" 
d="M1016 1876q21 -7 21 -27v-11q0 -106 -123 -225q0 -21 -341 -61l-7 -7q-13 -504 -58 -1187q0 -186 -51 -249q-70 -109 -112 -109q-24 0 -28 44l55 996l7 345v51q0 49 10 95q-85 0 -307 -40l-51 -4h-14q-17 9 -17 27v11q0 106 126 228q21 10 137 24q109 26 525 61
q197 38 228 38z" />
    <glyph glyph-name="U" unicode="U" horiz-adv-x="1145" 
d="M1052 1863q33 0 33 -79v-101l42 -398l22 -402q0 -466 -274 -737q-155 -146 -315 -146h-75q-174 0 -339 128q-94 98 -131 296q-11 57 -15 139q0 202 109 898l-8 23v11q0 117 139 252l42 15h11q23 0 23 -76q0 -33 -68 -465q-41 -345 -41 -432q0 -183 105 -350
q150 -131 323 -131h64q138 0 214 98q30 104 30 251v12q-27 525 -57 683l-11 267q40 152 139 229z" />
    <glyph glyph-name="V" unicode="V" horiz-adv-x="1480" 
d="M165 1838h7q24 0 133 -266q81 -222 224 -504q189 -432 276 -669h7l347 889q180 522 287 522q24 0 24 -35v-7q0 -50 -105 -287q0 -19 -374 -963q-157 -426 -196 -451q-56 -67 -91 -67q-22 0 -74 133q-41 87 -108 273l-217 497q-84 149 -242 553l-63 119v25q0 77 98 199
q39 39 67 39z" />
    <glyph glyph-name="W" unicode="W" horiz-adv-x="1464" 
d="M1444 1852q26 -491 26 -43v-13q0 -37 -9 -53l3 -39v-26q0 -367 -76 -1066q-22 -372 -52 -372q-68 -138 -135 -138q-23 0 -66 89q-162 223 -293 506l-72 122l-263 -655q-78 -150 -145 -164q-39 0 -63 132q-135 501 -135 644q-59 545 -108 750q-53 49 -53 63l-3 16
q6 90 105 204q31 23 43 23h16q79 -53 79 -131q43 -177 119 -879l102 -431h6l178 441q25 118 36 221q79 181 152 181q12 0 72 -112q78 -131 270 -500q5 0 39 -59h3q63 568 63 855v36l-3 158q0 100 121 227q25 13 43 13z" />
    <glyph glyph-name="X" unicode="X" horiz-adv-x="1366" 
d="M1313 1842q22 -205 22 -30v-18q0 -87 -179 -332q-151 -252 -276 -422q-41 -53 -41 -63q412 -483 455 -567l4 -22v-8q0 -102 -131 -242l-37 -15h-15l-116 153l-361 432q-286 -379 -370 -499q-60 -157 -145 -202l-30 -7q-22 8 -22 30v22q0 151 414 668l67 89
q-258 325 -477 634q-27 28 -64 41q-11 14 -11 34v7q0 114 134 246l38 15h7q58 -1 186 -201q260 -359 388 -500q182 249 414 626q94 131 146 131z" />
    <glyph glyph-name="Y" unicode="Y" horiz-adv-x="1046" 
d="M170 1865q27 -20 213 -259q117 -167 234 -312q288 395 351 461q53 36 71 36q21 0 25 -43q0 -79 -100 -206q-45 -42 -294 -386q-50 -97 -50 -114q-10 -217 -10 -485v-128l18 -174v-10q0 -89 -110 -217q-37 -28 -57 -28q-29 0 -39 152q-6 0 -7 78v54q7 686 25 737
q-115 143 -273 365q-157 186 -167 210v28q0 91 121 223q29 18 49 18z" />
    <glyph glyph-name="Z" unicode="Z" horiz-adv-x="1152" 
d="M581 1863h86q108 0 324 -20l159 7q13 -14 13 -27v-10q0 -95 -198 -353q-339 -530 -522 -898l-156 -281v-7h265q310 0 449 -6l33 3q20 -8 20 -30v-3q0 -106 -122 -225l-37 -13l-816 7q-17 0 -20 33v10q0 64 156 327q329 621 456 819q140 239 234 376v4h-66l-271 16h-125
q-289 0 -420 -36h-6q-17 8 -17 26v10q0 87 99 202q50 52 169 52q138 17 313 17z" />
    <glyph glyph-name="bracketleft" unicode="[" horiz-adv-x="861" 
d="M225 1860q156 0 325 -23l130 -8h4l42 8q23 -8 23 -30v-20q0 -109 -138 -248q-41 -23 -76 -23q-137 0 -252 23l-4 -4l4 -57v-15q0 -163 -46 -596l-27 -474v-30q198 -27 504 -50q27 -12 27 -34v-12q0 -116 -138 -252l-38 -15q-557 41 -557 73l-8 64v35l38 634
q35 240 35 370v73q0 129 -31 298q0 134 115 271q45 42 68 42z" />
    <glyph glyph-name="backslash" unicode="\" horiz-adv-x="569" 
d="M164 1860q33 0 39 -78q25 -80 128 -652q74 -455 143 -656q34 -182 46 -182q6 0 11 -32q0 -113 -128 -242q-26 -18 -40 -18h-3q-43 0 -61 157q-85 303 -139 591q-53 348 -160 859v4q0 108 128 235z" />
    <glyph glyph-name="bracketright" unicode="]" horiz-adv-x="569" 
d="M332 1848h18q149 0 149 -22l23 -246h-4l4 -4v-71q0 -407 29 -827l15 -380q0 -165 -145 -287l-30 -11h-4q-296 34 -353 34q-15 15 -15 29v15q0 108 134 242l37 15h7l157 -7q-34 573 -34 719l-3 324l-15 168l-75 3h-37q-73 0 -156 -40h-12q-22 9 -22 33v11q0 90 112 239
q46 44 74 44l11 -7q74 26 135 26z" />
    <glyph glyph-name="asciicircum" unicode="^" horiz-adv-x="961" 
d="M472 1865h12q20 -3 76 -124l180 -264l4 -20v-8q0 -110 -140 -260l-40 -16h-8q-27 0 -104 124q-124 179 -124 204h-4q-233 -252 -284 -252h-12q-20 10 -20 32v12q0 153 256 372q162 200 208 200z" />
    <glyph glyph-name="underscore" unicode="_" horiz-adv-x="1574" 
d="M500 360h60l664 -32q69 0 240 28q24 -10 24 -36v-4q0 -127 -148 -272q-123 -44 -272 -44l-648 32h-16l-324 -4l-32 -12h-4q-44 9 -44 44v16q0 100 124 244q40 32 64 32z" />
    <glyph glyph-name="grave" unicode="`" horiz-adv-x="682" 
d="M199 1856h12q108 0 416 -344l8 -40q0 -100 -124 -244q-38 -32 -56 -32h-8q-23 0 -112 108q-176 182 -228 196q-5 17 -80 32l-12 32v12q0 122 144 264z" />
    <glyph glyph-name="a" unicode="a" horiz-adv-x="750" 
d="M450 1199q123 0 186 -124q63 -83 103 -481l-4 -302l11 -38q0 -103 -121 -233l-41 -18h-7q-31 12 -31 131v7q-130 -118 -220 -127q-59 -14 -86 -14q-148 0 -188 58q-27 0 -52 97v24q0 207 289 477l192 114v3q-57 144 -161 144h-7q-29 0 -152 -158q-39 -27 -51 -27h-14
q-17 7 -17 34q0 141 265 388q63 45 106 45zM192 361q38 -79 162 -79h31q60 0 154 51l11 14v27q0 72 -21 186q-87 -27 -182 -82q-109 -61 -155 -110v-7z" />
    <glyph glyph-name="b" unicode="b" horiz-adv-x="904" 
d="M185 1853q44 0 52 -230l-28 -619q126 139 226 139h46q103 0 229 -98q185 -156 185 -393q0 -278 -216 -529q-144 -136 -313 -136h-63q-23 0 -118 52v-4q-42 -134 -140 -201l-17 -4q-28 0 -28 63q0 649 45 1504v49q0 61 -24 153q0 110 125 237q25 17 39 17zM199 708
l-4 -317h4l34 14q10 0 49 -39q62 -54 160 -94l18 -3q140 0 226 62q17 49 17 81v31q0 242 -243 383q-43 21 -136 35q-66 0 -66 -35q0 -15 -59 -115v-3z" />
    <glyph glyph-name="c" unicode="c" horiz-adv-x="1024" 
d="M612 1172h76q51 0 144 -56q25 0 28 -32v-16q0 -122 -144 -264l-40 -16h-12l-108 52l-72 8q-136 0 -260 -104l-4 -56v-8q0 -92 72 -196q188 -148 292 -156h16q74 0 260 100h8q28 -9 28 -48q0 -104 -136 -256q-85 -67 -268 -120l-48 -4h-28q-207 53 -344 200
q-68 125 -68 208l-4 52q0 297 272 564q195 148 340 148z" />
    <glyph glyph-name="d" unicode="d" horiz-adv-x="829" 
d="M800 1849q25 0 25 -64v-54l-16 -867v-298q-25 -384 -54 -384q-66 -140 -125 -140h-9q-10 0 -16 38l6 67q-140 -113 -285 -147q-117 15 -166 48q-160 92 -160 243q25 220 80 342q49 101 179 247q120 108 307 153l45 7h29q9 203 9 422v121q0 154 125 256zM176 480
q0 -101 141 -179q39 -25 131 -39q131 41 185 96v359l-16 -4h-12q-10 0 -23 39q-36 25 -77 25h-19q-65 -3 -217 -76q-80 -59 -80 -144q-4 0 -13 -77z" />
    <glyph glyph-name="e" unicode="e" horiz-adv-x="965" 
d="M494 1199h13q278 0 357 -119q97 -115 97 -255q0 -201 -153 -312q-38 -9 -437 -29l-139 -17q72 -146 162 -185q37 -10 73 -10h17q194 0 278 63q37 16 53 16q17 0 20 -33v-7q0 -96 -120 -215q-146 -96 -334 -96h-50q-97 0 -142 50q-70 57 -119 152q-70 131 -70 255v17
q0 291 242 593q136 122 252 132zM182 702q114 37 404 60l149 6v4q-42 84 -119 119q-82 36 -235 36h-17q-126 -35 -126 -63q-56 -74 -56 -162z" />
    <glyph glyph-name="f" unicode="f" horiz-adv-x="812" 
d="M526 1835h27q83 0 171 -90q66 -116 66 -168v-12q0 -92 -108 -199l-30 -12q-22 0 -33 64q-33 100 -90 138q-69 36 -112 36q-42 -8 -42 -84l-36 -481h24q119 0 175 24h6q18 -6 18 -24v-9q0 -100 -121 -207q-58 -24 -84 -24h-15l-3 -3h-3l3 -315v-262q0 -87 -108 -195
l-30 -12h-9q-18 0 -18 60v15l-3 682l3 24l-129 -9h-30q-15 8 -15 24v15q0 83 108 198l36 15h6l9 -6h6l21 3q28 436 45 436q0 31 75 189q100 151 175 174q27 15 45 15z" />
    <glyph glyph-name="g" unicode="g" horiz-adv-x="927" 
d="M864 1272q32 0 32 -80v-316q-20 -275 -28 -748q-36 -236 -56 -548q-18 -131 -156 -340q-121 -189 -312 -260q-37 -12 -68 -12q-137 0 -208 292l-8 88q0 200 156 332l32 12h12q15 0 24 -48l-4 -36v-28q0 -131 96 -256q37 -28 52 -28q90 0 168 96q20 288 56 568l4 212
q-163 -168 -344 -168q-70 0 -196 60q-120 101 -120 244l-4 68q21 216 208 504q142 170 208 188q119 72 204 80l32 4h24q47 0 64 -8q80 128 132 128zM212 592q0 -130 68 -180q17 -32 84 -56q82 -24 108 -24q114 0 192 80l12 212v120l-20 -4q-28 0 -32 52q-33 32 -116 32h-12
q-62 0 -176 -56q-67 -32 -100 -128z" />
    <glyph glyph-name="h" unicode="h" horiz-adv-x="950" 
d="M196 1924q28 0 28 -112q12 -80 12 -148v-48l4 -468q202 192 396 192h28q169 0 256 -288q24 -90 24 -220v-32q-28 -335 -48 -456l-60 -188q-89 -156 -156 -156q-19 0 -28 44q0 31 40 184l32 316v80q0 248 -152 368q-35 20 -72 20h-24q-113 0 -228 -88l-16 -60v-528
q0 -194 -160 -324l-32 -8q-28 0 -28 80v416l8 388l-4 580l-16 180q3 97 132 248q41 28 64 28z" />
    <glyph glyph-name="i" unicode="i" horiz-adv-x="312" 
d="M236 1808h8q20 -10 20 -32v-12q0 -122 -148 -272q-29 -20 -44 -20q-30 0 -36 40v12q0 124 148 268zM224 1303q32 0 32 -89v-134q0 -98 -32 -571q0 -262 -36 -317q-92 -192 -160 -192q-20 0 -28 54q0 155 36 714v165q0 214 156 357z" />
    <glyph glyph-name="j" unicode="j" horiz-adv-x="742" 
d="M631 1886q24 -6 24 -48q0 -104 -136 -256q-73 -44 -88 -44h-12q-20 10 -20 32v12q0 121 144 268q57 36 88 36zM655 1314h8q48 0 48 -356v-452q0 -566 -404 -860q-91 -56 -164 -56h-60q-92 9 -92 60v4q0 123 144 268l44 16l68 -24q144 0 208 96q36 82 36 208v620l-20 196
q0 122 144 264z" />
    <glyph glyph-name="k" unicode="k" horiz-adv-x="819" 
d="M243 1865q26 0 26 -65v-68q0 -50 -49 -586l-23 -443q127 149 279 275q136 115 204 204q44 51 71 51q26 0 26 -25v-13q0 -144 -311 -415v-3q130 -314 201 -466v-16q0 -99 -117 -214l-32 -13h-6q-29 23 -111 223l-126 305h-3q-74 -78 -87 -78l-7 -155v-94q0 -157 -129 -263
l-26 -6q-23 0 -23 65v77l49 907l42 469v78q0 156 126 259z" />
    <glyph glyph-name="l" unicode="l" horiz-adv-x="285" 
d="M230 1872h7q21 0 21 -70v-49q-28 -551 -38 -1251q-36 -349 -56 -349q-78 -153 -140 -153q-24 0 -24 59q31 234 31 387q0 293 35 1081v42l-42 -7q-14 14 -14 28v10q0 120 143 244z" />
    <glyph glyph-name="m" unicode="m" horiz-adv-x="1477" 
d="M188 1208q36 0 36 -84v-172q173 197 284 216q21 8 84 8h8q107 0 176 -108q29 -47 56 -196h4q117 185 304 252q45 12 116 12q72 0 144 -100q40 -70 40 -356v-4q0 -238 -72 -488q-99 -188 -164 -188h-12q-20 10 -20 32v16q48 257 48 368v56q0 276 -36 276q-47 60 -92 60h-4
q-176 0 -240 -172q-32 -274 -76 -344q-90 -136 -140 -136h-12q-16 0 -24 52l20 160v212q0 99 -60 212q-54 56 -116 56h-24q-103 0 -168 -108l-12 -80v-60q0 -72 36 -212l4 -56q0 -177 -156 -308l-32 -12q-14 0 -28 20q-36 0 -36 84l-24 372l4 100v216l-4 144q47 167 152 248
z" />
    <glyph glyph-name="n" unicode="n" horiz-adv-x="1047" 
d="M225 1206h5q37 0 47 -168q174 98 304 98q112 0 183 -56q178 -120 178 -328v-60q0 -152 -51 -437q-44 -100 -150 -182q-45 -21 -66 -21q-28 8 -28 28v7l38 339v109q0 146 -85 213q-55 75 -164 101h-28q-39 0 -122 -21l-5 -122v-73q0 -142 24 -290v-63q0 -155 -183 -270
l-38 -10q-46 0 -46 154q-19 194 -19 437v241q0 50 -19 126q0 101 155 224q37 24 70 24z" />
    <glyph glyph-name="o" unicode="o" 
d="M643 1192h37q177 -45 272 -160q84 -109 84 -280l3 -43q0 -363 -312 -622q-185 -87 -233 -87h-18q-160 2 -160 25q-251 110 -251 175q-36 41 -65 182v18q0 308 189 549q153 159 182 159q93 73 210 73q25 11 62 11zM414 879l-25 4q-53 -17 -138 -76q0 -7 -33 -40
q-18 -80 -18 -149q7 -81 76 -189q120 -81 244 -127l80 -4h7q67 0 185 62q17 0 37 32q10 65 10 117q0 173 -87 261q-80 88 -232 128z" />
    <glyph glyph-name="p" unicode="p" 
d="M182 1251q35 0 35 -109q20 -62 20 -124v-11h4q126 136 186 155q84 66 206 66q26 11 66 11h38q189 -48 291 -170q90 -117 90 -299l4 -47q0 -387 -334 -663q-198 -93 -249 -93h-19q-143 0 -178 27l-94 46v-8h-4l4 -3v-4l-4 -617q0 -165 -147 -295q-15 -12 -35 -12h-12
q-12 0 -19 51l4 714v12l-4 27h4l-4 4v372l-19 105v7l19 241q0 147 -31 322q0 139 140 276q28 19 42 19zM454 906l-27 3q-113 -38 -183 -124v-233q0 -30 63 -128q127 -86 260 -135l85 -4h8q71 0 198 66q18 0 38 35q12 69 12 124q0 185 -93 279q-86 94 -248 136z" />
    <glyph glyph-name="q" unicode="q" horiz-adv-x="1448" 
d="M715 1312h40q120 -23 240 -116q74 116 124 116q32 0 32 -80v-264q20 -235 20 -452q0 -507 -16 -1064v-232q122 116 212 116h56q32 0 32 -44q0 -106 -128 -248q-24 -36 -132 -36q-43 -9 -104 -92q-69 -96 -108 -96h-20q-28 0 -28 180v188q16 522 16 1020v24
q-147 -160 -204 -160q-130 -72 -216 -72q-176 2 -176 28q-276 121 -276 192q-40 45 -72 200v20q0 339 208 604q169 176 200 176q103 80 232 80q27 12 68 12zM463 968l-28 4q-59 -19 -152 -84q0 -8 -36 -44q-20 -88 -20 -164q8 -89 84 -208q131 -89 268 -140l88 -4h8
q74 0 204 68q19 0 40 36q12 72 12 128q0 191 -96 288q-88 97 -256 140z" />
    <glyph glyph-name="r" unicode="r" horiz-adv-x="906" 
d="M519 1199h24q133 0 235 -228l7 -42q0 -98 -112 -228q-36 -28 -56 -28t-32 70q-69 114 -105 140q-35 29 -80 29h-11q-86 0 -161 -81q-18 -16 -35 -116v-319l10 -147v-7q0 -88 -108 -214q-36 -28 -56 -28q-39 0 -39 238v586q0 169 137 280l28 11q28 0 28 -70v-49
q182 203 326 203z" />
    <glyph glyph-name="s" unicode="s" horiz-adv-x="824" 
d="M455 1192h72q120 -10 135 -68v-13q0 -99 -116 -213l-32 -13l-62 32q-21 9 -97 13q-161 -24 -161 -42q90 -77 219 -77q198 -26 259 -74q100 -81 100 -227q0 -154 -158 -336q-175 -174 -404 -174q-107 20 -107 58v3q0 94 107 207q26 23 48 23l84 -26q151 0 249 81
q0 73 -74 135q-53 44 -291 71q-77 0 -187 78q-39 56 -39 81v29q0 117 123 284q104 108 184 132q103 36 148 36z" />
    <glyph glyph-name="t" unicode="t" horiz-adv-x="847" 
d="M505 1872h9q17 -9 17 -27v-10q-10 -42 -20 -295l-16 -176q208 20 318 40q20 -7 20 -27v-13q0 -95 -109 -209q-58 -43 -190 -43q0 -7 -59 -7v-3l-27 -694q-10 -248 -40 -269q-71 -139 -129 -139q-18 0 -23 43q16 273 36 873l13 166h-3l-242 -30h-43q-17 9 -17 27v10
q0 101 119 219l34 13h10q166 14 166 27q13 348 26 348q82 176 150 176z" />
    <glyph glyph-name="u" unicode="u" horiz-adv-x="913" 
d="M176 1199q19 0 19 -46v-94q-16 -298 -16 -489q0 -156 65 -215q57 -88 180 -88h48q110 24 154 72q48 94 48 150v55q0 33 -68 326v16q0 100 117 215l33 13q29 0 39 -94q59 -212 59 -280v-66q0 -179 -183 -465q-117 -155 -254 -193q-50 -16 -94 -16h-30q-211 0 -283 248
q-10 76 -10 136q7 320 16 457v91q0 160 137 264z" />
    <glyph glyph-name="v" unicode="v" horiz-adv-x="1106" 
d="M1047 1199h11q17 -9 17 -28v-18q0 -63 -74 -187l-223 -492l-138 -354q-79 -120 -124 -120h-10q-47 58 -64 103q-25 74 -293 527l-145 265l-4 21q0 117 127 244q26 18 39 18h7q36 0 36 -67q46 -72 254 -450l152 -258q0 23 202 449q145 347 230 347z" />
    <glyph glyph-name="w" unicode="w" horiz-adv-x="1084" 
d="M927 1192q19 0 55 -82q71 -114 104 -354l6 -93q0 -426 -278 -639q-43 -24 -62 -24h-13q-88 0 -128 65q-29 36 -106 155h-3q-130 -199 -279 -199q-161 0 -213 374l-10 161l17 279l-7 72q0 128 124 247q25 17 38 17q31 0 31 -113l3 -21q-17 -190 -17 -288q0 -240 93 -405
q37 -42 86 -42q58 0 58 45q0 206 124 309q0 8 41 21h3q32 0 42 -103q65 -150 175 -275q14 -17 58 -17h17q10 0 17 171q0 231 -137 481v14q0 106 124 230z" />
    <glyph glyph-name="x" unicode="x" horiz-adv-x="1024" 
d="M169 1206h7q101 -95 216 -264q118 -144 169 -191q196 219 319 371q64 66 95 66q26 -7 26 -33v-8q0 -118 -169 -289q0 -12 -176 -209q262 -262 293 -345v-14q0 -112 -132 -242l-36 -15h-8l-161 194l-179 180q-177 -195 -312 -359q-53 -48 -77 -48h-11q-18 9 -18 29v11
q0 116 168 290q0 8 154 180q-135 153 -264 333q-73 68 -73 99v7q0 112 132 242z" />
    <glyph glyph-name="y" unicode="y" horiz-adv-x="1062" 
d="M1046 1214h4q20 -10 20 -32v-24q0 -118 -228 -512q-224 -449 -356 -816q-60 -237 -96 -512q-100 -224 -184 -224h-4q-20 11 -20 32v16q28 297 108 576l152 396q-216 257 -252 344q-204 328 -204 448q0 144 144 284q29 20 44 20q36 0 36 -92q27 -81 120 -256
q111 -199 276 -396q101 218 248 488q52 175 164 256z" />
    <glyph glyph-name="z" unicode="z" horiz-adv-x="1024" 
d="M827 1192h158q74 0 74 -25v-24q0 -114 -140 -249q-139 -100 -498 -424q-82 -89 -123 -147h7q200 31 715 77l105 17q21 -9 21 -31v-4q0 -107 -122 -231q-19 -29 -176 -42q-707 -60 -809 -109h-21q-18 9 -18 28v11q0 102 158 291q81 152 343 420l179 155h-7
q-244 0 -624 -36h-17q-18 9 -18 29v10q0 105 123 228q0 38 690 56z" />
    <glyph glyph-name="braceleft" unicode="{" horiz-adv-x="1448" 
d="M824 1836q23 0 116 -104q159 -143 336 -260q12 -14 12 -40q0 -110 -140 -260l-48 -20q-13 0 -204 136q-121 95 -256 244v24q0 122 144 264zM204 988h4q0 -24 424 -24l472 -16q48 -4 48 -44q0 -114 -144 -268l-44 -16q-948 24 -948 36q-16 21 -16 44q6 113 128 252
q48 36 76 36zM1188 572q24 -10 24 -36v-4q0 -131 -152 -276q-116 -34 -376 -212q-59 -44 -76 -44h-20q-14 0 -20 44q0 100 128 252q383 268 492 276z" />
    <glyph glyph-name="bar" unicode="|" horiz-adv-x="532" 
d="M236 2043q32 0 32 -80v-36l4 -616l4 -12h-4l4 -12q0 -617 -60 -1272q-54 -173 -148 -240q0 -8 -40 -20q-28 0 -28 40q56 710 56 1084l-8 840q0 181 156 312z" />
    <glyph glyph-name="braceright" unicode="}" horiz-adv-x="1641" 
d="M804 2024q24 -10 24 -36v-8q0 -146 -240 -372q-132 -136 -324 -356q-75 -76 -116 -76q-24 8 -24 32v12q0 136 180 304q91 117 440 472q36 28 60 28zM1340 1204q16 -17 16 -32v-16q0 -115 -140 -256q0 -28 -288 -36q-363 -32 -464 -32h-388q-20 10 -20 32v12
q0 118 136 260q32 28 60 28h4l12 -8h92q342 0 936 48h44zM184 768h12q26 0 36 -36q310 -237 500 -420l4 -32q0 -110 -140 -260l-48 -20q-12 0 -160 136l-352 284q-36 32 -36 60v12q0 116 144 260z" />
    <glyph glyph-name="asciitilde" unicode="~" horiz-adv-x="1411" 
d="M592 1151q153 0 336 -108q93 -48 164 -48q62 0 132 84q37 32 56 32h16q20 -9 20 -40q0 -137 -180 -308q-108 -96 -204 -96q-112 0 -284 108q-133 48 -200 48h-16q-164 0 -252 -84q-85 -160 -152 -160q-19 0 -28 44q0 111 140 304q186 224 452 224z" />
    <glyph glyph-name="Adieresis" unicode="&#xc4;" horiz-adv-x="1366" 
 />
    <glyph glyph-name="Aring" unicode="&#xc5;" horiz-adv-x="1366" 
 />
    <glyph glyph-name="Ccedilla" unicode="&#xc7;" horiz-adv-x="1479" 
 />
    <glyph glyph-name="Eacute" unicode="&#xc9;" horiz-adv-x="1366" 
 />
    <glyph glyph-name="Ntilde" unicode="&#xd1;" horiz-adv-x="1479" 
 />
    <glyph glyph-name="Odieresis" unicode="&#xd6;" horiz-adv-x="1593" 
 />
    <glyph glyph-name="Udieresis" unicode="&#xdc;" horiz-adv-x="1479" 
 />
    <glyph glyph-name="aacute" unicode="&#xe1;" 
 />
    <glyph glyph-name="agrave" unicode="&#xe0;" 
 />
    <glyph glyph-name="acircumflex" unicode="&#xe2;" 
 />
    <glyph glyph-name="adieresis" unicode="&#xe4;" 
 />
    <glyph glyph-name="atilde" unicode="&#xe3;" 
 />
    <glyph glyph-name="aring" unicode="&#xe5;" 
 />
    <glyph glyph-name="ccedilla" unicode="&#xe7;" horiz-adv-x="1024" 
 />
    <glyph glyph-name="eacute" unicode="&#xe9;" 
 />
    <glyph glyph-name="egrave" unicode="&#xe8;" 
 />
    <glyph glyph-name="ecircumflex" unicode="&#xea;" 
 />
    <glyph glyph-name="edieresis" unicode="&#xeb;" 
 />
    <glyph glyph-name="iacute" unicode="&#xed;" horiz-adv-x="569" 
 />
    <glyph glyph-name="igrave" unicode="&#xec;" horiz-adv-x="569" 
 />
    <glyph glyph-name="icircumflex" unicode="&#xee;" horiz-adv-x="569" 
 />
    <glyph glyph-name="idieresis" unicode="&#xef;" horiz-adv-x="569" 
 />
    <glyph glyph-name="ntilde" unicode="&#xf1;" 
 />
    <glyph glyph-name="oacute" unicode="&#xf3;" 
 />
    <glyph glyph-name="ograve" unicode="&#xf2;" 
 />
    <glyph glyph-name="ocircumflex" unicode="&#xf4;" 
 />
    <glyph glyph-name="odieresis" unicode="&#xf6;" 
 />
    <glyph glyph-name="otilde" unicode="&#xf5;" 
 />
    <glyph glyph-name="uacute" unicode="&#xfa;" 
 />
    <glyph glyph-name="ugrave" unicode="&#xf9;" 
 />
    <glyph glyph-name="ucircumflex" unicode="&#xfb;" 
 />
    <glyph glyph-name="udieresis" unicode="&#xfc;" 
 />
    <glyph glyph-name="dagger" unicode="&#x2020;" 
 />
    <glyph glyph-name="degree" unicode="&#xb0;" horiz-adv-x="819" 
 />
    <glyph glyph-name="cent" unicode="&#xa2;" 
d="M420 1739h4q15 0 24 -48l-4 -76v-32l-4 -40q180 -21 180 -88v-12q0 -122 -144 -264l-40 -16l-76 40l-60 12l-76 -8v-12q0 -97 140 -132h8q24 0 156 44h4q21 0 24 -40v-8q0 -119 -148 -264q-17 0 -40 -92q-99 -176 -160 -176q-32 0 -32 80q0 85 20 128q-107 25 -144 80
q-52 75 -52 172q0 261 232 492q6 95 136 240q34 20 52 20z" />
    <glyph glyph-name="sterling" unicode="&#xa3;" 
d="M553 1811h43q113 0 160 -71l3 -15v-6q0 -94 -111 -203l-31 -13h-6q-55 56 -135 56h-12l-3 3q-34 -3 -65 -22v-24q0 -47 74 -209l31 -10q39 0 67 47q35 33 59 33h6q15 -7 15 -30q0 -88 -114 -231l-49 -43l-21 -83h3l46 9q42 0 120 -77q48 -27 129 -27h49l120 24
q22 -3 22 -27v-4q0 -98 -114 -209q-103 -37 -148 -37h-46q-147 0 -212 87l-40 18q-117 -28 -117 -49q-66 -74 -101 -74q-19 6 -19 25v15q0 110 163 264v4q0 88 -9 138h-9q-103 0 -163 -89q-33 -28 -49 -28q-20 0 -22 25v12q0 120 172 267q-12 46 -12 71q0 272 234 443
q67 40 92 40z" />
    <glyph glyph-name="section" unicode="&#xa7;" 
 />
    <glyph glyph-name="bullet" unicode="&#x2022;" horiz-adv-x="512" 
d="M198 1124q164 0 164 -68q0 -117 -132 -256q-32 -28 -60 -28l-72 24h-40q-36 0 -36 48q0 108 140 260z" />
    <glyph glyph-name="paragraph" unicode="&#xb6;" horiz-adv-x="1100" 
 />
    <glyph glyph-name="germandbls" unicode="&#xdf;" horiz-adv-x="1251" 
 />
    <glyph glyph-name="registered" unicode="&#xae;" horiz-adv-x="1741" 
d="M930 1854l113 -19q63 -9 195 -82q211 -221 251 -352q44 -75 98 -311l6 -75q0 -218 -91 -434q-48 -164 -311 -408q-86 -74 -242 -135q-154 -38 -223 -38l-19 3h-16q-182 0 -418 132q-115 101 -141 151q-93 131 -116 264q-16 69 -16 107q0 421 273 779q162 192 249 239
q270 179 383 179h25zM170 848q29 -199 107 -304q98 -141 204 -192q202 -94 361 -94q199 0 387 129q115 103 138 163q53 125 53 254v19q0 120 -100 368q-51 126 -239 317q-131 69 -170 69l-25 -9q-70 31 -94 31q-100 0 -371 -185q-146 -139 -163 -192q-85 -162 -85 -361z
M817 1383h13q111 -9 207 -66q50 -46 50 -132q0 -128 -141 -289q68 -46 163 -95q19 -21 19 -41v-9q0 -93 -116 -207l-35 -10q-25 23 -182 110l-82 57q0 -89 -110 -211q-31 -19 -47 -19q-25 0 -25 120l9 53v437l-25 -6h-3q-16 8 -16 25v16q0 80 107 201q100 66 214 66z
M713 1125v-160h3q45 59 95 59q20 12 88 29q-26 37 -139 63z" />
    <glyph glyph-name="copyright" unicode="&#xa9;" horiz-adv-x="1741" 
d="M930 1854l113 -19q63 -9 195 -82q211 -221 251 -352q44 -75 98 -311l6 -75q0 -218 -91 -434q-48 -164 -311 -408q-86 -74 -242 -135q-154 -38 -223 -38l-19 3h-16q-182 0 -418 132q-115 101 -141 151q-93 131 -116 264q-16 69 -16 107q0 421 273 779q162 192 249 239
q270 179 383 179h25zM170 848q29 -199 107 -304q98 -141 204 -192q202 -94 361 -94q199 0 387 129q115 103 138 163q53 125 53 254v19q0 120 -100 368q-51 126 -239 317q-131 69 -170 69l-25 -9q-70 31 -94 31q-100 0 -371 -185q-146 -139 -163 -192q-85 -162 -85 -361z
M789 1380h59q119 -10 208 -63q75 -60 75 -76v-12q0 -96 -113 -208l-31 -12q-12 0 -98 69q-100 47 -217 47q-54 -9 -110 -35v-6q0 -156 205 -283q80 -34 144 -34h25l4 -3q18 0 106 59l19 3q19 -6 19 -25v-9q0 -102 -126 -220q-86 -63 -135 -63h-15q-247 0 -384 239
q-34 84 -34 154q0 226 223 415q107 63 176 63z" />
    <glyph glyph-name="trademark" unicode="&#x2122;" horiz-adv-x="935" 
d="M783 1896h11q23 0 23 -244q7 -32 7 -77v-2q0 -63 -78 -143l-22 -8q-22 0 -22 79q-5 32 -8 202h-3q-35 -23 -89 -92q-24 -18 -37 -18q-18 6 -78 46v-24q0 -97 -85 -169l-17 -7q-18 0 -18 38q8 298 26 298q51 101 87 101h3q21 0 117 -68l39 -26q55 62 131 110zM337 1876
q11 0 13 -22q0 -70 -81 -149q-19 -9 -39 -9h-2v-74l2 -31q0 -58 -67 -139q-23 -19 -37 -19q-17 0 -17 81v147l4 33l-81 -20h-8q-9 9 -9 18v6q0 70 83 150q57 28 193 28h46z" />
    <glyph glyph-name="acute" unicode="&#xb4;" horiz-adv-x="682" 
 />
    <glyph glyph-name="dieresis" unicode="&#xa8;" horiz-adv-x="682" 
 />
    <glyph glyph-name="notequal" unicode="&#x2260;" horiz-adv-x="1124" 
 />
    <glyph glyph-name="AE" unicode="&#xc6;" horiz-adv-x="2048" 
 />
    <glyph glyph-name="Oslash" unicode="&#xd8;" horiz-adv-x="1593" 
 />
    <glyph glyph-name="infinity" unicode="&#x221e;" horiz-adv-x="1460" 
 />
    <glyph glyph-name="plusminus" unicode="&#xb1;" horiz-adv-x="1124" 
 />
    <glyph glyph-name="lessequal" unicode="&#x2264;" horiz-adv-x="1124" 
 />
    <glyph glyph-name="greaterequal" unicode="&#x2265;" horiz-adv-x="1124" 
 />
    <glyph glyph-name="yen" unicode="&#xa5;" 
 />
    <glyph glyph-name="mu" unicode="&#xb5;" horiz-adv-x="1180" 
 />
    <glyph glyph-name="partialdiff" unicode="&#x2202;" horiz-adv-x="1012" 
 />
    <glyph glyph-name="summation" unicode="&#x2211;" horiz-adv-x="1460" 
 />
    <glyph glyph-name="product" unicode="&#x220f;" horiz-adv-x="1686" 
 />
    <glyph glyph-name="glyph155" horiz-adv-x="1124" 
 />
    <glyph glyph-name="integral" unicode="&#x222b;" horiz-adv-x="561" 
 />
    <glyph glyph-name="ordfeminine" unicode="&#xaa;" horiz-adv-x="758" 
 />
    <glyph glyph-name="ordmasculine" unicode="&#xba;" horiz-adv-x="748" 
 />
    <glyph glyph-name="Omega" unicode="&#x2126;" horiz-adv-x="1573" 
 />
    <glyph glyph-name="ae" unicode="&#xe6;" horiz-adv-x="1821" 
 />
    <glyph glyph-name="oslash" unicode="&#xf8;" horiz-adv-x="1251" 
 />
    <glyph glyph-name="questiondown" unicode="&#xbf;" horiz-adv-x="1251" 
 />
    <glyph glyph-name="exclamdown" unicode="&#xa1;" horiz-adv-x="682" 
 />
    <glyph glyph-name="logicalnot" unicode="&#xac;" horiz-adv-x="1196" 
 />
    <glyph glyph-name="radical" unicode="&#x221a;" horiz-adv-x="1124" 
 />
    <glyph glyph-name="florin" unicode="&#x192;" 
 />
    <glyph glyph-name="approxequal" unicode="&#x2248;" horiz-adv-x="1124" 
 />
    <glyph glyph-name="Delta" unicode="&#x2206;" horiz-adv-x="1253" 
 />
    <glyph glyph-name="guillemotleft" unicode="&#xab;" 
 />
    <glyph glyph-name="guillemotright" unicode="&#xbb;" 
 />
    <glyph glyph-name="ellipsis" unicode="&#x2026;" horiz-adv-x="2287" 
d="M232 452h4q48 0 60 -108q0 -136 -144 -280q-28 -28 -108 -28l-16 -4h-4q-22 0 -24 72q0 173 172 328q44 20 60 20zM2124 444q40 -16 40 -92q0 -188 -164 -332l-72 -16h-8q-32 18 -32 88v24q0 125 132 280q45 48 104 48zM1184 428q43 0 48 -108q0 -147 -140 -288
q-38 -32 -68 -32l-24 12l-32 -12q-25 0 -28 32v20q0 140 140 312q63 64 104 64z" />
    <glyph glyph-name="Agrave" unicode="&#xc0;" horiz-adv-x="1366" 
 />
    <glyph glyph-name="Atilde" unicode="&#xc3;" horiz-adv-x="1366" 
 />
    <glyph glyph-name="Otilde" unicode="&#xd5;" horiz-adv-x="1593" 
 />
    <glyph glyph-name="OE" unicode="&#x152;" horiz-adv-x="2048" 
 />
    <glyph glyph-name="oe" unicode="&#x153;" horiz-adv-x="1933" 
 />
    <glyph glyph-name="endash" unicode="&#x2013;" 
 />
    <glyph glyph-name="emdash" unicode="&#x2014;" horiz-adv-x="2048" 
 />
    <glyph glyph-name="quotedblleft" unicode="&#x201c;" horiz-adv-x="921" 
d="M693 1984h8q20 -10 20 -32v-24l-24 -112l-4 -20q92 -90 92 -116v-8q0 -122 -144 -268l-44 -16q-27 6 -116 120l-8 36q0 251 176 420q29 20 44 20zM225 1936h8q16 0 24 -52l-8 -128q0 -39 32 -120v-12q0 -129 -152 -272l-28 -8h-16q-56 57 -56 188q0 280 176 400z" />
    <glyph glyph-name="quotedblright" unicode="&#x201d;" horiz-adv-x="682" 
d="M512 1874q48 0 64 -112v-48q0 -133 -176 -356q-45 -44 -68 -44h-16q-20 9 -20 40q0 71 60 168l-28 60v12q0 122 144 264zM192 1858q31 0 72 -96v-24q0 -170 -168 -368q-44 -40 -72 -40q-21 0 -24 40v4q0 45 36 132q-28 37 -28 52v20q0 122 144 264z" />
    <glyph glyph-name="quoteleft" unicode="&#x2018;" horiz-adv-x="455" 
d="M242 1807h12q20 -10 20 -32v-16q0 -42 -40 -144v-4q0 -106 76 -168q68 -20 68 -52v-16q0 -117 -148 -264l-44 -12q-87 24 -112 72q-60 98 -60 200q0 238 176 416q30 20 52 20z" />
    <glyph glyph-name="quoteright" unicode="&#x2019;" horiz-adv-x="455" 
d="M236 1894h12q73 0 104 -112l4 -32q0 -230 -152 -468q-63 -72 -96 -72q-32 0 -32 32v12q0 33 56 200l4 52v4q-15 52 -40 52q-33 -36 -60 -36h-8q-20 10 -20 32v28q0 105 140 264q58 44 88 44z" />
    <glyph glyph-name="divide" unicode="&#xf7;" horiz-adv-x="1124" 
 />
    <glyph glyph-name="lozenge" unicode="&#x25ca;" horiz-adv-x="1012" 
 />
    <glyph glyph-name="ydieresis" unicode="&#xff;" horiz-adv-x="1024" 
 />
    <glyph glyph-name="Ydieresis" unicode="&#x178;" horiz-adv-x="1366" 
 />
    <glyph glyph-name="fraction" unicode="&#x2044;" horiz-adv-x="342" 
 />
    <glyph glyph-name="fraction" unicode="&#x2215;" horiz-adv-x="342" 
 />
    <glyph glyph-name="Euro" unicode="&#x20ac;" 
 />
    <glyph glyph-name="guilsinglleft" unicode="&#x2039;" horiz-adv-x="682" 
 />
    <glyph glyph-name="guilsinglright" unicode="&#x203a;" horiz-adv-x="682" 
 />
    <glyph glyph-name="uniF001" unicode="&#xf001;" horiz-adv-x="1024" 
 />
    <glyph glyph-name="uniF001" unicode="&#xfb01;" horiz-adv-x="1024" 
 />
    <glyph glyph-name="uniF002" unicode="&#xf002;" horiz-adv-x="1024" 
 />
    <glyph glyph-name="uniF002" unicode="&#xfb02;" horiz-adv-x="1024" 
 />
    <glyph glyph-name="daggerdbl" unicode="&#x2021;" 
 />
    <glyph glyph-name="periodcentered" unicode="&#xb7;" horiz-adv-x="569" 
 />
    <glyph glyph-name="periodcentered" unicode="&#x2219;" horiz-adv-x="569" 
 />
    <glyph glyph-name="quotesinglbase" unicode="&#x201a;" horiz-adv-x="455" 
 />
    <glyph glyph-name="quotedblbase" unicode="&#x201e;" horiz-adv-x="682" 
 />
    <glyph glyph-name="perthousand" unicode="&#x2030;" horiz-adv-x="2048" 
 />
    <glyph glyph-name="Acircumflex" unicode="&#xc2;" horiz-adv-x="1366" 
 />
    <glyph glyph-name="Ecircumflex" unicode="&#xca;" horiz-adv-x="1366" 
 />
    <glyph glyph-name="Aacute" unicode="&#xc1;" horiz-adv-x="1366" 
 />
    <glyph glyph-name="Edieresis" unicode="&#xcb;" horiz-adv-x="1366" 
 />
    <glyph glyph-name="Egrave" unicode="&#xc8;" horiz-adv-x="1366" 
 />
    <glyph glyph-name="Iacute" unicode="&#xcd;" horiz-adv-x="569" 
 />
    <glyph glyph-name="Icircumflex" unicode="&#xce;" horiz-adv-x="569" 
 />
    <glyph glyph-name="Idieresis" unicode="&#xcf;" horiz-adv-x="569" 
 />
    <glyph glyph-name="Igrave" unicode="&#xcc;" horiz-adv-x="569" 
 />
    <glyph glyph-name="Oacute" unicode="&#xd3;" horiz-adv-x="1593" 
 />
    <glyph glyph-name="Ocircumflex" unicode="&#xd4;" horiz-adv-x="1593" 
 />
    <glyph glyph-name="Ograve" unicode="&#xd2;" horiz-adv-x="1593" 
 />
    <glyph glyph-name="Uacute" unicode="&#xda;" horiz-adv-x="1479" 
 />
    <glyph glyph-name="Ucircumflex" unicode="&#xdb;" horiz-adv-x="1479" 
 />
    <glyph glyph-name="Ugrave" unicode="&#xd9;" horiz-adv-x="1479" 
 />
    <glyph glyph-name="dotlessi" unicode="&#x131;" horiz-adv-x="569" 
 />
    <glyph glyph-name="circumflex" unicode="&#x2c6;" horiz-adv-x="682" 
 />
    <glyph glyph-name="tilde" unicode="&#x2dc;" horiz-adv-x="682" 
 />
    <glyph glyph-name="uni02C9" unicode="&#x2c9;" horiz-adv-x="682" 
 />
    <glyph glyph-name="breve" unicode="&#x2d8;" horiz-adv-x="682" 
 />
    <glyph glyph-name="dotaccent" unicode="&#x2d9;" horiz-adv-x="682" 
 />
    <glyph glyph-name="ring" unicode="&#x2da;" horiz-adv-x="682" 
 />
    <glyph glyph-name="cedilla" unicode="&#xb8;" horiz-adv-x="682" 
 />
    <glyph glyph-name="hungarumlaut" unicode="&#x2dd;" horiz-adv-x="682" 
 />
    <glyph glyph-name="ogonek" unicode="&#x2db;" horiz-adv-x="682" 
 />
    <glyph glyph-name="caron" unicode="&#x2c7;" horiz-adv-x="682" 
 />
    <glyph glyph-name="Lslash" unicode="&#x141;" 
 />
    <glyph glyph-name="lslash" unicode="&#x142;" horiz-adv-x="455" 
 />
    <glyph glyph-name="Scaron" unicode="&#x160;" horiz-adv-x="1366" 
 />
    <glyph glyph-name="scaron" unicode="&#x161;" horiz-adv-x="1024" 
 />
    <glyph glyph-name="Zcaron" unicode="&#x17d;" horiz-adv-x="1251" 
 />
    <glyph glyph-name="zcaron" unicode="&#x17e;" horiz-adv-x="1024" 
 />
    <glyph glyph-name="brokenbar" unicode="&#xa6;" horiz-adv-x="532" 
 />
    <glyph glyph-name="Eth" unicode="&#xd0;" horiz-adv-x="1479" 
 />
    <glyph glyph-name="eth" unicode="&#xf0;" 
 />
    <glyph glyph-name="Yacute" unicode="&#xdd;" horiz-adv-x="1366" 
 />
    <glyph glyph-name="yacute" unicode="&#xfd;" horiz-adv-x="1024" 
 />
    <glyph glyph-name="Thorn" unicode="&#xde;" horiz-adv-x="1366" 
 />
    <glyph glyph-name="thorn" unicode="&#xfe;" 
 />
    <glyph glyph-name="minus" unicode="&#x2212;" horiz-adv-x="1196" 
 />
    <glyph glyph-name="multiply" unicode="&#xd7;" horiz-adv-x="1196" 
 />
    <glyph glyph-name="uni00B9" unicode="&#xb9;" horiz-adv-x="682" 
 />
    <glyph glyph-name="uni00B2" unicode="&#xb2;" horiz-adv-x="682" 
 />
    <glyph glyph-name="uni00B3" unicode="&#xb3;" horiz-adv-x="682" 
 />
    <glyph glyph-name="onehalf" unicode="&#xbd;" horiz-adv-x="1708" 
 />
    <glyph glyph-name="onequarter" unicode="&#xbc;" horiz-adv-x="1708" 
 />
    <glyph glyph-name="threequarters" unicode="&#xbe;" horiz-adv-x="1708" 
 />
    <glyph glyph-name="franc" unicode="&#x20a3;" 
 />
    <glyph glyph-name="Gbreve" unicode="&#x11e;" horiz-adv-x="1593" 
 />
    <glyph glyph-name="gbreve" unicode="&#x11f;" 
 />
    <glyph glyph-name="Idotaccent" unicode="&#x130;" horiz-adv-x="569" 
 />
    <glyph glyph-name="Scedilla" unicode="&#x15e;" horiz-adv-x="1366" 
 />
    <glyph glyph-name="scedilla" unicode="&#x15f;" horiz-adv-x="1024" 
 />
    <glyph glyph-name="Cacute" unicode="&#x106;" horiz-adv-x="1479" 
 />
    <glyph glyph-name="cacute" unicode="&#x107;" horiz-adv-x="1024" 
 />
    <glyph glyph-name="Ccaron" unicode="&#x10c;" horiz-adv-x="1479" 
 />
    <glyph glyph-name="ccaron" unicode="&#x10d;" horiz-adv-x="1024" 
 />
    <glyph glyph-name="dcroat" unicode="&#x111;" 
 />
    <glyph glyph-name="currency" unicode="&#xa4;" 
 />
    <glyph glyph-name="macron" unicode="&#xaf;" horiz-adv-x="1131" 
 />
    <glyph glyph-name="Amacron" unicode="&#x100;" horiz-adv-x="1366" 
 />
    <glyph glyph-name="amacron" unicode="&#x101;" 
 />
    <glyph glyph-name="Abreve" unicode="&#x102;" horiz-adv-x="1366" 
 />
    <glyph glyph-name="abreve" unicode="&#x103;" 
 />
    <glyph glyph-name="Aogonek" unicode="&#x104;" horiz-adv-x="1366" 
 />
    <glyph glyph-name="aogonek" unicode="&#x105;" 
 />
    <glyph glyph-name="Ccircumflex" unicode="&#x108;" horiz-adv-x="1479" 
 />
    <glyph glyph-name="ccircumflex" unicode="&#x109;" horiz-adv-x="1024" 
 />
    <glyph glyph-name="Cdotaccent" unicode="&#x10a;" horiz-adv-x="1479" 
 />
    <glyph glyph-name="cdotaccent" unicode="&#x10b;" horiz-adv-x="1024" 
 />
    <glyph glyph-name="Dcaron" unicode="&#x10e;" horiz-adv-x="1479" 
 />
    <glyph glyph-name="dcaron" unicode="&#x10f;" horiz-adv-x="1259" 
 />
    <glyph glyph-name="Dcroat" unicode="&#x110;" horiz-adv-x="1479" 
 />
    <glyph glyph-name="Emacron" unicode="&#x112;" horiz-adv-x="1366" 
 />
    <glyph glyph-name="emacron" unicode="&#x113;" 
 />
    <glyph glyph-name="Ebreve" unicode="&#x114;" horiz-adv-x="1366" 
 />
    <glyph glyph-name="ebreve" unicode="&#x115;" 
 />
    <glyph glyph-name="Edotaccent" unicode="&#x116;" horiz-adv-x="1366" 
 />
    <glyph glyph-name="edotaccent" unicode="&#x117;" 
 />
    <glyph glyph-name="Eogonek" unicode="&#x118;" horiz-adv-x="1366" 
 />
    <glyph glyph-name="eogonek" unicode="&#x119;" 
 />
    <glyph glyph-name="Ecaron" unicode="&#x11a;" horiz-adv-x="1366" 
 />
    <glyph glyph-name="ecaron" unicode="&#x11b;" 
 />
    <glyph glyph-name="Gcircumflex" unicode="&#x11c;" horiz-adv-x="1593" 
 />
    <glyph glyph-name="gcircumflex" unicode="&#x11d;" 
 />
    <glyph glyph-name="Gdotaccent" unicode="&#x120;" horiz-adv-x="1593" 
 />
    <glyph glyph-name="gdotaccent" unicode="&#x121;" 
 />
    <glyph glyph-name="Gcommaaccent" unicode="&#x122;" horiz-adv-x="1593" 
 />
    <glyph glyph-name="gcommaaccent" unicode="&#x123;" 
 />
    <glyph glyph-name="Hcircumflex" unicode="&#x124;" horiz-adv-x="1479" 
 />
    <glyph glyph-name="hcircumflex" unicode="&#x125;" 
 />
    <glyph glyph-name="Hbar" unicode="&#x126;" horiz-adv-x="1479" 
 />
    <glyph glyph-name="hbar" unicode="&#x127;" 
 />
    <glyph glyph-name="Itilde" unicode="&#x128;" horiz-adv-x="569" 
 />
    <glyph glyph-name="itilde" unicode="&#x129;" horiz-adv-x="569" 
 />
    <glyph glyph-name="Imacron" unicode="&#x12a;" horiz-adv-x="569" 
 />
    <glyph glyph-name="imacron" unicode="&#x12b;" horiz-adv-x="569" 
 />
    <glyph glyph-name="Ibreve" unicode="&#x12c;" horiz-adv-x="569" 
 />
    <glyph glyph-name="ibreve" unicode="&#x12d;" horiz-adv-x="569" 
 />
    <glyph glyph-name="Iogonek" unicode="&#x12e;" horiz-adv-x="569" 
 />
    <glyph glyph-name="iogonek" unicode="&#x12f;" horiz-adv-x="455" 
 />
    <glyph glyph-name="IJ" unicode="&#x132;" horiz-adv-x="1505" 
 />
    <glyph glyph-name="ij" unicode="&#x133;" horiz-adv-x="909" 
 />
    <glyph glyph-name="Jcircumflex" unicode="&#x134;" horiz-adv-x="1024" 
 />
    <glyph glyph-name="jcircumflex" unicode="&#x135;" horiz-adv-x="455" 
 />
    <glyph glyph-name="Kcommaaccent" unicode="&#x136;" horiz-adv-x="1366" 
 />
    <glyph glyph-name="kcommaaccent" unicode="&#x137;" horiz-adv-x="1024" 
 />
    <glyph glyph-name="kgreenlandic" unicode="&#x138;" horiz-adv-x="1024" 
 />
    <glyph glyph-name="Lacute" unicode="&#x139;" 
 />
    <glyph glyph-name="lacute" unicode="&#x13a;" horiz-adv-x="455" 
 />
    <glyph glyph-name="Lcommaaccent" unicode="&#x13b;" 
 />
    <glyph glyph-name="lcommaaccent" unicode="&#x13c;" horiz-adv-x="455" 
 />
    <glyph glyph-name="Lcaron" unicode="&#x13d;" 
 />
    <glyph glyph-name="lcaron" unicode="&#x13e;" horiz-adv-x="597" 
 />
    <glyph glyph-name="Ldot" unicode="&#x13f;" 
 />
    <glyph glyph-name="ldot" unicode="&#x140;" horiz-adv-x="684" 
 />
    <glyph glyph-name="Nacute" unicode="&#x143;" horiz-adv-x="1479" 
 />
    <glyph glyph-name="nacute" unicode="&#x144;" 
 />
    <glyph glyph-name="Ncommaaccent" unicode="&#x145;" horiz-adv-x="1479" 
 />
    <glyph glyph-name="ncommaaccent" unicode="&#x146;" 
 />
    <glyph glyph-name="Ncaron" unicode="&#x147;" horiz-adv-x="1479" 
 />
    <glyph glyph-name="ncaron" unicode="&#x148;" 
 />
    <glyph glyph-name="napostrophe" unicode="&#x149;" horiz-adv-x="1237" 
 />
    <glyph glyph-name="Eng" unicode="&#x14a;" horiz-adv-x="1481" 
 />
    <glyph glyph-name="eng" unicode="&#x14b;" 
 />
    <glyph glyph-name="Omacron" unicode="&#x14c;" horiz-adv-x="1593" 
 />
    <glyph glyph-name="omacron" unicode="&#x14d;" 
 />
    <glyph glyph-name="Obreve" unicode="&#x14e;" horiz-adv-x="1593" 
 />
    <glyph glyph-name="obreve" unicode="&#x14f;" 
 />
    <glyph glyph-name="Ohungarumlaut" unicode="&#x150;" horiz-adv-x="1593" 
 />
    <glyph glyph-name="ohungarumlaut" unicode="&#x151;" 
 />
    <glyph glyph-name="Racute" unicode="&#x154;" horiz-adv-x="1479" 
 />
    <glyph glyph-name="racute" unicode="&#x155;" horiz-adv-x="682" 
 />
    <glyph glyph-name="Rcommaaccent" unicode="&#x156;" horiz-adv-x="1479" 
 />
    <glyph glyph-name="rcommaaccent" unicode="&#x157;" horiz-adv-x="682" 
 />
    <glyph glyph-name="Rcaron" unicode="&#x158;" horiz-adv-x="1479" 
 />
    <glyph glyph-name="rcaron" unicode="&#x159;" horiz-adv-x="682" 
 />
    <glyph glyph-name="Sacute" unicode="&#x15a;" horiz-adv-x="1366" 
 />
    <glyph glyph-name="sacute" unicode="&#x15b;" horiz-adv-x="1024" 
 />
    <glyph glyph-name="Scircumflex" unicode="&#x15c;" horiz-adv-x="1366" 
 />
    <glyph glyph-name="scircumflex" unicode="&#x15d;" horiz-adv-x="1024" 
 />
    <glyph glyph-name="Tcommaaccent" unicode="&#x162;" horiz-adv-x="1251" 
 />
    <glyph glyph-name="tcommaaccent" unicode="&#x163;" horiz-adv-x="569" 
 />
    <glyph glyph-name="Tcaron" unicode="&#x164;" horiz-adv-x="1251" 
 />
    <glyph glyph-name="tcaron" unicode="&#x165;" horiz-adv-x="768" 
 />
    <glyph glyph-name="Tbar" unicode="&#x166;" horiz-adv-x="1251" 
 />
    <glyph glyph-name="tbar" unicode="&#x167;" horiz-adv-x="569" 
 />
    <glyph glyph-name="Utilde" unicode="&#x168;" horiz-adv-x="1479" 
 />
    <glyph glyph-name="utilde" unicode="&#x169;" 
 />
    <glyph glyph-name="Umacron" unicode="&#x16a;" horiz-adv-x="1479" 
 />
    <glyph glyph-name="umacron" unicode="&#x16b;" 
 />
    <glyph glyph-name="Ubreve" unicode="&#x16c;" horiz-adv-x="1479" 
 />
    <glyph glyph-name="ubreve" unicode="&#x16d;" 
 />
    <glyph glyph-name="Uring" unicode="&#x16e;" horiz-adv-x="1479" 
 />
    <glyph glyph-name="uring" unicode="&#x16f;" 
 />
    <glyph glyph-name="Uhungarumlaut" unicode="&#x170;" horiz-adv-x="1479" 
 />
    <glyph glyph-name="uhungarumlaut" unicode="&#x171;" 
 />
    <glyph glyph-name="Uogonek" unicode="&#x172;" horiz-adv-x="1479" 
 />
    <glyph glyph-name="uogonek" unicode="&#x173;" 
 />
    <glyph glyph-name="Wcircumflex" unicode="&#x174;" horiz-adv-x="1933" 
 />
    <glyph glyph-name="wcircumflex" unicode="&#x175;" horiz-adv-x="1479" 
 />
    <glyph glyph-name="Ycircumflex" unicode="&#x176;" horiz-adv-x="1366" 
 />
    <glyph glyph-name="ycircumflex" unicode="&#x177;" horiz-adv-x="1024" 
 />
    <glyph glyph-name="Zacute" unicode="&#x179;" horiz-adv-x="1251" 
 />
    <glyph glyph-name="zacute" unicode="&#x17a;" horiz-adv-x="1024" 
 />
    <glyph glyph-name="Zdotaccent" unicode="&#x17b;" horiz-adv-x="1251" 
 />
    <glyph glyph-name="zdotaccent" unicode="&#x17c;" horiz-adv-x="1024" 
 />
    <glyph glyph-name="longs" unicode="&#x17f;" horiz-adv-x="455" 
 />
    <glyph glyph-name="Aringacute" unicode="&#x1fa;" horiz-adv-x="1366" 
 />
    <glyph glyph-name="aringacute" unicode="&#x1fb;" 
 />
    <glyph glyph-name="AEacute" unicode="&#x1fc;" horiz-adv-x="2048" 
 />
    <glyph glyph-name="aeacute" unicode="&#x1fd;" horiz-adv-x="1821" 
 />
    <glyph glyph-name="Oslashacute" unicode="&#x1fe;" horiz-adv-x="1593" 
 />
    <glyph glyph-name="oslashacute" unicode="&#x1ff;" horiz-adv-x="1251" 
 />
    <glyph glyph-name="tonos" unicode="&#x384;" horiz-adv-x="682" 
 />
    <glyph glyph-name="dieresistonos" unicode="&#x385;" horiz-adv-x="682" 
 />
    <glyph glyph-name="Alphatonos" unicode="&#x386;" horiz-adv-x="1367" 
 />
    <glyph glyph-name="anoteleia" unicode="&#x387;" horiz-adv-x="569" 
 />
    <glyph glyph-name="Epsilontonos" unicode="&#x388;" horiz-adv-x="1606" 
 />
    <glyph glyph-name="Etatonos" unicode="&#x389;" horiz-adv-x="1716" 
 />
    <glyph glyph-name="Iotatonos" unicode="&#x38a;" horiz-adv-x="786" 
 />
    <glyph glyph-name="Omicrontonos" unicode="&#x38c;" horiz-adv-x="1586" 
 />
    <glyph glyph-name="Upsilontonos" unicode="&#x38e;" horiz-adv-x="1752" 
 />
    <glyph glyph-name="Omegatonos" unicode="&#x38f;" horiz-adv-x="1541" 
 />
    <glyph glyph-name="iotadieresistonos" unicode="&#x390;" horiz-adv-x="455" 
 />
    <glyph glyph-name="Alpha" unicode="&#x391;" horiz-adv-x="1366" 
 />
    <glyph glyph-name="Beta" unicode="&#x392;" horiz-adv-x="1366" 
 />
    <glyph glyph-name="Gamma" unicode="&#x393;" horiz-adv-x="1128" 
 />
    <glyph glyph-name="uni0394" unicode="&#x394;" horiz-adv-x="1368" 
 />
    <glyph glyph-name="Epsilon" unicode="&#x395;" horiz-adv-x="1366" 
 />
    <glyph glyph-name="Zeta" unicode="&#x396;" horiz-adv-x="1251" 
 />
    <glyph glyph-name="Eta" unicode="&#x397;" horiz-adv-x="1479" 
 />
    <glyph glyph-name="Theta" unicode="&#x398;" horiz-adv-x="1593" 
 />
    <glyph glyph-name="Iota" unicode="&#x399;" horiz-adv-x="569" 
 />
    <glyph glyph-name="Kappa" unicode="&#x39a;" horiz-adv-x="1366" 
 />
    <glyph glyph-name="Lambda" unicode="&#x39b;" horiz-adv-x="1368" 
 />
    <glyph glyph-name="Mu" unicode="&#x39c;" horiz-adv-x="1706" 
 />
    <glyph glyph-name="Nu" unicode="&#x39d;" horiz-adv-x="1479" 
 />
    <glyph glyph-name="Xi" unicode="&#x39e;" horiz-adv-x="1331" 
 />
    <glyph glyph-name="Omicron" unicode="&#x39f;" horiz-adv-x="1593" 
 />
    <glyph glyph-name="Pi" unicode="&#x3a0;" horiz-adv-x="1479" 
 />
    <glyph glyph-name="Rho" unicode="&#x3a1;" horiz-adv-x="1366" 
 />
    <glyph glyph-name="Sigma" unicode="&#x3a3;" horiz-adv-x="1266" 
 />
    <glyph glyph-name="Tau" unicode="&#x3a4;" horiz-adv-x="1251" 
 />
    <glyph glyph-name="Upsilon" unicode="&#x3a5;" horiz-adv-x="1366" 
 />
    <glyph glyph-name="Phi" unicode="&#x3a6;" horiz-adv-x="1634" 
 />
    <glyph glyph-name="Chi" unicode="&#x3a7;" horiz-adv-x="1366" 
 />
    <glyph glyph-name="Psi" unicode="&#x3a8;" horiz-adv-x="1711" 
 />
    <glyph glyph-name="uni03A9" unicode="&#x3a9;" horiz-adv-x="1531" 
 />
    <glyph glyph-name="Iotadieresis" unicode="&#x3aa;" horiz-adv-x="569" 
 />
    <glyph glyph-name="Upsilondieresis" unicode="&#x3ab;" horiz-adv-x="1366" 
 />
    <glyph glyph-name="alphatonos" unicode="&#x3ac;" horiz-adv-x="1184" 
 />
    <glyph glyph-name="epsilontonos" unicode="&#x3ad;" horiz-adv-x="913" 
 />
    <glyph glyph-name="etatonos" unicode="&#x3ae;" 
 />
    <glyph glyph-name="iotatonos" unicode="&#x3af;" horiz-adv-x="455" 
 />
    <glyph glyph-name="upsilondieresistonos" unicode="&#x3b0;" horiz-adv-x="1120" 
 />
    <glyph glyph-name="alpha" unicode="&#x3b1;" horiz-adv-x="1184" 
 />
    <glyph glyph-name="beta" unicode="&#x3b2;" horiz-adv-x="1178" 
 />
    <glyph glyph-name="gamma" unicode="&#x3b3;" horiz-adv-x="1024" 
 />
    <glyph glyph-name="delta" unicode="&#x3b4;" horiz-adv-x="1140" 
 />
    <glyph glyph-name="epsilon" unicode="&#x3b5;" horiz-adv-x="913" 
 />
    <glyph glyph-name="zeta" unicode="&#x3b6;" horiz-adv-x="903" 
 />
    <glyph glyph-name="eta" unicode="&#x3b7;" 
 />
    <glyph glyph-name="theta" unicode="&#x3b8;" 
 />
    <glyph glyph-name="iota" unicode="&#x3b9;" horiz-adv-x="455" 
 />
    <glyph glyph-name="kappa" unicode="&#x3ba;" horiz-adv-x="1024" 
 />
    <glyph glyph-name="lambda" unicode="&#x3bb;" horiz-adv-x="1024" 
 />
    <glyph glyph-name="uni03BC" unicode="&#x3bc;" horiz-adv-x="1180" 
 />
    <glyph glyph-name="nu" unicode="&#x3bd;" horiz-adv-x="1024" 
 />
    <glyph glyph-name="xi" unicode="&#x3be;" horiz-adv-x="917" 
 />
    <glyph glyph-name="omicron" unicode="&#x3bf;" 
 />
    <glyph glyph-name="pi" unicode="&#x3c0;" horiz-adv-x="1413" 
 />
    <glyph glyph-name="rho" unicode="&#x3c1;" horiz-adv-x="1165" 
 />
    <glyph glyph-name="sigma1" unicode="&#x3c2;" horiz-adv-x="987" 
 />
    <glyph glyph-name="sigma" unicode="&#x3c3;" horiz-adv-x="1264" 
 />
    <glyph glyph-name="tau" unicode="&#x3c4;" horiz-adv-x="809" 
 />
    <glyph glyph-name="upsilon" unicode="&#x3c5;" horiz-adv-x="1120" 
 />
    <glyph glyph-name="phi" unicode="&#x3c6;" horiz-adv-x="1328" 
 />
    <glyph glyph-name="chi" unicode="&#x3c7;" horiz-adv-x="1075" 
 />
    <glyph glyph-name="psi" unicode="&#x3c8;" horiz-adv-x="1460" 
 />
    <glyph glyph-name="omega" unicode="&#x3c9;" horiz-adv-x="1599" 
 />
    <glyph glyph-name="iotadieresis" unicode="&#x3ca;" horiz-adv-x="455" 
 />
    <glyph glyph-name="upsilondieresis" unicode="&#x3cb;" horiz-adv-x="1120" 
 />
    <glyph glyph-name="omicrontonos" unicode="&#x3cc;" 
 />
    <glyph glyph-name="upsilontonos" unicode="&#x3cd;" horiz-adv-x="1120" 
 />
    <glyph glyph-name="omegatonos" unicode="&#x3ce;" horiz-adv-x="1599" 
 />
    <glyph glyph-name="afii10023" unicode="&#x401;" horiz-adv-x="1367" 
 />
    <glyph glyph-name="afii10051" unicode="&#x402;" horiz-adv-x="1771" 
 />
    <glyph glyph-name="afii10052" unicode="&#x403;" horiz-adv-x="1109" 
 />
    <glyph glyph-name="afii10053" unicode="&#x404;" horiz-adv-x="1472" 
 />
    <glyph glyph-name="afii10054" unicode="&#x405;" horiz-adv-x="1366" 
 />
    <glyph glyph-name="afii10055" unicode="&#x406;" horiz-adv-x="569" 
 />
    <glyph glyph-name="afii10056" unicode="&#x407;" horiz-adv-x="569" 
 />
    <glyph glyph-name="afii10057" unicode="&#x408;" horiz-adv-x="1024" 
 />
    <glyph glyph-name="afii10058" unicode="&#x409;" horiz-adv-x="2165" 
 />
    <glyph glyph-name="afii10059" unicode="&#x40a;" horiz-adv-x="2069" 
 />
    <glyph glyph-name="afii10060" unicode="&#x40b;" horiz-adv-x="1749" 
 />
    <glyph glyph-name="afii10061" unicode="&#x40c;" horiz-adv-x="1193" 
 />
    <glyph glyph-name="afii10062" unicode="&#x40e;" horiz-adv-x="1301" 
 />
    <glyph glyph-name="afii10145" unicode="&#x40f;" horiz-adv-x="1472" 
 />
    <glyph glyph-name="afii10017" unicode="&#x410;" horiz-adv-x="1366" 
 />
    <glyph glyph-name="afii10018" unicode="&#x411;" horiz-adv-x="1344" 
 />
    <glyph glyph-name="afii10019" unicode="&#x412;" horiz-adv-x="1366" 
 />
    <glyph glyph-name="afii10020" unicode="&#x413;" horiz-adv-x="1109" 
 />
    <glyph glyph-name="afii10021" unicode="&#x414;" horiz-adv-x="1387" 
 />
    <glyph glyph-name="afii10022" unicode="&#x415;" horiz-adv-x="1366" 
 />
    <glyph glyph-name="afii10024" unicode="&#x416;" horiz-adv-x="1891" 
 />
    <glyph glyph-name="afii10025" unicode="&#x417;" horiz-adv-x="1237" 
 />
    <glyph glyph-name="afii10026" unicode="&#x418;" horiz-adv-x="1472" 
 />
    <glyph glyph-name="afii10027" unicode="&#x419;" horiz-adv-x="1472" 
 />
    <glyph glyph-name="afii10028" unicode="&#x41a;" horiz-adv-x="1193" 
 />
    <glyph glyph-name="afii10029" unicode="&#x41b;" horiz-adv-x="1344" 
 />
    <glyph glyph-name="afii10030" unicode="&#x41c;" horiz-adv-x="1706" 
 />
    <glyph glyph-name="afii10031" unicode="&#x41d;" horiz-adv-x="1479" 
 />
    <glyph glyph-name="afii10032" unicode="&#x41e;" horiz-adv-x="1593" 
 />
    <glyph glyph-name="afii10033" unicode="&#x41f;" horiz-adv-x="1472" 
 />
    <glyph glyph-name="afii10034" unicode="&#x420;" horiz-adv-x="1366" 
 />
    <glyph glyph-name="afii10035" unicode="&#x421;" horiz-adv-x="1479" 
 />
    <glyph glyph-name="afii10036" unicode="&#x422;" horiz-adv-x="1251" 
 />
    <glyph glyph-name="afii10037" unicode="&#x423;" horiz-adv-x="1301" 
 />
    <glyph glyph-name="afii10038" unicode="&#x424;" horiz-adv-x="1557" 
 />
    <glyph glyph-name="afii10039" unicode="&#x425;" horiz-adv-x="1366" 
 />
    <glyph glyph-name="afii10040" unicode="&#x426;" horiz-adv-x="1515" 
 />
    <glyph glyph-name="afii10041" unicode="&#x427;" horiz-adv-x="1365" 
 />
    <glyph glyph-name="afii10042" unicode="&#x428;" horiz-adv-x="1877" 
 />
    <glyph glyph-name="afii10043" unicode="&#x429;" horiz-adv-x="1920" 
 />
    <glyph glyph-name="afii10044" unicode="&#x42a;" horiz-adv-x="1621" 
 />
    <glyph glyph-name="afii10045" unicode="&#x42b;" horiz-adv-x="1813" 
 />
    <glyph glyph-name="afii10046" unicode="&#x42c;" horiz-adv-x="1344" 
 />
    <glyph glyph-name="afii10047" unicode="&#x42d;" horiz-adv-x="1472" 
 />
    <glyph glyph-name="afii10048" unicode="&#x42e;" horiz-adv-x="2069" 
 />
    <glyph glyph-name="afii10049" unicode="&#x42f;" horiz-adv-x="1479" 
 />
    <glyph glyph-name="afii10065" unicode="&#x430;" 
 />
    <glyph glyph-name="afii10066" unicode="&#x431;" horiz-adv-x="1173" 
 />
    <glyph glyph-name="afii10067" unicode="&#x432;" horiz-adv-x="1088" 
 />
    <glyph glyph-name="afii10068" unicode="&#x433;" horiz-adv-x="747" 
 />
    <glyph glyph-name="afii10069" unicode="&#x434;" horiz-adv-x="1195" 
 />
    <glyph glyph-name="afii10070" unicode="&#x435;" 
 />
    <glyph glyph-name="afii10072" unicode="&#x436;" horiz-adv-x="1370" 
 />
    <glyph glyph-name="afii10073" unicode="&#x437;" horiz-adv-x="939" 
 />
    <glyph glyph-name="afii10074" unicode="&#x438;" horiz-adv-x="1144" 
 />
    <glyph glyph-name="afii10075" unicode="&#x439;" horiz-adv-x="1144" 
 />
    <glyph glyph-name="afii10076" unicode="&#x43a;" horiz-adv-x="896" 
 />
    <glyph glyph-name="afii10077" unicode="&#x43b;" horiz-adv-x="1195" 
 />
    <glyph glyph-name="afii10078" unicode="&#x43c;" horiz-adv-x="1408" 
 />
    <glyph glyph-name="afii10079" unicode="&#x43d;" horiz-adv-x="1131" 
 />
    <glyph glyph-name="afii10080" unicode="&#x43e;" 
 />
    <glyph glyph-name="afii10081" unicode="&#x43f;" horiz-adv-x="1109" 
 />
    <glyph glyph-name="afii10082" unicode="&#x440;" 
 />
    <glyph glyph-name="afii10083" unicode="&#x441;" horiz-adv-x="1024" 
 />
    <glyph glyph-name="afii10084" unicode="&#x442;" horiz-adv-x="938" 
 />
    <glyph glyph-name="afii10085" unicode="&#x443;" horiz-adv-x="1024" 
 />
    <glyph glyph-name="afii10086" unicode="&#x444;" horiz-adv-x="1685" 
 />
    <glyph glyph-name="afii10087" unicode="&#x445;" horiz-adv-x="1024" 
 />
    <glyph glyph-name="afii10088" unicode="&#x446;" horiz-adv-x="1173" 
 />
    <glyph glyph-name="afii10089" unicode="&#x447;" horiz-adv-x="1067" 
 />
    <glyph glyph-name="afii10090" unicode="&#x448;" horiz-adv-x="1643" 
 />
    <glyph glyph-name="afii10091" unicode="&#x449;" horiz-adv-x="1685" 
 />
    <glyph glyph-name="afii10092" unicode="&#x44a;" horiz-adv-x="1280" 
 />
    <glyph glyph-name="afii10093" unicode="&#x44b;" horiz-adv-x="1472" 
 />
    <glyph glyph-name="afii10094" unicode="&#x44c;" horiz-adv-x="1067" 
 />
    <glyph glyph-name="afii10095" unicode="&#x44d;" horiz-adv-x="1045" 
 />
    <glyph glyph-name="afii10096" unicode="&#x44e;" horiz-adv-x="1536" 
 />
    <glyph glyph-name="afii10097" unicode="&#x44f;" horiz-adv-x="1109" 
 />
    <glyph glyph-name="afii10071" unicode="&#x451;" 
 />
    <glyph glyph-name="afii10099" unicode="&#x452;" 
 />
    <glyph glyph-name="afii10100" unicode="&#x453;" horiz-adv-x="747" 
 />
    <glyph glyph-name="afii10101" unicode="&#x454;" horiz-adv-x="1045" 
 />
    <glyph glyph-name="afii10102" unicode="&#x455;" horiz-adv-x="1024" 
 />
    <glyph glyph-name="afii10103" unicode="&#x456;" horiz-adv-x="455" 
 />
    <glyph glyph-name="afii10104" unicode="&#x457;" horiz-adv-x="569" 
 />
    <glyph glyph-name="afii10105" unicode="&#x458;" horiz-adv-x="455" 
 />
    <glyph glyph-name="afii10106" unicode="&#x459;" horiz-adv-x="1856" 
 />
    <glyph glyph-name="afii10107" unicode="&#x45a;" horiz-adv-x="1664" 
 />
    <glyph glyph-name="afii10108" unicode="&#x45b;" 
 />
    <glyph glyph-name="afii10109" unicode="&#x45c;" horiz-adv-x="896" 
 />
    <glyph glyph-name="afii10110" unicode="&#x45e;" horiz-adv-x="1024" 
 />
    <glyph glyph-name="afii10193" unicode="&#x45f;" horiz-adv-x="1131" 
 />
    <glyph glyph-name="afii10050" unicode="&#x490;" horiz-adv-x="1001" 
 />
    <glyph glyph-name="afii10098" unicode="&#x491;" horiz-adv-x="842" 
 />
    <glyph glyph-name="Wgrave" unicode="&#x1e80;" horiz-adv-x="1933" 
 />
    <glyph glyph-name="wgrave" unicode="&#x1e81;" horiz-adv-x="1479" 
 />
    <glyph glyph-name="Wacute" unicode="&#x1e82;" horiz-adv-x="1933" 
 />
    <glyph glyph-name="wacute" unicode="&#x1e83;" horiz-adv-x="1479" 
 />
    <glyph glyph-name="Wdieresis" unicode="&#x1e84;" horiz-adv-x="1933" 
 />
    <glyph glyph-name="wdieresis" unicode="&#x1e85;" horiz-adv-x="1479" 
 />
    <glyph glyph-name="Ygrave" unicode="&#x1ef2;" horiz-adv-x="1366" 
 />
    <glyph glyph-name="ygrave" unicode="&#x1ef3;" horiz-adv-x="1024" 
 />
    <glyph glyph-name="afii00208" unicode="&#x2015;" horiz-adv-x="2048" 
 />
    <glyph glyph-name="underscoredbl" unicode="&#x2017;" horiz-adv-x="1131" 
 />
    <glyph glyph-name="quotereversed" unicode="&#x201b;" horiz-adv-x="455" 
 />
    <glyph glyph-name="minute" unicode="&#x2032;" horiz-adv-x="384" 
 />
    <glyph glyph-name="second" unicode="&#x2033;" horiz-adv-x="725" 
 />
    <glyph glyph-name="exclamdbl" unicode="&#x203c;" horiz-adv-x="1024" 
 />
    <glyph glyph-name="uni203E" unicode="&#x203e;" horiz-adv-x="682" 
 />
    <glyph glyph-name="uni207F" unicode="&#x207f;" horiz-adv-x="747" 
 />
    <glyph glyph-name="lira" unicode="&#x20a4;" 
 />
    <glyph glyph-name="peseta" unicode="&#x20a7;" horiz-adv-x="2240" 
 />
    <glyph glyph-name="afii61248" unicode="&#x2105;" horiz-adv-x="1813" 
 />
    <glyph glyph-name="afii61289" unicode="&#x2113;" horiz-adv-x="662" 
 />
    <glyph glyph-name="afii61352" unicode="&#x2116;" horiz-adv-x="2197" 
 />
    <glyph glyph-name="estimated" unicode="&#x212e;" horiz-adv-x="1229" 
 />
    <glyph glyph-name="oneeighth" unicode="&#x215b;" horiz-adv-x="1708" 
 />
    <glyph glyph-name="threeeighths" unicode="&#x215c;" horiz-adv-x="1708" 
 />
    <glyph glyph-name="fiveeighths" unicode="&#x215d;" horiz-adv-x="1708" 
 />
    <glyph glyph-name="seveneighths" unicode="&#x215e;" horiz-adv-x="1708" 
 />
    <glyph glyph-name="arrowleft" unicode="&#x2190;" horiz-adv-x="2048" 
 />
    <glyph glyph-name="arrowup" unicode="&#x2191;" horiz-adv-x="1024" 
 />
    <glyph glyph-name="arrowright" unicode="&#x2192;" horiz-adv-x="2048" 
 />
    <glyph glyph-name="arrowdown" unicode="&#x2193;" horiz-adv-x="1024" 
 />
    <glyph glyph-name="arrowboth" unicode="&#x2194;" horiz-adv-x="2048" 
 />
    <glyph glyph-name="arrowupdn" unicode="&#x2195;" horiz-adv-x="1024" 
 />
    <glyph glyph-name="arrowupdnbse" unicode="&#x21a8;" horiz-adv-x="1024" 
 />
    <glyph glyph-name="orthogonal" unicode="&#x221f;" horiz-adv-x="2005" 
 />
    <glyph glyph-name="intersection" unicode="&#x2229;" horiz-adv-x="1472" 
 />
    <glyph glyph-name="equivalence" unicode="&#x2261;" horiz-adv-x="1195" 
 />
    <glyph glyph-name="house" unicode="&#x2302;" horiz-adv-x="1237" 
 />
    <glyph glyph-name="revlogicalnot" unicode="&#x2310;" horiz-adv-x="1196" 
 />
    <glyph glyph-name="integraltp" unicode="&#x2320;" horiz-adv-x="1237" 
 />
    <glyph glyph-name="integralbt" unicode="&#x2321;" horiz-adv-x="1237" 
 />
    <glyph glyph-name="SF100000" unicode="&#x2500;" horiz-adv-x="1451" 
 />
    <glyph glyph-name="SF110000" unicode="&#x2502;" horiz-adv-x="1280" 
 />
    <glyph glyph-name="SF010000" unicode="&#x250c;" horiz-adv-x="1451" 
 />
    <glyph glyph-name="SF030000" unicode="&#x2510;" horiz-adv-x="1451" 
 />
    <glyph glyph-name="SF020000" unicode="&#x2514;" horiz-adv-x="1451" 
 />
    <glyph glyph-name="SF040000" unicode="&#x2518;" horiz-adv-x="1451" 
 />
    <glyph glyph-name="SF080000" unicode="&#x251c;" horiz-adv-x="1451" 
 />
    <glyph glyph-name="SF090000" unicode="&#x2524;" horiz-adv-x="1451" 
 />
    <glyph glyph-name="SF060000" unicode="&#x252c;" horiz-adv-x="1451" 
 />
    <glyph glyph-name="SF070000" unicode="&#x2534;" horiz-adv-x="1451" 
 />
    <glyph glyph-name="SF050000" unicode="&#x253c;" horiz-adv-x="1451" 
 />
    <glyph glyph-name="SF430000" unicode="&#x2550;" horiz-adv-x="1451" 
 />
    <glyph glyph-name="SF240000" unicode="&#x2551;" horiz-adv-x="1451" 
 />
    <glyph glyph-name="SF510000" unicode="&#x2552;" horiz-adv-x="1451" 
 />
    <glyph glyph-name="SF520000" unicode="&#x2553;" horiz-adv-x="1451" 
 />
    <glyph glyph-name="SF390000" unicode="&#x2554;" horiz-adv-x="1451" 
 />
    <glyph glyph-name="SF220000" unicode="&#x2555;" horiz-adv-x="1451" 
 />
    <glyph glyph-name="SF210000" unicode="&#x2556;" horiz-adv-x="1451" 
 />
    <glyph glyph-name="SF250000" unicode="&#x2557;" horiz-adv-x="1451" 
 />
    <glyph glyph-name="SF500000" unicode="&#x2558;" horiz-adv-x="1451" 
 />
    <glyph glyph-name="SF490000" unicode="&#x2559;" horiz-adv-x="1451" 
 />
    <glyph glyph-name="SF380000" unicode="&#x255a;" horiz-adv-x="1451" 
 />
    <glyph glyph-name="SF280000" unicode="&#x255b;" horiz-adv-x="1451" 
 />
    <glyph glyph-name="SF270000" unicode="&#x255c;" horiz-adv-x="1451" 
 />
    <glyph glyph-name="SF260000" unicode="&#x255d;" horiz-adv-x="1451" 
 />
    <glyph glyph-name="SF360000" unicode="&#x255e;" horiz-adv-x="1451" 
 />
    <glyph glyph-name="SF370000" unicode="&#x255f;" horiz-adv-x="1451" 
 />
    <glyph glyph-name="SF420000" unicode="&#x2560;" horiz-adv-x="1451" 
 />
    <glyph glyph-name="SF190000" unicode="&#x2561;" horiz-adv-x="1451" 
 />
    <glyph glyph-name="SF200000" unicode="&#x2562;" horiz-adv-x="1451" 
 />
    <glyph glyph-name="SF230000" unicode="&#x2563;" horiz-adv-x="1451" 
 />
    <glyph glyph-name="SF470000" unicode="&#x2564;" horiz-adv-x="1451" 
 />
    <glyph glyph-name="SF480000" unicode="&#x2565;" horiz-adv-x="1451" 
 />
    <glyph glyph-name="SF410000" unicode="&#x2566;" horiz-adv-x="1451" 
 />
    <glyph glyph-name="SF450000" unicode="&#x2567;" horiz-adv-x="1451" 
 />
    <glyph glyph-name="SF460000" unicode="&#x2568;" horiz-adv-x="1451" 
 />
    <glyph glyph-name="SF400000" unicode="&#x2569;" horiz-adv-x="1451" 
 />
    <glyph glyph-name="SF540000" unicode="&#x256a;" horiz-adv-x="1451" 
 />
    <glyph glyph-name="SF530000" unicode="&#x256b;" horiz-adv-x="1451" 
 />
    <glyph glyph-name="SF440000" unicode="&#x256c;" horiz-adv-x="1451" 
 />
    <glyph glyph-name="upblock" unicode="&#x2580;" horiz-adv-x="1451" 
 />
    <glyph glyph-name="dnblock" unicode="&#x2584;" horiz-adv-x="1451" 
 />
    <glyph glyph-name="block" unicode="&#x2588;" horiz-adv-x="1451" 
 />
    <glyph glyph-name="lfblock" unicode="&#x258c;" horiz-adv-x="1451" 
 />
    <glyph glyph-name="rtblock" unicode="&#x2590;" horiz-adv-x="1451" 
 />
    <glyph glyph-name="ltshade" unicode="&#x2591;" horiz-adv-x="1451" 
 />
    <glyph glyph-name="shade" unicode="&#x2592;" horiz-adv-x="1451" 
 />
    <glyph glyph-name="dkshade" unicode="&#x2593;" horiz-adv-x="1493" 
 />
    <glyph glyph-name="filledbox" unicode="&#x25a0;" horiz-adv-x="1237" 
 />
    <glyph glyph-name="H22073" unicode="&#x25a1;" horiz-adv-x="1237" 
 />
    <glyph glyph-name="H18543" unicode="&#x25aa;" horiz-adv-x="726" 
 />
    <glyph glyph-name="H18551" unicode="&#x25ab;" horiz-adv-x="726" 
 />
    <glyph glyph-name="filledrect" unicode="&#x25ac;" horiz-adv-x="2048" 
 />
    <glyph glyph-name="triagup" unicode="&#x25b2;" horiz-adv-x="2027" 
 />
    <glyph glyph-name="triagrt" unicode="&#x25ba;" horiz-adv-x="2027" 
 />
    <glyph glyph-name="triagdn" unicode="&#x25bc;" horiz-adv-x="2027" 
 />
    <glyph glyph-name="triaglf" unicode="&#x25c4;" horiz-adv-x="2027" 
 />
    <glyph glyph-name="circle" unicode="&#x25cb;" horiz-adv-x="1237" 
 />
    <glyph glyph-name="H18533" unicode="&#x25cf;" horiz-adv-x="1237" 
 />
    <glyph glyph-name="invbullet" unicode="&#x25d8;" horiz-adv-x="1237" 
 />
    <glyph glyph-name="invcircle" unicode="&#x25d9;" horiz-adv-x="1237" 
 />
    <glyph glyph-name="openbullet" unicode="&#x25e6;" horiz-adv-x="726" 
 />
    <glyph glyph-name="smileface" unicode="&#x263a;" horiz-adv-x="2091" 
 />
    <glyph glyph-name="invsmileface" unicode="&#x263b;" horiz-adv-x="2155" 
 />
    <glyph glyph-name="sun" unicode="&#x263c;" horiz-adv-x="1877" 
 />
    <glyph glyph-name="female" unicode="&#x2640;" horiz-adv-x="1536" 
 />
    <glyph glyph-name="male" unicode="&#x2642;" horiz-adv-x="1536" 
 />
    <glyph glyph-name="spade" unicode="&#x2660;" horiz-adv-x="1088" 
 />
    <glyph glyph-name="club" unicode="&#x2663;" horiz-adv-x="1344" 
 />
    <glyph glyph-name="heart" unicode="&#x2665;" horiz-adv-x="1216" 
 />
    <glyph glyph-name="diamond" unicode="&#x2666;" horiz-adv-x="1045" 
 />
    <glyph glyph-name="musicalnote" unicode="&#x266a;" horiz-adv-x="1024" 
 />
    <glyph glyph-name="musicalnotedbl" unicode="&#x266b;" horiz-adv-x="1536" 
 />
    <glyph glyph-name="uniF004" unicode="&#xf004;" horiz-adv-x="682" 
 />
    <glyph glyph-name="uniF005" unicode="&#xf005;" horiz-adv-x="682" 
 />
    </font>
</defs>
</svg>
