<?xml version="1.0" standalone="no"?>
<!DOCTYPE svg PUBLIC "-//W3C//DTD SVG 1.1//EN" "http://www.w3.org/Graphics/SVG/1.1/DTD/svg11.dtd" >
<svg xmlns="http://www.w3.org/2000/svg" xmlns:xlink="http://www.w3.org/1999/xlink" version="1.1">
<metadata>
Created by FontForge 20170924 at Fri Jul  3 18:10:13 2015
 By www-data
Copyright (c) 2015 by Kotta Rainen. All rights reserved.
</metadata>
<defs>
<font id="Five-Italic" horiz-adv-x="488" >
  <font-face 
    font-family="Five"
    font-weight="400"
    font-style="italic"
    font-stretch="normal"
    units-per-em="1000"
    panose-1="2 0 5 6 0 0 0 2 0 3"
    ascent="750"
    descent="-250"
    x-height="450"
    cap-height="650"
    bbox="-30 -255 1144 862"
    underline-thickness="50"
    underline-position="-100"
    unicode-range="U+000D-2265"
  />
<missing-glyph horiz-adv-x="252" 
 />
    <glyph glyph-name=".notdef" horiz-adv-x="252" 
 />
    <glyph glyph-name="NULL" horiz-adv-x="0" 
 />
    <glyph glyph-name="NULL" horiz-adv-x="0" 
 />
    <glyph glyph-name="nonmarkingreturn" unicode="&#xd;" horiz-adv-x="252" 
 />
    <glyph glyph-name="space" unicode=" " horiz-adv-x="252" 
 />
    <glyph glyph-name="E" unicode="E" horiz-adv-x="492" 
d="M483 0h-210q-57 0 -96.5 10t-64.5 27t-36 40.5t-11 50.5q0 60 39.5 111t116.5 88q-48 15 -68.5 44t-20.5 61q0 59 30.5 101.5t83 70t123.5 40.5t153 13l-29 -182h-78l16 101q-37 -2 -75 -10.5t-69.5 -24.5t-51.5 -39.5t-20 -54.5q0 -12 4.5 -24t15 -21.5t29 -15
t46.5 -5.5h97l-12 -72q-30 -3 -71 -15t-79 -33t-64.5 -51t-26.5 -68q0 -20 9.5 -32.5t26.5 -20t40 -10.5t50 -3h215z" />
    <glyph glyph-name="F" unicode="F" horiz-adv-x="555" 
d="M95 500l5 33q4 24 12.5 45t24.5 37t41.5 25.5t62.5 9.5h374l-12 -76h-262l-31 -201h238l-12 -74h-238l-47 -299h-85l90 574h-14q-38 0 -52.5 -13.5t-18.5 -39.5l-3 -21h-73z" />
    <glyph glyph-name="G" unicode="G" horiz-adv-x="518" 
d="M532 201l-41 -260q-6 -37 -21 -60t-35 -35.5t-44.5 -17t-49.5 -4.5h-172l11 74h167q30 0 48.5 15.5t23.5 50.5l6 36h-123q-69 0 -117.5 16t-79.5 44t-45.5 65.5t-14.5 80.5q0 80 39 160t107.5 143.5t161.5 104.5t200 43l-32 -202h-75l17 112q-60 -6 -120 -40t-107.5 -84
t-77 -109t-29.5 -116q0 -30 11 -56t34 -45t60 -30t89 -11h114l19 125h76z" />
    <glyph glyph-name="H" unicode="H" horiz-adv-x="620" 
d="M598 0h-29q-54 0 -84.5 19.5t-30.5 70.5q0 15 3 33l26 169h-292l-46 -292h-85l102 650h85l-44 -281h292l45 281h85l-79 -501q-3 -17 -3 -29q0 -44 44 -44h23z" />
    <glyph glyph-name="I" unicode="I" horiz-adv-x="384" 
d="M432 574h-72l-71 -451q-11 -70 -49 -96.5t-101 -26.5h-59l12 76h53q30 0 43.5 17.5t19.5 55.5l67 425h-28q-38 0 -52.5 -13.5t-18.5 -39.5l-3 -21h-73l5 33q4 24 12.5 45t24.5 37t41.5 25.5t62.5 9.5h198z" />
    <glyph glyph-name="J" unicode="J" horiz-adv-x="436" 
d="M305 -17q-5 -31 -20.5 -54.5t-37 -39.5t-48.5 -24t-54 -8q-56 0 -85.5 31t-29.5 73q0 44 19 76.5t50 56.5t70.5 41t79.5 30l64 409h-58q-38 0 -52.5 -13.5t-18.5 -39.5l-3 -21h-73l5 33q4 24 12.5 45t24.5 37t41.5 25.5t62.5 9.5h237l-12 -76h-81l-60 -381l52 16l9 -72
l-74 -24zM152 -71q22 0 43.5 16.5t26.5 49.5l14 88q-57 -19 -92.5 -44.5t-35.5 -64.5q0 -23 13 -34t31 -11z" />
    <glyph glyph-name="K" unicode="K" horiz-adv-x="541" 
d="M60 0l102 650h85l-46 -294l187 213q37 42 73 61.5t85 19.5h45l-12 -76h-27q-31 0 -50 -8.5t-35 -25.5l-170 -189l160 -241q14 -20 34.5 -27t50.5 -7h21l-12 -76h-53q-24 0 -42 6t-32.5 17.5t-26.5 27t-25 35.5l-134 200l-59 -66l-34 -220h-85z" />
    <glyph glyph-name="l" unicode="l" horiz-adv-x="240" 
d="M245 650l-79 -504q-3 -18 -3 -31q0 -21 11.5 -30t41.5 -9h18l-12 -76h-36q-54 0 -82.5 18t-28.5 67q0 15 3 35l83 530h84z" />
    <glyph glyph-name="M" unicode="M" horiz-adv-x="724" 
d="M707 0h-29q-54 0 -84.5 19.5t-30.5 70.5q0 15 3 33l60 376l-245 -272l-157 272l-79 -499h-85l102 650h85l157 -280l245 280h85l-79 -501q-3 -17 -3 -29q0 -44 44 -44h23z" />
    <glyph glyph-name="N" unicode="N" horiz-adv-x="595" 
d="M97 650h29q37 0 66 -12.5t44 -39.5l239 -427l75 479h85l-102 -650h-68l-243 428l-67 -428h-85l79 501q3 16 3 29q0 43 -44 43h-23z" />
    <glyph glyph-name="L" unicode="L" horiz-adv-x="483" 
d="M249 650l-80 -505q-1 -5 -1 -9v-8q0 -29 16.5 -40.5t44.5 -11.5h167l19 122h78l-31 -198h-274q-51 0 -79.5 29.5t-28.5 71.5v9q0 5 1 10l83 530h85z" />
    <glyph glyph-name="P" unicode="P" horiz-adv-x="564" 
d="M291 325h60q34 0 61.5 13t47 34t30 47.5t10.5 53.5q0 20 -6.5 38t-20 32t-34.5 22.5t-49 8.5h-113l-90 -574h-85l90 574h-122l12 76h322q47 0 81 -13.5t56 -36t32.5 -52t10.5 -62.5q0 -45 -17 -87.5t-48.5 -76t-75 -53.5t-96.5 -20h-68z" />
    <glyph glyph-name="Q" unicode="Q" horiz-adv-x="678" 
d="M304 -4q-63 0 -109 20t-76 54t-44.5 79.5t-14.5 97.5q0 72 24.5 145.5t69.5 132t109.5 95.5t145.5 37q62 0 107 -23t74.5 -61.5t43.5 -88.5t14 -104q0 -89 -32 -169t-95 -135h177l-12 -76h-329q-14 -2 -26.5 -3t-26.5 -1zM396 575q-58 0 -104 -29t-78.5 -75t-50 -101.5
t-17.5 -107.5q0 -39 10.5 -73t31.5 -59t53 -39.5t76 -14.5q58 0 104 26t77.5 68t48 95t16.5 107q0 40 -10 77t-30 65t-52 44.5t-75 16.5z" />
    <glyph glyph-name="R" unicode="R" horiz-adv-x="601" 
d="M192 574h-122l12 76h279q61 0 102 -13t66 -35t35.5 -51.5t10.5 -62.5q0 -65 -33.5 -121t-102.5 -86l95 -166q14 -25 35 -32t51 -7h16l-12 -76h-42q-49 0 -76 20.5t-51 62.5l-104 180h-123l-41 -263h-85zM277 574l-37 -238h105q34 0 61.5 11t46.5 29.5t29.5 44t10.5 55.5
q0 40 -27 69t-84 29h-105z" />
    <glyph glyph-name="S" unicode="S" horiz-adv-x="437" 
d="M390 574q-24 0 -56.5 -6t-62.5 -19.5t-51 -35.5t-21 -54q0 -29 20.5 -52.5t43.5 -40.5l80 -57q48 -34 69 -71.5t21 -73.5q0 -33 -14.5 -63t-41.5 -52.5t-67 -35.5t-91 -13h-209l13 76h170q21 0 48 2t51 11t40 27t16 49q0 24 -12.5 41.5t-32.5 31.5l-95 67
q-13 9 -28.5 22.5t-28.5 30.5t-22 38t-9 45q0 66 33 107.5t85.5 65t117 32.5t126.5 11l-29 -182h-78l15 99v0z" />
    <glyph glyph-name="T" unicode="T" horiz-adv-x="562" 
d="M100 500l5 33q4 24 12.5 45t24.5 37t41.5 25.5t62.5 9.5h406l-12 -76h-210l-90 -574h-85l90 574h-98q-38 0 -52.5 -13.5t-18.5 -39.5l-3 -21h-73z" />
    <glyph glyph-name="U" unicode="U" horiz-adv-x="610" 
d="M650 650l-68 -435q-17 -105 -83 -160t-172 -55h-21q-94 0 -142.5 42.5t-48.5 123.5q0 11 1 23.5t3 25.5l45 286q3 16 3 29q0 44 -44 44h-23l12 76h29q54 0 84.5 -19.5t30.5 -70.5q0 -15 -3 -33l-49 -312q-3 -17 -3 -30q0 -50 30.5 -75.5t87.5 -25.5h21q65 0 105.5 33
t51.5 98l68 435h85z" />
    <glyph glyph-name="V" unicode="V" horiz-adv-x="570" 
d="M60 574l12 76h33q25 0 44 -3.5t33 -14t23 -31t15 -53.5l62 -385l4 -55l20 55l235 494l79 -26l-301 -631h-93l-86 529q-4 23 -17 34t-42 11h-21z" />
    <glyph glyph-name="W" unicode="W" horiz-adv-x="880" 
d="M140 529q-4 23 -17 34t-42 11h-21l12 76h33q25 0 44 -3.5t33 -14t23 -31t15 -53.5l62 -385l1 -36l13 36l166 350l-2 16q-4 23 -17 34t-42 11h-21l12 76h33q25 0 44 -3.5t33 -14t23 -31t15 -53.5l62 -385l2 -37l12 37l235 494l79 -26l-301 -631h-83l-61 370l-176 -370h-83
z" />
    <glyph glyph-name="Z" unicode="Z" horiz-adv-x="509" 
d="M112 455l12 78q4 24 12.5 45t24.5 37t41.5 25.5t62.5 9.5h304l-11 -70l-394 -504h343l-12 -76h-445l12 76l389 498h-185q-38 0 -52.5 -13.5t-18.5 -39.5l-10 -66h-73z" />
    <glyph glyph-name="X" unicode="X" horiz-adv-x="565" 
d="M548 657l67 -49l-224 -279l95 -208q9 -21 23 -33t37 -12h33l-12 -76h-44q-25 0 -41.5 4t-29 15t-24 31t-26.5 52l-78 164l-220 -270l-69 49l249 306l-83 178q-11 22 -22 33.5t-34 11.5h-25l12 76h39q24 0 38.5 -4t26 -14.5t21.5 -29t25 -47.5l71 -141z" />
    <glyph glyph-name="Y" unicode="Y" horiz-adv-x="546" 
d="M218 0l49 313l-105 216q-22 45 -62 45h-25l12 76h37q25 0 41 -5t28 -17t23 -31.5t25 -48.5l77 -157l216 266l62 -44l-244 -303l-49 -310h-85z" />
    <glyph glyph-name="uni0411" unicode="&#x411;" horiz-adv-x="585" 
d="M231 574h-14q-38 0 -52.5 -13.5t-18.5 -39.5l-3 -21h-73l5 33q4 24 12.5 45t24.5 37t41.5 25.5t62.5 9.5h367l-12 -76h-255l-78 -498h115q35 0 62.5 12.5t46.5 32.5t29 45.5t10 52.5q0 21 -6.5 40t-20 33.5t-34 23.5t-48.5 9h-77l12 76h88q43 0 75 -14t53 -37t31.5 -53.5
t10.5 -63.5q0 -44 -16.5 -85.5t-47.5 -74.5t-76 -53t-102 -20h-202z" />
    <glyph glyph-name="uni0413" unicode="&#x413;" horiz-adv-x="544" 
d="M476 455l10 66q1 5 1 15q0 19 -12 28.5t-44 9.5h-154l-90 -574h-85l90 574h-122l12 76h374q62 0 85 -25t23 -62q0 -15 -3 -30l-12 -78h-73z" />
    <glyph glyph-name="uni0417" unicode="&#x417;" horiz-adv-x="436" 
d="M162 306q40 15 75 33t61.5 39t42 45.5t15.5 52.5q0 19 -7 35.5t-24 30t-45.5 22t-72.5 10.5l-15 -97h-75l29 180q62 0 115 -9t92 -28.5t61 -51.5t22 -77q0 -46 -20.5 -86t-55.5 -73q-11 -10 -22 -19l15 -11q37 -27 57 -61.5t20 -69.5q0 -39 -16.5 -71t-45.5 -54t-69 -34
t-87 -12h-222l12 76h222q60 0 91 25.5t31 60.5q0 23 -14 47.5t-48 49.5l-15 10q-41 -21 -85 -35z" />
    <glyph glyph-name="uni0418" unicode="&#x418;" horiz-adv-x="620" 
d="M598 0h-29q-63 0 -93 26.5t-19 96.5l55 348l-375 -471h-77l102 650h85l-75 -478l382 478h71l-79 -501q-6 -38 2.5 -55.5t38.5 -17.5h23z" />
    <glyph glyph-name="uni0419" unicode="&#x419;" horiz-adv-x="620" 
d="M607 862l-4 -27q-4 -27 -13 -49.5t-26 -39t-44 -25.5t-67 -9h-179l11 73h177q58 0 66 53l4 24h75zM598 0h-29q-63 0 -93 26.5t-19 96.5l55 348l-375 -471h-77l102 650h85l-75 -478l382 478h71l-79 -501q-6 -38 2.5 -55.5t38.5 -17.5h23z" />
    <glyph glyph-name="uni0423" unicode="&#x423;" 
d="M578 630l-308 -531q-58 -99 -157 -99h-62l12 76h28q29 0 56 10.5t45 42.5l70 120l-124 285q-10 23 -25.5 31.5t-41.5 8.5h-21l12 76h36q25 0 42.5 -4t31 -13.5t24 -27t22.5 -44.5l96 -223l185 319z" />
    <glyph glyph-name="uni0424" unicode="&#x424;" horiz-adv-x="707" 
d="M476 582q63 0 108.5 -19.5t75 -52t43.5 -74.5t14 -88q0 -64 -23 -123t-65.5 -105t-104 -73.5t-138.5 -28.5l-8 -54q-11 -70 -49.5 -96.5t-101.5 -26.5h-69l12 76h63q30 0 44 17.5t20 55.5l4 28q-62 0 -107 18.5t-75 50t-44.5 73.5t-14.5 88q0 63 22 122.5t64.5 106
t104 75t139.5 30.5l15 92h-58q-38 0 -52.5 -13.5t-18.5 -39.5l-3 -21h-73l5 33q4 24 12.5 45t24.5 37t41.5 25.5t62.5 9.5h237l-12 -76h-81zM634 329q0 34 -10.5 66t-31.5 56.5t-53 39t-76 14.5l-64 -410q55 0 98.5 20t74 52.5t46.5 74.5t16 87zM378 505q-54 -1 -98 -23
t-75 -57t-47.5 -78.5t-16.5 -88.5q0 -33 10.5 -62.5t31.5 -52t53.5 -35.5t76.5 -13z" />
    <glyph glyph-name="uni0426" unicode="&#x426;" horiz-adv-x="656" 
d="M571 -142l13 81q1 5 1 9v8q0 22 -12 33t-41 11h-341q-51 0 -79.5 29.5t-28.5 71.5v9q0 5 1 10l60 381q3 16 3 29q0 44 -44 44h-23l12 76h29q54 0 84.5 -19.5t30.5 -70.5q0 -15 -3 -33l-61 -382q-1 -5 -1 -9v-8q0 -29 16.5 -40.5t44.5 -11.5h223l90 574h85l-90 -574h27
q30 0 49 -7t30 -19.5t15.5 -29.5t4.5 -36t-3 -40l-14 -86h-78z" />
    <glyph glyph-name="uni0429" unicode="&#x429;" horiz-adv-x="884" 
d="M799 -142l13 81q1 5 1 9v8q0 22 -12 33t-41 11h-569q-51 0 -79.5 29.5t-28.5 71.5v9q0 5 1 10l60 381q3 16 3 29q0 44 -44 44h-23l12 76h29q54 0 84.5 -19.5t30.5 -70.5q0 -15 -3 -33l-61 -382q-1 -5 -1 -9v-8q0 -29 16.5 -40.5t44.5 -11.5h148l90 574h85l-90 -574h218
l90 574h85l-90 -574h27q30 0 49 -7t30 -19.5t15.5 -29.5t4.5 -36t-3 -40l-14 -86h-78z" />
    <glyph glyph-name="uni0428" unicode="&#x428;" horiz-adv-x="811" 
d="M191 0q-51 0 -79.5 29.5t-28.5 71.5v9q0 5 1 10l60 381q3 16 3 29q0 44 -44 44h-23l12 76h29q54 0 84.5 -19.5t30.5 -70.5q0 -15 -3 -33l-61 -382q-1 -5 -1 -9v-8q0 -29 16.5 -40.5t44.5 -11.5h148l90 574h85l-90 -574h218l90 574h85l-102 -650h-565z" />
    <glyph glyph-name="uni0427" unicode="&#x427;" horiz-adv-x="552" 
d="M530 0h-29q-54 0 -84.5 19.5t-30.5 70.5q0 15 3 33l23 145h-208q-50 0 -77 26.5t-27 65.5q0 5 0.5 9.5t1.5 9.5l19 122q3 16 3 29q0 44 -44 44h-23l12 76h29q54 0 84.5 -19.5t30.5 -70.5q0 -15 -3 -33l-18 -112q-1 -6 -1.5 -11t-0.5 -10q0 -23 12 -34.5t41 -11.5h182
l47 302h85l-79 -501q-3 -17 -3 -29q0 -44 44 -44h23z" />
    <glyph glyph-name="uni042A" unicode="&#x42a;" horiz-adv-x="635" 
d="M261 574h-64q-38 0 -52.5 -13.5t-18.5 -39.5l-3 -21h-73l5 33q4 24 12.5 45t24.5 37t41.5 25.5t62.5 9.5h162l-90 -574h135q35 0 62.5 12.5t46.5 32.5t29 45.5t10 52.5q0 21 -6.5 40t-20 33.5t-34 23.5t-48.5 9h-97l12 76h108q43 0 75 -14t53 -37t31.5 -53.5t10.5 -63.5
q0 -44 -16.5 -85.5t-47.5 -74.5t-76 -53t-102 -20h-222z" />
    <glyph glyph-name="uni042C" unicode="&#x42c;" horiz-adv-x="544" 
d="M266 401h108q43 0 75 -14t53 -37t31.5 -53.5t10.5 -63.5q0 -44 -16.5 -85.5t-47.5 -74.5t-76 -53t-102 -20h-222l79 501q3 16 3 29q0 44 -44 44h-23l12 76h29q54 0 84.5 -19.5t30.5 -70.5q0 -15 -3 -33l-71 -451h135q35 0 62.5 12.5t46.5 32.5t29 45.5t10 52.5
q0 21 -6.5 40t-20 33.5t-34 23.5t-48.5 9h-97z" />
    <glyph glyph-name="uni042B" unicode="&#x42b;" horiz-adv-x="778" 
d="M266 401h108q43 0 75 -14t53 -37t31.5 -53.5t10.5 -63.5q0 -44 -16.5 -85.5t-47.5 -74.5t-76 -53t-102 -20h-222l79 501q3 16 3 29q0 44 -44 44h-23l12 76h29q54 0 84.5 -19.5t30.5 -70.5q0 -15 -3 -33l-71 -451h135q35 0 62.5 12.5t46.5 32.5t29 45.5t10 52.5
q0 21 -6.5 40t-20 33.5t-34 23.5t-48.5 9h-97zM756 0h-29q-54 0 -84.5 19.5t-30.5 70.5q0 15 3 33l83 527h85l-79 -501q-3 -17 -3 -29q0 -44 44 -44h23z" />
    <glyph glyph-name="uni042E" unicode="&#x42e;" horiz-adv-x="869" 
d="M949 579l-93 -48q17 -34 24.5 -72t7.5 -79q0 -72 -23 -141t-67 -123t-108 -87t-146 -33q-63 0 -109 20t-76 54t-44.5 79.5t-14.5 97.5q0 22 2 45h-91l-46 -292h-85l79 501q3 16 3 29q0 44 -44 44h-23l12 76h29q54 0 84.5 -19.5t30.5 -70.5q0 -15 -3 -33l-25 -158h94l6 20
q24 73 68.5 132.5t109.5 97.5t148 38q54 0 94.5 -17.5t69.5 -47.5l110 58zM556 73q57 0 102.5 26t78 68.5t49.5 96t17 108.5q0 32 -6 62.5t-19 56.5q-50 -24 -99 -24q-22 0 -42.5 5.5t-36 17.5t-25 31t-9.5 46q-43 -17 -76.5 -50t-56.5 -74.5t-35 -88.5t-12 -93
q0 -39 10 -73.5t31 -60t53 -40t76 -14.5zM729 552q-18 13 -41 20.5t-51 7.5q7 -35 50 -35q20 0 42 7z" />
    <glyph glyph-name="uni042D" unicode="&#x42d;" horiz-adv-x="526" 
d="M173 327h276q-4 31 -15 62q-17 48 -48 85.5t-73.5 62t-93.5 30.5l-17 -112h-78l32 202q91 0 162 -31.5t119.5 -82.5t73.5 -114.5t25 -127.5q0 -63 -21 -117.5t-63 -95.5t-105.5 -64.5t-147.5 -23.5h-184l12 76h175q64 0 111 17.5t78 47t45 68.5q8 21 12 44h-286z" />
    <glyph glyph-name="uni042F" unicode="&#x42f;" horiz-adv-x="576" 
d="M367 0l41 263h-112l-151 -193q-29 -36 -57.5 -53t-75.5 -17h-42l12 76h21q48 0 78 39l130 166q-24 13 -43 31q-23 22 -35.5 50t-12.5 57q0 49 15.5 91.5t49 73.5t86 48.5t126.5 17.5h279l-12 -76h-122l-90 -574h-85zM231 363q27 -27 84 -27h105l37 238h-96q-35 0 -64 -12
t-49.5 -31.5t-32 -45t-11.5 -52.5q0 -43 27 -70z" />
    <glyph glyph-name="uni0416" unicode="&#x416;" horiz-adv-x="822" 
d="M356 0l36 232l-31 55l-180 -204q-37 -42 -73 -62.5t-85 -20.5h-53l12 76h21q30 0 52 5t43 29l221 250l-103 180q-18 34 -77 34h-27l12 76h45q49 0 77 -20.5t51 -62.5l115 -207l46 290h85l-46 -289l181 206q37 42 71 62.5t83 20.5h45l-12 -76h-27q-31 0 -50 -9t-35 -27
l-160 -180l140 -248q11 -20 31.5 -27t56.5 -7h18l-12 -76h-53q-49 0 -76 24.5t-51 65.5l-115 200l-55 -62l-36 -228h-85z" />
    <glyph glyph-name="a" unicode="a" horiz-adv-x="538" 
d="M484 285l-22 -139q-3 -18 -3 -31q0 -21 11.5 -30t41.5 -9h18l-12 -76h-36q-54 0 -82.5 18t-28.5 68q-39 -43 -85.5 -66.5t-92.5 -23.5q-66 0 -102 37.5t-36 101.5q0 70 31 128t83.5 99.5t121.5 64.5t144 23h158l-12 -76h-146q-54 0 -106.5 -13.5t-93.5 -40.5t-66.5 -69
t-25.5 -99q0 -23 7 -38t18 -23.5t26 -12t30 -3.5q30 0 58.5 16t52 41.5t39.5 57t21 63.5l5 32h84z" />
    <glyph glyph-name="b" unicode="b" horiz-adv-x="534" 
d="M98 650h36q54 0 82.5 -18t28.5 -67q0 -16 -3 -35l-25 -162q35 37 83.5 63t102.5 26q66 0 103.5 -40t37.5 -105q0 -54 -24.5 -109.5t-70.5 -100.5t-113 -73.5t-151 -28.5h-110l79 504q3 18 3 30q0 22 -12 31t-41 9h-18zM212 75q40 0 83.5 16.5t79 46t58.5 69t23 86.5
q0 36 -22 59t-64 23q-30 0 -59.5 -15.5t-55 -41.5t-43 -59t-23.5 -68l-19 -116h42z" />
    <glyph glyph-name="p" unicode="p" horiz-adv-x="534" 
d="M40 -218l83 522q3 16 3 30q0 23 -11.5 31.5t-41.5 8.5h-18l12 76h36q53 0 81.5 -18t28.5 -67q36 38 86 65t104 27q66 0 103.5 -40t37.5 -105q0 -66 -30.5 -123t-81 -99t-115 -66t-132.5 -24h-26l-35 -218h-84zM210 75q42 0 85.5 17t79 46t58.5 69t23 86q0 36 -22 59
t-64 23q-30 0 -59.5 -15.5t-55 -41.5t-43 -59t-23.5 -68l-19 -116h40z" />
    <glyph glyph-name="d" unicode="d" horiz-adv-x="543" 
d="M555 650l-79 -504q-3 -18 -3 -31q0 -21 11.5 -30t41.5 -9h18l-12 -76h-36q-54 0 -82.5 17.5t-28.5 67.5q-35 -37 -84.5 -63t-103.5 -26q-66 0 -104 39t-38 103q0 54 24.5 109.5t71 100.5t113 73.5t150.5 28.5h25l32 200h84zM228 75q28 0 58 14.5t55.5 38.5t43.5 55t23 64
l20 128h-40q-41 0 -84.5 -16.5t-79 -45.5t-58.5 -69t-23 -87q0 -36 22 -59t63 -23z" />
    <glyph glyph-name="c" unicode="c" horiz-adv-x="444" 
d="M415 0h-202q-47 0 -79.5 11t-53.5 29.5t-30.5 42.5t-9.5 50q0 62 31.5 120t87 103t131 72.5t164.5 28.5l-27 -169h-76l13 83q-38 -2 -80.5 -21t-78 -49.5t-59 -68.5t-23.5 -76q0 -16 4.5 -30.5t16.5 -25.5t33 -17.5t54 -6.5h196z" />
    <glyph glyph-name="e" unicode="e" horiz-adv-x="451" 
d="M415 0h-202q-47 0 -79.5 11t-53.5 30t-30.5 43t-9.5 51q0 55 28.5 112.5t74 104t102.5 76t114 29.5q47 0 74.5 -27t27.5 -64t-16 -67t-43 -52.5t-62 -38t-74 -24.5l-144 -34q2 -32 28 -53t83 -21h194zM358 384q-26 0 -56 -13.5t-59 -35.5t-53.5 -48.5t-40.5 -52.5l66 15
q19 4 47.5 12t55 20.5t45 32t18.5 48.5q0 12 -6.5 17t-16.5 5z" />
    <glyph glyph-name="f" unicode="f" horiz-adv-x="333" 
d="M401 574h-22q-23 0 -46 -4t-42.5 -17.5t-35.5 -41.5q-13 -24 -20 -61h147l-12 -76h-147l-59 -374h-84l59 374h-58l12 76h58l1 5q9 54 32 91.5t54 60.5t67.5 33t71.5 10h36z" />
    <glyph glyph-name="h" unicode="h" horiz-adv-x="539" 
d="M98 650h36q54 0 82.5 -18t28.5 -67q0 -16 -3 -35l-39 -251q21 37 47.5 69.5t57 56.5t64.5 38t70 14q53 0 75 -24t22 -76q0 -30 -6 -67l-45 -290h-84l47 301q3 16 3 31q0 22 -9 33.5t-30 11.5q-30 0 -58.5 -19t-55 -50t-50 -71t-42 -81.5t-31.5 -82.5t-19 -73h-84l79 504
q3 18 3 30q0 22 -12 31t-41 9h-18z" />
    <glyph glyph-name="n" unicode="n" horiz-adv-x="544" 
d="M72 450h36q54 0 82.5 -18t28.5 -67q0 -16 -3 -35l-8 -51q21 37 47.5 69.5t57 56.5t64.5 38t70 14q53 0 75 -24t22 -76q0 -30 -6 -67l-45 -290h-84l47 301q3 16 3 31q0 22 -9 33.5t-30 11.5q-30 0 -58.5 -19t-55 -50t-50 -71t-42 -81.5t-31.5 -82.5t-19 -73h-84l48 304
q3 16 3 30q0 23 -11.5 31.5t-41.5 8.5h-18z" />
    <glyph glyph-name="g" unicode="g" horiz-adv-x="538" 
d="M69 -134h134q24 0 47.5 4t44.5 18t36.5 41t23.5 74l13 80q-39 -42 -85 -64.5t-91 -22.5q-66 0 -101.5 37.5t-35.5 101.5q0 70 31 128t83.5 99.5t121.5 64.5t144 23h158l-12 -76h-146q-56 0 -108.5 -13.5t-93 -41.5t-65.5 -69.5t-25 -97.5q0 -23 7 -38t18 -23.5t26 -12
t30 -3.5q29 0 57.5 15t51.5 40t39.5 57.5t22.5 67.5l5 30h84l-49 -308q-9 -54 -32 -91.5t-54.5 -60.5t-68.5 -33t-72 -10h-152z" />
    <glyph glyph-name="uni041F" unicode="&#x41f;" horiz-adv-x="701" 
d="M679 0h-29q-54 0 -84.5 19.5t-30.5 70.5q0 15 3 33l71 451h-293l-90 -574h-85l90 574h-14q-38 0 -52.5 -13.5t-18.5 -39.5l-3 -21h-73l5 33q4 24 12.5 45t24.5 37t41.5 25.5t62.5 9.5h490l-79 -501q-3 -17 -3 -29q0 -44 44 -44h23z" />
    <glyph glyph-name="i" unicode="i" horiz-adv-x="220" 
d="M255 582q0 -29 -21.5 -52t-53.5 -23q-24 0 -39 15t-15 38q0 29 21 51.5t53 22.5q25 0 40 -14.5t15 -37.5zM80 0l48 304q3 18 3 30q0 22 -11.5 31t-41.5 9h-18l12 76h36q54 0 82.5 -18t28.5 -67q0 -16 -3 -35l-52 -330h-84z" />
    <glyph glyph-name="j" unicode="j" horiz-adv-x="305" 
d="M55 288l192 162h62l-79 -498q-12 -76 -57.5 -123t-126.5 -47h-36l12 76h23q50 0 72.5 28.5t30.5 78.5l56 354l-103 -86zM350 583q0 -14 -5.5 -28t-15.5 -24.5t-23.5 -17t-29.5 -6.5q-25 0 -40 15t-15 38q0 15 6 28t16 23.5t23.5 16.5t29.5 6q25 0 39.5 -14t14.5 -37z" />
    <glyph glyph-name="k" unicode="k" horiz-adv-x="487" 
d="M245 204q30 13 59 31.5t52.5 39.5t38 44t14.5 45q0 8 -3.5 13t-11.5 5q-14 0 -37 -14t-47 -40q-21 -23 -42.5 -53t-41 -66t-35.5 -77t-25 -85l-7 -47h-84l79 504q3 16 3 30q0 23 -11.5 31.5t-41.5 8.5h-18l12 76h36q54 0 82.5 -18t28.5 -67q0 -16 -3 -35l-39 -247
q22 34 46.5 65.5t52 55.5t57 38.5t61.5 14.5q37 0 52 -21t15 -51q0 -32 -11 -61t-30.5 -54.5t-45 -47t-53.5 -38.5l22 -51q7 -17 14.5 -28.5t17 -18t22.5 -9t32 -2.5h23l-11 -75h-38q-49 0 -79 18.5t-44 48.5l-61 137v0z" />
    <glyph glyph-name="uni043A" unicode="&#x43a;" 
d="M72 450h36q54 0 82.5 -18t28.5 -67q0 -16 -3 -35l-16 -102l105 140q33 45 68.5 63.5t85.5 18.5h44l-12 -76h-27q-34 0 -55 -13t-34 -30l-67 -84l79 -140q13 -23 31.5 -27t47.5 -4h23l-12 -76h-54q-47 0 -73.5 23.5t-50.5 65.5l-48 87l-74 -92l-13 -84h-84l48 304
q3 16 3 30q0 23 -11.5 31.5t-41.5 8.5h-18z" />
    <glyph glyph-name="r" unicode="r" horiz-adv-x="463" 
d="M92 273l32 106q-21 4 -32.5 18.5t-11.5 36.5q0 17 6.5 31.5t17.5 25.5t25.5 17t30.5 6q26 0 43 -15.5t17 -38.5v-4q0 -1 -1 -6h71q43 0 60.5 -21.5t17.5 -53.5q0 -11 -2 -23t-5 -24l-47 -169q-3 -12 -5.5 -22.5t-2.5 -21.5q0 -22 18 -30.5t68 -8.5h101l-12 -76h-117
q-82 0 -114.5 20t-32.5 62q0 25 9 58l48 171q6 19 6 34q0 33 -38 33h-44l-33 -116z" />
    <glyph glyph-name="s" unicode="s" horiz-adv-x="421" 
d="M20 188l331 324l52 -57l-73 -70q-26 -25 -26 -54q0 -13 5 -25t11 -21l81 -106q12 -17 18.5 -35t6.5 -35q0 -45 -36 -77t-106 -32h-201l12 76h172q39 0 60 5t21 28q0 11 -10 24t-19 25l-71 91q-15 20 -18 38l-157 -156z" />
    <glyph glyph-name="t" unicode="t" horiz-adv-x="342" 
d="M92 450h55l14 85h84l-14 -85h121l-12 -76h-121l-27 -173q-2 -15 -3.5 -28t-1.5 -24q0 -23 5 -37.5t15 -22.5t26 -10.5t38 -2.5h59l-12 -76h-70q-31 0 -58 5t-47 19t-31.5 38.5t-11.5 62.5q0 11 1 23.5t3 26.5l31 199h-55z" />
    <glyph glyph-name="y" unicode="y" horiz-adv-x="530" 
d="M150 -134h84q23 0 47 4t44.5 18.5t36 41.5t23.5 74l27 170q-21 -37 -47.5 -69.5t-57 -56.5t-64.5 -38t-70 -14q-53 0 -75.5 24t-22.5 77q0 28 6 66l46 287h84l-47 -298q-3 -17 -3 -31q0 -22 9 -33.5t30 -11.5q30 0 58.5 18.5t55 49.5t49.5 70.5t41.5 81t32 81.5t19.5 73
h84l-75 -473q-9 -54 -32 -91.5t-54.5 -60.5t-68 -33t-71.5 -10h-102z" />
    <glyph glyph-name="v" unicode="v" horiz-adv-x="482" 
d="M72 450h36q31 0 50.5 -6.5t31 -20.5t17 -36.5t9.5 -54.5l31 -256q45 3 74 19t46 40t23.5 55t6.5 64q0 44 -8 88t-18 81l85 28q12 -38 19 -81.5t7 -88.5q0 -53 -12 -103.5t-41.5 -90t-79 -63.5t-124.5 -24h-55l-37 313q-2 15 -4 26.5t-7.5 19t-15.5 11.5t-28 4h-18z" />
    <glyph glyph-name="x" unicode="x" horiz-adv-x="469" 
d="M494 403l-177 -177l70 -122q8 -14 18.5 -21t28.5 -7h20l-12 -76h-37q-20 0 -33 3t-23 11t-18.5 21.5t-20.5 34.5l-54 95l-169 -169l-57 55l185 185l-62 110q-8 14 -17.5 21t-25.5 7h-22l12 76h34q18 0 31 -3.5t23 -11.5t19 -21t21 -33l48 -85l161 161z" />
    <glyph glyph-name="u" unicode="u" horiz-adv-x="560" 
d="M548 0h-36q-54 0 -82.5 18t-28.5 67q0 15 3 35l8 51q-21 -37 -47.5 -69t-57 -55.5t-64.5 -37t-70 -13.5q-53 0 -75.5 24t-22.5 77q0 28 6 66l46 287h84l-47 -298q-3 -17 -3 -31q0 -22 9 -33.5t30 -11.5q30 0 58.5 18.5t55 49.5t49.5 70.5t41.5 81t32 81.5t19.5 73h84
l-48 -304q-3 -18 -3 -30q0 -22 12 -31t41 -9h18z" />
    <glyph glyph-name="z" unicode="z" horiz-adv-x="440" 
d="M116 450h233q61 0 86 -22.5t25 -54.5q0 -33 -21 -69.5t-53 -64.5l-141 -121l115 -130q17 -20 27.5 -41t10.5 -44q0 -24 -8 -46t-25.5 -38.5t-45 -26.5t-67.5 -10h-242l26 162h75l-14 -87h160q31 0 43 11.5t12 28.5q0 12 -7.5 22.5t-16.5 21.5l-133 154l8 54l167 142
q14 11 26.5 26.5t12.5 30.5q0 16 -11 21.5t-36 5.5h-143l-14 -87h-75z" />
    <glyph glyph-name="o" unicode="o" horiz-adv-x="535" 
d="M583 374h-8q-26 0 -57 -16q-15 -7 -32 -15l4 -10q12 -35 12 -73q0 -53 -19 -100.5t-54 -84t-84.5 -58t-109.5 -21.5q-49 0 -85.5 15t-61 40t-36.5 58.5t-12 71.5q0 52 19 101.5t54 88.5t84.5 62.5t110.5 23.5q49 0 85 -17q31 -14 53 -36q31 16 63 30q36 16 65 16h21z
M247 71q40 0 72.5 16t55 42.5t34.5 59.5t12 67q0 27 -8 49q-16 -7 -33 -14q-37 -15 -75 -15q-35 0 -62 25q-21 21 -25 63q-29 -15 -49 -39q-22 -27 -34.5 -61t-12.5 -70q0 -51 31 -87t94 -36zM296 384q-8 0 -16 -1q3 -15 12 -22q14 -10 33 -10q18 0 46 13q-29 20 -75 20z
" />
    <glyph glyph-name="D" unicode="D" horiz-adv-x="636" 
d="M82 650h124q113 0 197 -29t139 -76.5t82 -107t27 -119.5q0 -68 -24 -126.5t-72 -101t-119 -66.5t-165 -24h-170l90 574h-121zM259 76q150 0 226.5 61t82.5 169q0 47 -20 91.5t-57.5 80t-92 59t-123.5 28.5l-77 -489h61z" />
    <glyph glyph-name="w" unicode="w" horiz-adv-x="742" 
d="M421 78q-32 -35 -79 -56.5t-117 -21.5h-55l-37 313q-2 15 -4 26.5t-7.5 19t-16 11.5t-28.5 4h-17l12 76h35q31 0 50.5 -6.5t31 -20.5t17 -36.5t9.5 -54.5l31 -256q45 3 74 19t46 40.5t24 55.5t7 65q0 43 -8.5 87t-17.5 80l86 28l52 -375q44 4 72.5 19.5t45.5 39.5
t23.5 55t6.5 64q0 44 -8 88t-17 81l84 28q12 -38 19 -80.5t7 -87.5q0 -53 -12 -104t-41 -91t-78.5 -64t-125.5 -24h-54z" />
    <glyph glyph-name="m" unicode="m" horiz-adv-x="846" 
d="M72 450h36q54 0 82.5 -18t28.5 -67q0 -16 -3 -35l-8 -49q21 36 46 68t53.5 56t61 38t68.5 14q52 0 74.5 -23.5t22.5 -74.5q0 -15 -2 -32t-5 -37l-2 -14q45 63 105 102t122 39q45 0 69.5 -25.5t24.5 -83.5q0 -12 -1.5 -26t-3.5 -30l-39 -252h-84l41 263q3 16 3 29
q0 22 -9 34t-30 12q-39 0 -78 -28.5t-72 -75.5t-57 -108t-34 -126h-83l47 301q3 16 3 30q0 23 -9 34.5t-30 11.5q-25 0 -50.5 -17t-50 -45.5t-46.5 -65.5t-41 -77t-33 -79.5t-22 -72.5l-3 -20h-84l48 304q3 18 3 30q0 22 -11.5 31t-41.5 9h-18z" />
    <glyph glyph-name="q" unicode="q" horiz-adv-x="533" 
d="M581 374h-18q-39 0 -52.5 -15.5t-19.5 -54.5l-83 -522h-84l35 218h-27q-72 0 -123.5 21t-84.5 54.5t-48.5 76t-15.5 85.5q0 19 3 39q6 39 23.5 72.5t43.5 57.5t58.5 37.5t70.5 13.5q54 0 95 -27t64 -65q17 49 51 67t88 18h36zM370 75l21 140q1 5 1 10v10q0 28 -10.5 53.5
t-28 44.5t-40.5 30.5t-48 11.5q-46 0 -77.5 -28.5t-38.5 -72.5q-3 -17 -3 -31q0 -38 15 -68.5t40 -53t58 -34.5t70 -12h41z" />
    <glyph glyph-name="uni043D" unicode="&#x43d;" horiz-adv-x="557" 
d="M545 0h-36q-54 0 -82.5 18t-28.5 67q0 15 3 35l10 68h-218l-29 -188h-84l48 304q3 18 3 30q0 22 -11.5 31t-41.5 9h-18l12 76h36q54 0 82.5 -18t28.5 -67q0 -16 -3 -35l-11 -66h218l30 186h84l-48 -304q-3 -18 -3 -30q0 -22 11.5 -31t41.5 -9h18z" />
    <glyph glyph-name="uni0438" unicode="&#x438;" horiz-adv-x="557" 
d="M80 0l48 304q3 18 3 30q0 22 -11.5 31t-41.5 9h-18l12 76h36q54 0 82.5 -18t28.5 -67q0 -16 -3 -35l-29 -182l277 302h73l-48 -304q-3 -18 -3 -30q0 -22 11.5 -31t41.5 -9h18l-12 -76h-36q-54 0 -82.5 18t-28.5 67q0 15 3 35l28 180l-275 -300h-74z" />
    <glyph glyph-name="uni0439" unicode="&#x439;" horiz-adv-x="557" 
d="M503 654l-5 -29q-4 -27 -13 -49.5t-26 -39t-44 -25.5t-67 -9h-136l12 73h134q30 0 46.5 14.5t20.5 38.5l4 26h74zM80 0l48 304q3 18 3 30q0 22 -11.5 31t-41.5 9h-18l12 76h36q54 0 82.5 -18t28.5 -67q0 -16 -3 -35l-29 -182l277 302h73l-48 -304q-3 -18 -3 -30
q0 -22 11.5 -31t41.5 -9h18l-12 -76h-36q-54 0 -82.5 18t-28.5 67q0 15 3 35l28 180l-275 -300h-74z" />
    <glyph glyph-name="uni0431" unicode="&#x431;" horiz-adv-x="491" 
d="M521 650l-1 -10q-5 -31 -14 -55t-25 -40t-40.5 -24.5t-60.5 -8.5h-54q-24 0 -48 -5t-45 -20t-36.5 -42t-22.5 -71l-2 -13q36 33 75.5 48.5t79.5 15.5q33 0 63.5 -10.5t53 -31t36 -50.5t13.5 -69q0 -52 -17 -100t-49.5 -85.5t-79.5 -60t-107 -22.5q-36 0 -68.5 10
t-57 30.5t-39.5 52t-15 74.5q0 5 0.5 13.5t4 32t10.5 68t20 122.5q9 54 32 92t54.5 61.5t68 34t71.5 10.5h49q38 0 54.5 9t21.5 44h75zM309 348q-37 0 -78.5 -20.5t-74.5 -63.5q-4 -24 -6 -39.5t-3 -24.5l-2 -14v-8q0 -29 8.5 -49t22.5 -32.5t33 -18.5t39 -6q35 0 64 14
t50 37.5t33 55t12 66.5q0 52 -28 77.5t-70 25.5z" />
    <glyph glyph-name="uni0432" unicode="&#x432;" horiz-adv-x="466" 
d="M57 450h248q62 0 96 -28.5t34 -70.5q0 -29 -14 -53t-39 -45q44 -11 64 -39.5t20 -62.5q0 -35 -14.5 -63t-40 -47.5t-59.5 -30t-74 -10.5h-86q-64 0 -88 23.5t-24 62.5q0 15 3 33l41 255h-79zM272 255q36 10 59 30.5t23 46.5q0 18 -14.5 30.5t-44.5 12.5h-87l-37 -230
q-1 -6 -1.5 -13.5t-0.5 -13.5q0 -26 12.5 -34.5t41.5 -8.5h63q17 0 35 3.5t32.5 11t24 20t9.5 31.5q0 21 -17 37t-61 16h-47z" />
    <glyph glyph-name="uni0433" unicode="&#x433;" horiz-adv-x="431" 
d="M218 158q-26 -19 -42.5 -34t-16.5 -27q0 -14 15.5 -17.5t51.5 -3.5h194l-13 -76h-225q-59 0 -88 26.5t-29 61.5q0 52 52 92l169 128q26 20 40 33t14 24q0 16 -19 16q-8 0 -22 -5t-46 -22l-148 -78l-36 70l157 84q36 20 62.5 23.5t43.5 3.5q19 0 37 -5.5t31.5 -16.5
t22 -27t8.5 -38q0 -39 -23.5 -64t-61.5 -53z" />
    <glyph glyph-name="uni0437" unicode="&#x437;" horiz-adv-x="440" 
d="M116 450h233q61 0 86 -22.5t25 -54.5q0 -33 -21 -69.5t-53 -64.5l-141 -121l115 -130q17 -20 27.5 -41t10.5 -44q0 -24 -8 -46t-25.5 -38.5t-45 -26.5t-67.5 -10h-242l26 162h75l-14 -87h160q31 0 43 11.5t12 28.5q0 12 -7.5 22.5t-16.5 21.5l-133 154l8 54l167 142
q14 11 26.5 26.5t12.5 30.5q0 16 -11 21.5t-36 5.5h-143l-14 -87h-75z" />
    <glyph glyph-name="uni0436" unicode="&#x436;" horiz-adv-x="708" 
d="M459 450l-34 -215l99 133q33 45 69 63.5t85 18.5h45l-12 -76h-27q-35 0 -55.5 -13t-33.5 -30l-68 -85l79 -139q14 -23 32 -27t47 -4h23l-12 -76h-49q-48 0 -77 23.5t-52 66.5l-47 86l-69 -87l-14 -89h-83l16 102l-31 67l-80 -92q-19 -21 -36.5 -36t-36 -24t-38.5 -13
t-44 -4h-45l12 76h15q29 0 48.5 4.5t38.5 26.5l128 146l-43 93q-8 17 -25.5 22.5t-51.5 5.5h-27l12 76h45q49 0 78.5 -18.5t48.5 -63.5l53 -130l34 212h83z" />
    <glyph glyph-name="uni0434" unicode="&#x434;" horiz-adv-x="519" 
d="M212 650h47q49 0 96 -6.5t83.5 -27t58.5 -58.5t22 -101q0 -7 -0.5 -16t-2 -23.5t-4.5 -37t-9 -57.5l-1 -2l-6 -42q-13 -81 -43.5 -135t-70.5 -87t-84.5 -47t-85.5 -14q-75 0 -116 40.5t-41 107.5q0 53 25 107.5t71.5 98.5t113 72t149.5 28h23q-3 42 -17 66
q-17 28 -43.5 41t-59.5 15t-64 2h-53zM388 375q-42 0 -85.5 -16t-79 -45t-58.5 -69t-23 -88q0 -38 21.5 -60t63.5 -22q28 0 58 14t55.5 38t43.5 56.5t24 70.5l19 121h-39z" />
    <glyph glyph-name="uni041B" unicode="&#x41b;" horiz-adv-x="584" 
d="M599 76l-12 -76h-33q-25 0 -44 3.5t-32.5 14t-22.5 31t-15 53.5l-62 385l-5 64l-25 -64l-231 -487h-87l310 650h97l86 -529q4 -23 15 -34t40 -11h21z" />
    <glyph glyph-name="uni043B" unicode="&#x43b;" horiz-adv-x="493" 
d="M498 76l-12 -76h-34q-24 0 -42.5 4.5t-32 16.5t-23.5 31.5t-18 49.5l-57 218l-169 -320h-90l238 450h74l89 -332q5 -17 18.5 -29.5t37.5 -12.5h21z" />
    <glyph glyph-name="uni043C" unicode="&#x43c;" horiz-adv-x="640" 
d="M628 0h-36q-54 0 -82.5 18t-28.5 67q0 15 3 35l31 197l-194 -178l-137 176l-50 -315h-84l71 450h73l145 -195l207 195h74l-48 -304q-3 -17 -3 -30q0 -23 11.5 -31.5t41.5 -8.5h18z" />
    <glyph glyph-name="uni043F" unicode="&#x43f;" horiz-adv-x="541" 
d="M414 304q3 18 3 30q0 22 -11.5 31.5t-41.5 9.5h-156l-59 -375h-84l59 374h-79l12 76h337q54 0 82.5 -18t28.5 -67q0 -16 -3 -35l-29 -184q-3 -18 -3 -31q0 -21 11.5 -30t41.5 -9h18l-12 -76h-36q-54 0 -82.5 18t-28.5 67q0 15 3 35z" />
    <glyph glyph-name="uni0440" unicode="&#x440;" horiz-adv-x="534" 
d="M40 -218l83 522q3 16 3 30q0 23 -11.5 31.5t-41.5 8.5h-18l12 76h36q53 0 81.5 -18t28.5 -67q36 38 86 65t104 27q66 0 103.5 -40t37.5 -105q0 -66 -30.5 -123t-81 -99t-115 -66t-132.5 -24h-26l-35 -218h-84zM210 75q42 0 85.5 17t79 46t58.5 69t23 86q0 36 -22 59
t-64 23q-30 0 -59.5 -15.5t-55 -41.5t-43 -59t-23.5 -68l-19 -116h40z" />
    <glyph glyph-name="uni0444" unicode="&#x444;" horiz-adv-x="581" 
d="M209 -218l34 214q-49 1 -85.5 16t-60.5 40t-35.5 58.5t-11.5 70.5q0 57 18.5 106t53 86t83.5 59t111 25l7 47q3 18 3 30q0 22 -11.5 31t-40.5 9h-41l12 76h58q54 0 82.5 -17.5t28.5 -66.5q0 -17 -3 -36l-11 -73q48 -1 84 -18t60 -44t35.5 -62t11.5 -73q0 -53 -19.5 -99.5
t-54.5 -81.5t-84 -57t-107 -26l-34 -214h-83zM304 384q-36 0 -67.5 -15.5t-55 -41.5t-36.5 -60t-13 -73q0 -25 7.5 -47.5t23 -39.5t38.5 -27.5t53 -10.5zM337 69q36 0 68 15t55 40.5t36.5 59t13.5 71.5q0 54 -29.5 90.5t-92.5 38.5z" />
    <glyph glyph-name="uni0446" unicode="&#x446;" horiz-adv-x="550" 
d="M460 -120l11 65q1 4 1 8v6q0 20 -11.5 30.5t-40.5 10.5h-192q-73 0 -104.5 24t-31.5 70q0 13 3 30l29 180q3 16 3 29q0 23 -11.5 32t-42.5 9h-13l12 76h31q54 0 83 -17.5t29 -67.5q0 -16 -3 -35l-32 -203q-1 -3 -1 -7v-6q0 -17 11 -27.5t38 -10.5h161l59 374h84l-59 -375
q37 -5 54 -22q23 -23 23 -66q0 -10 -1 -21.5t-3 -21.5l-11 -64h-75z" />
    <glyph glyph-name="uni0449" unicode="&#x449;" horiz-adv-x="793" 
d="M702 -120l11 65q1 4 1 8v6q0 20 -11 30.5t-40 10.5h-435q-73 0 -105 23.5t-32 70.5q0 13 3 30l29 180q3 16 3 29q0 23 -11.5 32t-42.5 9h-12l12 76h30q54 0 83 -18t29 -67q0 -16 -3 -35l-32 -203q-1 -3 -1 -7v-6q0 -17 11 -27.5t39 -10.5h131l59 374h84l-59 -374h188
l59 374h84l-59 -375q37 -5 55 -23q23 -23 23 -66q0 -10 -1 -20.5t-3 -21.5l-11 -64h-76z" />
    <glyph glyph-name="uni0447" unicode="&#x447;" horiz-adv-x="462" 
d="M450 0h-36q-54 0 -82.5 18t-28.5 67q0 15 3 35l6 41h-85q-73 0 -105.5 16.5t-32.5 65.5q0 15 3 33l5 28q3 18 3 30q0 22 -11.5 31t-41.5 9h-7l12 76h25q54 0 80.5 -17.5t26.5 -65.5q0 -16 -3 -37l-8 -51q-1 -4 -1 -11q0 -19 14.5 -25.5t40.5 -6.5h97l34 214h84l-48 -304
q-3 -18 -3 -30q0 -22 11.5 -31t41.5 -9h18z" />
    <glyph glyph-name="uni044B" unicode="&#x44b;" horiz-adv-x="672" 
d="M660 0h-36q-54 0 -82.5 18t-28.5 67q0 15 3 35l52 330h84l-48 -304q-3 -18 -3 -30q0 -22 11.5 -31t41.5 -9h18zM72 450h36q54 0 82.5 -18t28.5 -67q0 -16 -3 -35l-29 -185q-3 -18 -3 -27q0 -25 13 -34t42 -9h53q17 0 35 5.5t32.5 16.5t24 27t9.5 37q0 24 -18 42.5
t-57 18.5h-82l11 73h82q36 0 62.5 -10t44.5 -27.5t27 -40t9 -47.5q0 -39 -17.5 -70.5t-46 -53.5t-65.5 -34t-76 -12h-59q-58 0 -85 20.5t-27 66.5q0 14 3 32l29 185q3 18 3 30q0 22 -11.5 31t-41.5 9h-18z" />
    <glyph glyph-name="uni044F" unicode="&#x44f;" horiz-adv-x="479" 
d="M463 0h-36q-54 0 -82.5 18t-28.5 67q0 15 3 35l40 255h-88q-45 0 -71 -24.5t-26 -54.5q0 -21 16.5 -37.5t59.5 -16.5h60l-12 -73h-32l-79 -99q-31 -38 -66.5 -54t-77.5 -16h-33l12 76h18q23 0 43 7.5t34 24.5l57 72q-24 10 -42 27q-18 18 -28.5 39.5t-10.5 42.5
q0 70 53 115.5t161 45.5h192l-12 -75h-44l-36 -229q-3 -18 -3 -30q0 -22 12 -31t41 -9h18z" />
    <glyph glyph-name="uni044C" unicode="&#x44c;" horiz-adv-x="467" 
d="M72 450h36q54 0 82.5 -18t28.5 -67q0 -16 -3 -35l-29 -185q-3 -18 -3 -27q0 -25 13 -34t42 -9h53q17 0 35 5.5t32.5 16.5t24 27t9.5 37q0 24 -18 42.5t-57 18.5h-82l11 73h82q36 0 62.5 -10t44.5 -27.5t27 -40t9 -47.5q0 -39 -17.5 -70.5t-46 -53.5t-65.5 -34t-76 -12
h-59q-58 0 -85 20.5t-27 66.5q0 14 3 32l29 185q3 18 3 30q0 22 -11.5 31t-41.5 9h-18z" />
    <glyph glyph-name="uni044A" unicode="&#x44a;" horiz-adv-x="556" 
d="M59 375l7 43l5 32h126q54 0 82.5 -18t28.5 -67q0 -16 -3 -35l-29 -185q-3 -18 -3 -27q0 -25 13 -34t42 -9h53q17 0 35 5.5t32.5 16.5t24 27t9.5 37q0 24 -18 42.5t-57 18.5h-82l11 73h82q36 0 62.5 -10t44.5 -27.5t27 -40t9 -47.5q0 -39 -17.5 -70.5t-46 -53.5t-65.5 -34
t-76 -12h-59q-58 0 -85 20.5t-27 66.5q0 14 3 32l29 185q3 18 3 30q0 22 -11.5 31.5t-41.5 9.5h-32l-14 -87h-76z" />
    <glyph glyph-name="question" unicode="?" horiz-adv-x="485" 
d="M288 72q0 -14 -5.5 -28t-15.5 -24.5t-23.5 -17t-29.5 -6.5q-24 0 -39.5 15t-15.5 38q0 29 21.5 51.5t53.5 22.5q25 0 39.5 -14t14.5 -37zM217 273q4 27 24 57.5t55 75.5l51 62q5 6 13.5 16.5t16.5 21.5t14 22.5t6 20.5q0 14 -11.5 21.5t-37.5 7.5h-73q-37 0 -54.5 -23.5
t-22.5 -50.5l-6 -39h-72l12 76q3 21 13 40.5t26.5 34.5t40 24.5t54.5 9.5h114q59 0 82 -23t23 -56q0 -19 -7.5 -37.5t-19 -36.5t-24.5 -35t-25 -32l-46 -58q-26 -32 -47 -59.5t-26 -57.5l-3 -21h-76z" />
    <glyph glyph-name="exclam" unicode="!" horiz-adv-x="296" 
d="M184 72q0 -14 -5.5 -28t-15.5 -24.5t-23.5 -17t-29.5 -6.5q-24 0 -39.5 15t-15.5 38q0 29 21.5 51.5t53.5 22.5q25 0 39.5 -14t14.5 -37zM314 574h-19q-30 0 -45.5 -17.5t-21.5 -55.5l-44 -276h-81l48 302q11 70 49 96.5t101 26.5h25z" />
    <glyph glyph-name="at" unicode="@" horiz-adv-x="691" 
d="M466 160q-11 -35 -31 -66q-14 -22 -31 -40q-1 14 2 33l13 86l5 28h65l-15 -99q-1 -5 -1.5 -9t-0.5 -7q0 -12 6.5 -20.5t25.5 -8.5h15q22 3 37.5 20.5t25.5 41.5t14 49.5t4 43.5q0 39 -14.5 68.5t-40 49.5t-60.5 30t-77 10q-54 0 -102.5 -21t-86 -57t-59.5 -84.5
t-22 -104.5q0 -82 53 -127t145 -45h106l-10 -63h-107q-55 0 -102 13.5t-81 41.5t-53 69.5t-19 97.5q0 70 26 132.5t72.5 109t109.5 74t138 27.5q52 0 97 -13t78 -39t51.5 -65.5t18.5 -92.5q0 -31 -8 -70t-27 -73t-49 -57t-73 -23h-12q-46 0 -70 19q-15 12 -18 35
q-6 -6 -13 -12q-24 -22 -52 -34.5t-55 -12.5q-47 0 -72 27t-25 72q0 50 22.5 91.5t59.5 71.5t84.5 46.5t98.5 16.5q17 0 30.5 -1t25.5 -4l-9 -61q-20 4 -49 4q-35 0 -69.5 -8.5t-62.5 -27t-45 -47t-17 -67.5q0 -29 16 -40t36 -11q21 0 40.5 11t35.5 30.5t26.5 46t13.5 56.5z
" />
    <glyph glyph-name="one" unicode="1" horiz-adv-x="268" 
d="M169 341q0 3 0.5 5.5t0.5 4.5q0 17 -8 22t-19 5h-63l12 72h130q17 0 26.5 -10.5t9.5 -30.5q0 -8 -1 -12l-62 -397h-80z" />
    <glyph glyph-name="two" unicode="2" horiz-adv-x="414" 
d="M35 33l6 39l4 25q23 0 53 5.5t62 16.5t63 27t55 37t39 47t15 58q0 30 -18 47.5t-45 27t-58.5 12.5t-58.5 3h-57l12 72h62q38 0 80.5 -6t78 -22.5t58.5 -45t23 -74.5q0 -44 -17 -81.5t-46 -67.5t-67 -53q-27 -16 -56 -28h172l-11 -72h-354z" />
    <glyph glyph-name="three" unicode="3" horiz-adv-x="394" 
d="M-8 -118h86q106 0 158 27.5t52 91.5q0 20 -8 39t-26 34.5t-48 26t-74 13.5l8 52l128 120q14 13 24 28t10 29q0 15 -15 25t-48 10h-160l12 72h188q53 0 79 -25t26 -62q0 -32 -16.5 -62.5t-47.5 -59.5l-79 -75q65 -21 96.5 -61.5t31.5 -90.5q0 -95 -71 -149.5t-227 -54.5
h-91z" />
    <glyph glyph-name="four" unicode="4" horiz-adv-x="441" 
d="M345 414l-176 -219q-17 -21 -28 -38t-13 -31q0 -14 15.5 -19t50.5 -5h94l32 198h80l-32 -198h73l-12 -72h-72l-35 -220h-80l35 220h-144q-51 0 -79.5 15t-28.5 46q0 21 9.5 40.5t29.5 45.5l221 280z" />
    <glyph glyph-name="five" unicode="5" horiz-adv-x="387" 
d="M166 220q22 -5 42 -12q52 -18 86 -45.5t51 -62t17 -70.5q0 -56 -27 -97t-70 -68.5t-97 -41t-107 -13.5h-91l12 72h86q28 0 65 6t70 21t55.5 40.5t22.5 65.5q0 24 -12 47.5t-37 42.5t-64 32t-92 16l6 42l26 159q6 40 31 68t72 28h181l-12 -72h-128q-31 0 -48 -15.5
t-21 -39.5z" />
    <glyph glyph-name="six" unicode="6" horiz-adv-x="457" 
d="M334 363q33 0 57 -11t40 -30t23.5 -44.5t7.5 -53.5q0 -54 -20 -96.5t-53 -71.5t-75 -44.5t-86 -15.5q-79 0 -126 45t-47 126q0 58 18.5 114.5t48.5 110t67 105t74 101.5l31 42l63 -33l-23 -31l-69 -92q-36 -48 -65 -98.5t-48 -102t-19 -100.5q0 -56 29 -86t74 -30
q27 0 53.5 10.5t48.5 30t35.5 48t13.5 65.5q0 38 -17 56t-40 18q-15 0 -29 -8t-25 -21.5t-17.5 -31t-6.5 -37.5v-9l-72 -20q-5 15 -5 31q0 30 12.5 59t34 52t50.5 38t62 15z" />
    <glyph glyph-name="seven" unicode="7" horiz-adv-x="384" 
d="M10 -190l285 476q11 17 18 32.5t7 30.5q0 14 -12 21.5t-45 7.5h-182l12 72h212q62 0 85.5 -17.5t23.5 -45.5q0 -27 -13 -55t-30 -57l-275 -465h-86z" />
    <glyph glyph-name="eight" unicode="8" horiz-adv-x="439" 
d="M450 546q5 -20 5 -38q0 -36 -15.5 -68t-40.5 -57q-3 -2 -5 -4q22 -22 37 -52q21 -44 21 -97q0 -51 -17.5 -93.5t-48 -74t-73 -49t-93.5 -17.5q-78 0 -124 41.5t-46 113.5q0 37 11 73t30 68t45 59q15 16 32 29q-10 13 -17 30q-10 24 -10 52q0 36 15.5 68t41 56.5t58 39
t67.5 14.5h176l-11 -71h-176q-19 0 -36.5 -8t-31.5 -21.5t-22.5 -31t-8.5 -36.5q0 -30 20 -50.5t52 -20.5q19 0 37 8t31.5 21.5t21.5 31t8 37.5q0 15 -4 26zM361 293q-14 29 -40 44q-24 -7 -47 -7q-25 0 -46 7q-20 -11 -36 -26q-19 -18 -33.5 -40.5t-22.5 -48t-8 -50.5
q0 -45 27.5 -73t76.5 -28q32 0 58.5 12t45.5 33t29.5 48.5t10.5 59.5q0 38 -15 69z" />
    <glyph glyph-name="nine" unicode="9" horiz-adv-x="452" 
d="M183 86q-33 0 -57 11t-40 30t-23.5 44.5t-7.5 53.5q0 54 20 96.5t53 71.5t75 44.5t86 15.5q79 0 126 -45t47 -126q0 -59 -18.5 -115t-48.5 -109.5t-67 -105.5t-74 -101l-31 -42l-63 33l23 31q33 43 69 91.5t65 99t48 101.5t19 101q0 56 -29 86t-74 30q-27 0 -53.5 -10.5
t-48.5 -30t-35.5 -48t-13.5 -65.5q0 -38 17 -56t40 -18q15 0 29 8t25 21.5t17.5 31t6.5 37.5v9l72 20q5 -15 5 -31q0 -30 -12.5 -59t-34 -52.5t-50.5 -38t-62 -14.5z" />
    <glyph glyph-name="zero" unicode="0" horiz-adv-x="468" 
d="M455 338q9 -18 13 -39.5t4 -44.5q0 -48 -19.5 -94.5t-53.5 -82.5t-79 -58.5t-96 -22.5q-45 0 -78 15t-54 40t-31.5 58.5t-10.5 69.5q0 49 17 97.5t49 87t77.5 62.5t102.5 24h182l-12 -72h-182q-36 0 -65 -17t-49.5 -44t-31 -60t-10.5 -66q0 -24 6.5 -46t19.5 -38.5
t33.5 -26t48.5 -9.5q35 0 63.5 16t49 41.5t31.5 57t11 63.5q0 33 -13 59z" />
    <glyph glyph-name="ampersand" unicode="&#x26;" horiz-adv-x="544" 
d="M337 612q68 0 102.5 -29t34.5 -74q0 -34 -18.5 -64.5t-45.5 -56.5l-92 -91l29 -49l-63 -44l-22 36l-100 -99q-6 -6 -13.5 -16t-7.5 -22q0 -14 13 -22.5t39 -8.5h116q31 0 41.5 17.5t14.5 40.5l17 106q5 28 21.5 49.5t46.5 21.5h104l-10 -63h-51q-38 0 -45 -44l-13 -86
q-8 -50 -36.5 -82t-89.5 -32h-140q-57 0 -83 23t-26 56q0 29 14.5 57.5t38.5 51.5l113 111l-66 110q-10 16 -14 32.5t-4 33.5q0 32 15 57.5t40 43t56 27t63 9.5h21zM308 540q-14 0 -29 -3.5t-27 -11t-20 -19.5t-8 -29q0 -19 11 -38l49 -83l62 61q14 14 29 34t15 43
q0 20 -16 33t-51 13h-15z" />
    <glyph glyph-name="percent" unicode="%" horiz-adv-x="472" 
d="M237 407q0 -29 -20.5 -51.5t-52.5 -22.5q-24 0 -38.5 13.5t-14.5 36.5q0 29 20.5 51.5t52.5 22.5q24 0 38.5 -13.5t14.5 -36.5zM462 415l-341 -419l-56 41l341 419zM416 68q0 -28 -21.5 -50t-51.5 -22q-24 0 -38.5 13.5t-14.5 36.5q0 29 20.5 51.5t52.5 22.5
q24 0 38.5 -14.5t14.5 -37.5z" />
    <glyph glyph-name="dollar" unicode="$" horiz-adv-x="393" 
d="M160 0h-120l11 72h120l20 126l-54 42q-22 17 -32 37t-10 42q0 25 10.5 48.5t29 42t42.5 29.5t51 11h3l11 65h62l-11 -65h88l-12 -72h-87l-21 -133l63 -47q23 -17 34 -38t11 -44q0 -27 -12.5 -48.5t-33.5 -36.5t-47.5 -23t-53.5 -8l-30 -190h-62zM175 328q0 -19 22 -35
l8 -7l15 90q-13 -3 -26 -12q-19 -13 -19 -36zM246 155l-13 -82q15 3 25 7q20 8 23 32q0 13 -8.5 21.5t-17.5 15.5z" />
    <glyph glyph-name="Euro" unicode="&#x20ac;" horiz-adv-x="533" 
d="M101 290h86q24 28 53 52q56 48 129.5 78t153.5 30l-12 -74h-6q-54 -1 -108.5 -23.5t-98.5 -56.5q-4 -3 -7 -6h186l-10 -66h-238l-2 -3q-10 -15 -16 -29h251l-11 -66h-249q5 -20 22 -34q25 -20 89 -20h184l-11 -72h-192q-47 0 -80.5 9.5t-55 26t-31.5 38.5t-10 48v4h-42
l11 66h43q6 16 14 32h-52z" />
    <glyph glyph-name="numbersign" unicode="#" horiz-adv-x="558" 
d="M488 450l-11 -72h71l-11 -69h-71l-27 -168h72l-11 -69h-72l-11 -72h-77l11 72h-132l-11 -72h-77l11 72h-72l11 69h72l27 168h-73l11 69h73l11 72h77l-11 -72h132l11 72h77zM230 141h132l27 168h-132z" />
    <glyph glyph-name="quotedbl" unicode="&#x22;" horiz-adv-x="324" 
d="M135 657h72l-30 -184h-72zM242 657h72l-30 -184h-72z" />
    <glyph glyph-name="quotesingle" unicode="'" horiz-adv-x="217" 
d="M135 657h72l-30 -184h-72z" />
    <glyph glyph-name="parenleft" unicode="(" horiz-adv-x="285" 
d="M118 -84q-33 118 -33 237q0 137 40 260t115 247l65 -22q-36 -62 -62.5 -120t-44.5 -116t-26.5 -117t-8.5 -122q0 -57 7.5 -112t20.5 -111z" />
    <glyph glyph-name="parenright" unicode=")" horiz-adv-x="275" 
d="M50 -60q64 115 101 231t37 243q0 107 -30 224l71 22q36 -119 36 -240q0 -68 -9.5 -131t-28.5 -124.5t-47 -123t-65 -125.5z" />
    <glyph glyph-name="asterisk" unicode="*" horiz-adv-x="438" 
d="M271 651l14 87h56l-15 -89l73 63l33 -39l-72 -62h88l-9 -56h-87l52 -62l-46 -39l-52 61l-14 -87h-56l14 88l-72 -62l-32 39l71 62h-87l9 56h86l-51 61l46 40z" />
    <glyph glyph-name="plus" unicode="+" 
d="M336 399l-24 -151h151l-11 -70h-151l-24 -151h-70l24 151h-151l11 70h151l24 151h70z" />
    <glyph glyph-name="hyphen" unicode="-" horiz-adv-x="386" 
d="M92 293h269l-12 -78h-269z" />
    <glyph glyph-name="comma" unicode="," horiz-adv-x="191" 
d="M116 -3q-3 -1 -8 -1q-24 0 -38.5 13.5t-14.5 36.5q0 29 20.5 51.5t52.5 22.5q24 0 38.5 -14.5t14.5 -37.5q0 -3 -0.5 -6.5t-2.5 -16t-6.5 -39t-11.5 -74.5h-54z" />
    <glyph glyph-name="period" unicode="." horiz-adv-x="194" 
d="M184 72q0 -14 -5.5 -28t-15.5 -24.5t-23.5 -17t-29.5 -6.5q-24 0 -39.5 15t-15.5 38q0 29 21.5 51.5t53.5 22.5q25 0 39.5 -14t14.5 -37z" />
    <glyph glyph-name="slash" unicode="/" horiz-adv-x="401" 
d="M388 693l63 -23l-338 -674l-63 23z" />
    <glyph glyph-name="backslash" unicode="\" horiz-adv-x="407" 
d="M357 23l-69 -27l-168 674l69 27z" />
    <glyph glyph-name="equal" unicode="=" horiz-adv-x="509" 
d="M91 208h372l-11 -70h-372zM112 339h372l-11 -70h-372z" />
    <glyph glyph-name="less" unicode="&#x3c;" horiz-adv-x="480" 
d="M445 442l25 -60l-293 -155l244 -155l-45 -60l-306 195l7 40z" />
    <glyph glyph-name="greater" unicode="&#x3e;" horiz-adv-x="470" 
d="M415 187l-330 -175l-25 60l292 155l-243 155l45 60l306 -195l-7 -40z" />
    <glyph glyph-name="greaterequal" unicode="&#x2265;" horiz-adv-x="507" 
d="M473 228l-368 -129l-14 66l261 91l-232 92l35 66l327 -129zM76 70h372l-11 -70h-372z" />
    <glyph glyph-name="lessequal" unicode="&#x2264;" horiz-adv-x="507" 
d="M100 285l367 129l15 -66l-262 -92l233 -91l-36 -66l-326 129zM427 0h-372l11 70h372z" />
    <glyph glyph-name="plusminus" unicode="&#xb1;" horiz-adv-x="496" 
d="M342 419l-23 -141h152l-12 -70h-151l-15 -97h-70l15 97h-151l12 70h150l23 141h70zM66 70h372l-11 -70h-372z" />
    <glyph glyph-name="infinity" unicode="&#x221e;" horiz-adv-x="722" 
d="M688 218q-10 -63 -46.5 -92.5t-84.5 -29.5q-63 0 -105 42l-70 68l-94 -68q-26 -19 -57 -30.5t-60 -11.5q-42 0 -66.5 22t-24.5 70v8q0 5 1.5 15t4 28.5t7.5 48.5q11 68 45.5 98t82.5 30q31 0 58 -11t47 -31l71 -73l93 73q54 42 117 42q42 0 68.5 -22.5t26.5 -73.5
q0 -4 -0.5 -9t-2 -15.5t-4 -28.5t-7.5 -49zM146 214q0 -26 12.5 -38t29.5 -12q11 0 27.5 5.5t33.5 18.5l86 65l-65 65q-13 13 -27.5 20t-25.5 7q-20 0 -39 -17.5t-24 -52.5zM446 253l61 -65q14 -11 28 -17.5t25 -6.5q20 0 39 16t24 51l8 61q0 27 -12.5 40t-29.5 13
q-11 0 -27.5 -7.5t-33.5 -19.5z" />
    <glyph glyph-name="notequal" unicode="&#x2260;" horiz-adv-x="509" 
d="M126 97l234 327l57 -39l-232 -327zM91 208h372l-11 -70h-372zM112 339h372l-11 -70h-372z" />
    <glyph glyph-name="bracketleft" unicode="[" horiz-adv-x="287" 
d="M30 -220l155 983h167l-11 -70h-92l-133 -843h91l-11 -70h-166z" />
    <glyph glyph-name="bracketright" unicode="]" horiz-adv-x="341" 
d="M10 -220l11 70h91l133 843h-92l11 70h167l-155 -983h-166z" />
    <glyph glyph-name="asciicircum" unicode="^" horiz-adv-x="508" 
d="M498 407l-62 -41l-123 213l-190 -213l-48 41l234 263h39z" />
    <glyph glyph-name="underscore" unicode="_" horiz-adv-x="513" 
d="M51 -31h412l-11 -70h-412z" />
    <glyph glyph-name="grave" unicode="`" horiz-adv-x="213" 
d="M100 621l67 36l66 -159l-66 -36z" />
    <glyph glyph-name="braceleft" unicode="{" horiz-adv-x="347" 
d="M91 291q40 0 56 29.5t25 84.5l34 219q7 44 34.5 66t63.5 22h83l-11 -70h-49q-26 0 -36.5 -14t-14.5 -36l-37 -236q-7 -41 -28 -68t-46 -32q20 -5 32 -25t12 -50q0 -3 -1 -9.5t-4.5 -32t-11.5 -76.5t-22 -143q-1 -5 -1.5 -8.5t-0.5 -7.5q0 -15 8.5 -24.5t28.5 -9.5h49
l-11 -70h-83q-32 0 -52 17.5t-20 51.5q0 2 0.5 7t3.5 23.5t8.5 56.5t16.5 106q4 25 6.5 42t4 28t2 18.5t0.5 13.5q0 28 -10.5 42.5t-39.5 14.5l5 36z" />
    <glyph glyph-name="braceright" unicode="}" horiz-adv-x="358" 
d="M307 221q-20 0 -34 -7.5t-23 -22t-15 -36t-10 -48.5l-34 -219q-7 -44 -34.5 -66t-63.5 -22h-83l11 70h49q26 0 36.5 14t14.5 36l37 236q7 41 28 68t46 32q-20 5 -32 24.5t-12 50.5q0 6 0.5 12t1.5 13l37 236q1 5 1.5 8.5t0.5 7.5q0 15 -8.5 24.5t-28.5 9.5h-49l11 70h83
q32 0 52 -17.5t20 -51.5q0 -5 -0.5 -9.5t-1.5 -9.5l-34 -219q-6 -33 -6 -56q0 -29 11 -43.5t40 -14.5z" />
    <glyph glyph-name="bar" unicode="|" horiz-adv-x="256" 
d="M40 -255l155 980h71l-155 -980h-71z" />
    <glyph glyph-name="asciitilde" unicode="~" horiz-adv-x="479" 
d="M442 199q-24 -8 -45.5 -11t-41.5 -3q-26 0 -51 4t-49 8.5t-48.5 8.5t-50.5 4q-18 0 -37 -2.5t-39 -8.5l12 68q24 8 45.5 11t41.5 3q26 0 51 -4t49 -8.5t48.5 -8.5t50.5 -4q18 0 37 2.5t39 8.5z" />
    <glyph glyph-name="approxequal" unicode="&#x2248;" horiz-adv-x="499" 
d="M442 140q-24 -8 -45.5 -11t-41.5 -3q-26 0 -51 4t-49 8.5t-48.5 8.5t-50.5 4q-18 0 -37 -2.5t-39 -8.5l12 68q24 8 45.5 11t41.5 3q26 0 51 -4t49 -8.5t48.5 -8.5t50.5 -4q18 0 37 2.5t39 8.5zM462 270q-24 -8 -45.5 -11t-41.5 -3q-26 0 -51 4t-49 8.5t-48.5 8.5t-50.5 4
q-18 0 -37 -2.5t-39 -8.5l12 68q24 8 45.5 11t41.5 3q26 0 51 -4t49 -8.5t48.5 -8.5t50.5 -4q18 0 37 2.5t39 8.5z" />
    <glyph glyph-name="degree" unicode="&#xb0;" horiz-adv-x="379" 
d="M105 487q0 30 12.5 57t34.5 48t50.5 33.5t60.5 12.5q51 0 83.5 -30.5t32.5 -78.5q0 -30 -12.5 -57t-34.5 -48t-50.5 -33.5t-60.5 -12.5q-51 0 -83.5 30.5t-32.5 78.5zM252 571q-14 0 -28.5 -5t-25.5 -15t-18 -23.5t-7 -30.5q0 -24 16.5 -38t42.5 -14q14 0 28 4.5t25.5 14
t18.5 23.5t7 32q0 24 -16.5 38t-42.5 14z" />
    <glyph glyph-name="uni0490" unicode="&#x490;" horiz-adv-x="521" 
d="M591 779l-14 -88q-4 -24 -13 -45t-25.5 -37t-42.5 -25.5t-63 -9.5h-167l-90 -574h-85l90 574h-111l12 76h350q38 0 52.5 13.5t19.5 39.5l12 76h75z" />
    <glyph glyph-name="uni0491" unicode="&#x491;" horiz-adv-x="411" 
d="M451 529l-3 -23q-8 -63 -40 -97.5t-100 -34.5h-101l-59 -374h-83l59 374h-79l12 76h246q19 0 31.5 2.5t20 8.5t11.5 16.5t6 26.5l4 25h75z" />
    <glyph glyph-name="uni0403" unicode="&#x403;" horiz-adv-x="544" 
d="M293 670l-28 61l172 97l27 -60zM476 455l10 66q1 5 1 15q0 19 -12 28.5t-44 9.5h-154l-90 -574h-85l90 574h-122l12 76h374q62 0 85 -25t23 -62q0 -15 -3 -30l-12 -78h-73z" />
    <glyph glyph-name="uni0453" unicode="&#x453;" horiz-adv-x="431" 
d="M288 479l-58 37l119 162l59 -38zM218 158q-26 -19 -42.5 -34t-16.5 -27q0 -14 15.5 -17.5t51.5 -3.5h194l-13 -76h-225q-59 0 -88 26.5t-29 61.5q0 52 52 92l169 128q26 20 40 33t14 24q0 16 -19 16q-8 0 -22 -5t-46 -22l-148 -78l-36 70l157 84q36 20 62.5 23.5
t43.5 3.5q19 0 37 -5.5t31.5 -16.5t22 -27t8.5 -38q0 -39 -23.5 -64t-61.5 -53z" />
    <glyph glyph-name="sterling" unicode="&#xa3;" horiz-adv-x="527" 
d="M459 420h-54q-24 0 -48.5 -4t-45.5 -18.5t-38 -42.5q-12 -22 -20 -55h189l-11 -72h-189l-25 -156h125q40 0 57 10.5t22 43.5l4 24h72l-3 -22q-10 -63 -40.5 -95.5t-98.5 -32.5h-305l11 72h76l25 156h-58l11 72h58l1 5q9 54 32 91.5t54.5 60.5t68 33t71.5 10h72z" />
    <glyph glyph-name="section" unicode="&#xa7;" horiz-adv-x="489" 
d="M147 231q-22 17 -31.5 38t-9.5 43q0 39 25 72t63 49v13q0 7 1 14q4 22 15.5 42.5t29 36t39.5 25t47 9.5h153l-11 -72h-136q-8 0 -18 -3t-19 -9t-15 -15.5t-6 -21.5q0 -10 4.5 -18.5t16.5 -17.5l103 -77q28 -21 45 -45t17 -57q0 -35 -22 -65.5t-62 -41.5q4 -12 4 -26
q0 -27 -13.5 -48t-34.5 -35.5t-47.5 -22t-52.5 -7.5h-182l11 72h151q8 0 21.5 0.5t26.5 4.5t22.5 11.5t9.5 22.5q0 13 -9 22t-17 16zM256 346q-19 13 -35 13q-11 0 -24 -10.5t-13 -26.5q0 -8 5 -18t18 -19l102 -76q17 -13 34 -13q12 0 25 11t13 27q0 8 -5 17.5t-18 18.5z
" />
    <glyph glyph-name="bullet" unicode="&#x2022;" horiz-adv-x="284" 
d="M244 273q0 -35 -25.5 -61t-63.5 -26q-29 0 -47 16.5t-18 44.5q0 35 25 61t63 26q29 0 47.5 -16.5t18.5 -44.5z" />
    <glyph glyph-name="paragraph" unicode="&#xb6;" horiz-adv-x="704" 
d="M694 574l-11 -72h-317l-67 -423q-6 -35 -17.5 -58t-29.5 -36.5t-42.5 -19t-55.5 -5.5h-34l12 72h16q40 0 54.5 16.5t20.5 56.5l31 198q-58 0 -93.5 30t-35.5 79q0 37 13.5 67t37 51t54.5 32.5t67 11.5h397zM439 -30l76 480h80l-76 -480h-80z" />
    <glyph glyph-name="registered" unicode="&#xae;" horiz-adv-x="548" 
d="M100 561q0 46 20 88.5t54 75t78.5 52t93.5 19.5q40 0 73.5 -12.5t57.5 -35.5t37.5 -54.5t13.5 -68.5q0 -46 -20 -88.5t-54 -75.5t-79 -52.5t-94 -19.5q-39 0 -72.5 13t-57.5 35.5t-37.5 54t-13.5 69.5zM265 653h-84q-5 -8 -9 -16q-15 -31 -15 -67q0 -28 10 -51t27.5 -40
t42 -26.5t53.5 -9.5q34 0 66.5 13.5t57.5 36.5l8 8h-35q-19 0 -26 5.5t-15 16.5l-28 48h-26l-11 -70h-39zM337 742q-33 0 -65.5 -13.5t-58.5 -36.5l-4 -4h115q38 0 53.5 -13.5t15.5 -35.5q0 -30 -22 -48q-7 -6 -15 -10l20 -32q7 -13 22 -13h49q4 6 7 13q15 32 15 68
q0 27 -10 50t-27.5 39.5t-41.5 26t-53 9.5zM304 653l-7 -49h23q13 0 23.5 7t10.5 23q0 9 -7.5 14t-18.5 5h-24z" />
    <glyph glyph-name="copyright" unicode="&#xa9;" horiz-adv-x="583" 
d="M80 191q0 52 22.5 100t60.5 85t88.5 59t106.5 22q45 0 82.5 -14.5t64.5 -40t42.5 -61t15.5 -77.5q0 -53 -22 -101t-60 -85.5t-88.5 -59.5t-107.5 -22q-45 0 -82.5 14.5t-64.5 40.5t-42.5 61.5t-15.5 78.5zM145 227q-1 -7 -1.5 -14t-0.5 -14q0 -64 42 -103.5t109 -39.5
q39 0 75.5 15t65.5 42q3 2 5 5h-179q-47 0 -67 22t-20 50q0 37 19.5 67t50 51t67 32.5t71.5 13.5h7l-10 -61h-8q-17 0 -39.5 -5.5t-43 -17t-35 -28t-14.5 -37.5q0 -12 9.5 -22.5t31.5 -10.5h199l2 4q18 37 18 80q0 31 -11 57t-31 45t-47.5 29.5t-60.5 10.5q-37 0 -71 -13
t-61.5 -36t-46.5 -54.5t-25 -67.5z" />
    <glyph glyph-name="trademark" unicode="&#x2122;" horiz-adv-x="650" 
d="M100 573l5 31q5 32 21.5 49t61.5 17h223l72 -113l105 113h52l-37 -232v-5q0 -16 18 -16h14l-10 -63h-26q-32 0 -48 13t-16 42q0 5 0.5 11t1.5 13l18 113l-88 -88l-64 100l-32 -204h-65l40 257h-70l-40 -257h-65l40 257h-24q-11 0 -17 -7.5t-8 -17.5l-2 -13h-60z" />
    <glyph glyph-name="uni0404" unicode="&#x404;" horiz-adv-x="518" 
d="M500 0h-198q-69 0 -117.5 16t-79.5 44t-45.5 65.5t-14.5 80.5q0 80 39 160t107.5 143.5t161.5 104.5t200 43l-32 -202h-75l17 112q-60 -6 -120 -40t-107.5 -84t-77.5 -109q-1 -4 -3 -7h275l-11 -74h-288q-2 -18 -2 -35q0 -30 11 -56t34 -45t60 -30t89 -11h189z" />
    <glyph glyph-name="uni044D" unicode="&#x44d;" horiz-adv-x="436" 
d="M140 235h220q-4 13 -10 26q-15 31 -39.5 55t-57 39t-66.5 16l-13 -83h-76l27 169q78 0 138 -22t100.5 -58.5t61.5 -83.5t21 -97q0 -39 -13 -74.5t-40.5 -62.5t-70 -43t-100.5 -16h-202l12 76h194q27 0 52 7t44.5 22t30.5 38q5 11 8 23h-232z" />
    <glyph glyph-name="uni0454" unicode="&#x454;" horiz-adv-x="444" 
d="M415 0h-202q-47 0 -79.5 11t-53.5 29.5t-30.5 42.5t-9.5 50q0 62 31.5 120t87 103t131 72.5t164.5 28.5l-27 -169h-76l13 83q-38 -2 -80.5 -21t-78.5 -50q-34 -29 -57 -65h221l-11 -69h-235v-10q0 -16 4.5 -30.5t16.5 -25.5t33 -17.5t54 -6.5h196z" />
    <glyph glyph-name="uni0407" unicode="&#x407;" horiz-adv-x="383" 
d="M432 574h-72l-71 -451q-11 -70 -49 -96.5t-101 -26.5h-59l12 76h53q30 0 43.5 17.5t19.5 55.5l67 425h-28q-38 0 -52.5 -13.5t-18.5 -39.5l-3 -21h-73l5 33q4 24 12.5 45t24.5 37t41.5 25.5t62.5 9.5h198zM323 757q0 -13 -5.5 -25.5t-15 -22t-22.5 -15.5t-27 -6
q-23 0 -36.5 13.5t-13.5 34.5q0 27 19.5 48.5t49.5 21.5q23 0 37 -13.5t14 -35.5zM488 757q0 -13 -5.5 -25.5t-15 -22t-22.5 -15.5t-27 -6q-23 0 -36.5 13.5t-13.5 34.5q0 27 19.5 48.5t49.5 21.5q23 0 37 -13.5t14 -35.5z" />
    <glyph glyph-name="uni0457" unicode="&#x457;" horiz-adv-x="256" 
d="M336 581q0 -14 -5.5 -26.5t-15.5 -22.5t-22.5 -16t-27.5 -6q-23 0 -37.5 14t-14.5 36q0 28 20 49.5t51 21.5q24 0 38 -13.5t14 -36.5zM183 581q0 -14 -6 -26.5t-15.5 -22.5t-22.5 -16t-28 -6q-23 0 -37 14t-14 36q0 27 20 49t50 22q24 0 38.5 -13.5t14.5 -36.5zM89 450
h36q54 0 82.5 -18t28.5 -67q0 -16 -3 -35l-52 -330h-84l48 304q3 16 3 30q0 23 -11.5 31.5t-41.5 8.5h-18z" />
    <glyph glyph-name="uni0401" unicode="&#x401;" horiz-adv-x="493" 
d="M533 757q0 -13 -5.5 -25.5t-15 -22t-22.5 -15.5t-27 -6q-23 0 -36.5 13.5t-13.5 34.5q0 27 19.5 48.5t49.5 21.5q23 0 37 -13.5t14 -35.5zM368 757q0 -13 -5.5 -25.5t-15 -22t-22.5 -15.5t-27 -6q-23 0 -36.5 13.5t-13.5 34.5q0 27 19.5 48.5t49.5 21.5q23 0 37 -13.5
t14 -35.5zM483 0h-210q-57 0 -96.5 10t-64.5 27t-36 40.5t-11 50.5q0 60 39.5 111t116.5 88q-48 15 -68.5 44t-20.5 61q0 59 30.5 101.5t83 70t123.5 40.5t153 13l-29 -182h-78l16 101q-37 -2 -75 -10.5t-69.5 -24.5t-51.5 -39.5t-20 -54.5q0 -12 4.5 -24t15 -21.5t29 -15
t46.5 -5.5h97l-12 -72q-30 -3 -71 -15t-79 -33t-64.5 -51t-26.5 -68q0 -20 9.5 -32.5t26.5 -20t40 -10.5t50 -3h215z" />
    <glyph glyph-name="uni0451" unicode="&#x451;" horiz-adv-x="471" 
d="M481 581q0 -14 -6 -26.5t-15.5 -22.5t-22.5 -16t-28 -6q-23 0 -37 13.5t-14 35.5q0 28 19.5 50t50.5 22q24 0 38.5 -13.5t14.5 -36.5zM327 581q0 -14 -6 -26.5t-15.5 -22.5t-22.5 -16t-28 -6q-23 0 -37 14t-14 36q0 27 20 49t50 22q24 0 38.5 -13.5t14.5 -36.5zM430 0
h-202q-47 0 -79.5 11t-53.5 30t-30.5 43t-9.5 51q0 55 28.5 112.5t74 104t102.5 76t114 29.5q47 0 74.5 -27t27.5 -64t-16 -67t-43 -52.5t-62 -38t-74 -24.5l-144 -34q2 -32 28 -53t83 -21h194zM373 384q-26 0 -56 -13.5t-59 -35.5t-53.5 -48.5t-40.5 -52.5l66 15
q19 4 47.5 12t55 20.5t45 32t18.5 48.5q0 12 -6.5 17t-16.5 5z" />
    <glyph glyph-name="uni040E" unicode="&#x40e;" 
d="M522 862l-4 -27q-4 -27 -13 -49.5t-26 -39t-44 -25.5t-67 -9h-179l12 75h177q30 0 45.5 12.5t19.5 38.5l4 24h75zM578 630l-308 -531q-58 -99 -157 -99h-62l12 76h28q29 0 56 10.5t45 42.5l70 120l-124 285q-10 23 -25.5 31.5t-41.5 8.5h-21l12 76h36q25 0 42.5 -4
t31 -13.5t24 -27t22.5 -44.5l96 -223l185 319z" />
    <glyph glyph-name="uni0443" unicode="&#x443;" horiz-adv-x="520" 
d="M140 -134h84q23 0 47 4t44.5 18.5t36 41.5t23.5 74l27 170q-21 -37 -47.5 -69.5t-57 -56.5t-64.5 -38t-70 -14q-53 0 -75.5 24t-22.5 77q0 28 6 66l46 287h84l-47 -298q-3 -17 -3 -31q0 -22 9 -33.5t30 -11.5q30 0 58.5 18.5t55 49.5t49.5 70.5t41.5 81t32 81.5t19.5 73
h84l-75 -473q-9 -54 -32 -91.5t-54.5 -60.5t-68 -33t-71.5 -10h-102z" />
    <glyph glyph-name="uni045E" unicode="&#x45e;" horiz-adv-x="520" 
d="M498 654l-5 -29q-4 -27 -13 -49.5t-26 -39t-44 -25.5t-67 -9h-136l12 73h134q30 0 46.5 14.5t20.5 38.5l4 26h74zM140 -134h84q23 0 47 4t44.5 18.5t36 41.5t23.5 74l27 170q-21 -37 -47.5 -69.5t-57 -56.5t-64.5 -38t-70 -14q-53 0 -75.5 24t-22.5 77q0 28 6 66l46 287
h84l-47 -298q-3 -17 -3 -31q0 -22 9 -33.5t30 -11.5q30 0 58.5 18.5t55 49.5t49.5 70.5t41.5 81t32 81.5t19.5 73h84l-75 -473q-9 -54 -32 -91.5t-54.5 -60.5t-68 -33t-71.5 -10h-102z" />
    <glyph glyph-name="logicalnot" unicode="&#xac;" horiz-adv-x="499" 
d="M92 297h382l-26 -161h-70l14 91h-312z" />
    <glyph glyph-name="radical" unicode="&#x221a;" horiz-adv-x="579" 
d="M91 300h73q40 0 63 -14.5t29 -49.5l27 -153l3 -39l16 39l254 525l63 -22l-324 -668h-59l-47 270q-4 22 -17 33t-40 11h-52z" />
    <glyph glyph-name="Delta" unicode="&#x2206;" horiz-adv-x="583" 
d="M395 457l138 -396l-9 -61h-464l9 61l264 396h62zM450 72l-102 286l-192 -286h294z" />
    <glyph glyph-name="guillemotleft" unicode="&#xab;" horiz-adv-x="485" 
d="M197 280q-10 -9 -17 -19.5t-7 -21.5t7 -21l87 -117l-60 -47l-113 152q-14 19 -14 37q0 15 8 29t21 26l161 152l51 -53zM351 280q-10 -9 -17 -19.5t-7 -21.5t7 -21l87 -117l-60 -47l-113 152q-14 19 -14 37q0 15 8 29t21 26l161 152l51 -53z" />
    <glyph glyph-name="colon" unicode=":" horiz-adv-x="254" 
d="M181 68q0 -28 -21.5 -50t-51.5 -22q-24 0 -38.5 13.5t-14.5 36.5q0 29 20.5 51.5t52.5 22.5q24 0 38.5 -14.5t14.5 -37.5zM234 407q0 -29 -20.5 -51.5t-52.5 -22.5q-24 0 -38.5 13.5t-14.5 36.5q0 29 20.5 51.5t52.5 22.5q24 0 38.5 -13.5t14.5 -36.5z" />
    <glyph glyph-name="divide" unicode="&#xf7;" 
d="M91 260h372l-11 -70h-372zM308 68q0 -28 -21.5 -50t-51.5 -22q-24 0 -38.5 13.5t-14.5 36.5q0 29 20.5 51.5t52.5 22.5q24 0 38.5 -14.5t14.5 -37.5zM361 407q0 -29 -20.5 -51.5t-52.5 -22.5q-24 0 -38.5 13.5t-14.5 36.5q0 29 20.5 51.5t52.5 22.5q24 0 38.5 -13.5
t14.5 -36.5z" />
    <glyph glyph-name="semicolon" unicode=";" horiz-adv-x="254" 
d="M234 407q0 -29 -20.5 -51.5t-52.5 -22.5q-24 0 -38.5 13.5t-14.5 36.5q0 29 20.5 51.5t52.5 22.5q24 0 38.5 -13.5t14.5 -36.5zM116 -3q-3 -1 -8 -1q-24 0 -38.5 13.5t-14.5 36.5q0 29 20.5 51.5t52.5 22.5q24 0 38.5 -14.5t14.5 -37.5q0 -3 -0.5 -6.5t-2.5 -16t-6.5 -39
t-11.5 -74.5h-54z" />
    <glyph glyph-name="ellipsis" unicode="&#x2026;" horiz-adv-x="493" 
d="M180 58q-5 -27 -25 -44.5t-47 -17.5t-42 17.5t-10 44.5q4 27 24.5 44.5t47.5 17.5t41.5 -17.5t10.5 -44.5zM331 58q-5 -27 -25 -44.5t-47 -17.5t-42 17.5t-10 44.5q4 27 24.5 44.5t47.5 17.5t41.5 -17.5t10.5 -44.5zM482 58q-5 -27 -25 -44.5t-47 -17.5t-42 17.5
t-10 44.5q4 27 24.5 44.5t47.5 17.5t41.5 -17.5t10.5 -44.5z" />
    <glyph glyph-name="guillemotright" unicode="&#xbb;" horiz-adv-x="464" 
d="M328 224q10 9 17 19.5t7 21.5t-7 21l-87 117l60 47l113 -152q14 -19 14 -37q0 -15 -8 -29t-21 -26l-161 -152l-51 53zM174 224q10 9 17 19.5t7 21.5t-7 21l-87 117l60 47l113 -152q14 -19 14 -37q0 -15 -8 -29t-21 -26l-161 -152l-51 53z" />
    <glyph glyph-name="quotedblright" unicode="&#x201d;" horiz-adv-x="410" 
d="M176 547q-3 -1 -8 -1q-24 0 -38.5 13.5t-14.5 36.5q0 29 20.5 51.5t52.5 22.5q24 0 38.5 -14.5t14.5 -37.5q0 -3 -0.5 -6.5t-2.5 -16t-6.5 -39t-11.5 -74.5h-54zM325 547q-3 -1 -8 -1q-24 0 -38.5 13.5t-14.5 36.5q0 29 20.5 51.5t52.5 22.5q24 0 38.5 -14.5t14.5 -37.5
q0 -3 -0.5 -6.5t-2.5 -16t-6.5 -39t-11.5 -74.5h-54z" />
    <glyph glyph-name="quotedblleft" unicode="&#x201c;" horiz-adv-x="345" 
d="M284 605q3 1 8 1q24 0 38.5 -13.5t14.5 -36.5q0 -29 -20.5 -51.5t-52.5 -22.5q-24 0 -38.5 14.5t-14.5 37.5q0 3 0.5 6.5t2.5 16t6 39t12 74.5h54zM135 605q3 1 8 1q24 0 38.5 -13.5t14.5 -36.5q0 -29 -20.5 -51.5t-52.5 -22.5q-24 0 -38.5 14.5t-14.5 37.5q0 3 0.5 6.5
t2.5 16t6 39t12 74.5h54z" />
    <glyph glyph-name="quoteleft" unicode="&#x2018;" horiz-adv-x="201" 
d="M135 605q3 1 8 1q24 0 38.5 -13.5t14.5 -36.5q0 -29 -20.5 -51.5t-52.5 -22.5q-24 0 -38.5 14.5t-14.5 37.5q0 3 0.5 6.5t2.5 16t6 39t12 74.5h54z" />
    <glyph glyph-name="quoteright" unicode="&#x2019;" horiz-adv-x="261" 
d="M176 547q-3 -1 -8 -1q-24 0 -38.5 13.5t-14.5 36.5q0 29 20.5 51.5t52.5 22.5q24 0 38.5 -14.5t14.5 -37.5q0 -3 -0.5 -6.5t-2.5 -16t-6.5 -39t-11.5 -74.5h-54z" />
    <glyph glyph-name="quotedblbase" unicode="&#x201e;" horiz-adv-x="340" 
d="M116 -3q-3 -1 -8 -1q-24 0 -38.5 13.5t-14.5 36.5q0 29 20.5 51.5t52.5 22.5q24 0 38.5 -14.5t14.5 -37.5q0 -3 -0.5 -6.5t-2.5 -16t-6.5 -39t-11.5 -74.5h-54zM265 -3q-3 -1 -8 -1q-24 0 -38.5 13.5t-14.5 36.5q0 29 20.5 51.5t52.5 22.5q24 0 38.5 -14.5t14.5 -37.5
q0 -3 -0.5 -6.5t-2.5 -16t-6.5 -39t-11.5 -74.5h-54z" />
    <glyph glyph-name="endash" unicode="&#x2013;" 
d="M91 300h372l-11 -70h-372z" />
    <glyph glyph-name="emdash" unicode="&#x2014;" horiz-adv-x="738" 
d="M91 300h622l-11 -70h-622z" />
    <glyph glyph-name="uni045C" unicode="&#x45c;" 
d="M292 479l-58 37l119 162l58 -38zM72 450h36q54 0 82.5 -18t28.5 -67q0 -16 -3 -35l-16 -102l105 140q33 45 68.5 63.5t85.5 18.5h44l-12 -76h-27q-34 0 -55 -13t-34 -30l-67 -84l79 -140q13 -23 31.5 -27t47.5 -4h23l-12 -76h-54q-47 0 -73.5 23.5t-50.5 65.5l-48 87
l-74 -92l-13 -84h-84l48 304q3 16 3 30q0 23 -11.5 31.5t-41.5 8.5h-18z" />
    <glyph glyph-name="uni2116" unicode="&#x2116;" horiz-adv-x="726" 
d="M116 450h28q57 0 84 -39l191 -276l50 315h75l-71 -450h-59l-199 281l-44 -281h-75l53 339q1 4 1 12q0 27 -30 27h-16zM705 264q0 23 -14.5 37.5t-38.5 14.5q-32 0 -52.5 -22.5t-20.5 -51.5q0 -23 14.5 -36.5t38.5 -13.5q30 0 51.5 22t21.5 50zM533 97h168l10 67h-168z
" />
    <glyph glyph-name="uni040C" unicode="&#x40c;" horiz-adv-x="541" 
d="M342 670l-28 61l172 97l27 -60zM60 0l102 650h85l-46 -294l187 213q37 42 73 61.5t85 19.5h45l-12 -76h-27q-31 0 -50 -8.5t-35 -25.5l-170 -189l160 -241q14 -20 34.5 -27t50.5 -7h21l-12 -76h-53q-24 0 -42 6t-32.5 17.5t-26.5 27t-25 35.5l-134 200l-59 -66l-34 -220
h-85z" />
    <glyph glyph-name="uni0435" unicode="&#x435;" horiz-adv-x="451" 
d="M415 0h-202q-47 0 -79.5 11t-53.5 30t-30.5 43t-9.5 51q0 55 28.5 112.5t74 104t102.5 76t114 29.5q47 0 74.5 -27t27.5 -64t-16 -67t-43 -52.5t-62 -38t-74 -24.5l-144 -34q2 -32 28 -53t83 -21h194zM358 384q-26 0 -56 -13.5t-59 -35.5t-53.5 -48.5t-40.5 -52.5l66 15
q19 4 47.5 12t55 20.5t45 32t18.5 48.5q0 12 -6.5 17t-16.5 5z" />
    <glyph glyph-name="uni044E" unicode="&#x44e;" horiz-adv-x="733" 
d="M433 -4q-49 0 -85.5 15t-61 40t-36.5 58.5t-12 71.5v7h-45l-29 -188h-84l48 304q3 16 3 30q0 23 -11.5 31.5t-41.5 8.5h-18l12 76h36q54 0 82.5 -18t28.5 -67q0 -16 -3 -35l-11 -66h45q3 9 7 18q19 50 54 89t84.5 62.5t110.5 23.5q49 0 85 -17q31 -14 53 -36q31 16 63 30
q36 16 65 16h21l-12 -76h-8q-26 0 -57 -16q-15 -7 -32 -15l4 -10q12 -35 12 -73q0 -53 -19 -100.5t-54 -84t-84.5 -58t-109.5 -21.5zM445 71q40 0 72.5 16t55 42.5t34.5 59.5t12 67q0 27 -8 49q-16 -7 -33 -14q-37 -15 -75 -15q-35 0 -62 25q-21 21 -25 63q-29 -15 -49 -39
q-22 -27 -34.5 -61t-12.5 -70q0 -51 31 -87t94 -36zM494 384q-8 0 -16 -1q3 -15 12 -22q14 -10 33 -10q18 0 46 13q-29 20 -75 20z" />
    <glyph glyph-name="uni0430.001" horiz-adv-x="532" 
d="M486 285l-22 -139q-3 -18 -3 -31q0 -21 11.5 -30t41.5 -9h18l-12 -76h-36q-54 0 -82.5 18t-28.5 68q-39 -43 -85.5 -66.5t-92.5 -23.5q-66 0 -102 37.5t-36 101.5q0 70 31 129t83.5 102t121.5 67t144 24q20 0 39 -1.5t37 -5.5l-12 -73q-30 6 -64 6q-56 0 -108.5 -15
t-93 -44.5t-65.5 -72.5t-25 -99q0 -23 7 -38t18 -23.5t26 -12t30 -3.5q30 0 58.5 16t52 41.5t39.5 57t21 63.5l5 32h84z" />
    <glyph glyph-name="uni0421" unicode="&#x421;" horiz-adv-x="518" 
d="M500 0h-198q-69 0 -117.5 16t-79.5 44t-45.5 65.5t-14.5 80.5q0 80 39 160t107.5 143.5t161.5 104.5t200 43l-32 -202h-75l17 112q-60 -6 -120 -40t-107.5 -84t-77 -109t-29.5 -116q0 -30 11 -56t34 -45t60 -30t89 -11h189z" />
    <glyph glyph-name="uni0415" unicode="&#x415;" horiz-adv-x="492" 
d="M483 0h-210q-57 0 -96.5 10t-64.5 27t-36 40.5t-11 50.5q0 60 39.5 111t116.5 88q-48 15 -68.5 44t-20.5 61q0 59 30.5 101.5t83 70t123.5 40.5t153 13l-29 -182h-78l16 101q-37 -2 -75 -10.5t-69.5 -24.5t-51.5 -39.5t-20 -54.5q0 -12 4.5 -24t15 -21.5t29 -15
t46.5 -5.5h97l-12 -72q-30 -3 -71 -15t-79 -33t-64.5 -51t-26.5 -68q0 -20 9.5 -32.5t26.5 -20t40 -10.5t50 -3h215z" />
    <glyph glyph-name="uni041D" unicode="&#x41d;" horiz-adv-x="620" 
d="M598 0h-29q-54 0 -84.5 19.5t-30.5 70.5q0 15 3 33l26 169h-292l-46 -292h-85l102 650h85l-44 -281h292l45 281h85l-79 -501q-3 -17 -3 -29q0 -44 44 -44h23z" />
    <glyph glyph-name="uni041A" unicode="&#x41a;" horiz-adv-x="541" 
d="M60 0l102 650h85l-46 -294l187 213q37 42 73 61.5t85 19.5h45l-12 -76h-27q-31 0 -50 -8.5t-35 -25.5l-170 -189l160 -241q14 -20 34.5 -27t50.5 -7h21l-12 -76h-53q-24 0 -42 6t-32.5 17.5t-26.5 27t-25 35.5l-134 200l-59 -66l-34 -220h-85z" />
    <glyph glyph-name="uni041C" unicode="&#x41c;" horiz-adv-x="724" 
d="M707 0h-29q-54 0 -84.5 19.5t-30.5 70.5q0 15 3 33l60 376l-245 -272l-157 272l-79 -499h-85l102 650h85l157 -280l245 280h85l-79 -501q-3 -17 -3 -29q0 -44 44 -44h23z" />
    <glyph glyph-name="uni041E" unicode="&#x41e;" horiz-adv-x="658" 
d="M726 574h-9q-33 0 -71 -17q-17 -8 -35 -16q14 -27 23 -57q14 -50 14 -104q0 -73 -22.5 -142t-66.5 -123t-108 -86.5t-147 -32.5q-63 0 -109 20t-76 54t-44.5 79.5t-14.5 97.5q0 72 24.5 145.5t69.5 132t109.5 95.5t145.5 37q62 0 107 -23q26 -14 47 -33q37 17 74 32
q44 17 77 17h24zM553 449q-8 29 -23 53l-50 -20q-43 -17 -86 -17q-21 0 -39.5 7t-32.5 21.5t-22 35.5q-3 9 -6 19l-2 -2q-46 -29 -78.5 -75t-50 -101.5t-17.5 -107.5q0 -39 10.5 -73t31.5 -59t53 -39.5t76 -14.5q58 0 104 26t77.5 68t48 95t16.5 107q0 40 -10 77zM396 575
q-18 0 -36 -3q4 -14 14 -21q16 -10 38 -10t59 17q-32 17 -75 17z" />
    <glyph glyph-name="uni043E" unicode="&#x43e;" horiz-adv-x="535" 
d="M583 374h-8q-26 0 -57 -16q-15 -7 -32 -15l4 -10q12 -35 12 -73q0 -53 -19 -100.5t-54 -84t-84.5 -58t-109.5 -21.5q-49 0 -85.5 15t-61 40t-36.5 58.5t-12 71.5q0 52 19 101.5t54 88.5t84.5 62.5t110.5 23.5q49 0 85 -17q31 -14 53 -36q31 16 63 30q36 16 65 16h21z
M247 71q40 0 72.5 16t55 42.5t34.5 59.5t12 67q0 27 -8 49q-16 -7 -33 -14q-37 -15 -75 -15q-35 0 -62 25q-21 21 -25 63q-29 -15 -49 -39q-22 -27 -34.5 -61t-12.5 -70q0 -51 31 -87t94 -36zM296 384q-8 0 -16 -1q3 -15 12 -22q14 -10 33 -10q18 0 46 13q-29 20 -75 20z
" />
    <glyph glyph-name="uni0442" unicode="&#x442;" horiz-adv-x="478" 
d="M518 529l-3 -23q-8 -63 -40 -96t-101 -33h-82l-59 -377h-84l59 377h-168l12 73h305q39 0 58 11t24 43l4 25h75z" />
    <glyph glyph-name="uni0441" unicode="&#x441;" horiz-adv-x="444" 
d="M415 0h-202q-47 0 -79.5 11t-53.5 29.5t-30.5 42.5t-9.5 50q0 62 31.5 120t87 103t131 72.5t164.5 28.5l-27 -169h-76l13 83q-38 -2 -80.5 -21t-78 -49.5t-59 -68.5t-23.5 -76q0 -16 4.5 -30.5t16.5 -25.5t33 -17.5t54 -6.5h196z" />
    <glyph glyph-name="uni040B" unicode="&#x40b;" horiz-adv-x="544" 
 />
    <glyph glyph-name="uni045B" unicode="&#x45b;" horiz-adv-x="544" 
 />
    <glyph glyph-name="uni0420" unicode="&#x420;" horiz-adv-x="564" 
d="M291 325h60q34 0 61.5 13t47 34t30 47.5t10.5 53.5q0 20 -6.5 38t-20 32t-34.5 22.5t-49 8.5h-113l-90 -574h-85l90 574h-122l12 76h322q47 0 81 -13.5t56 -36t32.5 -52t10.5 -62.5q0 -45 -17 -87.5t-48.5 -76t-75 -53.5t-96.5 -20h-68z" />
    <glyph glyph-name="uni0422" unicode="&#x422;" horiz-adv-x="562" 
d="M100 500l5 33q4 24 12.5 45t24.5 37t41.5 25.5t62.5 9.5h406l-12 -76h-210l-90 -574h-85l90 574h-98q-38 0 -52.5 -13.5t-18.5 -39.5l-3 -21h-73z" />
    <glyph glyph-name="uni0448" unicode="&#x448;" horiz-adv-x="774" 
d="M228 0q-73 0 -105 23.5t-32 70.5q0 13 3 30l29 180q3 16 3 29q0 23 -11.5 32t-42.5 9h-12l12 76h30q54 0 83 -18t29 -67q0 -16 -3 -35l-32 -203q-1 -3 -1 -7v-6q0 -17 11 -27.5t39 -10.5h131l59 374h84l-59 -374h188l59 374h84l-71 -450h-475z" />
    <glyph glyph-name="uni0410" unicode="&#x410;" horiz-adv-x="584" 
d="M599 76l-12 -76h-33q-25 0 -44 3.5t-32.5 14t-22.5 31t-15 53.5l-13 74h-228l-82 -176h-87l83 176h-59l13 77h84l189 397h97l86 -529q4 -23 15 -34t40 -11h21zM237 253h179l-38 234l-5 64l-25 -64z" />
    <glyph glyph-name="uni0412" unicode="&#x412;" horiz-adv-x="584" 
d="M286 389q60 5 96 36.5t36 81.5q0 67 -109 67h-32l-90 -574h-85l90 574h-122l12 76h258q80 0 118 -35t38 -89q0 -35 -13.5 -67.5t-53.5 -70.5q41 -6 71.5 -22t50 -38.5t29 -50t9.5 -55.5q0 -43 -15 -83t-47 -71t-81.5 -49.5t-119.5 -18.5h-102l12 76h92q50 0 84.5 11
t56 29.5t31 43.5t9.5 53q0 22 -9.5 42t-30 35t-51.5 24t-74 9h-68z" />
    <glyph glyph-name="uni0414" unicode="&#x414;" horiz-adv-x="636" 
d="M82 650h124q113 0 197 -29t139 -76.5t82 -107t27 -119.5q0 -68 -24 -126.5t-72 -101t-119 -66.5t-165 -24h-170l90 574h-121zM259 76q150 0 226.5 61t82.5 169q0 47 -20 91.5t-57.5 80t-92 59t-123.5 28.5l-77 -489h61z" />
    <glyph glyph-name="_0127" horiz-adv-x="0" 
 />
    <glyph glyph-name="uni0445" unicode="&#x445;" horiz-adv-x="469" 
d="M494 403l-177 -177l70 -122q8 -14 18.5 -21t28.5 -7h20l-12 -76h-37q-20 0 -33 3t-23 11t-18.5 21.5t-20.5 34.5l-54 95l-169 -169l-57 55l185 185l-62 110q-8 14 -17.5 21t-25.5 7h-22l12 76h34q18 0 31 -3.5t23 -11.5t19 -21t21 -33l48 -85l161 161z" />
    <glyph glyph-name="uni0425" unicode="&#x425;" horiz-adv-x="565" 
d="M548 657l67 -49l-224 -279l95 -208q9 -21 23 -33t37 -12h33l-12 -76h-44q-25 0 -41.5 4t-29 15t-24 31t-26.5 52l-78 164l-220 -270l-69 49l249 306l-83 178q-11 22 -22 33.5t-34 11.5h-25l12 76h39q24 0 38.5 -4t26 -14.5t21.5 -29t25 -47.5l71 -141z" />
    <glyph glyph-name="B" unicode="B" horiz-adv-x="584" 
d="M286 389q60 5 96 36.5t36 81.5q0 67 -109 67h-32l-90 -574h-85l90 574h-122l12 76h258q80 0 118 -35t38 -89q0 -35 -13.5 -67.5t-53.5 -70.5q41 -6 71.5 -22t50 -38.5t29 -50t9.5 -55.5q0 -43 -15 -83t-47 -71t-81.5 -49.5t-119.5 -18.5h-102l12 76h92q50 0 84.5 11
t56 29.5t31 43.5t9.5 53q0 22 -9.5 42t-30 35t-51.5 24t-74 9h-68z" />
    <glyph glyph-name="A" unicode="A" horiz-adv-x="584" 
d="M599 76l-12 -76h-33q-25 0 -44 3.5t-32.5 14t-22.5 31t-15 53.5l-13 74h-228l-82 -176h-87l83 176h-59l13 77h84l189 397h97l86 -529q4 -23 15 -34t40 -11h21zM237 253h179l-38 234l-5 64l-25 -64z" />
    <glyph glyph-name="C" unicode="C" horiz-adv-x="518" 
d="M500 0h-198q-69 0 -117.5 16t-79.5 44t-45.5 65.5t-14.5 80.5q0 80 39 160t107.5 143.5t161.5 104.5t200 43l-32 -202h-75l17 112q-60 -6 -120 -40t-107.5 -84t-77 -109t-29.5 -116q0 -30 11 -56t34 -45t60 -30t89 -11h189z" />
    <glyph glyph-name="O" unicode="O" horiz-adv-x="658" 
d="M726 574h-9q-33 0 -71 -17q-17 -8 -35 -16q14 -27 23 -57q14 -50 14 -104q0 -73 -22.5 -142t-66.5 -123t-108 -86.5t-147 -32.5q-63 0 -109 20t-76 54t-44.5 79.5t-14.5 97.5q0 72 24.5 145.5t69.5 132t109.5 95.5t145.5 37q62 0 107 -23q26 -14 47 -33q37 17 74 32
q44 17 77 17h24zM553 449q-8 29 -23 53l-50 -20q-43 -17 -86 -17q-21 0 -39.5 7t-32.5 21.5t-22 35.5q-3 9 -6 19l-2 -2q-46 -29 -78.5 -75t-50 -101.5t-17.5 -107.5q0 -39 10.5 -73t31.5 -59t53 -39.5t76 -14.5q58 0 104 26t77.5 68t48 95t16.5 107q0 40 -10 77zM396 575
q-18 0 -36 -3q4 -14 14 -21q16 -10 38 -10t59 17q-32 17 -75 17z" />
    <glyph glyph-name="uni0430" unicode="&#x430;" horiz-adv-x="538" 
d="M484 285l-22 -139q-3 -18 -3 -31q0 -21 11.5 -30t41.5 -9h18l-12 -76h-36q-54 0 -82.5 18t-28.5 68q-39 -43 -85.5 -66.5t-92.5 -23.5q-66 0 -102 37.5t-36 101.5q0 70 31 128t83.5 99.5t121.5 64.5t144 23h158l-12 -76h-146q-54 0 -106.5 -13.5t-93.5 -40.5t-66.5 -69
t-25.5 -99q0 -23 7 -38t18 -23.5t26 -12t30 -3.5q30 0 58.5 16t52 41.5t39.5 57t21 63.5l5 32h84z" />
    <glyph glyph-name="_0005" horiz-adv-x="592" 
 />
    <glyph glyph-name="_0003" horiz-adv-x="0" 
 />
    <glyph glyph-name="_0004" horiz-adv-x="0" 
 />
    <glyph glyph-name="fi" horiz-adv-x="556" 
d="M416 0l48 304q3 18 3 30q0 22 -11.5 31t-41.5 9h-191l-59 -374h-84l59 374h-58l12 76h58l1 5q9 54 32 91.5t54 60.5t67.5 33t71.5 10h36l-12 -76h-22q-23 0 -45 -3.5t-41.5 -16t-34.5 -37.5t-23 -67h209q54 0 82.5 -18t28.5 -67q0 -16 -3 -35l-52 -330h-84zM591 582
q0 -29 -21.5 -52t-53.5 -23q-24 0 -39 15t-15 38q0 29 21 51.5t53 22.5q25 0 40 -14.5t15 -37.5z" />
    <glyph glyph-name="ff" horiz-adv-x="612" 
d="M680 574h-22q-23 0 -45 -3.5t-41.5 -16t-34.5 -37.5t-23 -67h147l-12 -76h-147l-59 -374h-84l59 374h-195l-59 -374h-84l59 374h-58l12 76h58l1 5q9 54 32 91.5t54 60.5t67.5 33t71.5 10h36l-12 -76h-22q-23 0 -45 -3.5t-41.5 -16t-34.5 -37.5t-23 -67h195l1 5
q9 54 32 91.5t54 60.5t67.5 33t71.5 10h36z" />
    <glyph glyph-name="oo" horiz-adv-x="1084" 
d="M235 -4q-49 0 -85.5 15t-61 40t-36.5 58.5t-12 71.5q0 52 19 101.5t54 88.5t84.5 62.5t110.5 23.5q49 0 85.5 -16.5t60.5 -44.5l9 -11q3 2 6 3q44 14 90.5 25.5t89.5 11.5q27 0 51 -7q11 -3 21 -7q11 7 23 12q50 24 111 24q49 0 85 -17q28 -12 48 -31q35 19 70.5 34.5
t64.5 15.5h21l-12 -76h-8q-26 0 -57 -16q-18 -8 -36 -18q3 -7 6 -16q12 -35 12 -73q0 -53 -19 -100.5t-54 -84t-84.5 -58t-109.5 -21.5q-49 0 -85.5 15t-61 40t-36.5 58.5t-12 71.5q0 52 19 101q16 43 45 78q-15 4 -32 4q-38 0 -81 -12l-46 -14q10 -33 10 -68
q0 -53 -19 -100.5t-54 -84t-84.5 -58t-109.5 -21.5zM794 61q40 0 72.5 16t55 42.5t34.5 59.5t12 67q0 31 -10 56q-14 -6 -29 -12q-37 -15 -75 -15q-18 0 -35 6.5t-29.5 21t-19.5 37.5q-2 7 -3 16q-30 -16 -51 -41q-22 -27 -34.5 -61t-12.5 -70q0 -51 31 -87t94 -36zM247 71
q40 0 72.5 16t55 42.5t34.5 59.5t12 67q0 25 -7 46q-22 -8 -43 -14q-38 -12 -66 -12q-37 0 -64 28q-20 20 -24 60q-28 -15 -48 -39q-22 -27 -34.5 -61t-12.5 -70q0 -51 31 -87t94 -36zM325 351q21 0 53 8q-30 25 -82 25q-9 0 -17 -1q3 -14 12 -21q14 -11 34 -11zM874 350
q14 0 36 9q-27 15 -67 15q-7 0 -13 -1q4 -8 10 -12q14 -11 34 -11z" />
    </font>
</defs>
</svg>
