<?xml version="1.0" standalone="no"?>
<!DOCTYPE svg PUBLIC "-//W3C//DTD SVG 1.1//EN" "http://www.w3.org/Graphics/SVG/1.1/DTD/svg11.dtd" >
<svg xmlns="http://www.w3.org/2000/svg" xmlns:xlink="http://www.w3.org/1999/xlink" version="1.1">
<metadata>
Created by FontForge 20170924 at Thu Feb  3 14:24:31 2005
 By www-data
Copyright (c) Aecapa oa (Alexandra Gophmann) (pa), 2005. All rights reserved.
</metadata>
<defs>
<font id="LudvigvanBethoveen" horiz-adv-x="418" >
  <font-face 
    font-family="Ludvig van Bethoveen"
    font-weight="400"
    font-stretch="normal"
    units-per-em="2048"
    panose-1="2 0 4 0 0 0 0 0 0 0"
    ascent="1638"
    descent="-410"
    x-height="594"
    cap-height="1552"
    bbox="-502 -526.828 3384 2032.82"
    underline-thickness="102"
    underline-position="-256"
    unicode-range="U+0020-F002"
  />
<missing-glyph horiz-adv-x="1024" 
d="M128 0v1638h768v-1638h-768zM256 128h512v1382h-512v-1382z" />
    <glyph glyph-name=".notdef" horiz-adv-x="1024" 
d="M128 0v1638h768v-1638h-768zM256 128h512v1382h-512v-1382z" />
    <glyph glyph-name="NULL" horiz-adv-x="0" 
 />
    <glyph glyph-name="nonmarkingreturn" horiz-adv-x="512" 
 />
    <glyph glyph-name="space" unicode=" " horiz-adv-x="512" 
 />
    <glyph glyph-name="exclam" unicode="!" horiz-adv-x="455" 
d="M1030 1511q0 -33 -74 -135l-667 -917q-49 -68 -62 -68q-10 0 -10 12t51 89l625 927q81 121 111 121q26 0 26 -29zM209 305q0 -49 -49 -49t-49 49t49 49t49 -49z" />
    <glyph glyph-name="quotedbl" unicode="&#x22;" horiz-adv-x="455" 
d="M1049 1442q0 -20 -93 -119q-74 -80 -102 -80q-8 0 -10 6q0 6 43 87q51 93 55 102q12 24 19 24q1 0 79 -14q9 -2 9 -6zM860 1442q0 -20 -92 -119q-74 -80 -102 -80q-8 0 -11 6q0 6 44 87q50 93 55 102q11 24 18 24q1 0 80 -14q8 -2 8 -6z" />
    <glyph glyph-name="numbersign" unicode="#" horiz-adv-x="721" 
d="M879 1061q0 -11 -31 -57l-159 -242h110q32 0 32 -23q0 -28 -59 -28h-117l-62 -95h116q32 0 32 -22q0 -29 -59 -29h-123l-180 -274q-30 -45 -45 -45q-10 0 -10 12q0 6 14 29l177 278h-136l-180 -274q-30 -45 -45 -45q-11 0 -11 12q0 6 15 29l177 278h-112q-37 0 -37 23
q0 28 54 28h127l60 95h-114q-37 0 -37 22q0 29 54 29h130l181 285q21 32 39 32t18 -18q0 -11 -30 -57l-159 -242h131l181 285q21 32 39 32q19 0 19 -18zM608 711h-133l-62 -95h135z" />
    <glyph glyph-name="dollar" unicode="$" horiz-adv-x="645" 
d="M850 946q0 -42 -26 -67q-22 -21 -48 -21q-49 0 -49 43q0 44 39 49q25 4 25 25q0 41 -64 57l-160 -246q43 -179 43 -221q0 -145 -91.5 -229t-239.5 -84q-37 0 -78 8l-123 -186q-18 -27 -29 -27q-14 0 -14 12q0 8 12 27l119 184q-37 11 -74 49q-47 48 -47 105
q0 37 28.5 65.5t63.5 28.5q49 0 49 -45q0 -42 -43 -51q-32 -6 -32 -33q0 -50 77 -84l283 418q-29 126 -29 164q0 73 49 128q61 68 177 68q26 0 47 -8l86 125q12 19 20 19q13 0 13 -13q0 -8 -9 -20l-77 -119q102 -39 102 -121zM694 1042q-16 5 -30 5q-121 0 -121 -132
q0 -36 10 -84zM494 549q0 43 -13 123l-252 -373q37 -4 43 -4q103 0 166 81q56 72 56 173z" />
    <glyph glyph-name="percent" unicode="%" horiz-adv-x="1024" 
d="M735 1034q0 -111 -161 -309q-113 -138 -226 -138q-112 0 -112 111t154.5 257t272.5 146q72 0 72 -67zM988 1098q0 -15 -76 -117l-549 -737q-33 -45 -45 -45q-10 0 -10 12q0 9 15 29l608 843q24 33 39 33q18 0 18 -18zM1061 665q0 -111 -161 -308q-113 -139 -227 -139
q-112 0 -112 111t155 257t273 146q72 0 72 -67zM714 1033q0 44 -44 44q-94 0 -224 -145t-130 -243q0 -71 60 -71q84 0 198 141q140 174 140 274zM1039 664q0 44 -44 44q-93 0 -223 -144.5t-130 -243.5q0 -70 60 -70q84 0 198 141q139 173 139 273z" />
    <glyph glyph-name="ampersand" unicode="&#x26;" horiz-adv-x="1366" 
d="M1341 203q0 -13 -18 -22q-32 -16 -63 -31q-114 -62 -220 -62q-156 0 -217 168q-152 -168 -288 -168q-73 0 -119.5 43.5t-46.5 106.5q0 100 92 200q90 96 311 238q10 147 86 262q79 119 178 119q76 0 76 -66q0 -59 -63 -130q-52 -58 -183 -161q-6 -98 -6 -77
q0 -110 27 -230q131 151 199 206q65 52 116 52q60 0 60 -53q0 -63 -60 -63q-41 0 -41 36q0 13 13 31q-64 0 -273 -260q65 -205 197 -205q65 0 188 64q32 16 39 16q16 0 16 -14zM1061 983q0 39 -35 39q-47 0 -97 -77q-55 -84 -63 -193q87 58 144 128q51 65 51 103zM805 305
q-33 141 -33 287v35q-167 -121 -236 -202t-69 -159q0 -92 104 -92q124 0 234 131z" />
    <glyph glyph-name="quotesingle" unicode="'" horiz-adv-x="266" 
d="M860 1442q0 -20 -92 -119q-74 -80 -102 -80q-8 0 -11 6q0 6 44 87q50 93 55 102q11 24 18 24q1 0 80 -14q8 -2 8 -6z" />
    <glyph glyph-name="parenleft" unicode="(" horiz-adv-x="530" 
d="M1208 1626q0 -12 -37 -47q-480 -462 -682 -756q-218 -315 -288 -678q-9 -45 -29 -45q-25 0 -25 43q0 390 414 884q189 224 578 570q46 41 55 41q14 0 14 -12z" />
    <glyph glyph-name="parenright" unicode=")" horiz-adv-x="530" 
d="M932 1595q0 -333 -285 -722q-175 -240 -534 -580q-201 -191 -230 -191q-12 0 -12 13q0 10 37 45q482 459 682 747q221 318 287 686q8 45 28 45q27 0 27 -43z" />
    <glyph glyph-name="asterisk" unicode="*" horiz-adv-x="721" 
d="M1137 1362q0 -25 -81 -60q-75 -32 -106 -32q-10 0 -10 10q0 12 76.5 59t95.5 47q25 0 25 -24zM977 1464q0 -41 -28.5 -108.5t-45.5 -67.5q-8 0 -8 15q0 52 12 108q17 78 47 78q23 0 23 -25zM1094 1159q0 -35 -39 -35q-21 0 -72 41.5t-51 57.5q0 10 14 10q20 0 92 -29
q56 -22 56 -45zM866 1278q0 -10 -14 -10q-20 0 -92 28q-55 22 -55 45q0 35 38 35q21 0 72 -41t51 -57zM905 1196q0 -53 -12 -108q-16 -78 -47 -78q-23 0 -23 24q0 41 28.5 108.5t45.5 67.5q8 0 8 -14zM858 1219q0 -13 -76.5 -60t-95.5 -47q-24 0 -24 25q0 24 80 60
q75 32 106 32q10 0 10 -10z" />
    <glyph glyph-name="plus" unicode="+" horiz-adv-x="1024" 
d="M903 504h-246v-246h-65v246h-246v65h246v246h65v-246h246v-65z" />
    <glyph glyph-name="comma" unicode="," horiz-adv-x="266" 
d="M248 418q0 -8 -133 -119q-94 -78 -107 -78q-5 0 -6 4q0 5 64 87q68 86 75 102q12 24 19 24q-15 0 71 -12q17 -2 17 -8z" />
    <glyph glyph-name="hyphen" unicode="-" horiz-adv-x="530" 
d="M584 604l-85 -117q-21 -28 -55 -28h-174q-21 0 -41 -15l-65 -51h-10l86 121q19 27 53 27h172q28 0 47 15l63 48h9z" />
    <glyph glyph-name="hyphen" unicode="&#x2010;" horiz-adv-x="530" 
d="M584 604l-85 -117q-21 -28 -55 -28h-174q-21 0 -41 -15l-65 -51h-10l86 121q19 27 53 27h172q28 0 47 15l63 48h9z" />
    <glyph glyph-name="hyphen" unicode="&#xad;" horiz-adv-x="530" 
d="M584 604l-85 -117q-21 -28 -55 -28h-174q-21 0 -41 -15l-65 -51h-10l86 121q19 27 53 27h172q28 0 47 15l63 48h9z" />
    <glyph glyph-name="period" unicode="." horiz-adv-x="266" 
d="M168 305q0 -49 -49 -49t-49 49t49 49t49 -49z" />
    <glyph glyph-name="slash" unicode="/" horiz-adv-x="834" 
d="M1290 1544q0 -22 -73 -127l-898 -1270q-76 -108 -96 -108q-18 0 -18 20q0 15 114 181l840 1210q83 119 107 119t24 -25z" />
    <glyph glyph-name="zero" unicode="0" horiz-adv-x="645" 
d="M887 969q0 -181 -262 -502q-184 -225 -369 -225q-82 0 -132 49.5t-50 130.5q0 181 252 418t444 237q117 0 117 -108zM852 967q0 71 -72 71q-151 0 -363 -235t-212 -395q0 -115 98 -115q137 0 322 229q227 282 227 445z" />
    <glyph glyph-name="one" unicode="1" horiz-adv-x="530" 
d="M838 1042q0 -10 -35 -51q-85 -100 -186 -259q-111 -175 -148 -222q-208 -268 -494 -268q-94 0 -94 28q0 23 56 23q145 0 293 124q139 118 319 380q-160 -138 -221 -138q-17 0 -17 13q0 17 47 37l4 2q80 33 174 132q119 127 171 165q69 51 108 51q23 0 23 -17z" />
    <glyph glyph-name="two" unicode="2" horiz-adv-x="606" 
d="M799 973q0 -92 -82 -198q-77 -100 -193 -171q-37 -23 -264 -142q-148 -78 -186 -126q80 12 96 12q48 0 120 -28.5t85 -28.5q24 0 92 39q39 22 53 22q19 0 19 -18q0 -31 -74 -67q-64 -31 -90 -31q-21 0 -66 20q-81 37 -119 37q-63 0 -180 -51q-14 -6 -20 -6q-21 0 -21 20
q0 30 57 101q54 69 124 130q84 75 270 172q196 103 263 166t67 142q0 63 -64 63q-98 0 -209.5 -82.5t-111.5 -148.5q0 -37 41 -37q85 0 141 106q29 56 43 56q18 0 18 -15q0 -25 -33 -74q-28 -42 -53 -65q-57 -53 -121 -53q-84 0 -84 80q0 84 128.5 181t246.5 97q45 0 76 -29
t31 -73z" />
    <glyph glyph-name="three" unicode="3" horiz-adv-x="758" 
d="M883 958q0 -141 -189 -249q49 -56 49 -127q0 -123 -122 -229q-128 -111 -295 -111q-93 0 -153 56.5t-60 141.5q0 90 79 173t166 83q57 0 96.5 -38.5t39.5 -92.5q0 -70 -43 -116t-101 -46q-35 0 -35 21q0 23 43 29q86 12 86 104t-84 92q-72 0 -135 -70.5t-63 -144.5
q0 -55 44.5 -96t112.5 -41q119 0 224.5 107t105.5 231q0 25 -10 49q-40 -14 -76 -14q-84 0 -84 59q0 47 76 47q52 0 104 -33q172 83 172 211q0 101 -112 101q-73 0 -149 -52q-81 -54 -81 -114q0 -51 54 -51q70 0 84 92q4 26 18 26q19 0 19 -22q0 -59 -39 -99
q-35 -38 -82 -38q-42 0 -71.5 27.5t-29.5 66.5q0 75 90 143t191 68q69 0 114.5 -41t45.5 -103zM610 723q-29 16 -57 16q-25 0 -25 -12q0 -14 33 -14q26 0 49 10z" />
    <glyph glyph-name="four" unicode="4" horiz-adv-x="834" 
d="M1016 1057q0 -16 -19 -33q-86 -78 -139 -184q-89 -178 -184 -328l37 -4q15 0 69 14q16 4 19 4q14 0 14 -14q0 -20 -39.5 -36.5t-87.5 -16.5q-22 0 -47 2q-74 -95 -180 -155q-113 -64 -221 -64q-125 0 -125 30q0 17 30 17q237 0 361 198q-81 31 -160 43q-84 -67 -147 -67
q-50 0 -50 43q0 67 166 74q26 35 148 262q30 57 105 135t100 78q16 0 16 -17q0 -14 -29 -43q-64 -64 -121 -190q-66 -147 -141 -230q61 -7 156 -36q36 31 161 214q128 187 148 208q111 110 145 110q15 0 15 -14zM276 535q-79 0 -79 -25q0 -6 10 -6q33 0 69 31z" />
    <glyph glyph-name="five" unicode="5" horiz-adv-x="721" 
d="M971 1038q0 -16 -19 -16q-5 0 -20 5t-31 5q-14 0 -102 -25.5t-131 -25.5q-39 0 -82 12q-30 -71 -97 -164q9 2 27 2q91 0 154 -59t63 -135q0 -135 -156 -265t-325 -130q-75 0 -120.5 33.5t-45.5 89.5q0 72 61 153q64 86 132 86q27 0 54 -17.5t27 -39.5q0 -17 -18 -17
q-9 0 -16 11q-15 20 -37 20q-49 0 -103.5 -70.5t-54.5 -128.5q0 -33 28.5 -56t73.5 -23q127 0 261.5 137.5t134.5 267.5q0 103 -129 103q-17 0 -47 -9q-82 -112 -140 -112q-34 0 -34 35q0 64 143 112q78 122 115 203q-15 11 -15 39q0 47 39 47t39 -53q12 -4 31 -4
q28 0 111.5 27.5t113.5 27.5q32 0 71 -20q44 -22 44 -46z" />
    <glyph glyph-name="six" unicode="6" horiz-adv-x="721" 
d="M926 975q0 -42 -27.5 -70t-62.5 -28q-70 0 -70 61q0 20 16 20q11 0 20 -22.5t34 -22.5q47 0 47 56q0 67 -66 67q-150 0 -360.5 -231t-210.5 -399q0 -115 92 -115q124 0 256 139q129 135 129 250q0 72 -57 72q-74 0 -155.5 -74t-100.5 -162q-11 -49 -29 -49q-16 0 -16 25
q0 85 103 192q107 111 206 111q92 0 92 -105q0 -154 -164 -303q-159 -145 -309 -145q-80 0 -130 48t-50 120q0 188 245 425q250 240 461 240q44 0 75.5 -29t31.5 -71z" />
    <glyph glyph-name="seven" unicode="7" horiz-adv-x="645" 
d="M946 1026q0 -26 -28 -49q-32 -23 -64 -45q-125 -89 -264 -334q-118 -206 -184 -271q-86 -85 -213 -85q-132 0 -132 30q0 21 41 21q105 0 185 76q39 37 193 248q145 200 265 303q-51 0 -126.5 22.5t-110.5 22.5q-82 0 -166 -91q-17 -18 -27 -18q-12 0 -12 12q0 16 37 63
t74 75q65 49 131 49q41 0 126 -25.5t130 -25.5q46 0 100 32q14 8 25 8q20 0 20 -18z" />
    <glyph glyph-name="eight" unicode="8" horiz-adv-x="606" 
d="M840 969q0 -86 -84 -165q-80 -77 -201 -112q31 -97 31 -147q0 -121 -87 -212t-212 -91q-93 0 -146 49q-49 46 -49 119q0 165 330 288q-4 37 -4 41q0 115 107 230.5t216 115.5q99 0 99 -116zM801 975q0 74 -76 74q-80 0 -137 -85q-53 -77 -53 -165q0 -34 8 -62
q107 36 177 94q81 68 81 144zM465 477q0 60 -31 170q-159 -60 -225 -114q-72 -58 -72 -136q0 -46 39.5 -80t102.5 -34q82 0 135 59q51 56 51 135z" />
    <glyph glyph-name="nine" unicode="9" horiz-adv-x="721" 
d="M821 907q0 -232 -225 -481q-167 -184 -385 -184q-172 0 -172 129q0 41 24.5 71.5t65.5 30.5q66 0 66 -70q0 -28 -21 -28q-14 0 -17 17q-1 13 -2 27q-4 21 -26 21q-55 0 -55 -67q0 -82 100 -82q158 0 358 223q236 262 236 428q0 82 -92 82q-107 0 -243 -140t-136 -251
q0 -76 78 -76q71 0 121.5 68t60.5 172q3 26 18 26q17 0 17 -26q0 -109 -66.5 -192t-152.5 -83q-52 0 -84.5 31.5t-32.5 81.5q0 131 148.5 279.5t275.5 148.5q60 0 100.5 -45t40.5 -111z" />
    <glyph glyph-name="colon" unicode=":" horiz-adv-x="266" 
d="M334 571q0 -49 -49 -49t-49 49q0 50 49 50t49 -50zM172 305q0 -49 -49 -49t-49 49t49 49t49 -49z" />
    <glyph glyph-name="semicolon" unicode=";" horiz-adv-x="266" 
d="M332 571q0 -49 -49 -49q-47 0 -47 47q0 52 49 52q47 0 47 -50zM233 418q0 -8 -133 -119q-93 -78 -106 -78q-6 0 -6 4q0 5 64 87q67 86 75 102q12 24 18 24q-14 0 72 -12q16 -2 16 -8z" />
    <glyph glyph-name="less" unicode="&#x3c;" horiz-adv-x="1024" 
d="M904 264l-556 256v66l556 255v-82l-488 -205l488 -209v-81z" />
    <glyph glyph-name="equal" unicode="=" horiz-adv-x="1024" 
d="M903 586h-557v65h557v-65zM903 422h-557v65h557v-65z" />
    <glyph glyph-name="greater" unicode="&#x3e;" horiz-adv-x="1024" 
d="M904 520l-556 -256v81l488 209l-488 205v82l555 -255z" />
    <glyph glyph-name="question" unicode="?" horiz-adv-x="682" 
d="M1227 1327q0 -98 -83 -185q-65 -68 -222 -165q-283 -175 -321 -203q-190 -139 -368 -360q-14 -19 -26 -19q-14 0 -14 13q0 28 98 131q78 83 155 166q136 123 451 327q160 104 220 189q46 66 46 149q0 137 -159 137q-162 0 -283 -102q-117 -99 -117 -221q0 -86 103 -86
q105 0 172 106q16 27 32 27q11 0 11 -12q0 -23 -39 -66q-80 -88 -189 -88q-64 0 -107 46q-40 42 -40 97q0 124 141 227t303 103q98 0 165 -56q71 -60 71 -155zM211 303q0 -49 -47 -49q-49 0 -49 49t49 49q47 0 47 -49z" />
    <glyph glyph-name="at" unicode="@" horiz-adv-x="1382" 
d="M1270 870q0 -152 -107 -288t-233 -136q-53 0 -89.5 23t-40.5 51q-60 -55 -102 -55q-64 0 -64 64q0 78 70 158q80 92 157 92q32 0 57 -13.5t25 -29.5l27 34h100l-161 -197q-31 -37 -31 -56q0 -40 54 -40q116 0 212 135q91 128 91 258q0 77 -53 126q-48 46 -115 46
q-218 0 -414 -196t-196 -414q0 -162 157 -162q152 0 275 90q28 21 31 21q14 0 14 -14q0 -10 -23 -29q-119 -102 -317 -102q-108 0 -177 64t-69 171q0 194 215 394q228 212 494 212q99 0 158 -65q55 -59 55 -142zM924 709q0 34 -50 34q-19 0 -52 -34q-128 -135 -128 -192
q0 -18 15 -18q45 0 115 86z" />
    <glyph glyph-name="A" unicode="A" horiz-adv-x="1518" 
d="M2169 1485q0 -22 -86 -105q-531 -510 -705 -1044q102 49 217 147q60 52 68 52q12 0 12 -17q0 -21 -109 -106q-116 -90 -204 -127q-33 -115 -33 -219q0 -176 102 -305q108 -138 273 -138q141 0 252.5 120.5t111.5 270.5q0 78 -45 124t-114 46q-123 0 -216.5 -111
t-93.5 -257q0 -27 -14 -27q-11 0 -14.5 13.5t-3.5 50.5q0 144 104.5 256t235.5 112q86 0 143 -61t57 -150q0 -173 -130 -303q-125 -125 -279 -125q-188 0 -319 164q-128 159 -128 375q0 51 17 133q-59 -12 -125 -12q-135 0 -262 63q-148 -63 -322 -63q-227 0 -380 92
q-148 89 -148 213q0 122 126 212.5t302 90.5q144 0 274 -62q102 156 268 156q161 0 275 -135q31 31 160 180q203 236 372 359q79 57 184 105t156 48q21 0 21 -16zM2114 1460q-102 -17 -235 -114q-119 -88 -215.5 -201t-172.5 -229q-113 -175 -152 -228q21 -67 25 -143
q213 432 750 915zM1247 778q-35 56 -102 90.5t-139 34.5q-150 0 -238 -133q42 -24 85.5 -68.5t43.5 -66.5q0 -17 -14 -17t-29 23q-39 59 -102 96q-25 -43 -25 -106q0 -118 76 -207q230 119 444 354zM1323 496q0 51 -20 143q-169 -200 -371 -309q103 -47 207 -47q65 0 137 16
q10 37 43 139q4 29 4 58zM764 403q-78 107 -78 222q0 66 31 131q-126 57 -271 57q-146 0 -261 -80t-115 -180q0 -97 102 -169.5t242 -72.5q172 0 350 92z" />
    <glyph glyph-name="B" unicode="B" horiz-adv-x="1821" 
d="M2511 1325q0 -12 -12 -12q-3 0 -56 39q-121 90 -272 90q-143 0 -291 -80q94 -105 94 -229q0 -208 -239 -310q45 -62 45 -133q0 -162 -139.5 -303t-297.5 -141q-70 0 -113.5 41.5t-43.5 113.5q0 103 92 189q123 115 217 115q23 0 23 -15q0 -17 -39 -26
q-106 -27 -179 -105.5t-73 -157.5q0 -118 114 -118q139 0 269.5 134t130.5 273q0 62 -47 119q-53 -16 -111 -16q-106 0 -106 53q0 51 96 51q74 0 133 -47q221 99 221 287q0 118 -84 202q-170 -107 -315 -313q-76 -123 -252 -367q-165 -197 -369 -308q-200 -109 -391 -109
q-203 0 -353.5 97.5t-150.5 229.5q0 115 118.5 199t295.5 84q141 0 268 -66q55 -28 122 -82q77 -62 77 -90q0 -16 -14 -16q-9 0 -29 23q-170 194 -430 194q-154 0 -259 -69q-108 -70 -108 -177q0 -104 108 -171q105 -66 261 -66q438 0 911 565q176 211 246 281
q98 99 231 188q-131 92 -329 92q-260 0 -506 -154q-256 -160 -256 -348q0 -79 51 -127.5t141 -48.5q204 0 345 149q109 116 137 257q22 112 43 112q14 0 14 -18q0 -8 -8 -53q-36 -196 -166 -324q-166 -162 -373 -162q-100 0 -164 64q-59 60 -59 145q0 194 250.5 368.5
t542.5 174.5q226 0 374 -104q161 88 316 88q100 0 198 -41q55 -23 104 -60q46 -35 46 -51zM1663 836q-44 26 -90 26q-55 0 -55 -16q0 -19 61 -19q35 0 84 9z" />
    <glyph glyph-name="C" unicode="C" horiz-adv-x="1139" 
d="M1780 1411q0 -150 -318 -332q-193 -110 -413 -183q-245 -81 -445 -87q-96 -147 -96 -274q0 -154 72 -209q109 242 265 394q153 150 288 150q54 0 92.5 -41.5t38.5 -101.5q0 -182 -179 -336q-171 -149 -356 -149q-59 0 -127 22q-61 -181 -61 -295q0 -41 -21 -41
q-18 0 -18 41q0 151 59 312q-178 92 -178 305q0 113 66 229q-181 21 -308 117q-133 100 -133 231q0 154 183 259q175 100 417 100q306 0 559 -123q277 123 437 123q176 0 176 -111zM1741 1415q0 66 -92 66q-149 0 -396 -131q97 -67 119 -100q4 -6 4 -9q0 -12 -12 -12
q-8 0 -18 8q-83 65 -129 92q-380 -210 -584 -477q378 18 797 252q311 174 311 311zM1120 1376q-250 103 -510 103q-231 0 -397 -90.5t-166 -223.5q0 -121 125 -211q121 -88 299 -102q203 306 649 524zM1225 729q0 41 -27 73t-68 32q-120 0 -267 -147q-152 -154 -247 -384
q57 -24 117 -24q167 0 328 143q164 147 164 307z" />
    <glyph glyph-name="D" unicode="D" horiz-adv-x="1593" 
d="M2488 1434q0 -17 -16 -17q-12 0 -70 29q-102 51 -229 51q-207 0 -428 -141q63 -106 63 -221q0 -147 -67 -311q-74 -180 -207 -322q-239 -256 -547 -256q-99 0 -248 43q-150 -47 -336 -47q-168 0 -279 28q-116 30 -116 78q0 80 234 80q140 0 354 -57q245 89 440 280
q83 81 307 364q184 232 338 349q-118 133 -344 133q-326 0 -618 -217q-260 -194 -260 -440q0 -117 63 -184q60 -64 158 -64q217 0 397 237q137 182 137 484q0 22 15 22q20 0 20 -73q0 -263 -157 -477q-169 -230 -410 -230q-115 0 -187 74q-77 79 -77 213q0 252 277 470
q287 226 648 226q235 0 375 -147q228 149 453 149q144 0 244 -55q73 -41 73 -51zM1767 1137q0 92 -59 192q-122 -103 -262 -335q-177 -292 -248 -380q-166 -204 -393 -301q115 -32 178 -32q291 0 537.5 270t246.5 586zM516 344q-186 41 -295 41q-174 0 -174 -39
q0 -20 63.5 -35.5t137.5 -15.5q102 0 268 49z" />
    <glyph glyph-name="E" unicode="E" horiz-adv-x="1174" 
d="M1597 1341q0 -188 -319 -361q-326 -176 -717 -185q-127 -163 -127 -301q0 -126 111 -177q36 97 127 230q98 143 240.5 236.5t261.5 93.5q112 0 112 -105q0 -189 -198 -362q-193 -168 -386 -168q-57 0 -135 18q-49 -137 -59 -254q-6 -65 -23 -65q-16 0 -16 22
q0 123 59 309q-97 35 -154 115q-61 83 -61 197q0 105 68 221q-162 26 -264 111q-109 92 -109 221q0 138 148 239q158 107 399 107q287 0 575 -154q151 154 312 154q66 0 110.5 -40t44.5 -102zM1556 1341q0 97 -110 97q-146 0 -279 -129q18 -12 64.5 -44t50.5 -34
q29 -19 29 -33t-13 -14q-8 0 -24 12q-95 71 -133 84q-56 -76 -56 -125q0 -5 1 -16.5t1 -16.5q105 -13 105 -59q0 -37 -43 -37q-51 0 -84 55q-131 -19 -264 -91q-124 -67 -205 -154q369 15 664.5 171.5t295.5 333.5zM1155 1065q0 15 -47 18q19 -26 37 -26q10 0 10 8z
M1106 1298q-284 146 -569 146q-206 0 -350 -94q-140 -90 -140 -211q0 -119 110 -204q101 -77 249 -95q82 112 247 192q186 89 396 92q0 96 57 174zM1243 768q0 70 -82 70q-75 0 -179 -58q-107 -59 -187 -147q-143 -156 -211 -330q55 -18 118 -18q181 0 347 147
q87 78 141 174q53 93 53 162z" />
    <glyph glyph-name="F" unicode="F" horiz-adv-x="1327" 
d="M2558 1534q0 -30 -152 -55q-146 -25 -301 -25q-105 0 -359.5 27.5t-352.5 27.5q-289 0 -496 -141.5t-207 -341.5q0 -81 57 -135.5t146 -54.5q179 0 302 159q110 142 110 308q0 98 18 98q25 0 25 -101q0 -195 -127 -345q-133 -158 -324 -158q-110 0 -180 68t-70 165
q0 229 236 379q224 141 536 141q108 0 324.5 -27.5t367.5 -27.5q274 0 406 47q17 6 23 6q18 0 18 -14zM1833 1423q0 -12 -27 -34q-131 -106 -311 -433q85 41 231 146l19 -21q-68 -90 -143 -217l-127 -33l45 80l-64 -22q-207 -365 -399 -501q-206 -146 -549 -146q-33 0 -53 2
q-115 -179 -129 -328q-3 -33 -23 -33q-18 0 -18 25q0 143 123 340q-160 22 -262 104q-109 88 -109 213q0 128 125.5 220t310.5 92q264 0 420 -183q119 70 467 207q98 141 252 346q166 191 209 191q12 0 12 -15zM1315 838q-282 -102 -400 -174q31 -47 31 -58q0 -14 -16 -14
q-14 0 -29 26q-4 8 -16 25q-233 -155 -393 -348q190 14 413 157q238 151 410 386zM860 676q-154 158 -395 158q-154 0 -268 -73q-121 -77 -121 -194q0 -115 110 -194q103 -74 252 -80q139 201 422 383z" />
    <glyph glyph-name="I" unicode="I" horiz-adv-x="1212" 
d="M1956 1503q0 -27 -25.5 -46t-64.5 -19q-23 0 -94 16q-134 -106 -213 -192q92 -65 92 -181q0 -137 -112 -235t-265 -98q-13 0 -28.5 1t-18.5 1q-126 -222 -364 -363q-247 -145 -519 -145q-215 0 -348 93t-133 238q0 139 129.5 236.5t308.5 97.5q233 0 447 -200
q43 -41 43 -62q0 -22 -19 -22q-8 0 -37 30q-202 215 -434 215q-160 0 -277.5 -86.5t-117.5 -206.5q0 -114 89 -186t232 -72q442 0 869 469q-142 73 -142 254q0 190 186 341q183 149 404 149q87 0 223 -31q82 47 123 47q66 0 66 -43zM1915 1497q0 12 -27 12q-25 0 -65 -22
q34 -6 59 -6q33 0 33 16zM1718 1466q-89 19 -170 19q-219 0 -383 -136t-164 -313q0 -154 125 -217q106 119 207 253q106 139 137 175q-8 2 -22 2q-48 0 -95 -32.5t-69 -79.5q-11 -23 -24 -23q-19 0 -19 21q0 51 80 107q75 52 129 52q12 0 57 -8q90 93 211 180zM1604 1077
q0 102 -76 148q-107 -130 -211 -322q-19 -35 -64 -115q150 0 250.5 81.5t100.5 207.5z" />
    <glyph glyph-name="J" unicode="J" horiz-adv-x="1176" 
d="M2189 1491q0 -30 -33 -51t-79 -21q-49 0 -160 27q-87 -56 -262 -191q88 -63 88 -174q0 -176 -158 -319.5t-352 -143.5q-31 0 -51 5q-155 -259 -252 -398q79 -15 220 -69q177 -68 177 -113q0 -18 -18 -18q-11 0 -25 10q-148 107 -383 151q-210 -320 -504 -510
q-301 -194 -600 -194q-137 0 -218 56t-81 153q0 223 348 396q338 169 748 169q75 0 176 -8q104 125 313 403q-72 37 -118.5 109.5t-46.5 159.5q0 230 243.5 411.5t546.5 181.5q91 0 203 -24q116 59 180 59q43 0 70.5 -17t27.5 -40zM2144 1487q0 20 -57 20q-36 0 -113 -32
q93 -17 111 -17q59 0 59 29zM1858 1458q-56 15 -160 15q-270 0 -498 -166q-231 -168 -231 -377q0 -175 145 -238q282 372 465 551q-27 8 -61 8q-110 0 -200 -83.5t-110 -200.5q-8 -52 -26 -52q-21 0 -21 25q0 111 105 234q101 118 254 118q45 0 94 -16q114 103 244 182z
M1692 1085q0 98 -70 140q-128 -138 -203 -238q-81 -109 -209 -317h27q171 0 310 122q145 127 145 293zM735 207q-86 6 -147 6q-373 0 -707 -164.5t-334 -353.5q0 -68 54 -111q57 -47 153 -47q213 0 486 191q262 182 495 479z" />
    <glyph glyph-name="K" unicode="K" horiz-adv-x="1403" 
d="M2636 1477q0 -17 -19 -17q3 0 -66 22.5t-157 22.5q-186 0 -355 -108q-165 -106 -368 -353q-149 -180 -282 -233q22 -51 22 -123q0 -160 -182 -471q-135 -230 -135 -338q0 -99 80 -171q83 -75 202 -75q144 0 268 130q128 133 128 296q0 65 -41 107.5t-107 42.5
q-122 0 -229 -139q-102 -131 -105 -263q0 -30 -16 -30q-21 0 -21 37q0 146 113 286q118 146 258 146q83 0 134.5 -54t51.5 -139q0 -181 -135.5 -320t-306.5 -139q-153 0 -250.5 105.5t-97.5 267.5q0 160 115 332q215 323 215 455q0 18 -7 43q-51 -13 -112 -13
q-114 -240 -310 -388q-205 -154 -432 -154q-200 0 -341 106q-134 102 -134 232q0 125 122 212t306 87q146 0 273 -58q47 -21 109 -67q73 -55 73 -82q0 -13 -12 -13q-9 0 -49 37q-158 144 -394 144q-164 0 -274.5 -75.5t-110.5 -184.5q0 -110 90.5 -185.5t219.5 -75.5
q190 0 392 131.5t376 370.5q-31 22 -31 56q0 55 110 55q120 168 166 237q-290 -211 -530 -211q-140 0 -244 82.5t-104 188.5q0 145 169 240q159 90 378 90q307 0 526 -158l57 61q34 39 47 39q21 0 21 -16q0 -13 -31 -41q-21 -20 -63 -66q94 -85 94 -106q0 -19 -19 -19
q-13 0 -41 33q-14 17 -63 60q-103 -127 -152 -204q-36 -58 -129 -235q45 -27 72 -61q125 48 272 223q209 248 372 356q182 119 384 119q58 0 141 -18q99 -22 99 -49zM1546 1370q-213 150 -495 150q-206 0 -354 -81q-156 -84 -156 -210q0 -91 90 -159.5t211 -68.5
q171 0 360 102q182 97 344 267zM1327 834q-17 25 -47 40l-29 -51q31 0 76 11zM1190 899q-47 -3 -47 -27q0 -9 14 -20z" />
    <glyph glyph-name="L" unicode="L" horiz-adv-x="1139" 
d="M2066 1374q0 -196 -298 -395q-285 -190 -617 -240q-165 -313 -428 -444q69 -14 98 -14q104 0 203 54q86 47 205 159q19 18 31 18t12 -10q0 -13 -19 -29q-172 -153 -237 -190q-72 -41 -178 -41q-52 0 -170 28q-153 -59 -381 -59q-252 0 -252 98q0 76 219 76q135 0 301 -43
q267 133 430 377q-82 -4 -106 -4q-260 0 -428 112q-172 116 -172 303q0 156 150 271q156 119 380 119q176 0 354 -62q175 -61 299 -162q245 213 434 213q77 0 123.5 -37.5t46.5 -97.5zM2023 1372q0 96 -135 96q-163 0 -391 -206q84 -78 84 -97q0 -18 -16 -18q-15 0 -41 29
q-19 20 -58 55q-90 -97 -144 -181q-43 -67 -146 -264q311 52 577 233q270 185 270 353zM1430 1266q-268 211 -615 211q-196 0 -339 -96q-148 -100 -148 -246q0 -167 157 -273q154 -104 389 -104q63 0 140 6q188 289 416 502zM500 315q-142 35 -256 35q-172 0 -172 -41
q0 -49 133 -49q150 0 295 55z" />
    <glyph glyph-name="M" unicode="M" horiz-adv-x="1669" 
d="M2515 1585q0 -15 -114 -102q-171 -130 -277 -225q-194 -172 -344 -359q-428 -534 -428 -895q0 -136 82 -226.5t202 -90.5q138 0 259 111q126 115 126 259q0 74 -57.5 126.5t-132.5 52.5q-174 0 -275 -238q-10 -25 -24 -25q-12 0 -12 17q0 35 42 105q40 67 80 106
q81 75 189 75q91 0 159 -62q70 -66 70 -159q0 -163 -134 -287q-130 -120 -290 -120q-162 0 -278.5 130.5t-116.5 305.5q0 253 357 696q351 436 780 729q10 8 47 33q-443 -201 -1002 -903q-247 -311 -288 -311q-15 0 -15 14q0 12 23 35q218 219 347 465q189 358 345 575
q-163 -177 -303 -395q-248 -387 -449 -541q-219 -168 -510 -168q-198 0 -358 97q-172 104 -172 254q0 117 126.5 204.5t307.5 87.5q141 0 266 -57q65 -29 126 -74q65 -48 65 -71q0 -17 -16 -17q-10 0 -33 23q-164 155 -416 155q-157 0 -269 -73.5t-112 -175.5
q0 -105 109 -175q114 -73 297 -73q419 0 837 459q61 66 309 380q110 139 210 234q104 98 145 98q16 0 16 -12q0 -16 -74 -102q-162 -191 -366 -586q307 341 514 497q87 66 203 131q146 80 211 80q16 0 16 -12z" />
    <glyph glyph-name="N" unicode="N" horiz-adv-x="1139" 
d="M2669 1346q0 -19 -15 -19q-9 0 -57 32q-58 39 -110 59q-83 32 -179 32q-642 0 -1390 -1155q-12 -19 -23 -19q-12 0 -12 15q0 55 68 258q57 171 110 297q93 224 233 420q-106 -115 -196 -271q-243 -415 -444 -578q-216 -175 -519 -175q-191 0 -339 92q-156 98 -156 237
q0 123 135 215.5t321 92.5q124 0 248 -50q65 -25 120.5 -64t55.5 -58t-14 -19q-11 0 -35 21q-152 131 -381 131q-167 0 -287 -80t-120 -187q0 -101 100 -165q105 -68 278 -68q283 0 504 161q200 147 482 531q133 182 219 271q27 27 107 89q93 72 116 72q14 0 14 -12
q0 -11 -33 -45q-168 -174 -282.5 -394t-224.5 -583q713 1065 1339 1065q103 0 205 -41q69 -28 118 -63q44 -31 44 -45z" />
    <glyph glyph-name="O" unicode="O" horiz-adv-x="946" 
d="M1444 1317q0 -179 -248 -350q4 -25 4 -39q0 -202 -258 -443q-262 -243 -489 -243q-4 0 -41 4v-27q0 -151 37 -285q2 -7 2 -16q0 -18 -19 -18q-21 0 -35 69q-30 152 -30 262v27q-179 72 -179 281q0 316 342 618q172 152 371 242t361 90q78 0 130 -52.5t52 -119.5z
M1399 1319q0 52 -35.5 90.5t-89.5 38.5q-174 0 -415 -178q-224 -166 -389 -395q-173 -239 -173 -404q0 -93 74 -149q28 294 222 538q200 252 427 252q50 0 97 -28.5t65 -73.5q97 56 157 139.5t60 169.5zM1153 948q-141 -57 -223 -57q-29 0 -29 20q0 16 62 25q83 13 180 55
q-33 80 -129 80q-205 0 -401 -258q-193 -254 -199 -516q30 -10 51 -10q214 0 453 234q235 231 235 427z" />
    <glyph glyph-name="Q" unicode="Q" horiz-adv-x="1024" 
d="M1331 1264q0 -287 -231 -559q-215 -252 -535 -390q98 -28 156 -28q199 0 389 202q19 21 29 21q14 0 14 -14q0 -11 -23 -33q-221 -221 -407 -221q-84 0 -223 49q-139 -49 -248 -49q-100 0 -177 35t-77 81q0 64 135 64q124 0 354 -82q265 100 510.5 425.5t245.5 575.5
q0 106 -56.5 168t-150.5 62q-255 0 -525.5 -248t-270.5 -473q0 -93 57 -153t145 -60q213 0 383 225q136 179 136 488q0 32 24 32q23 0 23 -53q0 -302 -144 -489q-87 -115 -200.5 -181.5t-221.5 -66.5q-104 0 -174.5 73t-70.5 185q0 249 277 504q282 258 568 258
q123 0 206 -100t83 -248zM420 317q-170 60 -285 60q-88 0 -88 -21q0 -29 73 -49q62 -16 128 -16q81 0 172 26z" />
    <glyph glyph-name="S" unicode="S" horiz-adv-x="985" 
d="M2101 1423q0 -200 -308 -403q-293 -193 -607 -232q-148 -275 -304 -399q-186 -147 -452 -147q-197 0 -314.5 84.5t-117.5 218.5q0 117 108 205t256 88q124 0 263 -68q55 -27 124 -79q78 -59 78 -83q0 -18 -20 -18q-14 0 -27 14q-76 85 -188.5 137t-220.5 52
q-135 0 -231.5 -75t-96.5 -177q0 -104 84 -168t219 -64q192 0 355 114q156 108 319 345q-82 -4 -107 -4q-259 0 -427 113q-173 115 -173 303q0 155 151 270q156 119 380 119q172 0 351 -62t302 -164q247 216 434 216q77 0 123.5 -37.5t46.5 -98.5zM2058 1421q0 97 -135 97
q-148 0 -391 -207q84 -77 84 -97q0 -18 -17 -18q-14 0 -40 29q-30 32 -58 55q-91 -97 -144 -181q-43 -67 -145 -263q280 37 555 216q291 189 291 369zM1464 1315q-268 211 -614 211q-196 0 -338 -96q-147 -99 -147 -246q0 -167 156 -273q153 -104 388 -104q63 0 140 6
q188 289 415 502z" />
    <glyph glyph-name="U" unicode="U" horiz-adv-x="1442" 
d="M1860 1268l-560 -711q-133 -169 -133 -229q0 -31 39 -31q86 0 186 75q3 2 153 135q8 7 18 7q14 0 14 -12q0 -23 -127 -128q-146 -120 -250 -120q-127 0 -127 115q0 37 10 75q-234 -202 -360 -202q-63 0 -106 39q-46 41 -46 106q0 109 152 260q242 241 332 367
q110 153 110 280q0 95 -83.5 151t-219.5 56q-294 0 -545 -162t-251 -354q0 -88 61 -143.5t152 -55.5q171 0 337 151q171 155 177 335q1 53 20 53q23 0 23 -31q0 -193 -176 -368q-178 -178 -384 -178q-105 0 -177 67t-72 174q0 206 263.5 378.5t569.5 172.5q354 0 354 -297
q0 -240 -364 -610q-141 -143 -148 -151q-61 -69 -61 -113q0 -76 86 -76q110 0 283 149q140 121 272 293l410 533h168z" />
    <glyph glyph-name="V" unicode="V" horiz-adv-x="983" 
d="M2669 1425q0 -14 -15 -14q-9 0 -28 12q-110 70 -275 70q-214 0 -422.5 -134.5t-528.5 -478.5t-603 -495q-269 -143 -564 -143q-269 0 -428 84q-165 88 -165 247q0 123 133 205q126 78 295 78q150 0 270 -59q65 -33 121.5 -84t56.5 -80q0 -15 -16 -15q-15 0 -29 19
q-135 176 -397 176q-160 0 -274.5 -70.5t-114.5 -171.5q0 -106 103.5 -181t246.5 -75q278 0 515 177q214 160 505 555q-183 -154 -404 -154q-154 0 -273.5 88t-119.5 203q0 138 148 225q139 82 344 82q305 0 542 -152q108 129 125 129q21 0 21 -16q0 -8 -113 -135
q90 -76 90 -100q0 -17 -16 -17q-8 0 -27 19q-33 32 -74 65q-109 -145 -185 -289q-95 -183 -132 -239q-180 -280 -434 -428q343 110 678 432l518 520q295 252 608 252q136 0 252 -53q66 -30 66 -54zM1266 1309q-218 145 -516 145q-192 0 -320 -74q-131 -76 -131 -194
q0 -101 101 -174q105 -76 255 -76q322 0 611 373z" />
    <glyph glyph-name="W" unicode="W" horiz-adv-x="1251" 
d="M2779 1419q0 -14 -14 -14q-10 0 -29 12q-107 70 -258 70q-274 0 -525 -187q-223 -167 -544 -579q-141 -181 -323 -337q-144 -124 -162 -124q-17 0 -17 16q0 12 19 29q156 143 279 346q91 150 315 602q-52 -57 -138 -184q-191 -284 -277 -389q-111 -135 -247 -234
q-283 -204 -620 -204q-244 0 -397.5 92.5t-153.5 238.5q0 123 133 205q126 78 295 78q149 0 268 -59q66 -33 123 -84.5t57 -79.5q0 -15 -16 -15q-14 0 -29 19q-138 176 -397 176q-160 0 -274.5 -70.5t-114.5 -171.5q0 -104 102 -180t242 -76q274 0 526 195q235 180 490 561
q-229 -156 -416 -156q-154 0 -272.5 82.5t-118.5 196.5q0 143 161 242q147 90 322 90q260 0 539 -180q27 38 67 81q30 33 39 33q17 0 17 -16q0 -12 -25 -43q-12 -18 -59 -82q61 -39 61 -57q0 -19 -18 -19q-13 0 -39 21l-31 20q-97 -132 -198.5 -328t-160.5 -279
q-109 -151 -292 -292q186 81 337 244q120 129 345 463q82 121 177 236q132 159 179 159q20 0 20 -19q0 -13 -20 -32q-74 -70 -120 -145q-32 -52 -103 -206q-160 -344 -309 -561q103 94 200 219q329 424 560 595q253 188 534 188q76 0 183 -29q128 -34 128 -78zM1278 1313
q-271 172 -516 172q-159 0 -293 -82q-143 -88 -143 -211q0 -94 101.5 -162.5t248.5 -68.5q319 0 602 352z" />
    <glyph glyph-name="X" unicode="X" horiz-adv-x="1327" 
d="M2284 1460q0 -18 -19 -18q-9 0 -40 10t-54 10q-219 0 -464 -189q-211 -164 -536 -548q33 -4 35 -4q10 0 25.5 5t23.5 5q17 0 17 -14q0 -39 -84 -39q-31 0 -51 4q-154 -185 -154 -297q0 -104 90 -104q30 0 108 42q113 63 257 187q23 20 32 20q15 0 15 -12q0 -8 -19 -24
q-277 -252 -399 -252q-57 0 -93 41.5t-36 101.5q0 57 41 139q-346 -282 -662 -282q-171 0 -287 80.5t-116 207.5q0 114 102 195q108 86 273 86q10 0 51 -4q0 151 129 317q118 152 287 254q179 107 336 107q129 0 201 -78q69 -75 69 -207q0 -113 -64 -256q265 281 448 407
q218 150 415 150q51 0 87 -13t36 -28zM1307 1253q0 81 -57 135q-60 56 -158 56q-202 0 -411 -169q-138 -111 -230 -247q-66 -96 -66 -227q163 -42 299 -172q132 45 258.5 238.5t126.5 361.5q0 54 10 61q3 2 8 2q21 0 21 -65q0 -165 -127 -367.5t-264 -261.5q14 -17 14 -27
q0 -18 -16 -18q-7 0 -37 27q-62 -21 -100 -21q-95 0 -156.5 57t-77.5 150q-27 4 -65 4q-146 0 -240 -73q-88 -70 -88 -169q0 -104 96 -175q99 -74 252 -74q342 0 717 432q-8 2 -21 2q-9 0 -25.5 -3t-21.5 -3q-20 0 -20 16q0 12 24.5 25.5t57.5 13.5q13 0 43 -8
q254 299 254 499zM643 614q-104 98 -252 144q38 -156 182 -156q27 0 70 12z" />
    <glyph glyph-name="Y" unicode="Y" horiz-adv-x="1288" 
d="M1774 1128l-560 -706q-120 -159 -317 -395q62 -35 156 -119q110 -98 110 -137q0 -19 -16 -19q-10 0 -37 33q-100 122 -246 209q-433 -461 -870 -461q-168 0 -281.5 64.5t-113.5 160.5q0 155 224.5 272t524.5 117q225 0 430 -69q55 63 168 211q-92 -47 -172 -47
q-184 0 -184 147q0 111 151 260q233 229 328 361q115 159 115 286q0 95 -83 151t-220 56q-294 0 -545.5 -162t-251.5 -354q0 -88 61 -143.5t152 -55.5q179 0 346 156t168 330q0 53 23 53q20 0 20 -31q0 -200 -175.5 -373t-381.5 -173q-106 0 -177 66q-75 69 -75 175
q0 206 265 379q262 172 569 172q354 0 354 -297q0 -155 -123 -333q-79 -114 -248 -283q-203 -203 -203 -258q0 -80 123 -80q99 0 195 71q93 70 219 234l410 532h168zM750 43q-185 61 -408 61q-284 0 -494 -107q-204 -105 -204 -241q0 -80 93.5 -128t239.5 -48q222 0 401 109
q177 106 372 354z" />
    <glyph glyph-name="Z" unicode="Z" horiz-adv-x="1139" 
d="M1638 1221q0 -234 -174 -417.5t-456 -252.5q22 -55 22 -107q0 -30 -2 -45q131 38 221 113q25 20 33 20q12 0 12 -12q0 -36 -105 -96q-91 -51 -167 -74q-45 -223 -340 -463q-159 -129 -320.5 -207.5t-267.5 -78.5q-81 0 -132 34q-54 37 -54 101q0 175 317 375
q172 108 693 258q34 83 34 139q0 6 -4 31q-69 -9 -90 -9q-160 0 -160 82q0 72 111 72q103 0 174 -90q205 61 377 276q176 221 176 430q0 101 -73 161q-76 63 -212 63q-222 0 -428.5 -190t-206.5 -388q0 -78 51 -126t134 -48q133 0 250 115q122 120 147 295l4 24q6 39 21 39
q20 0 20 -26q0 -184 -137.5 -336t-304.5 -152q-102 0 -165 59.5t-63 155.5q0 221 221 422t453 201q173 0 282 -98t109 -250zM930 582q-36 61 -131 61q-54 0 -54 -33q0 -39 95 -39q42 0 90 11zM891 311q-442 -119 -647 -245q-295 -182 -295 -330q0 -40 33 -68t90 -28
q182 0 428 203q243 201 391 468z" />
    <glyph glyph-name="bracketleft" unicode="[" horiz-adv-x="797" 
d="M1890 1612q0 -15 -65 -21q-108 -6 -430 -41l-1260 -1376q88 -9 389 -33q62 -4 62 -20q0 -19 -58 -19q-103 0 -286 16q-160 14 -213 23l1349 1465q271 24 453 24q59 0 59 -18z" />
    <glyph glyph-name="backslash" unicode="\" horiz-adv-x="944" 
d="M822 70q0 -37 -25 -37q-24 0 -34 81l-167 1307q-9 69 -9 101q0 50 32 50t41 -76l146 -1254q16 -141 16 -172z" />
    <glyph glyph-name="bracketright" unicode="]" horiz-adv-x="797" 
d="M1430 1591l-1350 -1464q-270 -25 -453 -25q-59 0 -59 19q0 14 65 21q109 5 430 40l1260 1377q-88 8 -389 32q-62 5 -62 21q0 18 58 18q104 0 286 -15q160 -14 214 -24z" />
    <glyph glyph-name="asciicircum" unicode="^" horiz-adv-x="1024" 
d="M1075 1118h-70l-171 312l-167 -312h-70l208 371h60z" />
    <glyph glyph-name="underscore" unicode="_" horiz-adv-x="1024" 
d="M1023 -256h-1023v101h1023v-101z" />
    <glyph glyph-name="grave" unicode="`" horiz-adv-x="410" 
d="M379 672q0 -8 -10 -8q-7 0 -27 10l-102 53q-52 27 -52 45q0 25 25 25q11 0 43 -25l113 -86q10 -8 10 -14z" />
    <glyph glyph-name="a" unicode="a" horiz-adv-x="455" 
d="M612 520q0 -12 -24 -33q-75 -69 -150 -139q-119 -102 -178 -102q-50 0 -67 63q-69 -63 -117 -63q-74 0 -74 73q0 89 80 181q91 104 180 104q38 0 82 -49l31 39h125l-219 -289q-13 -16 -13 -18q0 -6 11 -6q55 0 256 200q49 49 63 49t14 -10zM322 524q-23 39 -46 39
q-8 0 -45 -39q-155 -164 -155 -225q0 -14 12 -14q36 0 117 98z" />
    <glyph glyph-name="b" unicode="b" 
d="M1061 1368q0 -72 -167 -245t-566 -513q-222 -297 -222 -307q0 -16 11 -16q31 0 93 47q56 42 93 88q-2 12 -2 31q0 40 42 84q37 38 56 38q35 0 35 -28q0 -31 -65 -111q31 6 106 44q72 38 70 38q12 0 12 -14q0 -32 -81 -69q-75 -35 -140 -42q-138 -147 -234 -147
q-77 0 -77 82q0 67 61 158q66 97 281 343l304 352q236 255 324 255q66 0 66 -68zM1022 1362q0 29 -31 29q-51 0 -135 -89q-70 -74 -217 -272l-199 -266q582 470 582 598z" />
    <glyph glyph-name="c" unicode="c" horiz-adv-x="477" 
d="M128 478l-25 10q110 124 233 115q85 0 85 -96q0 -84 -96.5 -173t-190.5 -89q-70 0 -70 59q0 40 27 69.5t61 29.5q46 0 46 -74q103 53 147 141.5t-35 94t-182 -86.5zM247 284l43 45q176 64 317 197q71 28 -31.5 -66.5t-328.5 -175.5z" />
    <glyph glyph-name="d" unicode="d" horiz-adv-x="530" 
d="M922 1124l-623 -817q-12 -16 -12 -20q0 -8 12 -8q23 0 151 87q119 81 175 130q23 20 30 20q17 0 17 -12q0 -14 -31 -37l-158 -118q-148 -103 -204 -103q-51 0 -66 69q-78 -69 -121 -69q-76 0 -76 78q0 85 88 182.5t175 97.5q45 0 86 -49l432 569h125zM340 524
q-22 39 -47 39q-11 0 -45 -39q-41 -46 -96 -124.5t-58 -96.5t10 -18q36 0 93 67z" />
    <glyph glyph-name="e" unicode="e" horiz-adv-x="379" 
d="M506 492q0 -26 -127 -111q-203 -135 -297 -135q-32 0 -57 23.5t-25 58.5q0 86 104 181t195 95q76 0 76 -55q0 -57 -99 -122q-93 -61 -165 -65q-27 -36 -27 -57q0 -16 16 -16q44 0 152 57q98 52 174 109l68 51q12 0 12 -14zM336 547q0 28 -35 28q-34 0 -88 -71l-80 -107
q58 8 130.5 60.5t72.5 89.5z" />
    <glyph glyph-name="f" unicode="f" horiz-adv-x="303" 
d="M920 1272q0 -95 -183 -288q-176 -187 -467 -406l-194 -273q127 45 242 128q101 73 100 73q12 0 12 -14t-71 -70q-64 -49 -107 -74q-93 -54 -215 -98l-334 -467h-139l510 670q675 886 790 886q56 0 56 -67zM881 1270q0 30 -23 30q-39 0 -198 -189q-162 -194 -310 -421
q206 165 350 313q181 186 181 267z" />
    <glyph glyph-name="g" unicode="g" horiz-adv-x="455" 
d="M606 516q0 -9 -45 -51q-184 -172 -297 -238l-327 -440q-165 -221 -267 -221q-57 0 -57 61q0 97 168 281q163 179 389 338l29 43q-61 -43 -113 -43q-74 0 -74 86q0 91 94.5 181.5t194.5 90.5q44 0 76 -51l29 41h122l-200 -277q94 70 229 187q26 22 37 22q12 0 12 -10z
M352 516q-23 47 -49 47q-23 0 -143 -160q-64 -84 -64 -102q0 -12 13 -12q27 0 84 39q63 42 96 92zM98 139q-178 -132 -310 -280q-136 -153 -136 -228q0 -24 20 -24q28 0 89 60.5t114 139.5z" />
    <glyph glyph-name="h" unicode="h" horiz-adv-x="494" 
d="M1024 1368q0 -72 -167 -245t-566 -513l-58 -78l32 17q89 45 136 45q48 0 48 -33q0 -14 -35 -67l-95 -144q-24 -37 -24 -41q0 -12 6 -12q15 0 126 77q115 81 175 136q22 20 33 20q14 0 14 -12q0 -10 -16 -24q-276 -248 -359 -248q-67 0 -67 63q0 65 96 205
q-120 -47 -178 -127l-96 -131h-125l495 643q414 537 559 537q66 0 66 -68zM985 1362q0 29 -31 29q-86 0 -352 -361l-196 -266q260 211 421 378q158 164 158 220z" />
    <glyph glyph-name="i" unicode="i" horiz-adv-x="303" 
d="M385 766q0 -66 -66 -66q-25 0 -44 19.5t-19 44.5q0 26 19 45.5t47 19.5q63 0 63 -63zM461 518q0 -7 -19 -24q-269 -248 -360 -248q-37 0 -60.5 27t-23.5 69q0 51 61 119l121 133h127l-188 -223q-37 -44 -37 -62q0 -12 14 -12q66 0 318 213q24 20 32 20q15 0 15 -12z" />
    <glyph glyph-name="j" unicode="j" horiz-adv-x="455" 
d="M473 766q0 -66 -63 -66q-26 0 -45 19.5t-19 44.5q0 65 64 65q63 0 63 -63zM612 518q0 -10 -16 -24q-113 -99 -266 -205l-221 -154l-107 -147q-108 -150 -223 -256q-128 -117 -199 -117q-55 0 -55 63q0 85 130 220q121 125 322 262l246 411q-68 -68 -114 -104
q-16 -12 -27 -14q-14 0 -14 10t57 61q42 38 72 70h198l-235 -365q305 190 405 281q23 20 33 20q14 0 14 -12zM-59 82q-377 -279 -377 -401q0 -27 24 -27q45 0 110 77q52 62 179 255z" />
    <glyph glyph-name="k" unicode="k" horiz-adv-x="530" 
d="M1036 1368q0 -149 -733 -758l-55 -73q129 67 184 67q90 0 90 -72q0 -28 -20 -49.5t-43 -21.5q-22 0 -40 18t-18 41q0 29 21 29q16 0 16 -25.5t21 -25.5q24 0 24 32q0 33 -45 33q-47 0 -104 -29q-40 -21 -164 -102l-8 -12q146 57 184 57q43 0 43 -26q0 -18 -35 -64
q-51 -67 -51 -74q0 -12 10 -12q42 0 182 98q115 80 146 111q21 20 33 20q14 0 14 -10q0 -8 -18 -26q-86 -86 -221 -169q-129 -79 -175 -79q-69 0 -69 67q0 32 33 88q-117 -37 -144 -73l-53 -72h-125l496 643q413 537 559 537q65 0 65 -68zM997 1362q0 29 -30 29
q-86 0 -353 -361l-196 -266q579 471 579 598z" />
    <glyph glyph-name="l" unicode="l" horiz-adv-x="379" 
d="M1036 1368q0 -73 -152 -233.5t-515 -470.5l-97 -136q-129 -181 -129 -213q0 -18 13 -18q35 0 123 52q104 62 210 161q23 20 33 20q15 0 15 -12q0 -8 -19 -24q-275 -248 -377 -248q-42 0 -68 27.5t-26 68.5q0 112 361 557q434 537 563 537q65 0 65 -68zM999 1362
q0 29 -30 29q-52 0 -136 -88q-75 -78 -219 -273l-196 -266q257 205 419 371.5t162 226.5z" />
    <glyph glyph-name="n" unicode="n" horiz-adv-x="645" 
d="M801 518q0 -10 -17 -24q-284 -248 -372 -248q-33 0 -55.5 22t-22.5 49q0 50 65 132q36 43 78 106q-46 -13 -116 -62q-76 -53 -128 -112l-108 -125h-135l252 297q-39 -5 -115 -70q-19 -16 -29 -16q-12 0 -12 12q0 18 65 70q70 55 111 55q68 0 68 -86q120 86 200 86
q62 0 62 -45q0 -19 -17 -41l-139 -182q-14 -19 -14 -27q0 -10 14 -10q63 0 318 211q24 20 32 20q15 0 15 -12z" />
    <glyph glyph-name="o" unicode="o" 
d="M551 498q0 -25 -133 -111q-220 -141 -314 -141t-94 86q0 94 100 183t209 89q82 0 82 -84q0 -38 -30 -89q-28 -45 -62 -73q102 49 191 129q27 25 39 25t12 -14zM336 547q0 22 -17 22q-43 0 -131 -123q-94 -132 -94 -149q0 -12 15 -12q20 0 62 33q49 39 91 98
q74 104 74 131z" />
    <glyph glyph-name="p" unicode="p" horiz-adv-x="530" 
d="M690 518q0 -8 -18 -24q-279 -248 -357 -248q-32 0 -55.5 20.5t-23.5 50.5q0 48 63 129q21 27 82 111q-53 -11 -154 -92q-79 -63 -137 -125l-401 -557h-140l893 1151h66l-309 -436q145 106 225 106q65 0 65 -45q0 -20 -18 -45l-133 -178q-12 -17 -12 -27t12 -10
q47 0 305 211q25 20 33 20q14 0 14 -12z" />
    <glyph glyph-name="q" unicode="q" 
d="M573 520q0 -12 -22 -33q-65 -66 -131 -133q-74 -72 -139 -90q10 -36 10 -67q0 -122 -95 -249.5t-192 -127.5q-76 0 -76 74q0 51 101 194l121 172q-32 -14 -54 -14q-71 0 -71 88q0 97 75 168q111 102 195 102q48 0 76 -51l35 41h102l-191 -262q70 37 181 149q48 49 61 49
q14 0 14 -10zM344 524q-17 37 -35 37q-31 0 -129 -139q-69 -99 -69 -127q0 -8 10 -8q21 0 69 43q43 39 72 80zM252 180q0 25 -8 47l-140 -194q-100 -140 -100 -160q0 -12 12 -12q70 0 153 114.5t83 204.5z" />
    <glyph glyph-name="r" unicode="r" 
d="M573 518q0 -10 -16 -24q-274 -248 -373 -248q-78 0 -78 71q0 49 138 240l-35 10q-88 -100 -111 -100q-12 0 -12 12q0 11 29 37q46 42 86 92q43 56 55 56q16 0 16 -15q0 -9 -8 -18l-28 -33q40 -8 86 -8q43 0 43 -25q0 -15 -19 -41l-137 -188q-14 -20 -14 -27q0 -10 14 -10
q65 0 317 211q25 20 33 20q14 0 14 -12z" />
    <glyph glyph-name="s" unicode="s" 
d="M551 498q0 -14 -131 -111q-191 -141 -330 -141q-117 0 -117 80q0 46 64 112l170 176q0 37 24 37l17 -4q60 45 102 45q19 0 19 -16q0 -19 -37 -35q-27 -12 -47 -27q43 -59 43 -122q0 -76 -39 -144q158 87 211 139q24 25 39 25q12 0 12 -14zM268 532q0 22 -14 48l-166 -174
q-49 -52 -49 -82q0 -39 80 -39q64 46 106.5 114.5t42.5 132.5z" />
    <glyph glyph-name="t" unicode="t" horiz-adv-x="303" 
d="M688 1090l-129 -166h98l-30 -39h-99l-438 -559q-14 -19 -14 -27t10 -8q67 0 317 209q23 18 27 18q14 0 14 -12q0 -11 -100 -94q-199 -166 -270 -166q-38 0 -62 25.5t-24 60.5q0 45 88 153l323 400h-98l31 39h98l135 166h123z" />
    <glyph glyph-name="v" unicode="v" 
d="M573 518q0 -10 -16 -24q-132 -117 -201 -117q-26 0 -51 24q-148 -155 -213 -155q-86 0 -86 78q0 54 70 147l92 123h127l-184 -266q-17 -24 -17 -29q0 -8 8 -8q22 0 82.5 49.5t102.5 101.5q-4 17 -4 35q0 44 29.5 85.5t64.5 41.5q39 0 39 -33q0 -45 -76 -129
q26 -16 43 -16q53 0 143 84q22 20 33 20q14 0 14 -12zM367 549q0 10 -9 10q-12 0 -25.5 -29.5t-13.5 -54.5q48 38 48 74z" />
    <glyph glyph-name="w" unicode="w" horiz-adv-x="645" 
d="M801 518q0 -9 -17 -24q-105 -97 -206 -97q-15 0 -31 4q-146 -155 -252 -155q-51 0 -68 71q-80 -71 -135 -71q-36 0 -60 23t-24 55q0 45 51 112l121 158h142l-197 -266q-14 -20 -14 -27q0 -10 12 -10q64 0 305 303h129l-205 -262q-14 -19 -14 -23q3 -8 12 -8q25 0 93 54
q61 49 79 73q-4 12 -4 23q0 45 45 102q42 53 68 53t26 -26q0 -42 -86 -150q94 0 188 83q21 17 27 17q15 0 15 -12z" />
    <glyph glyph-name="x" unicode="x" horiz-adv-x="530" 
d="M688 518q0 -8 -18 -24q-120 -109 -243 -182q-113 -66 -163 -66q-69 0 -69 104q-69 -104 -127 -104t-58 59q0 25 18.5 44.5t41.5 19.5q26 0 26 -23q0 -20 -16 -20q-3 0 -8.5 1t-10.5 1q-20 0 -20 -23q0 -22 25 -22q50 0 133 145q12 86 12 96q0 11 -6 11q-9 0 -78 -52
q-22 -16 -29 -16q-12 0 -12 12q0 10 84 80q54 45 98 45q49 0 49 -74q77 74 111 74q64 0 64 -65q0 -25 -20 -45.5t-44 -20.5q-45 0 -45 33q0 18 18 18q7 0 14 -7t13 -7q29 0 29 31q0 28 -27 28q-23 0 -125 -112q-6 -68 -6 -131q0 -17 12 -17q30 0 124 54q109 63 206 147
q24 20 33 20q14 0 14 -12z" />
    <glyph glyph-name="y" unicode="y" horiz-adv-x="494" 
d="M649 518q0 -10 -16 -24q-167 -149 -414 -283l-323 -426q-100 -131 -161 -178q-52 -39 -108 -39q-55 0 -55 59q0 97 179 292q173 188 384 331l19 26q-44 -30 -82 -30q-82 0 -82 82q0 47 47 108l121 158h141l-195 -264q-16 -23 -16 -29q0 -12 12 -12q30 0 131 103
q97 98 175 202h131l-220 -270q142 67 285 186q25 20 33 20q14 0 14 -12zM57 139q-177 -130 -315 -288q-133 -154 -133 -220q0 -24 22 -24q28 0 89.5 61t113.5 139z" />
    <glyph glyph-name="z" unicode="z" 
d="M573 518q0 -10 -16 -24q-179 -161 -422 -326q-32 -96 -85 -172q-44 -62 -163 -189q-102 -109 -195 -174q-81 -57 -118 -57q-59 0 -59 68q0 84 181 271q157 162 380 333q-76 0 -76 39q0 37 41 37q24 0 80 -21q137 144 137 232q0 20 -20 20q-35 0 -97 -59q-17 -17 -28 -17
q-13 0 -13 13q0 18 58 63q65 49 112 49q80 0 80 -102q0 -87 -127 -230l303 238q23 20 33 20q14 0 14 -12zM49 174q-183 -137 -333 -293q-162 -169 -162 -237q0 -29 24 -29q71 0 275 274q63 81 196 285z" />
    <glyph glyph-name="braceleft" unicode="{" horiz-adv-x="717" 
d="M1599 1624l-19 -22q-97 0 -160 -37q-50 -29 -132 -119l-362 -397q-84 -92 -161 -128q-100 -47 -268 -47v-4q106 -23 106 -115q0 -58 -115 -187l-249 -280q-76 -85 -76 -117q0 -33 58 -38l90 -8l-19 -21l-117 10q-93 8 -93 64q0 43 135 193l221 247q85 95 85 148
q0 84 -87 113q173 14 259 63q66 37 188 171l303 331q97 106 173 141q85 39 240 39z" />
    <glyph glyph-name="bar" unicode="|" horiz-adv-x="512" 
d="M289 -512h-66v2048h66v-2048z" />
    <glyph glyph-name="braceright" unicode="}" horiz-adv-x="717" 
d="M1266 1549q0 -46 -135 -193l-263 -285q-84 -92 -84 -147q0 -84 87 -114q-175 -13 -260 -61q-69 -39 -188 -172l-261 -293q-95 -107 -173 -142q-84 -38 -241 -38l20 21q97 0 161 37q50 30 130 119l322 360q82 92 160 128q100 47 268 47l1 3q-106 24 -106 116q0 61 115 187
l290 317q76 83 76 117q0 33 -58 38l-91 8l20 22l117 -11q93 -8 93 -64z" />
    <glyph glyph-name="asciitilde" unicode="~" horiz-adv-x="1024" 
d="M909 602l-8 -62q-76 -72 -171 -72q-48 0 -113 40.5t-97 40.5q-78 0 -171 -79l7 63q76 75 172 75q41 0 106.5 -42t106.5 -42q48 0 91 25q39 27 77 53z" />
    <glyph glyph-name="Adieresis" unicode="&#xc4;" horiz-adv-x="1518" 
d="M2249 1626q0 -41 -43 -41q-27 0 -27 27q0 43 43 43q27 0 27 -29zM2099 1628q0 -16 -14.5 -29.5t-30.5 -13.5q-29 0 -29 29q0 43 43 43q31 0 31 -29zM2169 1485q0 -41 -86 -105q-540 -536 -705 -1044q102 49 217 147q60 52 68 52q12 0 12 -17q0 -21 -109 -106
q-116 -90 -204 -127q-33 -115 -33 -219q0 -176 102 -305q108 -138 273 -138q141 0 252.5 120.5t111.5 270.5q0 78 -45 124t-114 46q-123 0 -216.5 -111t-93.5 -257q0 -27 -14 -27q-11 0 -14.5 13.5t-3.5 50.5q0 144 104.5 256t235.5 112q86 0 143 -61t57 -150
q0 -173 -130 -303q-125 -125 -279 -125q-188 0 -319 164q-128 159 -128 375q0 51 17 133q-59 -12 -125 -12q-135 0 -262 63q-148 -63 -322 -63q-227 0 -380 92q-148 89 -148 213q0 122 126 212.5t302 90.5q144 0 274 -62q102 156 268 156q161 0 275 -135q31 31 160 180
q203 236 372 359q79 57 184 105t156 48q21 0 21 -16zM2114 1460q-102 -17 -235 -114q-119 -88 -215.5 -201t-172.5 -229q-113 -175 -152 -228q21 -67 25 -143q213 432 750 915zM1247 778q-35 56 -102 90.5t-139 34.5q-150 0 -238 -133q42 -24 85.5 -68.5t43.5 -66.5
q0 -17 -14 -17t-29 23q-39 59 -102 96q-25 -43 -25 -106q0 -118 76 -207q230 119 444 354zM1323 496q0 51 -20 143q-169 -200 -371 -309q103 -47 207 -47q65 0 137 16q10 37 43 139q4 29 4 58zM764 403q-78 107 -78 222q0 66 31 131q-126 57 -271 57q-146 0 -261 -80
t-115 -180q0 -97 102 -169.5t242 -72.5q172 0 350 92z" />
    <glyph glyph-name="Aring" unicode="&#xc5;" horiz-adv-x="1518" 
d="M2191 1647q0 -24 -20.5 -43t-44.5 -19q-43 0 -43 41q0 23 21 42.5t44 19.5q43 0 43 -41zM2169 1485q0 -41 -86 -105q-540 -536 -705 -1044q102 49 217 147q60 52 68 52q12 0 12 -17q0 -21 -109 -106q-116 -90 -204 -127q-33 -115 -33 -219q0 -176 102 -305
q108 -138 273 -138q141 0 252.5 120.5t111.5 270.5q0 78 -45 124t-114 46q-123 0 -216.5 -111t-93.5 -257q0 -27 -14 -27q-11 0 -14.5 13.5t-3.5 50.5q0 144 104.5 256t235.5 112q86 0 143 -61t57 -150q0 -173 -130 -303q-125 -125 -279 -125q-188 0 -319 164
q-128 159 -128 375q0 51 17 133q-59 -12 -125 -12q-135 0 -262 63q-148 -63 -322 -63q-227 0 -380 92q-148 89 -148 213q0 122 126 212.5t302 90.5q144 0 274 -62q102 156 268 156q161 0 275 -135q31 31 160 180q203 236 372 359q79 57 184 105t156 48q21 0 21 -16z
M2169 1642q0 25 -25 25q-39 0 -39 -37q0 -26 25 -26q39 0 39 38zM2114 1460q-102 -17 -235 -114q-119 -88 -215.5 -201t-172.5 -229q-113 -175 -152 -228q21 -67 25 -143q213 432 750 915zM1247 778q-35 56 -102 90.5t-139 34.5q-150 0 -238 -133q42 -24 85.5 -68.5
t43.5 -66.5q0 -17 -14 -17t-29 23q-39 59 -102 96q-25 -43 -25 -106q0 -118 76 -207q230 119 444 354zM1323 496q0 51 -20 143q-169 -200 -371 -309q103 -47 207 -47q65 0 137 16q10 37 43 139q4 29 4 58zM764 403q-78 107 -78 222q0 66 31 131q-126 57 -271 57
q-146 0 -261 -80t-115 -180q0 -97 102 -169.5t242 -72.5q172 0 350 92z" />
    <glyph glyph-name="Ccedilla" unicode="&#xc7;" horiz-adv-x="1139" 
d="M1780 1411q0 -150 -318 -332q-193 -110 -413 -183q-245 -81 -445 -87q-93 -144 -96 -246q-10 -284 225 -284q167 0 328 143q164 147 164 307q0 41 -27 73t-68 32q-184 0 -370 -308q-39 -63 -45 -63q-19 0 -19 18q0 20 54 115q58 105 164 186q116 88 219 88
q54 0 92.5 -41.5t38.5 -101.5q0 -182 -179 -336q-171 -149 -356 -149q-39 0 -55 6l-41 -51q65 -10 65 -43q0 -92 -229 -103l-2 29q176 14 176 59q0 21 -39 23l-39 2l74 90q-116 21 -187 117q-69 93 -69 215q0 113 66 229q-181 21 -308 117q-133 100 -133 231q0 154 183 259
q175 100 417 100q306 0 559 -123q277 123 437 123q176 0 176 -111zM1741 1415q0 66 -92 66q-149 0 -396 -131q97 -67 119 -100q4 -6 4 -9q0 -12 -12 -12q-8 0 -18 8q-83 65 -129 92q-380 -210 -584 -477q378 18 797 252q311 174 311 311zM1120 1376q-250 103 -510 103
q-231 0 -397 -90.5t-166 -223.5q0 -121 125 -211q121 -88 299 -102q203 306 649 524z" />
    <glyph glyph-name="Eacute" unicode="&#xc9;" horiz-adv-x="1100" 
d="M1649 1704q0 -19 -33 -39l-113 -68q-11 -8 -28 -8q-15 0 -15 10q0 9 19 23l100 76q30 22 49 22q21 0 21 -16zM1597 1341q0 -188 -319 -361q-326 -176 -717 -185q-127 -163 -127 -301q0 -126 111 -177q36 97 127 230q98 143 240.5 236.5t261.5 93.5q112 0 112 -105
q0 -189 -198 -362q-193 -168 -386 -168q-57 0 -135 18q-49 -137 -59 -254q-6 -65 -23 -65q-16 0 -16 22q0 123 59 309q-97 35 -154 115q-61 83 -61 197q0 105 68 221q-162 26 -264 111q-109 92 -109 221q0 138 148 239q158 107 399 107q287 0 575 -154q151 154 312 154
q66 0 110.5 -40t44.5 -102zM1556 1341q0 97 -110 97q-146 0 -279 -129q18 -12 64.5 -44t50.5 -34q29 -19 29 -33t-13 -14q-12 0 -24 12q-109 76 -133 84q-56 -76 -56 -125q0 -5 1 -16.5t1 -16.5q105 -13 105 -59q0 -37 -43 -37q-51 0 -84 55q-131 -19 -264 -91
q-124 -67 -205 -154q369 15 664.5 171.5t295.5 333.5zM1155 1065q0 15 -47 18q19 -26 37 -26q10 0 10 8zM1106 1298q-284 146 -569 146q-206 0 -350 -94q-140 -90 -140 -211q0 -119 110 -204q101 -77 249 -95q82 112 247 192q186 89 396 92q0 96 57 174zM1243 768
q0 70 -82 70q-75 0 -179 -58q-107 -59 -187 -147q-143 -156 -211 -330q55 -18 118 -18q181 0 347 147q87 78 141 174q53 93 53 162z" />
    <glyph glyph-name="Ntilde" unicode="&#xd1;" horiz-adv-x="1139" 
d="M1925 1612q-16 -62 -67 -62q-18 0 -35 11l-44 20q-5 2 -7 2q-15 0 -25 -16l-10 -17l-19 15q29 57 60 57l24 -8l37 -17q14 -6 23 -6q18 0 36 19l13 12zM2669 1346q0 -19 -15 -19q-9 0 -57 32q-58 39 -110 59q-83 32 -179 32q-642 0 -1390 -1155q-12 -19 -23 -19
q-12 0 -12 15q0 55 68 258q57 171 110 297q93 224 233 420q-106 -115 -196 -271q-243 -415 -444 -578q-216 -175 -519 -175q-191 0 -339 92q-156 98 -156 237q0 123 135 215.5t321 92.5q124 0 248 -50q65 -25 120.5 -64t55.5 -58t-14 -19q-11 0 -35 21q-152 131 -381 131
q-167 0 -287 -80t-120 -187q0 -101 100 -165q105 -68 278 -68q283 0 504 161q200 147 482 531q133 182 219 271q27 27 107 89q93 72 116 72q14 0 14 -12q0 -11 -33 -45q-168 -174 -282.5 -394t-224.5 -583q713 1065 1339 1065q103 0 205 -41q69 -28 118 -63q44 -31 44 -45z
" />
    <glyph glyph-name="Odieresis" unicode="&#xd6;" horiz-adv-x="872" 
d="M1397 1626q0 -41 -43 -41q-27 0 -27 27q0 43 43 43q27 0 27 -29zM1247 1628q0 -16 -14.5 -29.5t-30.5 -13.5q-28 0 -28 29q0 43 43 43q30 0 30 -29zM1444 1317q0 -179 -248 -350q0 -4 2 -19.5t2 -19.5q0 -202 -258 -443q-262 -243 -489 -243q-4 0 -41 4v-27
q0 -151 37 -285q2 -7 2 -16q0 -18 -19 -18q-21 0 -35 69q-30 152 -30 262v27q-179 72 -179 281q0 316 342 618q172 152 371 242t361 90q78 0 130 -52.5t52 -119.5zM1399 1319q0 52 -35.5 90.5t-89.5 38.5q-174 0 -415 -178q-224 -166 -389 -395q-173 -239 -173 -404
q0 -93 74 -149q28 294 222 538q200 252 427 252q50 0 97 -28.5t65 -73.5q97 56 157 139.5t60 169.5zM1153 948q-141 -57 -223 -57q-29 0 -29 20q0 16 62 25q83 13 180 55q-33 80 -129 80q-205 0 -401 -258q-193 -254 -199 -516q30 -10 51 -10q214 0 453 234q235 231 235 427
z" />
    <glyph glyph-name="Udieresis" unicode="&#xdc;" horiz-adv-x="1442" 
d="M1692 1524q0 -41 -43 -41q-27 0 -27 26q0 43 43 43q27 0 27 -28zM1542 1526q0 -17 -14.5 -30t-30.5 -13q-29 0 -29 28q0 43 43 43q31 0 31 -28zM1829 1237q0 -23 -43 -72q-150 -171 -369 -459q-250 -330 -250 -378q0 -31 39 -31q138 0 334 205q10 12 23 12q14 0 14 -12
q0 -23 -127 -128q-146 -120 -250 -120q-127 0 -127 115q0 37 10 75q-234 -202 -360 -202q-63 0 -106 39q-46 41 -46 106q0 109 152 260q242 241 332 367q110 153 110 280q0 95 -83.5 151t-219.5 56q-294 0 -545 -162t-251 -354q0 -88 61 -143.5t152 -55.5q171 0 337 151
q171 155 177 335q1 53 20 53q23 0 23 -31q0 -193 -176 -368q-178 -178 -384 -178q-105 0 -177 67t-72 174q0 206 263.5 378.5t569.5 172.5q354 0 354 -297q0 -240 -364 -610q-141 -143 -148 -151q-61 -69 -61 -113q0 -76 86 -76q110 0 283 149q139 121 272 293l221 287
q153 197 162 207q34 37 88 37q76 0 76 -29z" />
    <glyph glyph-name="aacute" unicode="&#xe1;" horiz-adv-x="455" 
d="M510 778q0 -19 -33 -39l-112 -67q-11 -8 -29 -8q-14 0 -14 10q0 8 18 22l100 76q30 23 49 23q21 0 21 -17zM612 520q0 -12 -24 -33q-74 -68 -147 -137q-116 -100 -179 -100q-53 0 -65 69q-74 -63 -117 -63q-74 0 -74 74q0 83 76.5 170.5t167.5 87.5q38 0 82 -49l28 34
h125l-202 -264q-13 -16 -13 -18q0 -6 9 -6q59 0 256 196q49 49 63 49t14 -10zM307 508q-22 39 -45 39q-8 0 -45 -39q-45 -48 -89 -111q-48 -68 -48 -90q0 -12 10 -12q43 0 115 88z" />
    <glyph glyph-name="agrave" unicode="&#xe0;" horiz-adv-x="455" 
d="M412 672q0 -8 -11 -8q-7 0 -26 10l-103 53q-51 27 -51 45q0 25 25 25q11 0 43 -25l112 -86q11 -10 11 -14zM612 520q0 -12 -24 -33q-74 -68 -147 -137q-116 -100 -179 -100q-53 0 -65 69q-74 -63 -117 -63q-74 0 -74 74q0 83 76.5 170.5t167.5 87.5q38 0 82 -49l28 34
h125l-202 -264q-13 -16 -13 -18q0 -6 9 -6q59 0 256 196q49 49 63 49t14 -10zM307 508q-22 39 -45 39q-8 0 -45 -39q-45 -48 -89 -111q-48 -68 -48 -90q0 -12 10 -12q43 0 115 88z" />
    <glyph glyph-name="acircumflex" unicode="&#xe2;" horiz-adv-x="455" 
d="M453 684q0 -20 -11 -20q-9 0 -16 20l-31 92l-162 -104q-9 -6 -16 -6q-10 0 -10 8q0 6 8 14l129 100q37 29 62 29q23 0 30 -39zM612 520q0 -12 -24 -33q-74 -68 -147 -137q-116 -100 -179 -100q-53 0 -65 69q-74 -63 -117 -63q-74 0 -74 74q0 83 76.5 170.5t167.5 87.5
q38 0 82 -49l28 34h125l-202 -264q-13 -16 -13 -18q0 -6 9 -6q59 0 256 196q49 49 63 49t14 -10zM307 508q-22 39 -45 39q-8 0 -45 -39q-45 -48 -89 -111q-48 -68 -48 -90q0 -12 10 -12q43 0 115 88z" />
    <glyph glyph-name="adieresis" unicode="&#xe4;" horiz-adv-x="455" 
d="M504 741q0 -41 -43 -41q-27 0 -27 27q0 43 43 43q27 0 27 -29zM354 743q0 -16 -14.5 -29.5t-30.5 -13.5q-28 0 -28 29q0 43 43 43q30 0 30 -29zM612 520q0 -12 -24 -33q-74 -68 -147 -137q-116 -100 -179 -100q-53 0 -65 69q-74 -63 -117 -63q-74 0 -74 74
q0 83 76.5 170.5t167.5 87.5q38 0 82 -49l28 34h125l-202 -264q-13 -16 -13 -18q0 -6 9 -6q59 0 256 196q49 49 63 49t14 -10zM307 508q-22 39 -45 39q-8 0 -45 -39q-45 -48 -89 -111q-48 -68 -48 -90q0 -12 10 -12q43 0 115 88z" />
    <glyph glyph-name="atilde" unicode="&#xe3;" horiz-adv-x="455" 
d="M455 760q-17 -62 -68 -62q-13 0 -65 25l-14 6q-4 2 -7 2q-14 0 -25 -16l-10 -17l-18 15q28 57 59 57q6 0 62 -25q13 -6 22 -6q19 0 37 19l12 12zM612 520q0 -12 -24 -33q-74 -68 -147 -137q-116 -100 -179 -100q-53 0 -65 69q-74 -63 -117 -63q-74 0 -74 74
q0 83 76.5 170.5t167.5 87.5q38 0 82 -49l28 34h125l-202 -264q-13 -16 -13 -18q0 -6 9 -6q59 0 256 196q49 49 63 49t14 -10zM307 508q-22 39 -45 39q-8 0 -45 -39q-45 -48 -89 -111q-48 -68 -48 -90q0 -12 10 -12q43 0 115 88z" />
    <glyph glyph-name="aring" unicode="&#xe5;" horiz-adv-x="455" 
d="M395 745q0 -23 -21 -42t-44 -19q-43 0 -43 41q0 23 21 42t44 19q43 0 43 -41zM612 520q0 -12 -24 -33q-74 -68 -147 -137q-116 -100 -179 -100q-53 0 -65 69q-74 -63 -117 -63q-74 0 -74 74q0 83 76.5 170.5t167.5 87.5q38 0 82 -49l28 34h125l-202 -264q-13 -16 -13 -18
q0 -6 9 -6q59 0 256 196q49 49 63 49t14 -10zM373 741q0 25 -25 25q-39 0 -39 -37q0 -27 25 -27q39 0 39 39zM307 508q-22 39 -45 39q-8 0 -45 -39q-45 -48 -89 -111q-48 -68 -48 -90q0 -12 10 -12q43 0 115 88z" />
    <glyph glyph-name="ccedilla" unicode="&#xe7;" 
d="M528 483q0 -28 -110 -104q-199 -137 -346 -137l-37 -47q55 -10 55 -35q0 -69 -190 -86l-2 22q145 15 145 51q0 19 -31 19h-32l65 82q-45 29 -45 78q0 127 160 227q65 41 129 41q63 0 63 -66q0 -31 -26.5 -61.5t-55.5 -30.5q-48 0 -51 72q-143 -161 -143 -213
q0 -19 24 -19q63 0 193.5 68t195.5 133q17 17 27 17q12 0 12 -11z" />
    <glyph glyph-name="eacute" unicode="&#xe9;" horiz-adv-x="379" 
d="M428 778q0 -19 -33 -39l-112 -67q-11 -8 -29 -8q-14 0 -14 10q0 8 18 22l100 76q30 23 50 23t20 -17zM506 492q0 -26 -127 -111q-197 -131 -295 -131q-32 0 -57 23.5t-25 58.5q0 84 92.5 167t184.5 83q75 0 75 -56q0 -50 -92 -107q-86 -53 -151 -57q-25 -33 -25 -51
t16 -18q44 0 151 55q98 51 173 107l68 51q12 0 12 -14zM315 524q0 29 -34 29q-31 0 -68 -49l-80 -107q55 8 118.5 52t63.5 75z" />
    <glyph glyph-name="egrave" unicode="&#xe8;" horiz-adv-x="379" 
d="M387 672q0 -8 -10 -8q-7 0 -27 10l-102 53q-51 27 -51 45q0 25 24 25q11 0 43 -25l113 -86q10 -10 10 -14zM506 492q0 -26 -127 -111q-197 -131 -295 -131q-32 0 -57 23.5t-25 58.5q0 84 92.5 167t184.5 83q75 0 75 -56q0 -50 -92 -107q-86 -53 -151 -57q-25 -33 -25 -51
t16 -18q44 0 151 55q98 51 173 107l68 51q12 0 12 -14zM315 524q0 29 -34 29q-31 0 -68 -49l-80 -107q55 8 118.5 52t63.5 75z" />
    <glyph glyph-name="ecircumflex" unicode="&#xea;" horiz-adv-x="379" 
d="M401 684q0 -20 -10 -20q-9 0 -16 20l-31 92l-162 -104q-9 -6 -16 -6q-10 0 -10 8q0 6 8 14l129 100q37 29 61 29t31 -39zM506 492q0 -26 -127 -111q-197 -131 -295 -131q-32 0 -57 23.5t-25 58.5q0 84 92.5 167t184.5 83q75 0 75 -56q0 -50 -92 -107q-86 -53 -151 -57
q-25 -33 -25 -51t16 -18q44 0 151 55q98 51 173 107l68 51q12 0 12 -14zM315 524q0 29 -34 29q-31 0 -68 -49l-80 -107q55 8 118.5 52t63.5 75z" />
    <glyph glyph-name="edieresis" unicode="&#xeb;" horiz-adv-x="379" 
d="M414 741q0 -41 -43 -41q-27 0 -27 27q0 43 43 43q27 0 27 -29zM264 743q0 -16 -14.5 -29.5t-30.5 -13.5q-29 0 -29 29q0 43 43 43q31 0 31 -29zM506 492q0 -26 -127 -111q-197 -131 -295 -131q-32 0 -57 23.5t-25 58.5q0 84 92.5 167t184.5 83q75 0 75 -56
q0 -50 -92 -107q-86 -53 -151 -57q-25 -33 -25 -51t16 -18q44 0 151 55q98 51 173 107l68 51q12 0 12 -14zM315 524q0 29 -34 29q-31 0 -68 -49l-80 -107q55 8 118.5 52t63.5 75z" />
    <glyph glyph-name="iacute" unicode="&#xed;" horiz-adv-x="303" 
d="M428 778q0 -19 -33 -39l-112 -67q-11 -8 -29 -8q-14 0 -14 10q0 8 18 22l100 76q30 23 50 23t20 -17zM461 518q0 -7 -19 -24q-264 -244 -358 -244q-37 0 -61.5 26.5t-24.5 65.5q0 51 61 119l121 133h127l-188 -223q-35 -42 -35 -58q0 -12 14 -12q68 0 316 209
q24 20 32 20q15 0 15 -12z" />
    <glyph glyph-name="igrave" unicode="&#xec;" horiz-adv-x="303" 
d="M379 672q0 -8 -10 -8q-7 0 -27 10l-102 53q-52 27 -52 45q0 25 25 25q11 0 43 -25l113 -86q10 -10 10 -14zM461 518q0 -7 -19 -24q-264 -244 -358 -244q-37 0 -61.5 26.5t-24.5 65.5q0 51 61 119l121 133h127l-188 -223q-35 -42 -35 -58q0 -12 14 -12q68 0 316 209
q24 20 32 20q15 0 15 -12z" />
    <glyph glyph-name="icircumflex" unicode="&#xee;" horiz-adv-x="303" 
d="M385 684q0 -20 -10 -20t-17 20l-30 92l-162 -104q-10 -6 -16 -6q-11 0 -11 8q0 6 8 14l129 100q37 29 62 29q24 0 31 -39zM461 518q0 -7 -19 -24q-264 -244 -358 -244q-37 0 -61.5 26.5t-24.5 65.5q0 51 61 119l121 133h127l-188 -223q-35 -42 -35 -58q0 -12 14 -12
q68 0 316 209q24 20 32 20q15 0 15 -12z" />
    <glyph glyph-name="idieresis" unicode="&#xef;" horiz-adv-x="303" 
d="M369 741q0 -41 -43 -41q-27 0 -27 27q0 43 43 43q27 0 27 -29zM219 743q0 -16 -14.5 -29.5t-30.5 -13.5q-29 0 -29 29q0 43 43 43q31 0 31 -29zM461 518q0 -7 -19 -24q-264 -244 -358 -244q-37 0 -61.5 26.5t-24.5 65.5q0 51 61 119l121 133h127l-188 -223
q-35 -42 -35 -58q0 -12 14 -12q68 0 316 209q24 20 32 20q15 0 15 -12z" />
    <glyph glyph-name="ntilde" unicode="&#xf1;" horiz-adv-x="645" 
d="M561 760q-16 -62 -67 -62q-13 0 -66 25l-13 6q-5 2 -7 2q-15 0 -25 -16l-10 -17l-19 15q29 57 60 57q6 0 61 -25q14 -6 23 -6q18 0 37 19l12 12zM801 518q0 -10 -17 -24q-279 -244 -368 -244q-32 0 -55 22.5t-23 49.5q0 50 61 127q35 43 82 112q-45 -13 -118 -65
q-78 -56 -130 -115l-108 -125h-135l250 295q-36 -2 -113 -68q-19 -16 -29 -16q-12 0 -12 12q0 18 64 69q69 54 110 54q70 0 70 -84q129 92 205 92q61 0 61 -45q0 -18 -12 -35l-144 -190q-14 -19 -14 -27q0 -10 16 -10q62 0 312 207q24 20 32 20q15 0 15 -12z" />
    <glyph glyph-name="oacute" unicode="&#xf3;" 
d="M469 778q0 -19 -33 -39l-112 -67q-11 -8 -29 -8q-14 0 -14 10q0 8 18 22l100 76q30 23 50 23t20 -17zM551 498q0 -25 -133 -111q-214 -137 -312 -137q-96 0 -96 88q0 92 108 186t206 94q79 0 79 -81q0 -101 -94 -179q102 49 191 129q27 25 39 25t12 -14zM342 567
q0 17 -14 17q-41 0 -140 -138q-92 -128 -92 -145q0 -12 15 -12q21 0 60 29q49 36 89 96q82 121 82 153z" />
    <glyph glyph-name="ograve" unicode="&#xf2;" 
d="M428 672q0 -8 -10 -8q-7 0 -27 10l-102 53q-51 27 -51 45q0 25 24 25q11 0 43 -25l113 -86q10 -10 10 -14zM551 498q0 -25 -133 -111q-214 -137 -312 -137q-96 0 -96 88q0 92 108 186t206 94q79 0 79 -81q0 -101 -94 -179q102 49 191 129q27 25 39 25t12 -14zM342 567
q0 17 -14 17q-41 0 -140 -138q-92 -128 -92 -145q0 -12 15 -12q21 0 60 29q49 36 89 96q82 121 82 153z" />
    <glyph glyph-name="ocircumflex" unicode="&#xf4;" 
d="M428 684q0 -20 -10 -20t-17 20l-30 92l-162 -104q-10 -6 -16 -6q-11 0 -11 8q0 6 8 14l129 100q37 29 62 29q24 0 31 -39zM551 498q0 -25 -133 -111q-214 -137 -312 -137q-96 0 -96 88q0 92 108 186t206 94q79 0 79 -81q0 -101 -94 -179q102 49 191 129q27 25 39 25
t12 -14zM342 567q0 17 -14 17q-41 0 -140 -138q-92 -128 -92 -145q0 -12 15 -12q21 0 60 29q49 36 89 96q82 121 82 153z" />
    <glyph glyph-name="odieresis" unicode="&#xf6;" 
d="M463 741q0 -41 -43 -41q-27 0 -27 27q0 43 43 43q27 0 27 -29zM313 743q0 -16 -14.5 -29.5t-30.5 -13.5q-28 0 -28 29q0 43 43 43q30 0 30 -29zM551 498q0 -25 -133 -111q-214 -137 -312 -137q-96 0 -96 88q0 92 108 186t206 94q79 0 79 -81q0 -101 -94 -179
q102 49 191 129q27 25 39 25t12 -14zM342 567q0 17 -14 17q-41 0 -140 -138q-92 -128 -92 -145q0 -12 15 -12q21 0 60 29q49 36 89 96q82 121 82 153z" />
    <glyph glyph-name="otilde" unicode="&#xf5;" 
d="M446 684q0 -20 -10 -20q-9 0 -16 20l-31 92l-162 -104q-9 -6 -16 -6q-10 0 -10 8q0 6 8 14l129 100q37 29 61 29t31 -39zM551 498q0 -25 -133 -111q-214 -137 -312 -137q-96 0 -96 88q0 92 108 186t206 94q79 0 79 -81q0 -101 -94 -179q102 49 191 129q27 25 39 25
t12 -14zM342 567q0 17 -14 17q-41 0 -140 -138q-92 -128 -92 -145q0 -12 15 -12q21 0 60 29q49 36 89 96q82 121 82 153z" />
    <glyph glyph-name="uacute" unicode="&#xfa;" horiz-adv-x="530" 
d="M535 778q0 -19 -33 -39l-113 -67q-11 -8 -29 -8q-14 0 -14 10q0 8 19 22l100 76q30 23 49 23q21 0 21 -17zM688 518q0 -8 -18 -24q-266 -244 -371 -244q-54 0 -68 72q-77 -72 -135 -72q-84 0 -84 78q0 47 47 108l121 158h142l-195 -264q-12 -17 -12 -25q0 -12 12 -12
q62 0 301 301h129l-201 -258q-16 -21 -16 -27q1 -4 6 -4q12 0 94 54q102 66 201 151q24 20 33 20q14 0 14 -12z" />
    <glyph glyph-name="ugrave" unicode="&#xf9;" horiz-adv-x="530" 
d="M526 688q0 -8 -10 -8q-7 0 -27 10l-102 53q-51 27 -51 45q0 25 24 25q11 0 43 -25l113 -86q10 -10 10 -14zM688 518q0 -8 -18 -24q-266 -244 -371 -244q-54 0 -68 72q-77 -72 -135 -72q-84 0 -84 78q0 47 47 108l121 158h142l-195 -264q-12 -17 -12 -25q0 -12 12 -12
q62 0 301 301h129l-201 -258q-16 -21 -16 -27q1 -4 6 -4q12 0 94 54q102 66 201 151q24 20 33 20q14 0 14 -12z" />
    <glyph glyph-name="ucircumflex" unicode="&#xfb;" horiz-adv-x="530" 
d="M502 684q0 -20 -10 -20t-17 20l-31 92l-161 -104q-10 -6 -17 -6q-10 0 -10 8q0 6 8 14l129 100q37 29 62 29q24 0 30 -39zM688 518q0 -8 -18 -24q-266 -244 -371 -244q-54 0 -68 72q-77 -72 -135 -72q-84 0 -84 78q0 47 47 108l121 158h142l-195 -264q-12 -17 -12 -25
q0 -12 12 -12q62 0 301 301h129l-201 -258q-16 -21 -16 -27q1 -4 6 -4q12 0 94 54q102 66 201 151q24 20 33 20q14 0 14 -12z" />
    <glyph glyph-name="udieresis" unicode="&#xfc;" horiz-adv-x="530" 
d="M528 741q0 -41 -43 -41q-26 0 -26 27q0 43 43 43q26 0 26 -29zM379 743q0 -16 -14.5 -29.5t-30.5 -13.5q-29 0 -29 29q0 43 43 43q31 0 31 -29zM688 518q0 -8 -18 -24q-266 -244 -371 -244q-54 0 -68 72q-77 -72 -135 -72q-84 0 -84 78q0 47 47 108l121 158h142
l-195 -264q-12 -17 -12 -25q0 -12 12 -12q62 0 301 301h129l-201 -258q-16 -21 -16 -27q1 -4 6 -4q12 0 94 54q102 66 201 151q24 20 33 20q14 0 14 -12z" />
    <glyph glyph-name="dagger" unicode="&#x2020;" horiz-adv-x="791" 
d="M1109 1438q0 -32 -69 -100q-49 -47 -98 -93q-48 -57 -143 -174q50 0 137 22.5t105 22.5q26 0 46.5 -16.5t20.5 -40.5q0 -57 -87 -57q-30 0 -104.5 22.5t-130.5 22.5q-86 -119 -104 -149q-66 -106 -66 -173q-93 -41 -237 -250l-326 -475h-32l283 424q85 127 107 166
q47 84 47 141q133 85 297 316q-49 -1 -133.5 -23t-103.5 -22q-67 0 -67 57t86 57q31 0 105.5 -22.5t130.5 -22.5q59 90 109 183q34 71 67 142q53 93 117 93q43 0 43 -51z" />
    <glyph glyph-name="degree" unicode="&#xb0;" horiz-adv-x="819" 
d="M809 1215q0 -69 -49.5 -118.5t-119.5 -49.5t-119.5 49.5t-49.5 118.5q0 70 49.5 119.5t119.5 49.5t119.5 -49.5t49.5 -119.5zM753 1215q0 47 -33 80t-80 33t-80 -33t-33 -80q0 -46 33 -79t80 -33t80 33t33 79z" />
    <glyph glyph-name="cent" unicode="&#xa2;" horiz-adv-x="721" 
d="M723 991q0 -7 -21 -37l-57 -84q33 -11 33 -49q0 -27 -20.5 -52.5t-47.5 -25.5q-37 0 -37 33q0 19 27 37t27 29q0 15 -17 15q-25 0 -63 -32q-148 -123 -148 -237q0 -39 47 -39q90 0 172 67q18 15 23 15q14 0 14 -13q0 -6 -18 -20q-104 -78 -191 -78q-10 0 -40 6l-109 -155
q-19 -27 -31 -27t-12 14q0 8 37 64l76 115q-45 20 -45 81q0 87 93 174q98 91 203 91l70 96q16 22 25 22q10 0 10 -10z" />
    <glyph glyph-name="sterling" unicode="&#xa3;" horiz-adv-x="645" 
d="M866 944q0 -36 -22 -61t-56 -25q-63 0 -63 62q0 65 61 65q2 0 21 -6q-19 57 -105 57q-152 0 -294 -384l185 1l-20 -51h-188q-52 -130 -106 -191q-38 -41 -132 -100q74 17 109 17q47 0 123 -18.5t113 -18.5q41 0 91 27.5t52 27.5q8 0 8 -8q0 -32 -56 -83q-70 -62 -159 -62
q-66 0 -161 25.5t-138 25.5q-54 0 -106 -60q-24 -26 -41 -26q-21 0 -21 16q0 15 14 31l156 148q89 94 155 250h-138l13 50l144 -1q76 211 160 310q100 117 240 117q74 0 119 -39q42 -37 42 -96z" />
    <glyph glyph-name="section" unicode="&#xa7;" horiz-adv-x="717" 
d="M1115 1343q0 -42 -25.5 -69t-61.5 -27q-63 0 -63 56q0 61 65 61q14 0 32 -10q0 42 -32 67t-79 25q-78 0 -133 -57q-63 -66 -63 -185q0 -41 30.5 -246t30.5 -246q0 -181 -81 -292q-74 -100 -188 -113l-51 -6q0 -162 -82 -255q-85 -97 -240 -97q-94 0 -154 54
q-58 51 -58 124q0 104 99 104q21 0 39 -17.5t18 -41.5q0 -70 -79 -70q2 0 -27 11q0 -46 49.5 -83.5t118.5 -37.5q90 0 147 76.5t57 203.5q0 41 -30.5 246.5t-30.5 246.5q0 179 85 293q76 102 185 114l51 6q7 133 91 220q87 91 222 91q66 0 112 -40.5t46 -105.5zM698 643
q0 57 -27 255t-27 241q-87 0 -145 -85.5t-58 -219.5q0 -55 25 -249t25 -247q87 0 146 84q61 88 61 221z" />
    <glyph glyph-name="bullet" unicode="&#x2022;" horiz-adv-x="494" 
d="M409 440q0 -35 -26 -61t-61 -26q-34 0 -59.5 25.5t-25.5 61.5q0 37 25 61t60 24t61 -24.5t26 -60.5z" />
    <glyph glyph-name="paragraph" unicode="&#xb6;" horiz-adv-x="1229" 
d="M2046 1460q0 -32 -29 -55t-75 -23q-76 0 -185 27q-209 -163 -356 -410l-266 -446q-174 -292 -311 -409q-210 -179 -527 -179q-96 0 -154 50t-58 128q0 45 27.5 75t71.5 30q21 0 38.5 -18t17.5 -42q0 -69 -78 -69q2 0 -27 10q0 -46 49.5 -83.5t117.5 -37.5q94 0 243 177
q99 119 274 388l87 134q-157 0 -272.5 87t-115.5 212q0 92 66.5 191t177.5 169q213 135 608 135q196 0 363 -35q170 52 215 52q42 0 70 -17.5t28 -40.5zM2001 1456q0 21 -57 21q-44 0 -134 -27q91 -23 132 -23q59 0 59 29zM1640 1436q-142 26 -297 26q-287 0 -459 -135
q-161 -128 -161 -323q0 -258 209 -258l166 258q218 337 542 432zM1700 1415q-158 -52 -249 -121q-128 -95 -255 -295l-284 -446q-293 -461 -484 -539q179 16 334 166q125 121 289 393l258 428q66 111 184 234q111 117 207 180z" />
    <glyph glyph-name="germandbls" unicode="&#xdf;" horiz-adv-x="604" 
d="M956 1206q0 -73 -167 -229q-158 -147 -257 -186q-32 -13 -32 -37q0 -9 24.5 -78t24.5 -121q0 -74 -41 -151q-34 -63 -66 -82q75 24 169 81t141 105q22 22 36 22q13 0 13 -10q0 -8 -56 -59q-73 -69 -217 -135q-163 -74 -276 -74q-111 0 -111 59q0 26 20 44t44 18
q21 0 24 -27q8 -65 39 -65q54 0 119 92q72 101 72 215q0 64 -7.5 116.5t-7.5 53.5q0 30 88 76q66 32 208 161q161 147 161 205q0 45 -31 45q-121 0 -387 -373l-780 -1093h-139l788 1048q354 471 518 471q35 0 60.5 -26.5t25.5 -65.5z" />
    <glyph glyph-name="registered" unicode="&#xae;" horiz-adv-x="1638" 
d="M1629 804q0 -231 -163.5 -394.5t-395.5 -163.5q-231 0 -394.5 163.5t-163.5 394.5t163.5 394.5t394.5 163.5q232 0 395.5 -163.5t163.5 -394.5zM1569 803q0 207 -146 353.5t-353 146.5t-353.5 -146.5t-146.5 -353.5t146.5 -353t353.5 -146t353 146t146 353zM1390 514
q-38 -11 -90 -11q-57 0 -78 10q-31 15 -38 66q-3 26 -3 74q0 174 -141 174h-53v-291h110v-22h-307v22h104v557h-104v22h307q211 0 211 -136q0 -69 -71 -111q-53 -32 -116 -36q104 -11 132 -55.5t33 -197.5q2 -48 59 -48q36 0 45 5v-22zM1205 967q0 71 -29 98.5t-96 27.5h-93
v-244h88q130 0 130 118z" />
    <glyph glyph-name="copyright" unicode="&#xa9;" horiz-adv-x="1638" 
d="M1629 804q0 -231 -163.5 -394.5t-395.5 -163.5q-231 0 -394.5 163.5t-163.5 394.5t163.5 394.5t394.5 163.5q232 0 395.5 -163.5t163.5 -394.5zM1569 803q0 207 -146 353.5t-353 146.5t-353.5 -146.5t-146.5 -353.5t146.5 -353t353.5 -146t353 146t146 353zM1300 480h-20
l-33 46q-76 -54 -177 -54q-119 0 -207 108q-85 104 -85 234q0 161 103 249q94 80 195 80q94 0 163 -50l31 40h21v-185h-18q-14 72 -63 121.5t-136 49.5q-69 0 -113 -40q-60 -54 -60 -222q0 -203 21 -262q37 -99 156 -99q151 0 206 181h16v-197z" />
    <glyph glyph-name="trademark" unicode="&#x2122;" horiz-adv-x="1761" 
d="M2005 805h-294v25h94l1 627l-196 -659h-29l-181 654v-622h92v-25h-217v25h94v633h-94v26h231l120 -493l154 493h225v-26h-94v-633h94v-25zM1185 1270h-30q-14 129 -75 169q-38 24 -86 24h-40v-633h111v-25h-327v25h111v633h-40q-69 0 -107 -41q-45 -48 -56 -152h-30
l10 219h549z" />
    <glyph glyph-name="acute" unicode="&#xb4;" horiz-adv-x="410" 
d="M535 778q0 -19 -33 -39l-113 -67q-14 -8 -29 -8q-14 0 -14 10q0 8 19 22l100 76q30 23 49 23q21 0 21 -17z" />
    <glyph glyph-name="dieresis" unicode="&#xa8;" horiz-adv-x="410" 
d="M496 741q0 -41 -43 -41q-27 0 -27 27q0 43 43 43q27 0 27 -29zM346 743q0 -16 -14.5 -29.5t-30.5 -13.5q-29 0 -29 29q0 43 43 43q31 0 31 -29z" />
    <glyph glyph-name="AE" unicode="&#xc6;" horiz-adv-x="2343" 
d="M2882 1346q0 -188 -320 -361q-326 -177 -717 -186q-127 -163 -127 -301q0 -126 111 -176q37 96 127 229q98 143 240.5 236.5t261.5 93.5q112 0 112 -105q0 -188 -198 -362q-192 -168 -385 -168q-253 0 -353 188q-75 -78 -272 -149q-33 -115 -33 -219q0 -176 102 -305
q108 -138 273 -138q142 0 253 117.5t111 267.5q0 75 -46 122q-44 44 -113 44q-124 0 -217 -106.5t-93 -251.5q0 -27 -14 -27q-11 0 -14.5 13.5t-3.5 50.5q0 143 105 252q104 106 235 106q86 0 143 -60.5t57 -146.5q0 -173 -130 -300q-125 -122 -279 -122q-206 0 -331 164
q-116 152 -116 375q0 51 17 133q-59 -12 -125 -12q-135 0 -262 63q-148 -63 -322 -63q-227 0 -380 92q-148 89 -148 213q0 122 126 212.5t302 90.5q144 0 274 -62q102 156 268 156q161 0 275 -135q31 31 160 180q203 236 372 359q79 57 184 105t156 48q21 0 21 -16
q0 -41 -86 -105q-540 -536 -705 -1044q135 55 236 135q-17 68 -17 117q0 148 93.5 257t249.5 187q188 94 393 96q0 108 57 179q62 75 159 127.5t177 52.5q66 0 111 -40t45 -101zM2841 1346q0 96 -111 96q-72 0 -156 -40q-92 -44 -148 -113t-56 -130q0 -5 1 -16t1 -17
q104 -13 104 -59q0 -37 -43 -37q-51 0 -84 55q-131 -19 -264 -91q-124 -67 -205 -154q369 15 665 171.5t296 334.5zM2447 1067q0 15 -47 18q19 -26 37 -26q10 0 10 8zM2527 772q0 70 -82 70q-74 0 -180 -58.5t-186 -146.5q-143 -156 -211 -330q55 -18 119 -18q181 0 346 147
q87 78 142 174q52 93 52 162zM2114 1460q-102 -17 -235 -114q-119 -88 -215.5 -201t-172.5 -229q-113 -175 -152 -228q21 -67 25 -143q213 432 750 915zM1247 778q-35 56 -102 90.5t-139 34.5q-150 0 -238 -133q42 -24 85.5 -68.5t43.5 -66.5q0 -17 -14 -17t-29 23
q-39 59 -102 96q-25 -43 -25 -106q0 -118 76 -207q230 119 444 354zM1323 496q0 51 -20 143q-169 -200 -371 -309q103 -47 207 -47q65 0 137 16q10 37 43 139q4 29 4 58zM764 403q-78 107 -78 222q0 66 31 131q-126 57 -271 57q-146 0 -261 -80t-115 -180q0 -97 102 -169.5
t242 -72.5q172 0 350 92z" />
    <glyph glyph-name="Oslash" unicode="&#xd8;" horiz-adv-x="872" 
d="M1579 1513q0 -11 -23 -30l-122 -101q10 -24 10 -65q0 -179 -248 -350q0 -4 2 -19.5t2 -19.5q0 -202 -258 -443q-262 -243 -489 -243q-93 0 -165 65q-55 50 -65 94l-157 -129q-13 -10 -25 -10q-14 0 -14 14q0 12 16 25l162 130q-17 50 -17 108q0 316 342 618
q172 152 371 242t361 90q97 0 151 -78l129 105q17 14 27 14t10 -17zM1403 1325q0 7 -1 16t-1 15l-315 -256q69 -24 96 -90q97 56 159 142.5t62 172.5zM1381 1385q-35 63 -107 63q-168 0 -400 -167q-216 -155 -382 -376q-174 -229 -193 -398l157 128q93 205 243 337
q158 140 321 140q11 0 23 -2zM994 1070q-120 -9 -247 -114q-119 -100 -208 -254zM1153 948q-141 -57 -223 -57q-29 0 -29 20q0 16 62 25q83 13 180 55q-26 63 -100 74l-531 -432q-43 -79 -43 -248q0 -29 -20 -29q-24 0 -25 62q-1 68 16 156l-137 -109q-5 -58 38 -115
q49 -63 124 -63q214 0 453 234q235 231 235 427z" />
    <glyph glyph-name="plusminus" unicode="&#xb1;" horiz-adv-x="1024" 
d="M903 567h-246v-180h-65v180h-246v66h246v180h65v-180h246v-66zM903 256h-557v66h557v-66z" />
    <glyph glyph-name="yen" unicode="&#xa5;" horiz-adv-x="778" 
d="M1169 991q0 -82 -82 -82q-59 0 -59 52q0 33 27 47q22 11 22 16q0 10 -20 10q-89 0 -214 -127q-91 -93 -163 -207h190l-18 -32h-193q-12 -22 -38 -66h194l-18 -33h-193l-182 -325h-113l180 325h-217l19 33h213q12 27 24 64h-202l20 34h191q14 75 14 138q0 200 -139 200
q-27 0 -56.5 -13.5t-33.5 -13.5q-19 0 -19 27q0 38 72 38q252 0 252 -269q0 -57 -17 -150q91 149 198 259q152 155 271 155q90 0 90 -80z" />
    <glyph glyph-name="mu" unicode="&#xb5;" horiz-adv-x="530" 
d="M688 518q0 -8 -18 -24q-271 -248 -375 -248q-60 0 -64 76q-82 -76 -139 -76q-31 0 -31 30l-372 -493h-140l631 811h142l-197 -266q-14 -20 -14 -27q0 -12 14 -12q27 0 128 104q89 92 175 201h129l-201 -258q-20 -26 -20 -31q1 -4 6 -4q14 0 98 56q100 66 201 153
q24 20 33 20q14 0 14 -12z" />
    <glyph glyph-name="mu" unicode="&#x3bc;" horiz-adv-x="530" 
d="M688 518q0 -8 -18 -24q-271 -248 -375 -248q-60 0 -64 76q-82 -76 -139 -76q-31 0 -31 30l-372 -493h-140l631 811h142l-197 -266q-14 -20 -14 -27q0 -12 14 -12q27 0 128 104q89 92 175 201h129l-201 -258q-20 -26 -20 -31q1 -4 6 -4q14 0 98 56q100 66 201 153
q24 20 33 20q14 0 14 -12z" />
    <glyph glyph-name="ordfeminine" unicode="&#xaa;" horiz-adv-x="1024" 
d="M1069 1376l-207 -272q-24 -32 -24 -35q0 -6 10 -6q22 0 61 29q37 26 45 26q15 0 15 -10q0 -11 -29 -31q-74 -49 -111 -49q-50 0 -67 64q-69 -64 -117 -64q-74 0 -74 74q0 89 80 180q92 104 180 104q52 0 82 -49l31 39h125zM891 1307q0 39 -45 39q-14 0 -51 -39
q-48 -51 -96 -120q-54 -77 -54 -106q0 -14 12 -14q36 0 117 98z" />
    <glyph glyph-name="ordmasculine" unicode="&#xba;" horiz-adv-x="1024" 
d="M1036 1284q0 -78 -103.5 -176t-193.5 -98q-41 0 -67.5 24.5t-26.5 61.5q0 94 100 183t209 89q82 0 82 -84zM971 1315q0 18 -17 18q-43 0 -131 -123q-94 -132 -94 -149q0 -12 14 -12q21 0 63 33q49 38 91 98q74 104 74 135z" />
    <glyph glyph-name="ae" unicode="&#xe6;" horiz-adv-x="588" 
d="M715 492q0 -26 -127 -111q-203 -135 -309 -135q-47 0 -66 20q-6 7 -20 43q-64 -63 -117 -63q-74 0 -74 73q0 89 80 181q91 104 180 104q33 0 82 -49q103 49 164 49q76 0 76 -55q0 -57 -99 -122q-93 -61 -166 -65q-26 -36 -26 -57q0 -16 16 -16q34 0 123 42
q105 51 205 126l65 49q13 0 13 -14zM545 547q0 28 -35 28q-34 0 -88 -71l-80 -107q58 8 130.5 60.5t72.5 89.5zM322 524q-23 39 -46 39q-8 0 -45 -39q-155 -164 -155 -225q0 -14 12 -14q36 0 117 98z" />
    <glyph glyph-name="oslash" unicode="&#xf8;" 
d="M551 498q0 -25 -133 -111q-214 -137 -312 -137q-49 0 -69 22l-64 -49q-8 -6 -16 -6q-10 0 -10 12q0 6 10 14l63 52q-10 16 -10 43q0 92 108 186t206 94q47 0 63 -24l43 35q8 6 19 6q12 0 12 -10q0 -7 -12 -17l-48 -39q2 -5 2 -32q0 -101 -94 -179q102 49 191 129
q27 25 39 25t12 -14zM356 569q0 27 -32 27q-45 0 -172 -160q-26 -32 -68 -90zM360 537l-270 -220q-4 -3 -4 -24t20 -21q55 0 146 109q76 90 108 156z" />
    <glyph glyph-name="questiondown" unicode="&#xbf;" horiz-adv-x="682" 
d="M1092 1032q0 -49 -50 -49q-47 0 -47 49t47 49q50 0 50 -49zM1014 928q0 -29 -99 -131q-77 -83 -155 -167q-136 -123 -451 -327q-160 -103 -220 -189q-46 -66 -46 -149q0 -137 160 -137q161 0 282 103q117 99 117 221q0 86 -102 86q-106 0 -172 -107q-17 -27 -33 -27
q-10 0 -10 13q0 22 39 65q79 88 188 88q65 0 108 -45q39 -43 39 -98q0 -123 -140.5 -226.5t-303.5 -103.5q-98 0 -165 57q-70 59 -70 154q0 98 82 185q65 68 223 165q282 175 320 203q190 140 368 361q15 18 26 18q15 0 15 -12z" />
    <glyph glyph-name="exclamdown" unicode="&#xa1;" horiz-adv-x="455" 
d="M860 1032q0 -49 -49 -49t-49 49t49 49t49 -49zM754 934q0 -12 -52 -88l-624 -928q-82 -121 -111 -121q-26 0 -26 29q0 34 73 135l668 918q49 67 61 67q11 0 11 -12z" />
    <glyph glyph-name="florin" unicode="&#x192;" horiz-adv-x="758" 
d="M985 938q0 -43 -33 -90q-30 -41 -45 -41q-12 0 -12 10t14 25q41 41 41 98q0 39 -25.5 66.5t-68.5 27.5q-57 0 -92 -37q-28 -29 -100 -153l-164 -281h143q23 0 23 -12q0 -16 -43 -16h-140l-204 -385q-212 -398 -486 -398q-52 0 -98 31q-41 28 -41 51q0 14 12 14t25 -14
q42 -49 104 -49q124 0 232 132q63 77 168 273l182 345h-129q-33 0 -33 14t49 14h129l182 316q115 198 265 198q58 0 100 -36q45 -40 45 -103z" />
    <glyph glyph-name="guillemotleft" unicode="&#xab;" horiz-adv-x="682" 
d="M604 608q0 -8 -29 -37l-141 -143l72 -143q12 -25 12 -31q0 -16 -22 -16q-18 0 -39 41l-78 149l151 150q42 40 58 40t16 -10zM477 608q0 -8 -28 -37l-144 -143l72 -143q14 -29 14 -31q0 -16 -22 -16q-18 0 -39 41l-78 149l149 150q41 40 58 40q18 0 18 -10z" />
    <glyph glyph-name="guillemotright" unicode="&#xbb;" horiz-adv-x="682" 
d="M604 428l-151 -149q-42 -41 -58 -41t-16 10q0 8 29 37l143 143l-74 143q-12 24 -12 31q0 16 22 16q18 0 39 -40zM477 428l-151 -149q-42 -41 -58 -41t-16 10q0 8 29 37l141 143l-72 143q-12 25 -12 31q0 16 20 16t41 -40z" />
    <glyph glyph-name="ellipsis" unicode="&#x2026;" horiz-adv-x="713" 
d="M643 305q0 -49 -49 -49t-49 49t49 49t49 -49zM406 305q0 -49 -50 -49q-49 0 -49 49t49 49q50 0 50 -49zM168 305q0 -49 -49 -49t-49 49t49 49t49 -49z" />
    <glyph glyph-name="glyph151" horiz-adv-x="645" 
 />
    <glyph glyph-name="Agrave" unicode="&#xc0;" horiz-adv-x="1518" 
d="M2206 1589q0 -8 -11 -8q-6 0 -26 10l-103 54q-51 26 -51 45q0 24 25 24q11 0 43 -24l112 -86q11 -11 11 -15zM2169 1485q0 -41 -86 -105q-540 -536 -705 -1044q102 49 217 147q60 52 68 52q12 0 12 -17q0 -21 -109 -106q-116 -90 -204 -127q-33 -115 -33 -219
q0 -176 102 -305q108 -138 273 -138q141 0 252.5 120.5t111.5 270.5q0 78 -45 124t-114 46q-123 0 -216.5 -111t-93.5 -257q0 -27 -14 -27q-11 0 -14.5 13.5t-3.5 50.5q0 144 104.5 256t235.5 112q86 0 143 -61t57 -150q0 -173 -130 -303q-125 -125 -279 -125
q-188 0 -319 164q-128 159 -128 375q0 51 17 133q-59 -12 -125 -12q-135 0 -262 63q-148 -63 -322 -63q-227 0 -380 92q-148 89 -148 213q0 122 126 212.5t302 90.5q144 0 274 -62q102 156 268 156q161 0 275 -135q31 31 160 180q203 236 372 359q79 57 184 105t156 48
q21 0 21 -16zM2114 1460q-102 -17 -235 -114q-119 -88 -215.5 -201t-172.5 -229q-113 -175 -152 -228q21 -67 25 -143q213 432 750 915zM1247 778q-35 56 -102 90.5t-139 34.5q-150 0 -238 -133q42 -24 85.5 -68.5t43.5 -66.5q0 -17 -14 -17t-29 23q-39 59 -102 96
q-25 -43 -25 -106q0 -118 76 -207q230 119 444 354zM1323 496q0 51 -20 143q-169 -200 -371 -309q103 -47 207 -47q65 0 137 16q10 37 43 139q4 29 4 58zM764 403q-78 107 -78 222q0 66 31 131q-126 57 -271 57q-146 0 -261 -80t-115 -180q0 -97 102 -169.5t242 -72.5
q172 0 350 92z" />
    <glyph glyph-name="Atilde" unicode="&#xc3;" horiz-adv-x="1518" 
d="M2216 1653q-16 -62 -68 -62q-17 0 -34 11l-45 20q-4 2 -7 2q-14 0 -24 -16l-10 -17l-19 15q29 57 59 57l25 -8l37 -17q14 -6 22 -6q19 0 37 19l13 12zM2169 1485q0 -41 -86 -105q-540 -536 -705 -1044q102 49 217 147q60 52 68 52q12 0 12 -17q0 -21 -109 -106
q-116 -90 -204 -127q-33 -115 -33 -219q0 -176 102 -305q108 -138 273 -138q141 0 252.5 120.5t111.5 270.5q0 78 -45 124t-114 46q-123 0 -216.5 -111t-93.5 -257q0 -27 -14 -27q-11 0 -14.5 13.5t-3.5 50.5q0 144 104.5 256t235.5 112q86 0 143 -61t57 -150
q0 -173 -130 -303q-125 -125 -279 -125q-188 0 -319 164q-128 159 -128 375q0 51 17 133q-59 -12 -125 -12q-135 0 -262 63q-148 -63 -322 -63q-227 0 -380 92q-148 89 -148 213q0 122 126 212.5t302 90.5q144 0 274 -62q102 156 268 156q161 0 275 -135q31 31 160 180
q203 236 372 359q79 57 184 105t156 48q21 0 21 -16zM2114 1460q-102 -17 -235 -114q-119 -88 -215.5 -201t-172.5 -229q-113 -175 -152 -228q21 -67 25 -143q213 432 750 915zM1247 778q-35 56 -102 90.5t-139 34.5q-150 0 -238 -133q42 -24 85.5 -68.5t43.5 -66.5
q0 -17 -14 -17t-29 23q-39 59 -102 96q-25 -43 -25 -106q0 -118 76 -207q230 119 444 354zM1323 496q0 51 -20 143q-169 -200 -371 -309q103 -47 207 -47q65 0 137 16q10 37 43 139q4 29 4 58zM764 403q-78 107 -78 222q0 66 31 131q-126 57 -271 57q-146 0 -261 -80
t-115 -180q0 -97 102 -169.5t242 -72.5q172 0 350 92z" />
    <glyph glyph-name="Otilde" unicode="&#xd5;" horiz-adv-x="872" 
d="M1421 1653q-16 -62 -67 -62q-18 0 -35 11l-44 20q-4 2 -7 2q-15 0 -25 -16l-10 -17l-19 15q29 57 60 57l24 -8l37 -17q14 -6 23 -6q18 0 37 19l12 12zM1444 1317q0 -179 -248 -350q0 -4 2 -19.5t2 -19.5q0 -202 -258 -443q-262 -243 -489 -243q-4 0 -41 4v-27
q0 -151 37 -285q2 -7 2 -16q0 -18 -19 -18q-21 0 -35 69q-30 152 -30 262v27q-179 72 -179 281q0 316 342 618q172 152 371 242t361 90q78 0 130 -52.5t52 -119.5zM1399 1319q0 52 -35.5 90.5t-89.5 38.5q-174 0 -415 -178q-224 -166 -389 -395q-173 -239 -173 -404
q0 -93 74 -149q28 294 222 538q200 252 427 252q50 0 97 -28.5t65 -73.5q97 56 157 139.5t60 169.5zM1153 948q-141 -57 -223 -57q-29 0 -29 20q0 16 62 25q83 13 180 55q-33 80 -129 80q-205 0 -401 -258q-193 -254 -199 -516q30 -10 51 -10q214 0 453 234q235 231 235 427
z" />
    <glyph glyph-name="OE" unicode="&#x152;" horiz-adv-x="1882" 
d="M2300 1389q0 -81 -113 -142q-116 -63 -278 -63q-13 0 -23 1t-12 1q-5 -20 -5 -29q0 -22 3 -35q102 -10 102 -59q0 -37 -43 -37q-49 0 -84 55q-236 -31 -433 -212t-197 -375q0 -126 110 -177q37 97 127 230q98 143 240.5 236.5t261.5 93.5q112 0 112 -105
q0 -189 -198 -362q-192 -168 -385 -168q-58 0 -135 18q-50 -137 -60 -254q-5 -65 -22 -65t-17 22q0 123 60 309q-97 35 -156 116.5t-59 195.5q-308 -342 -643 -342q-4 0 -41 4v-27q0 -125 24 -235q15 -65 15 -66q0 -18 -19 -18q-21 0 -35 69q-30 152 -30 262v27
q-179 72 -179 281q0 316 342 618q172 152 371 242t361 90q80 0 127 -48.5t47 -119.5q0 -188 -240 -354q6 -25 6 -52q0 -40 -14 -75q82 112 248 192q186 89 395 92q0 17 3 40t3 26q-113 0 -204 33q-142 52 -142 166q0 34 26 65q23 27 37 27q10 0 10 -11t-12 -35t-12 -49
q0 -68 104 -118q95 -45 203 -45q20 46 41 75q61 83 158 136q87 49 156 49q43 0 70.5 -27t27.5 -67zM2255 1389q0 49 -66 49q-61 0 -151 -59q-82 -53 -115 -101q-14 -20 -35 -55q4 -4 27 -4q115 0 224 51q116 54 116 119zM1937 1065q0 15 -47 18q19 -26 37 -26q10 0 10 8z
M2025 768q0 70 -81 70q-75 0 -181 -58.5t-186 -146.5q-143 -156 -211 -330q55 -18 119 -18q181 0 346 147q87 78 142 174q52 93 52 162zM1399 1319q0 52 -35.5 90.5t-89.5 38.5q-174 0 -415 -178q-224 -166 -389 -395q-173 -239 -173 -404q0 -93 74 -149q28 294 222 538
q200 252 427 252q50 0 97 -28.5t65 -73.5q97 56 157 139.5t60 169.5zM1153 948q-141 -57 -223 -57q-29 0 -29 20q0 16 62 25q83 13 180 55q-33 80 -129 80q-205 0 -401 -258q-193 -254 -199 -516q30 -10 51 -10q214 0 453 234q235 231 235 427z" />
    <glyph glyph-name="oe" unicode="&#x153;" horiz-adv-x="588" 
d="M741 492q0 -26 -127 -111q-202 -135 -297 -135q-47 0 -73 47q-104 -47 -142 -47q-41 0 -67.5 24.5t-26.5 61.5q0 94 100 183t209 89q33 0 56 -18q20 -16 20 -35q67 53 142 53t75 -55q0 -57 -98 -122q-93 -61 -166 -65q-27 -36 -27 -57q0 -16 17 -16q43 0 151 57
q99 52 175 109q68 51 67 51q12 0 12 -14zM571 547q0 28 -34 28q-35 0 -88 -71l-80 -107q57 8 129.5 60.5t72.5 89.5zM334 551q0 18 -17 18q-43 0 -131 -123q-94 -132 -94 -149q0 -12 14 -12q21 0 63 33q49 39 91 98q74 104 74 135z" />
    <glyph glyph-name="endash" unicode="&#x2013;" horiz-adv-x="645" 
d="M682 535l-57 -68h-662l57 68h662z" />
    <glyph glyph-name="emdash" unicode="&#x2014;" horiz-adv-x="2048" 
d="M2089 535l-57 -68h-2069l57 68h2069z" />
    <glyph glyph-name="quotedblleft" unicode="&#x201c;" horiz-adv-x="455" 
d="M1126 1458q0 -5 -64 -86q-67 -86 -75 -102q-12 -25 -18 -25q14 0 -72 12q-16 3 -16 9q0 8 133 118q93 78 106 78q6 0 6 -4zM938 1458q0 -5 -64 -86q-68 -86 -75 -102q-12 -25 -19 -25q15 0 -71 12q-17 3 -17 9q0 8 133 118q94 78 107 78q5 0 6 -4z" />
    <glyph glyph-name="quotedblright" unicode="&#x201d;" horiz-adv-x="455" 
d="M1126 1442q0 -8 -133 -119q-93 -78 -106 -78q-6 0 -6 4q0 5 64 87q67 86 75 102q12 24 18 24q-14 0 72 -12q16 -2 16 -8zM938 1442q0 -8 -133 -119q-94 -78 -107 -78q-5 0 -6 4q0 5 64 87q68 86 75 102q12 24 19 24q-14 0 72 -12q16 -2 16 -8z" />
    <glyph glyph-name="quoteleft" unicode="&#x2018;" horiz-adv-x="266" 
d="M938 1458q0 -5 -64 -86q-68 -86 -75 -102q-12 -25 -19 -25q15 0 -71 12q-17 3 -17 9q0 8 133 118q94 78 107 78q5 0 6 -4z" />
    <glyph glyph-name="quoteright" unicode="&#x2019;" horiz-adv-x="266" 
d="M938 1442q0 -8 -133 -119q-94 -78 -107 -78q-5 0 -6 4q0 5 64 87q68 86 75 102q12 24 19 24q-14 0 72 -12q16 -2 16 -8z" />
    <glyph glyph-name="divide" unicode="&#xf7;" horiz-adv-x="1024" 
d="M681 739q0 -54 -54 -54t-54 54t54 54t54 -54zM904 503h-557v66h557v-66zM681 330q0 -55 -54 -55t-54 55q0 54 54 54t54 -54z" />
    <glyph glyph-name="ydieresis" unicode="&#xff;" horiz-adv-x="494" 
d="M498 741q0 -41 -43 -41q-27 0 -27 27q0 43 43 43q27 0 27 -29zM348 743q0 -16 -14.5 -29.5t-30.5 -13.5q-29 0 -29 29q0 43 43 43q31 0 31 -29zM649 518q0 -10 -16 -24q-167 -149 -414 -283l-323 -426q-100 -131 -161 -178q-52 -39 -108 -39q-55 0 -55 59q0 97 179 292
q173 188 384 331l19 26q-46 -26 -80 -26q-84 0 -84 78q0 47 47 108l121 158h141l-195 -264q-12 -17 -12 -25q0 -12 12 -12q30 0 129 101q95 96 173 200h131l-220 -270q142 67 285 186q25 20 33 20q14 0 14 -12zM57 139q-177 -130 -315 -288q-133 -154 -133 -220
q0 -24 22 -24q28 0 89.5 61t113.5 139z" />
    <glyph glyph-name="Ydieresis" unicode="&#x178;" horiz-adv-x="1251" 
d="M1708 1524q0 -41 -43 -41q-27 0 -27 26q0 43 43 43q27 0 27 -28zM1559 1526q0 -17 -15 -30t-31 -13q-28 0 -28 28q0 43 43 43q31 0 31 -28zM1798 1128l-559 -710q-240 -306 -330 -398q60 -34 150 -115q104 -95 104 -134q0 -19 -16 -19q-10 0 -37 33q-102 124 -233 203
q-428 -455 -883 -455q-168 0 -281.5 64.5t-113.5 160.5q0 155 224.5 272t524.5 117q225 0 430 -69q72 84 168 211q-92 -47 -172 -47q-184 0 -184 147q0 111 151 260q233 229 328 361q115 159 115 286q0 95 -83 151t-220 56q-294 0 -545.5 -162t-251.5 -354q0 -88 61 -143.5
t152 -55.5q179 0 346 156t168 330q0 53 23 53q20 0 20 -31q0 -200 -175.5 -373t-381.5 -173q-106 0 -177 66q-75 69 -75 175q0 206 265 379q262 172 569 172q354 0 354 -297q0 -170 -149 -369q-69 -92 -276 -301q-149 -151 -149 -204q0 -80 123 -80q100 0 184.5 64.5
t237.5 258.5l406 514h188zM750 43q-185 61 -408 61q-284 0 -494 -107q-204 -105 -204 -241q0 -80 93.5 -128t239.5 -48q222 0 401 109q177 106 372 354z" />
    <glyph glyph-name="currency" unicode="&#xa4;" horiz-adv-x="1024" 
d="M1227 952q0 -35 -22.5 -60.5t-55.5 -25.5q-64 0 -64 62q0 65 62 65q2 0 20 -6q0 19 -29.5 36.5t-62.5 17.5q-49 0 -119 -25q-147 -53 -282 -166q-3 -2 -88 -91h380l-42 -38h-372q-25 -29 -51 -65h353l-42 -37l-337 -1q-76 -101 -76 -184q0 -161 136 -161q137 0 239 126
q7 8 19 32q8 13 16 13q12 0 12 -10q0 -43 -84 -113q-103 -84 -225 -84q-227 0 -227 210q0 85 52 171h-155l39 38h141q23 34 50 65h-121l38 38h119q182 189 334 260q146 69 264 69q181 0 181 -136z" />
    <glyph glyph-name="guilsinglleft" unicode="&#x2039;" horiz-adv-x="569" 
d="M483 608q0 -8 -28 -37l-142 -143l72 -143q12 -25 12 -31q0 -16 -22 -16q-18 0 -39 41l-78 149l152 150q41 40 57 40t16 -10z" />
    <glyph glyph-name="guilsinglright" unicode="&#x203a;" horiz-adv-x="569" 
d="M483 428l-151 -149q-42 -41 -58 -41t-16 10q0 8 29 37l141 143l-72 143q-12 25 -12 31q0 16 23 16q17 0 39 -40z" />
    <glyph glyph-name="daggerdbl" unicode="&#x2021;" horiz-adv-x="791" 
d="M1108 1436q0 -33 -69 -100q-49 -47 -98 -93q-49 -57 -143 -174q49 0 136 22t106 22q26 0 46 -16t20 -40q0 -57 -86 -57q-31 0 -105 22t-130 22q-86 -118 -105 -148q-65 -106 -65 -173q-133 -85 -298 -315q49 0 133.5 22t104.5 22q66 0 66 -57q0 -56 -86 -56
q-31 0 -105 22t-131 22q-58 -89 -109 -183q-33 -71 -67 -142q-53 -93 -117 -93q-43 0 -43 51q0 33 69 100l98 94q49 56 143 173q-49 0 -136.5 -22t-105.5 -22q-26 0 -46.5 16t-20.5 40q0 57 87 57q31 0 105 -22t130 -22q86 118 105 148q65 106 65 173q133 85 298 315
q-49 0 -133.5 -22t-104.5 -22q-66 0 -66 57q0 56 86 56q31 0 105 -22t131 -22q58 89 109 183q33 71 67 142q53 93 117 93q43 0 43 -51z" />
    <glyph glyph-name="periodcentered" unicode="&#xb7;" horiz-adv-x="340" 
d="M369 653q0 -49 -50 -49q-49 0 -49 49t49 49q50 0 50 -49z" />
    <glyph glyph-name="periodcentered" unicode="&#x2219;" horiz-adv-x="340" 
d="M369 653q0 -49 -50 -49q-49 0 -49 49t49 49q50 0 50 -49z" />
    <glyph glyph-name="quotesinglbase" unicode="&#x201a;" horiz-adv-x="266" 
d="M297 418q0 -8 -133 -119q-94 -78 -107 -78q-5 0 -6 4q0 5 64 87q68 86 75 102q12 24 19 24q-15 0 72 -12q16 -2 16 -8z" />
    <glyph glyph-name="quotedblbase" unicode="&#x201e;" horiz-adv-x="455" 
d="M485 418q0 -8 -133 -119q-93 -78 -106 -78q-6 0 -6 4q0 5 64 87q67 86 75 102q12 24 18 24q-14 0 72 -12q16 -2 16 -8zM297 418q0 -8 -133 -119q-94 -78 -107 -78q-5 0 -6 4q0 5 64 87q68 86 75 102q12 24 19 24q-15 0 72 -12q16 -2 16 -8z" />
    <glyph glyph-name="perthousand" unicode="&#x2030;" horiz-adv-x="1434" 
d="M1491 665q0 -111 -161 -308q-113 -139 -227 -139q-112 0 -112 111t155 257t273 146q72 0 72 -67zM756 1034q0 -111 -161 -309q-113 -138 -227 -138q-112 0 -112 111t155 257t273 146q72 0 72 -67zM1009 1098q0 -15 -76 -117l-549 -737q-34 -45 -45 -45q-10 0 -10 12
q0 9 14 29l608 843q24 33 39 33q19 0 19 -18zM1081 665q0 -111 -161 -308q-113 -139 -226 -139q-112 0 -112 111t154.5 257t273.5 146q71 0 71 -67zM1469 664q0 44 -44 44q-93 0 -223 -144.5t-130 -243.5q0 -70 60 -70q84 0 198 141q139 173 139 273zM734 1033q0 44 -44 44
q-93 0 -223 -145t-130 -243q0 -71 60 -71q84 0 198 141q139 174 139 274zM1060 664q0 44 -44 44q-93 0 -223.5 -144.5t-130.5 -243.5q0 -70 61 -70q84 0 197 141q140 173 140 273z" />
    <glyph glyph-name="Acircumflex" unicode="&#xc2;" horiz-adv-x="1518" 
d="M2247 1610q0 -21 -11 -21q-9 0 -16 21l-31 92l-161 -105q-10 -6 -17 -6q-10 0 -10 8q0 7 8 15l129 100q37 29 62 29q24 0 30 -39zM2169 1518q0 -41 -86 -105q-540 -536 -705 -1044q102 49 217 147q60 51 68 51q12 0 12 -16q0 -21 -109 -106q-116 -91 -204 -128
q-33 -114 -33 -219q0 -176 102 -305q108 -137 273 -137q141 0 252.5 120t111.5 271q0 78 -45 124t-114 46q-123 0 -216.5 -111.5t-93.5 -257.5q0 -26 -14 -26q-11 0 -14.5 13.5t-3.5 49.5q0 145 104.5 257t235.5 112q86 0 143 -61t57 -150q0 -173 -130 -303
q-125 -125 -279 -125q-188 0 -319 164q-128 159 -128 375q0 51 17 133q-59 -13 -125 -13q-135 0 -262 64q-148 -64 -322 -64q-227 0 -380 92q-148 89 -148 214q0 122 126 212.5t302 90.5q144 0 274 -62q102 156 268 156q161 0 275 -135q31 31 160 180q203 236 372 358
q79 58 184 106t156 48q21 0 21 -16zM2114 1493q-102 -17 -235 -115q-119 -87 -215.5 -200t-172.5 -230q-113 -174 -152 -227q21 -67 25 -143q213 432 750 915zM1247 811q-35 55 -102 90t-139 35q-150 0 -238 -133q42 -24 85.5 -68.5t43.5 -66.5q0 -17 -14 -17t-29 23
q-39 59 -102 96q-25 -44 -25 -106q0 -118 76 -207q230 119 444 354zM1323 528q0 52 -20 144q-169 -200 -371 -310q103 -47 207 -47q65 0 137 17q10 37 43 139q4 29 4 57zM764 436q-78 106 -78 221q0 67 31 131q-126 58 -271 58q-146 0 -261 -80t-115 -180q0 -97 102 -169.5
t242 -72.5q172 0 350 92z" />
    <glyph glyph-name="Ecircumflex" unicode="&#xca;" horiz-adv-x="1100" 
d="M1608 1610q0 -21 -11 -21q-9 0 -16 21l-31 92l-161 -105q-10 -6 -17 -6q-10 0 -10 8q0 7 8 15l129 100q37 29 62 29q24 0 30 -39zM1597 1341q0 -188 -319 -361q-326 -176 -717 -185q-127 -163 -127 -301q0 -126 111 -177q36 97 127 230q98 143 240.5 236.5t261.5 93.5
q112 0 112 -105q0 -189 -198 -362q-193 -168 -386 -168q-57 0 -135 18q-49 -137 -59 -254q-6 -65 -23 -65q-16 0 -16 22q0 123 59 309q-97 35 -154 115q-61 83 -61 197q0 105 68 221q-162 26 -264 111q-109 92 -109 221q0 138 148 239q158 107 399 107q287 0 575 -154
q151 154 312 154q66 0 110.5 -40t44.5 -102zM1556 1341q0 97 -110 97q-146 0 -279 -129q18 -12 64.5 -44t50.5 -34q29 -19 29 -33t-13 -14q-12 0 -24 12q-109 76 -133 84q-56 -76 -56 -125q0 -5 1 -16.5t1 -16.5q105 -13 105 -59q0 -37 -43 -37q-51 0 -84 55
q-131 -19 -264 -91q-124 -67 -205 -154q369 15 664.5 171.5t295.5 333.5zM1155 1065q0 15 -47 18q19 -26 37 -26q10 0 10 8zM1106 1298q-284 146 -569 146q-206 0 -350 -94q-140 -90 -140 -211q0 -119 110 -204q101 -77 249 -95q82 112 247 192q186 89 396 92q0 96 57 174z
M1243 768q0 70 -82 70q-75 0 -179 -58q-107 -59 -187 -147q-143 -156 -211 -330q55 -18 118 -18q181 0 347 147q87 78 141 174q53 93 53 162z" />
    <glyph glyph-name="Aacute" unicode="&#xc1;" horiz-adv-x="1518" 
d="M2277 1704q0 -19 -32 -39l-113 -68q-11 -8 -29 -8q-14 0 -14 10q0 9 18 23l101 76q30 22 49 22q20 0 20 -16zM2169 1485q0 -41 -86 -105q-540 -536 -705 -1044q102 49 217 147q60 52 68 52q12 0 12 -17q0 -21 -109 -106q-116 -90 -204 -127q-33 -115 -33 -219
q0 -176 102 -305q108 -138 273 -138q141 0 252.5 120.5t111.5 270.5q0 78 -45 124t-114 46q-123 0 -216.5 -111t-93.5 -257q0 -27 -14 -27q-11 0 -14.5 13.5t-3.5 50.5q0 144 104.5 256t235.5 112q86 0 143 -61t57 -150q0 -173 -130 -303q-125 -125 -279 -125
q-188 0 -319 164q-128 159 -128 375q0 51 17 133q-59 -12 -125 -12q-135 0 -262 63q-148 -63 -322 -63q-227 0 -380 92q-148 89 -148 213q0 122 126 212.5t302 90.5q144 0 274 -62q102 156 268 156q161 0 275 -135q31 31 160 180q203 236 372 359q79 57 184 105t156 48
q21 0 21 -16zM2114 1460q-102 -17 -235 -114q-119 -88 -215.5 -201t-172.5 -229q-113 -175 -152 -228q21 -67 25 -143q213 432 750 915zM1247 778q-35 56 -102 90.5t-139 34.5q-150 0 -238 -133q42 -24 85.5 -68.5t43.5 -66.5q0 -17 -14 -17t-29 23q-39 59 -102 96
q-25 -43 -25 -106q0 -118 76 -207q230 119 444 354zM1323 496q0 51 -20 143q-169 -200 -371 -309q103 -47 207 -47q65 0 137 16q10 37 43 139q4 29 4 58zM764 403q-78 107 -78 222q0 66 31 131q-126 57 -271 57q-146 0 -261 -80t-115 -180q0 -97 102 -169.5t242 -72.5
q172 0 350 92z" />
    <glyph glyph-name="Edieresis" unicode="&#xcb;" horiz-adv-x="1100" 
d="M1593 1626q0 -41 -43 -41q-26 0 -26 27q0 43 43 43q26 0 26 -29zM1444 1628q0 -16 -14.5 -29.5t-30.5 -13.5q-29 0 -29 29q0 43 43 43q31 0 31 -29zM1597 1341q0 -188 -319 -361q-326 -176 -717 -185q-127 -163 -127 -301q0 -126 111 -177q36 97 127 230
q98 143 240.5 236.5t261.5 93.5q112 0 112 -105q0 -189 -198 -362q-193 -168 -386 -168q-57 0 -135 18q-49 -137 -59 -254q-6 -65 -23 -65q-16 0 -16 22q0 123 59 309q-97 35 -154 115q-61 83 -61 197q0 105 68 221q-162 26 -264 111q-109 92 -109 221q0 138 148 239
q158 107 399 107q287 0 575 -154q151 154 312 154q66 0 110.5 -40t44.5 -102zM1556 1341q0 97 -110 97q-146 0 -279 -129q18 -12 64.5 -44t50.5 -34q29 -19 29 -33t-13 -14q-12 0 -24 12q-109 76 -133 84q-56 -76 -56 -125q0 -5 1 -16.5t1 -16.5q105 -13 105 -59
q0 -37 -43 -37q-51 0 -84 55q-131 -19 -264 -91q-124 -67 -205 -154q369 15 664.5 171.5t295.5 333.5zM1155 1065q0 15 -47 18q19 -26 37 -26q10 0 10 8zM1106 1298q-284 146 -569 146q-206 0 -350 -94q-140 -90 -140 -211q0 -119 110 -204q101 -77 249 -95q82 112 247 192
q186 89 396 92q0 96 57 174zM1243 768q0 70 -82 70q-75 0 -179 -58q-107 -59 -187 -147q-143 -156 -211 -330q55 -18 118 -18q181 0 347 147q87 78 141 174q53 93 53 162z" />
    <glyph glyph-name="Egrave" unicode="&#xc8;" horiz-adv-x="1100" 
d="M1575 1597q0 -8 -10 -8q-7 0 -27 10l-102 54q-52 26 -52 45q0 24 25 24q11 0 43 -24l113 -86q10 -10 10 -15zM1597 1341q0 -188 -319 -361q-326 -176 -717 -185q-127 -163 -127 -301q0 -126 111 -177q36 97 127 230q98 143 240.5 236.5t261.5 93.5q112 0 112 -105
q0 -189 -198 -362q-193 -168 -386 -168q-57 0 -135 18q-49 -137 -59 -254q-6 -65 -23 -65q-16 0 -16 22q0 123 59 309q-97 35 -154 115q-61 83 -61 197q0 105 68 221q-162 26 -264 111q-109 92 -109 221q0 138 148 239q158 107 399 107q287 0 575 -154q151 154 312 154
q66 0 110.5 -40t44.5 -102zM1556 1341q0 97 -110 97q-146 0 -279 -129q18 -12 64.5 -44t50.5 -34q29 -19 29 -33t-13 -14q-12 0 -24 12q-109 76 -133 84q-56 -76 -56 -125q0 -5 1 -16.5t1 -16.5q105 -13 105 -59q0 -37 -43 -37q-51 0 -84 55q-131 -19 -264 -91
q-124 -67 -205 -154q369 15 664.5 171.5t295.5 333.5zM1155 1065q0 15 -47 18q19 -26 37 -26q10 0 10 8zM1106 1298q-284 146 -569 146q-206 0 -350 -94q-140 -90 -140 -211q0 -119 110 -204q101 -77 249 -95q82 112 247 192q186 89 396 92q0 96 57 174zM1243 768
q0 70 -82 70q-75 0 -179 -58q-107 -59 -187 -147q-143 -156 -211 -330q55 -18 118 -18q181 0 347 147q87 78 141 174q53 93 53 162z" />
    <glyph glyph-name="Iacute" unicode="&#xcd;" horiz-adv-x="1139" 
d="M1903 1704q0 -19 -33 -39l-113 -68q-11 -8 -28 -8q-15 0 -15 10q0 9 19 23l100 76q30 22 49 22q21 0 21 -16zM1956 1503q0 -27 -25.5 -46t-64.5 -19q-23 0 -94 16q-134 -106 -213 -192q92 -65 92 -181q0 -137 -112 -235t-265 -98q-19 0 -47 2q-126 -222 -364 -363
q-247 -145 -519 -145q-215 0 -348 93t-133 238q0 139 129.5 236.5t308.5 97.5q233 0 447 -200q43 -41 43 -62q0 -22 -19 -22q-8 0 -37 30q-202 215 -434 215q-160 0 -277.5 -86.5t-117.5 -206.5q0 -114 89 -186t232 -72q442 0 869 469q-142 73 -142 254q0 190 186 341
q183 149 404 149q87 0 223 -31q82 47 123 47q66 0 66 -43zM1915 1497q0 12 -27 12q-25 0 -65 -22q34 -6 59 -6q33 0 33 16zM1718 1466q-89 19 -170 19q-219 0 -383 -136t-164 -313q0 -154 125 -217q106 119 207 253q106 139 137 175q-8 2 -22 2q-48 0 -95 -32.5t-69 -79.5
q-11 -23 -24 -23q-19 0 -19 21q0 51 80 107q75 52 129 52q12 0 57 -8q90 93 211 180zM1604 1077q0 102 -76 148q-107 -130 -211 -322q-19 -35 -64 -115q150 0 250.5 81.5t100.5 207.5z" />
    <glyph glyph-name="Icircumflex" unicode="&#xce;" horiz-adv-x="1139" 
d="M1853 1610q0 -21 -10 -21q-9 0 -16 21l-31 92l-162 -105q-9 -6 -16 -6q-10 0 -10 8q0 7 8 15l129 100q37 29 61 29t31 -39zM1956 1503q0 -27 -25.5 -46t-64.5 -19q-23 0 -94 16q-134 -106 -213 -192q92 -65 92 -181q0 -137 -112 -235t-265 -98q-19 0 -47 2
q-126 -222 -364 -363q-247 -145 -519 -145q-215 0 -348 93t-133 238q0 139 129.5 236.5t308.5 97.5q233 0 447 -200q43 -41 43 -62q0 -22 -19 -22q-8 0 -37 30q-202 215 -434 215q-160 0 -277.5 -86.5t-117.5 -206.5q0 -114 89 -186t232 -72q442 0 869 469q-142 73 -142 254
q0 190 186 341q183 149 404 149q87 0 223 -31q82 47 123 47q66 0 66 -43zM1915 1497q0 12 -27 12q-25 0 -65 -22q34 -6 59 -6q33 0 33 16zM1718 1466q-89 19 -170 19q-219 0 -383 -136t-164 -313q0 -154 125 -217q106 119 207 253q106 139 137 175q-8 2 -22 2
q-48 0 -95 -32.5t-69 -79.5q-11 -23 -24 -23q-19 0 -19 21q0 51 80 107q75 52 129 52q12 0 57 -8q90 93 211 180zM1604 1077q0 102 -76 148q-107 -130 -211 -322q-19 -35 -64 -115q150 0 250.5 81.5t100.5 207.5z" />
    <glyph glyph-name="Idieresis" unicode="&#xcf;" horiz-adv-x="1139" 
d="M1864 1667q0 -41 -52 -41q-28 0 -28 27q0 43 49 43q31 0 31 -29zM1692 1669q0 -16 -17 -29.5t-35 -13.5q-32 0 -32 29q0 43 49 43q35 0 35 -29zM1956 1503q0 -27 -25.5 -46t-64.5 -19q-23 0 -94 16q-134 -106 -213 -192q92 -65 92 -181q0 -137 -112 -235t-265 -98
q-19 0 -47 2q-126 -222 -364 -363q-247 -145 -519 -145q-215 0 -348 93t-133 238q0 139 129.5 236.5t308.5 97.5q233 0 447 -200q43 -41 43 -62q0 -22 -19 -22q-8 0 -37 30q-202 215 -434 215q-160 0 -277.5 -86.5t-117.5 -206.5q0 -114 89 -186t232 -72q442 0 869 469
q-142 73 -142 254q0 190 186 341q183 149 404 149q87 0 223 -31q82 47 123 47q66 0 66 -43zM1915 1497q0 12 -27 12q-25 0 -65 -22q34 -6 59 -6q33 0 33 16zM1718 1466q-89 19 -170 19q-219 0 -383 -136t-164 -313q0 -154 125 -217q106 119 207 253q106 139 137 175
q-8 2 -22 2q-48 0 -95 -32.5t-69 -79.5q-11 -23 -24 -23q-19 0 -19 21q0 51 80 107q75 52 129 52q12 0 57 -8q90 93 211 180zM1604 1077q0 102 -76 148q-107 -130 -211 -322q-19 -35 -64 -115q150 0 250.5 81.5t100.5 207.5z" />
    <glyph glyph-name="Igrave" unicode="&#xcc;" horiz-adv-x="1139" 
d="M1780 1597q0 -8 -11 -8q-6 0 -26 10l-103 54q-51 26 -51 45q0 24 25 24q11 0 43 -24l112 -86q11 -10 11 -15zM1956 1511q0 -26 -25.5 -45.5t-64.5 -19.5q-23 0 -94 16q-134 -106 -213 -192q92 -65 92 -180q0 -138 -112 -236t-265 -98q-19 0 -47 2q-126 -222 -364 -362
q-247 -146 -519 -146q-215 0 -348 93t-133 239q0 138 129.5 235.5t308.5 97.5q233 0 447 -200q43 -41 43 -62q0 -22 -19 -22q-8 0 -37 31q-202 215 -434 215q-160 0 -277.5 -87t-117.5 -206q0 -115 89 -186.5t232 -71.5q442 0 869 469q-142 72 -142 254q0 189 186 340
q183 149 404 149q87 0 223 -31q82 47 123 47q66 0 66 -43zM1915 1505q0 13 -27 13q-25 0 -65 -23q34 -6 59 -6q33 0 33 16zM1718 1475q-89 18 -170 18q-219 0 -383 -136t-164 -313q0 -154 125 -217q106 120 207 253q106 139 137 175q-8 2 -22 2q-48 0 -95 -32.5t-69 -79.5
q-11 -23 -24 -23q-19 0 -19 21q0 52 80 107q75 53 129 53q12 0 57 -9q90 94 211 181zM1604 1085q0 102 -76 148q-107 -130 -211 -322q-19 -35 -64 -114q150 0 250.5 81t100.5 207z" />
    <glyph glyph-name="Oacute" unicode="&#xd3;" horiz-adv-x="872" 
d="M1458 1704q0 -19 -33 -39l-112 -68q-11 -8 -29 -8q-14 0 -14 10q0 9 18 23l101 76q29 22 49 22t20 -16zM1444 1317q0 -179 -248 -350q0 -4 2 -19.5t2 -19.5q0 -202 -258 -443q-262 -243 -489 -243q-4 0 -41 4v-27q0 -151 37 -285q2 -7 2 -16q0 -18 -19 -18q-21 0 -35 69
q-30 152 -30 262v27q-179 72 -179 281q0 316 342 618q172 152 371 242t361 90q78 0 130 -52.5t52 -119.5zM1399 1319q0 52 -35.5 90.5t-89.5 38.5q-174 0 -415 -178q-224 -166 -389 -395q-173 -239 -173 -404q0 -93 74 -149q28 294 222 538q200 252 427 252q50 0 97 -28.5
t65 -73.5q97 56 157 139.5t60 169.5zM1153 948q-141 -57 -223 -57q-29 0 -29 20q0 16 62 25q83 13 180 55q-33 80 -129 80q-205 0 -401 -258q-193 -254 -199 -516q30 -10 51 -10q214 0 453 234q235 231 235 427z" />
    <glyph glyph-name="Ocircumflex" unicode="&#xd4;" horiz-adv-x="872" 
d="M1427 1610q0 -21 -10 -21q-9 0 -16 21l-31 92l-162 -105q-9 -6 -16 -6q-10 0 -10 8q0 7 8 15l129 100q37 29 61 29t31 -39zM1444 1317q0 -179 -248 -350q0 -4 2 -19.5t2 -19.5q0 -202 -258 -443q-262 -243 -489 -243q-4 0 -41 4v-27q0 -151 37 -285q2 -7 2 -16
q0 -18 -19 -18q-21 0 -35 69q-30 152 -30 262v27q-179 72 -179 281q0 316 342 618q172 152 371 242t361 90q78 0 130 -52.5t52 -119.5zM1399 1319q0 52 -35.5 90.5t-89.5 38.5q-174 0 -415 -178q-224 -166 -389 -395q-173 -239 -173 -404q0 -93 74 -149q28 294 222 538
q200 252 427 252q50 0 97 -28.5t65 -73.5q97 56 157 139.5t60 169.5zM1153 948q-141 -57 -223 -57q-29 0 -29 20q0 16 62 25q83 13 180 55q-33 80 -129 80q-205 0 -401 -258q-193 -254 -199 -516q30 -10 51 -10q214 0 453 234q235 231 235 427z" />
    <glyph glyph-name="Ograve" unicode="&#xd2;" horiz-adv-x="872" 
d="M1370 1597q0 -8 -10 -8q-7 0 -27 10l-102 54q-51 26 -51 45q0 24 24 24q11 0 43 -24l113 -86q10 -10 10 -15zM1444 1317q0 -179 -248 -350q0 -4 2 -19.5t2 -19.5q0 -202 -258 -443q-262 -243 -489 -243q-4 0 -41 4v-27q0 -151 37 -285q2 -7 2 -16q0 -18 -19 -18
q-21 0 -35 69q-30 152 -30 262v27q-179 72 -179 281q0 316 342 618q172 152 371 242t361 90q78 0 130 -52.5t52 -119.5zM1399 1319q0 52 -35.5 90.5t-89.5 38.5q-174 0 -415 -178q-224 -166 -389 -395q-173 -239 -173 -404q0 -93 74 -149q28 294 222 538q200 252 427 252
q50 0 97 -28.5t65 -73.5q97 56 157 139.5t60 169.5zM1153 948q-141 -57 -223 -57q-29 0 -29 20q0 16 62 25q83 13 180 55q-33 80 -129 80q-205 0 -401 -258q-193 -254 -199 -516q30 -10 51 -10q214 0 453 234q235 231 235 427z" />
    <glyph glyph-name="Uacute" unicode="&#xda;" horiz-adv-x="1442" 
d="M1692 1602q0 -20 -33 -39l-113 -68q-11 -8 -28 -8q-15 0 -15 10q0 9 19 23l100 75q30 23 49 23q21 0 21 -16zM1829 1237q0 -23 -43 -72q-150 -171 -369 -459q-250 -330 -250 -378q0 -31 39 -31q138 0 334 205q10 12 23 12q14 0 14 -12q0 -23 -127 -128
q-146 -120 -250 -120q-127 0 -127 115q0 37 10 75q-234 -202 -360 -202q-63 0 -106 39q-46 41 -46 106q0 109 152 260q242 241 332 367q110 153 110 280q0 95 -83.5 151t-219.5 56q-294 0 -545 -162t-251 -354q0 -88 61 -143.5t152 -55.5q171 0 337 151q171 155 177 335
q1 53 20 53q23 0 23 -31q0 -193 -176 -368q-178 -178 -384 -178q-105 0 -177 67t-72 174q0 206 263.5 378.5t569.5 172.5q354 0 354 -297q0 -240 -364 -610q-141 -143 -148 -151q-61 -69 -61 -113q0 -76 86 -76q110 0 283 149q139 121 272 293l221 287q153 197 162 207
q34 37 88 37q76 0 76 -29z" />
    <glyph glyph-name="Ucircumflex" unicode="&#xdb;" horiz-adv-x="1442" 
d="M1673 1507q0 -20 -10 -20t-16 20l-31 92l-162 -104q-9 -6 -16 -6q-11 0 -11 8q0 6 9 14l129 101q37 28 61 28t31 -38zM1829 1237q0 -23 -43 -72q-150 -171 -369 -459q-250 -330 -250 -378q0 -31 39 -31q138 0 334 205q10 12 23 12q14 0 14 -12q0 -23 -127 -128
q-146 -120 -250 -120q-127 0 -127 115q0 37 10 75q-234 -202 -360 -202q-63 0 -106 39q-46 41 -46 106q0 109 152 260q242 241 332 367q110 153 110 280q0 95 -83.5 151t-219.5 56q-294 0 -545 -162t-251 -354q0 -88 61 -143.5t152 -55.5q171 0 337 151q171 155 177 335
q1 53 20 53q23 0 23 -31q0 -193 -176 -368q-178 -178 -384 -178q-105 0 -177 67t-72 174q0 206 263.5 378.5t569.5 172.5q354 0 354 -297q0 -240 -364 -610q-141 -143 -148 -151q-61 -69 -61 -113q0 -76 86 -76q110 0 283 149q139 121 272 293l221 287q153 197 162 207
q34 37 88 37q76 0 76 -29z" />
    <glyph glyph-name="Ugrave" unicode="&#xd9;" horiz-adv-x="1442" 
d="M1608 1495q0 -8 -11 -8q-6 0 -26 10l-103 53q-51 27 -51 45q0 25 25 25q11 0 43 -25l112 -86q11 -10 11 -14zM1829 1237q0 -23 -43 -72q-150 -171 -369 -459q-250 -330 -250 -378q0 -31 39 -31q138 0 334 205q10 12 23 12q14 0 14 -12q0 -23 -127 -128
q-146 -120 -250 -120q-127 0 -127 115q0 37 10 75q-234 -202 -360 -202q-63 0 -106 39q-46 41 -46 106q0 109 152 260q242 241 332 367q110 153 110 280q0 95 -83.5 151t-219.5 56q-294 0 -545 -162t-251 -354q0 -88 61 -143.5t152 -55.5q171 0 337 151q171 155 177 335
q1 53 20 53q23 0 23 -31q0 -193 -176 -368q-178 -178 -384 -178q-105 0 -177 67t-72 174q0 206 263.5 378.5t569.5 172.5q354 0 354 -297q0 -240 -364 -610q-141 -143 -148 -151q-61 -69 -61 -113q0 -76 86 -76q110 0 283 149q139 121 272 293l221 287q153 197 162 207
q34 37 88 37q76 0 76 -29z" />
    <glyph glyph-name="circumflex" unicode="&#x2c6;" horiz-adv-x="410" 
d="M469 682q0 -18 -10 -18t-17 20l-30 92l-162 -104q-10 -6 -17 -6q-10 0 -10 8t8 14l129 100q37 29 62 29q24 0 31 -39l12 -71q4 -24 4 -25z" />
    <glyph glyph-name="tilde" unicode="&#x2dc;" horiz-adv-x="410" 
d="M471 760q-16 -62 -68 -62q-16 0 -48.5 16.5t-37.5 16.5q-14 0 -34 -33l-19 15q29 57 60 57q15 0 43 -15.5t41 -15.5q18 0 49 31z" />
    <glyph glyph-name="macron" unicode="&#xaf;" horiz-adv-x="532" 
d="M545 762l-27 -29h-299l27 29h299z" />
    <glyph glyph-name="macron" unicode="&#x2c9;" horiz-adv-x="532" 
d="M545 762l-27 -29h-299l27 29h299z" />
    <glyph glyph-name="cedilla" unicode="&#xb8;" horiz-adv-x="410" 
d="M90 160q0 -69 -190 -86l-2 22q145 15 145 51q0 19 -31 19h-32l65 82l27 -4l-37 -49q55 -10 55 -35z" />
    <glyph glyph-name="Scaron" unicode="&#x160;" horiz-adv-x="985" 
d="M2173 1731q0 -7 -8 -15l-129 -100q-37 -29 -62 -29q-24 0 -30 39l-17 94q0 21 10 21t17 -21l31 -92l161 105q10 6 17 6q10 0 10 -8zM2101 1423q0 -200 -308 -403q-293 -193 -607 -232q-148 -275 -304 -399q-186 -147 -452 -147q-197 0 -314.5 84.5t-117.5 218.5
q0 117 108 205t256 88q124 0 263 -68q55 -27 124 -79q78 -59 78 -83q0 -18 -20 -18q-14 0 -27 14q-76 85 -188.5 137t-220.5 52q-135 0 -231.5 -75t-96.5 -177q0 -104 84 -168t219 -64q192 0 355 114q156 108 319 345q-82 -4 -107 -4q-259 0 -427 113q-173 115 -173 303
q0 155 151 270q156 119 380 119q172 0 351 -62t302 -164q247 216 434 216q77 0 123.5 -37.5t46.5 -98.5zM2058 1421q0 97 -135 97q-148 0 -391 -207q84 -77 84 -97q0 -18 -17 -18q-14 0 -40 29q-30 32 -58 55q-91 -97 -144 -181q-43 -67 -145 -263q280 37 555 216
q291 189 291 369zM1464 1315q-268 211 -614 211q-196 0 -338 -96q-147 -99 -147 -246q0 -167 156 -273q153 -104 388 -104q63 0 140 6q188 289 415 502z" />
    <glyph glyph-name="scaron" unicode="&#x161;" 
d="M551 498q0 -17 -131 -111q-191 -137 -326 -137q-117 0 -117 80q0 47 60 108l170 176q0 37 24 37l17 -4q13 10 29 19q-8 7 -13 34l-16 95q0 20 10 20t16 -20l31 -93l162 105q9 6 16 6q11 0 11 -8q0 -6 -9 -14l-127 -100q11 -3 11 -15q0 -19 -37 -35q-27 -12 -47 -27
q43 -59 43 -122q0 -76 -39 -144q158 87 211 139q24 25 39 25q12 0 12 -14zM268 532q0 22 -14 48l-49 -52q-118 -122 -138 -147q-24 -29 -24 -53q0 -39 80 -39q145 105 145 243z" />
    <glyph glyph-name="brokenbar" unicode="&#xa6;" horiz-adv-x="512" 
d="M289 666h-66v716h66v-716zM289 -358h-66v716h66v-716z" />
    <glyph glyph-name="Eth" unicode="&#xd0;" horiz-adv-x="1593" 
d="M2488 1434q0 -17 -16 -17q-12 0 -70 29q-102 51 -229 51q-207 0 -428 -141q63 -106 63 -221q0 -147 -67 -311q-74 -180 -207 -322q-239 -256 -547 -256q-99 0 -248 43q-150 -47 -336 -47q-168 0 -279 28q-116 30 -116 78q0 80 234 80q140 0 354 -57q96 31 216 100h-226
l39 39h244q170 123 385 391q159 199 187 232q126 145 240 231q-118 133 -344 133q-339 0 -596 -184q-123 -89 -194.5 -204t-71.5 -228q0 -117 63 -184q60 -64 158 -64q102 0 214 64q120 68 188 177q116 189 116 439q0 22 15 22q20 0 20 -73q0 -261 -148 -456
q-160 -210 -403 -210q-114 0 -187 74q-77 79 -77 213q0 249 269 449q276 206 640 206q235 0 375 -147q228 149 453 149q144 0 244 -55q73 -41 73 -51zM1767 1137q0 92 -59 192q-87 -73 -183 -214q-22 -32 -158 -253q-147 -237 -266 -352h238l-39 -39h-241
q-114 -98 -254 -158q115 -32 178 -32q291 0 537.5 270t246.5 586zM516 344q-186 41 -295 41q-174 0 -174 -39q0 -20 63.5 -35.5t137.5 -15.5q102 0 268 49z" />
    <glyph glyph-name="eth" unicode="&#xf0;" 
d="M626 866l-123 -37q-3 -112 -46 -233q-58 -162 -164 -260q-93 -86 -187 -86q-41 0 -68.5 25t-27.5 65q0 92 108 185t206 93q30 0 43 -34q54 79 80 233l-114 -32l-9 37l129 37q0 10 2 51q2 31 2 51q0 14 -3 46t-3 44q0 26 18 26q15 0 20 -20q20 -72 17 -186l108 33z
M340 567q0 15 -14 15q-41 0 -138 -136q-92 -128 -92 -145q0 -12 15 -12q58 0 147 125q82 115 82 153z" />
    <glyph glyph-name="Yacute" unicode="&#xdd;" horiz-adv-x="1251" 
d="M1706 1602q0 -20 -33 -39l-112 -68q-11 -8 -29 -8q-14 0 -14 10q0 9 18 23l100 75q30 23 50 23t20 -16zM1798 1128l-559 -710q-240 -306 -330 -398q60 -34 150 -115q104 -95 104 -134q0 -19 -16 -19q-10 0 -37 33q-102 124 -233 203q-428 -455 -883 -455
q-168 0 -281.5 64.5t-113.5 160.5q0 155 224.5 272t524.5 117q225 0 430 -69q72 84 168 211q-92 -47 -172 -47q-184 0 -184 147q0 111 151 260q233 229 328 361q115 159 115 286q0 95 -83 151t-220 56q-294 0 -545.5 -162t-251.5 -354q0 -88 61 -143.5t152 -55.5
q179 0 346 156t168 330q0 53 23 53q20 0 20 -31q0 -200 -175.5 -373t-381.5 -173q-106 0 -177 66q-75 69 -75 175q0 206 265 379q262 172 569 172q354 0 354 -297q0 -170 -149 -369q-69 -92 -276 -301q-149 -151 -149 -204q0 -80 123 -80q100 0 184.5 64.5t237.5 258.5
l406 514h188zM750 43q-185 61 -408 61q-284 0 -494 -107q-204 -105 -204 -241q0 -80 93.5 -128t239.5 -48q222 0 401 109q177 106 372 354z" />
    <glyph glyph-name="yacute" unicode="&#xfd;" horiz-adv-x="494" 
d="M535 778q0 -19 -33 -39l-113 -67q-11 -8 -29 -8q-14 0 -14 10q0 8 19 22l100 76q30 23 49 23q21 0 21 -17zM649 518q0 -10 -16 -24q-167 -149 -414 -283l-323 -426q-100 -131 -161 -178q-52 -39 -108 -39q-55 0 -55 59q0 97 179 292q173 188 384 331l19 26
q-46 -26 -80 -26q-84 0 -84 78q0 47 47 108l121 158h141l-195 -264q-12 -17 -12 -25q0 -12 12 -12q30 0 129 101q95 96 173 200h131l-220 -270q142 67 285 186q25 20 33 20q14 0 14 -12zM57 139q-177 -130 -315 -288q-133 -154 -133 -220q0 -24 22 -24q28 0 89.5 61
t113.5 139z" />
    <glyph glyph-name="Thorn" unicode="&#xde;" horiz-adv-x="1171" 
d="M2091 1427q0 -14 -18 -14q-13 0 -29 14q-97 86 -303 86q-152 0 -336 -153q-48 -40 -119 -139q48 -28 87 -105q42 -82 42 -164q0 -200 -153 -347.5t-355 -147.5q-44 0 -98 14q-120 -115 -293 -176q-152 -53 -307 -53q-224 0 -361 79q-120 71 -120 164q0 105 61 177
q75 88 217 88q55 0 77.5 -11.5t22.5 -25.5q0 -17 -20 -17q-1 0 -27.5 5.5t-54.5 5.5q-101 0 -164 -60.5t-63 -159.5q0 -72 100 -130q106 -62 258 -62q269 0 543 240q-64 44 -64 77q0 19 15 19q5 0 24 -27q16 -22 60 -41q48 38 129 133q31 37 179 269q142 223 179 261
q-35 26 -112 47q-86 24 -167 24q-292 0 -507 -131q-222 -136 -222 -332q0 -72 59.5 -126t143.5 -54q193 0 308 140q106 129 106 325q0 32 -6 57t-6 31q0 15 14 15q41 0 41 -123q0 -202 -121 -340q-126 -144 -328 -144q-122 0 -194 71q-64 63 -64 153q0 207 226 354t553 147
q194 0 305 -78q61 71 137 129q104 78 140 98q117 65 243 65q98 0 213 -36q129 -41 129 -91zM1368 950q0 67 -37 140q-30 60 -65 90q-20 -23 -131.5 -252t-156.5 -283.5t-128 -142.5q29 -6 55 -6q181 0 322 137.5t141 316.5z" />
    <glyph glyph-name="thorn" unicode="&#xfe;" horiz-adv-x="530" 
d="M690 518q0 -8 -18 -24q-273 -248 -432 -248q-48 0 -76 25q-25 21 -25 51q0 51 41 51q39 0 39 -39q0 -25 -20 -41q55 5 131 100q63 79 63 135q0 27 -16 27q-34 0 -136 -81q-99 -77 -135 -126l-417 -565h-140l1037 1341h102l-459 -606q126 92 174 92q78 0 78 -100
q0 -42 -38 -104.5t-85 -94.5q68 16 285 199q24 20 33 20q14 0 14 -12z" />
    <glyph glyph-name="minus" unicode="&#x2212;" horiz-adv-x="1024" 
d="M903 504h-557v65h557v-65z" />
    <glyph glyph-name="multiply" unicode="&#xd7;" horiz-adv-x="1024" 
d="M865 335l-43 -43l-197 198l-198 -198l-43 43l198 197l-198 198l43 43l198 -198l197 198l43 -43l-197 -198z" />
    <glyph glyph-name="onesuperior" unicode="&#xb9;" horiz-adv-x="645" 
d="M838 1069q0 -6 -15.5 -17.5t-31.5 -33.5q-40 -53 -126 -183q-52 -78 -118 -151q-88 -96 -258 -96q-53 0 -53 16q0 17 43 17q166 0 376 299q-38 -31 -76 -61q-32 -23 -61 -23q-14 0 -14 8t37 26q55 28 155 125q85 82 129 82q13 0 13 -8z" />
    <glyph glyph-name="twosuperior" unicode="&#xb2;" horiz-adv-x="645" 
d="M801 1036q0 -125 -213 -241l-185 -101q-30 -16 -53 -37q29 11 60 11q34 0 77 -15.5t50 -15.5q17 0 49 15.5t41 15.5q14 0 14 -13q0 -15 -48 -37q-43 -20 -58 -20q-10 0 -52 15.5t-73 15.5q-36 0 -66 -15q-39 -18 -51 -18q-17 0 -17 16q0 43 73 106q52 45 106 75
q69 35 138 71q88 48 138 92q33 30 33 72q0 39 -41 39q-50 0 -118 -42t-70 -81q-2 -26 28 -26q40 0 80 57q25 35 31 35q8 0 8 -15q0 -36 -47.5 -72t-81.5 -36q-53 0 -53 47q0 51 81 108.5t150 57.5q70 0 70 -64z" />
    <glyph glyph-name="threesuperior" unicode="&#xb3;" horiz-adv-x="645" 
d="M770 1016q0 -85 -117 -150q29 -36 29 -80q0 -72 -77 -134q-81 -66 -185 -66q-55 0 -94 34t-39 85q0 56 49 104.5t104 48.5q36 0 61 -23t25 -55q0 -40 -28 -69t-64 -29q-20 0 -20 14q0 12 26 17q56 10 56 63t-54 53q-45 0 -86 -41.5t-41 -85.5q0 -34 29 -59t72 -25
q70 0 136 61q71 65 71 144q0 11 -5 27q-36 -8 -49 -8q-53 0 -53 37q0 28 49 28q32 0 66 -20q108 52 108 127q0 59 -71 59q-45 0 -95.5 -33t-50.5 -67q0 -31 35 -31q42 0 51 57q3 15 13 15q12 0 12 -13q0 -81 -76 -81q-63 0 -63 55q0 45 56 85t120 40q44 0 72 -24t28 -60z
M598 874q-17 11 -35 11q-16 0 -16 -8q0 -7 20 -7q21 0 31 4z" />
    <glyph glyph-name="onehalf" unicode="&#xbd;" horiz-adv-x="909" 
d="M731 1069q0 -6 -15 -17.5t-32 -33.5q-39 -53 -126 -183q-52 -78 -118 -151q-87 -96 -258 -96q-53 0 -53 16q0 17 43 17q166 0 377 299q-38 -31 -76 -61q-33 -23 -61 -23q-15 0 -15 8t37 26q55 28 156 125q84 82 129 82q12 0 12 -8zM922 1098q0 -15 -76 -117l-549 -737
q-34 -45 -45 -45q-10 0 -10 12q0 9 14 29l608 843q24 33 39 33q19 0 19 -18zM981 682q0 -126 -213 -242l-184 -100q-31 -17 -54 -37q29 10 60 10q34 0 77 -15t50 -15q18 0 49.5 15t40.5 15q14 0 14 -12q0 -15 -48 -37q-43 -20 -58 -20q-10 0 -52 15t-73 15q-36 0 -66 -14
q-38 -18 -51 -18q-16 0 -16 16q0 43 72 106q52 45 106 74l138 72q89 47 138 92q33 30 33 72q0 39 -41 39q-50 0 -118 -42.5t-70 -80.5q-2 -27 28 -27q40 0 80 58q25 34 31 34q8 0 8 -14q0 -36 -47.5 -72.5t-81.5 -36.5q-53 0 -53 48q0 51 81.5 108t149.5 57q70 0 70 -63z
" />
    <glyph glyph-name="onequarter" unicode="&#xbc;" horiz-adv-x="909" 
d="M731 1069q0 -6 -15 -17.5t-32 -33.5q-39 -53 -126 -183q-52 -78 -118 -151q-87 -96 -258 -96q-53 0 -53 16q0 17 43 17q166 0 377 299q-38 -31 -76 -61q-33 -23 -61 -23q-15 0 -15 8t37 26q55 28 156 125q84 82 129 82q12 0 12 -8zM1051 727q0 -9 -13 -20
q-55 -53 -86 -111q-38 -72 -116 -197q10 -2 22 -2q11 0 26.5 5.5t20.5 5.5q19 0 19 -9q0 -11 -26 -21.5t-54 -10.5q-15 0 -29 2q-105 -131 -256 -131q-78 0 -78 18q0 12 21 12q149 0 227 117q-68 22 -100 27q-54 -41 -94 -41q-31 0 -31 24q0 45 104 45q7 10 94 158
q18 31 57 74q48 53 70 53q11 0 11 -10q0 -8 -17 -25q-49 -51 -78 -115q-41 -90 -88 -137q45 -6 99 -22q32 36 112 149q64 91 107 125q56 45 67 45q9 0 9 -8zM928 1098q0 -15 -76 -117l-549 -737q-33 -45 -45 -45q-10 0 -10 12q0 9 14 29l608 843q24 33 39 33q19 0 19 -18z
M584 414q-49 0 -49 -15q1 -4 8 -4q19 0 41 19z" />
    <glyph glyph-name="threequarters" unicode="&#xbe;" horiz-adv-x="909" 
d="M686 1016q0 -85 -117 -150q29 -36 29 -80q0 -72 -77 -134q-81 -66 -185 -66q-55 0 -94 34t-39 85q0 56 49 104.5t104 48.5q36 0 61 -23t25 -55q0 -40 -28 -69t-64 -29q-20 0 -20 14q0 12 26 17q56 10 56 63t-54 53q-45 0 -86 -41.5t-41 -85.5q0 -34 29 -59t72 -25
q70 0 136 61q71 65 71 144q0 11 -4 27q-37 -8 -50 -8q-53 0 -53 37q0 28 49 28q32 0 66 -20q108 52 108 127q0 59 -71 59q-45 0 -95.5 -33t-50.5 -67q0 -31 35 -31q42 0 51 57q3 15 13 15q12 0 12 -13q0 -81 -76 -81q-63 0 -63 55q0 45 56 85t120 40q44 0 72 -24t28 -60z
M963 1098q0 -15 -76 -117l-549 -737q-34 -45 -45 -45q-10 0 -10 12q0 9 14 29l608 843q24 33 39 33q19 0 19 -18zM1075 727q0 -9 -12 -20q-55 -53 -86 -111q-38 -72 -117 -197q10 -2 23 -2q11 0 26.5 5.5t20.5 5.5q18 0 18 -9q0 -11 -25.5 -21.5t-54.5 -10.5q-14 0 -28 2
q-105 -131 -256 -131q-78 0 -78 18q0 12 20 12q150 0 228 117q-68 22 -101 27q-53 -41 -94 -41q-31 0 -31 24q0 45 105 45q7 10 94 158q18 31 56 74q48 53 71 53q10 0 10 -10q0 -8 -16 -25q-49 -51 -78 -115q-41 -90 -88 -137q44 -6 98 -22q33 36 113 149q64 91 106 125
q57 45 68 45q8 0 8 -8zM514 874q-17 11 -35 11q-16 0 -16 -8q0 -7 20 -7q21 0 31 4zM608 414q-49 0 -49 -15q1 -4 8 -4q20 0 41 19z" />
    <glyph glyph-name="Lslash" unicode="&#x141;" horiz-adv-x="1139" 
d="M2066 1374q0 -196 -298 -395q-285 -190 -617 -240q-45 -86 -77 -133l256 23l-44 -54l-254 -24q-147 -175 -309 -256q69 -14 98 -14q104 0 203 54q86 47 205 159q19 18 31 18t12 -10q0 -13 -19 -29q-172 -153 -237 -190q-72 -41 -178 -41q-52 0 -170 28q-153 -59 -381 -59
q-252 0 -252 98q0 76 219 76q135 0 301 -43q45 23 139 86q108 74 146 115l-249 -23l44 53l245 16q60 56 105 130q-82 -4 -106 -4q-260 0 -428 112q-172 116 -172 303q0 156 150 271q156 119 380 119q176 0 354 -62q175 -61 299 -162q245 213 434 213q77 0 123.5 -37.5
t46.5 -97.5zM2023 1372q0 96 -135 96q-163 0 -391 -206q84 -78 84 -97q0 -18 -16 -18q-15 0 -41 29q-19 20 -58 55q-90 -97 -144 -181q-43 -67 -146 -264q311 52 577 233q270 185 270 353zM1430 1266q-268 211 -615 211q-196 0 -339 -96q-148 -100 -148 -246
q0 -167 157 -273q154 -104 389 -104q63 0 140 6q188 289 416 502zM500 315q-142 35 -256 35q-172 0 -172 -41q0 -49 133 -49q150 0 295 55z" />
    <glyph glyph-name="lslash" unicode="&#x142;" horiz-adv-x="379" 
d="M1036 1368q0 -76 -112 -190q-124 -124 -462 -377l-65 -90l191 57l-38 -52l-184 -55q-219 -320 -219 -342q0 -18 13 -18q35 0 121 50q103 61 208 159q23 20 33 20q15 0 15 -12q0 -8 -19 -24q-270 -244 -375 -244q-94 0 -94 94q0 71 137 265l-120 -34l38 50l120 33
q34 57 184 241q436 537 563 537q65 0 65 -68zM999 1362q0 29 -30 29q-94 0 -355 -361l-99 -137q484 345 484 469z" />
    <glyph glyph-name="Zcaron" unicode="&#x17d;" horiz-adv-x="1139" 
d="M1485 1731q0 -7 -8 -15l-129 -100q-37 -29 -62 -29q-24 0 -31 39l-16 94q0 21 10 21t17 -21l30 -92l162 105q10 6 17 6q10 0 10 -8zM1638 1221q0 -234 -174 -417.5t-456 -252.5q22 -55 22 -107q0 -30 -2 -45q131 38 221 113q25 20 33 20q12 0 12 -12q0 -36 -105 -96
q-91 -51 -167 -74q-45 -223 -340 -463q-159 -129 -320.5 -207.5t-267.5 -78.5q-81 0 -132 34q-54 37 -54 101q0 175 317 375q172 108 693 258q34 83 34 139q0 6 -4 31q-69 -9 -90 -9q-160 0 -160 82q0 72 111 72q103 0 174 -90q205 61 377 276q176 221 176 430
q0 101 -73 161q-76 63 -212 63q-222 0 -428.5 -190t-206.5 -388q0 -78 51 -126t134 -48q133 0 250 115q122 120 147 295l4 24q6 39 21 39q20 0 20 -26q0 -184 -137.5 -336t-304.5 -152q-102 0 -165 59.5t-63 155.5q0 221 221 422t453 201q173 0 282 -98t109 -250zM930 582
q-36 61 -131 61q-54 0 -54 -33q0 -39 95 -39q42 0 90 11zM891 311q-442 -119 -647 -245q-295 -182 -295 -330q0 -40 33 -68t90 -28q182 0 428 203q243 201 391 468z" />
    <glyph glyph-name="zcaron" unicode="&#x17e;" 
d="M502 805q0 -6 -8 -14l-129 -101q-37 -28 -62 -28q-24 0 -31 38l-16 95q0 20 10 20t17 -20l30 -93l162 105q10 6 17 6q10 0 10 -8zM573 518q0 -10 -16 -24q-179 -161 -422 -326q-32 -96 -85 -172q-44 -62 -163 -189q-102 -109 -195 -174q-81 -57 -118 -57q-59 0 -59 68
q0 84 181 271q157 162 380 333q-76 0 -76 39q0 37 41 37q24 0 80 -21q127 134 127 215q0 21 -21 21q-42 0 -100 -56q-17 -16 -29 -16t-12 12q0 19 56 61q64 48 118 48q80 0 80 -103q0 -82 -117 -213l303 238q23 20 33 20q14 0 14 -12zM49 174q-183 -137 -333 -293
q-162 -169 -162 -237q0 -29 24 -29q71 0 275 274q63 81 196 285z" />
    <glyph glyph-name="DC2" horiz-adv-x="2048" 
 />
    <glyph glyph-name="notequal" unicode="&#x2260;" horiz-adv-x="1024" 
d="M903 422h-309l-80 -143h-65l79 143h-182v65h219l54 99h-273v65h310l79 144h66l-80 -144h182v-65h-218l-55 -99h273v-65z" />
    <glyph glyph-name="infinity" unicode="&#x221e;" horiz-adv-x="1460" 
 />
    <glyph glyph-name="lessequal" unicode="&#x2264;" horiz-adv-x="1124" 
 />
    <glyph glyph-name="greaterequal" unicode="&#x2265;" horiz-adv-x="1124" 
 />
    <glyph glyph-name="partialdiff" unicode="&#x2202;" horiz-adv-x="1012" 
 />
    <glyph glyph-name="summation" unicode="&#x2211;" horiz-adv-x="1460" 
 />
    <glyph glyph-name="product" unicode="&#x220f;" horiz-adv-x="1686" 
 />
    <glyph glyph-name="pi" unicode="&#x3c0;" horiz-adv-x="1124" 
 />
    <glyph glyph-name="integral" unicode="&#x222b;" horiz-adv-x="561" 
 />
    <glyph glyph-name="Omega" unicode="&#x3a9;" horiz-adv-x="1573" 
 />
    <glyph glyph-name="Omega" unicode="&#x2126;" horiz-adv-x="1573" 
 />
    <glyph glyph-name="radical" unicode="&#x221a;" horiz-adv-x="1124" 
 />
    <glyph glyph-name="approxequal" unicode="&#x2248;" horiz-adv-x="1124" 
 />
    <glyph glyph-name="approxequal" unicode="&#x22f2;" horiz-adv-x="1124" 
 />
    <glyph glyph-name="Delta" unicode="&#x394;" horiz-adv-x="1253" 
 />
    <glyph glyph-name="Delta" unicode="&#x2206;" horiz-adv-x="1253" 
 />
    <glyph glyph-name="lozenge" unicode="&#x25ca;" horiz-adv-x="1012" 
 />
    <glyph glyph-name="fraction" unicode="&#x2044;" horiz-adv-x="909" 
d="M963 1098q0 -15 -76 -117l-549 -737q-34 -45 -45 -45q-10 0 -10 12q0 9 14 29l608 843q24 33 39 33q19 0 19 -18z" />
    <glyph glyph-name="fi" unicode="&#xf001;" horiz-adv-x="616" 
d="M696 739q0 -65 -65 -65q-26 0 -45 19t-19 44q0 27 19.5 46.5t46.5 19.5q63 0 63 -64zM920 1272q0 -95 -183 -288q-176 -187 -467 -406l-194 -273q67 24 346 201l80 88h127l-185 -217q-41 -48 -41 -68q0 -12 15 -12q65 0 317 213q24 20 33 20q14 0 14 -12q0 -7 -18 -24
q-269 -248 -361 -248q-36 0 -60 27t-24 69q0 34 21 66q-16 -12 -88 -54q-56 -33 -215 -104l-334 -467h-139l510 670q675 886 790 886q56 0 56 -67zM881 1270q0 30 -23 30q-39 0 -198 -189q-162 -194 -310 -421q206 165 350 313q181 186 181 267z" />
    <glyph glyph-name="fl" unicode="&#xf002;" horiz-adv-x="616" 
d="M1335 1368q0 -73 -152 -233.5t-515 -470.5l-97 -136q-129 -181 -129 -213q0 -18 13 -18q35 0 123 52q104 62 210 161q23 20 33 20q15 0 15 -12q0 -8 -19 -24q-275 -248 -377 -248q-42 0 -68 27.5t-26 68.5q0 44 28 91q-60 -47 -122 -83q-102 -59 -215 -100l-334 -467
h-139l510 670q675 886 790 886q56 0 56 -67q0 -95 -183 -288q-176 -187 -467 -406l-194 -273q109 38 205 103q59 43 117 86q66 102 307 405q434 537 565 537q65 0 65 -68zM1298 1362q0 29 -30 29q-52 0 -136 -88q-75 -78 -219 -273l-196 -266q257 205 419 371.5t162 226.5z
M881 1270q0 30 -23 30q-39 0 -198 -189q-162 -194 -310 -421q206 165 350 313q181 186 181 267z" />
    <glyph glyph-name="apple" unicode="&#xf000;" horiz-adv-x="1618" 
 />
    <glyph glyph-name="dotlessi" unicode="&#x131;" horiz-adv-x="303" 
d="M461 518q0 -7 -19 -24q-264 -244 -358 -244q-37 0 -61.5 26.5t-24.5 65.5q0 51 61 119l121 133h127l-188 -223q-35 -42 -35 -58q0 -12 14 -12q68 0 316 209q24 20 32 20q15 0 15 -12z" />
    <glyph glyph-name="breve" unicode="&#x2d8;" horiz-adv-x="510" 
d="M578 830q-106 -155 -225 -155q-27 0 -49 18q-26 21 -26 53q0 52 21 82h22q-15 -22 -15 -55q0 -51 71 -51q90 0 179 108h22z" />
    <glyph glyph-name="dotaccent" unicode="&#x2d9;" horiz-adv-x="410" 
d="M346 743q0 -16 -14.5 -29.5t-30.5 -13.5q-29 0 -29 29q0 43 43 43q31 0 31 -29z" />
    <glyph glyph-name="ring" unicode="&#x2da;" horiz-adv-x="410" 
d="M397 745q0 -23 -20.5 -42t-44.5 -19q-43 0 -43 41q0 23 21 42t44 19q43 0 43 -41zM375 741q0 25 -25 25q-39 0 -39 -37q0 -27 25 -27q39 0 39 39z" />
    <glyph glyph-name="hungarumlaut" unicode="&#x2dd;" horiz-adv-x="410" 
d="M637 778q0 -19 -33 -39l-112 -67q-14 -8 -29 -8q-14 0 -14 10q0 8 18 22l100 76q30 23 49 23q21 0 21 -17zM473 778q0 -19 -33 -39l-112 -67q-14 -8 -29 -8q-14 0 -14 10q0 8 18 22l100 76q30 23 50 23t20 -17z" />
    <glyph glyph-name="ogonek" unicode="&#x2db;" horiz-adv-x="532" 
d="M76 245q-95 -83 -95 -127q0 -26 28 -26q20 0 53 26v-31q-41 -29 -72 -29q-42 0 -42 47q0 74 99 140h29z" />
    <glyph glyph-name="caron" unicode="&#x2c7;" horiz-adv-x="410" 
d="M469 807q0 -7 -14 -19l-123 -96q-37 -28 -62 -28q-23 0 -30 38l-15 78q-2 11 -2 21q0 16 10 16t17 -20l31 -92l161 104q10 6 17 6q10 0 10 -8z" />
    <glyph glyph-name="Euro" unicode="&#x20ac;" horiz-adv-x="1024" 
d="M1227 952q0 -35 -22.5 -60.5t-55.5 -25.5q-64 0 -64 62q0 65 62 65q2 0 20 -6q0 19 -29.5 36.5t-62.5 17.5q-49 0 -119 -25q-147 -53 -282 -166q-3 -2 -88 -91h380l-42 -38h-372q-25 -29 -51 -65h353l-42 -37l-337 -1q-76 -101 -76 -184q0 -161 136 -161q137 0 239 126
q7 8 19 32q8 13 16 13q12 0 12 -10q0 -43 -84 -113q-103 -84 -225 -84q-227 0 -227 210q0 85 52 171h-155l39 38h141q23 34 50 65h-121l38 38h119q182 189 334 260q146 69 264 69q181 0 181 -136z" />
    <glyph glyph-name="glyph241" horiz-adv-x="512" 
 />
    <glyph glyph-name="afii10019" unicode="&#x412;" horiz-adv-x="1821" 
d="M2511 1325q0 -12 -12 -12q-3 0 -56 39q-121 90 -272 90q-143 0 -291 -80q94 -105 94 -229q0 -208 -239 -310q45 -62 45 -133q0 -162 -139.5 -303t-297.5 -141q-70 0 -113.5 41.5t-43.5 113.5q0 103 92 189q123 115 217 115q23 0 23 -15q0 -17 -39 -26
q-106 -27 -179 -105.5t-73 -157.5q0 -118 114 -118q139 0 269.5 134t130.5 273q0 62 -47 119q-53 -16 -111 -16q-106 0 -106 53q0 51 96 51q74 0 133 -47q221 99 221 287q0 118 -84 202q-170 -107 -315 -313q-76 -123 -252 -367q-165 -197 -369 -308q-200 -109 -391 -109
q-203 0 -353.5 97.5t-150.5 229.5q0 115 118.5 199t295.5 84q141 0 268 -66q55 -28 122 -82q77 -62 77 -90q0 -16 -14 -16q-9 0 -29 23q-170 194 -430 194q-154 0 -259 -69q-108 -70 -108 -177q0 -104 108 -171q105 -66 261 -66q438 0 911 565q176 211 246 281
q98 99 231 188q-131 92 -329 92q-260 0 -506 -154q-256 -160 -256 -348q0 -79 51 -127.5t141 -48.5q204 0 345 149q109 116 137 257q22 112 43 112q14 0 14 -18q0 -8 -8 -53q-36 -196 -166 -324q-166 -162 -373 -162q-100 0 -164 64q-59 60 -59 145q0 194 250.5 368.5
t542.5 174.5q226 0 374 -104q161 88 316 88q100 0 198 -41q55 -23 104 -60q46 -35 46 -51zM1663 836q-44 26 -90 26q-55 0 -55 -16q0 -19 61 -19q35 0 84 9z" />
    <glyph glyph-name="afii10020" unicode="&#x413;" horiz-adv-x="1100" 
d="M2509 1536q0 -30 -152 -54q-145 -24 -301 -24q-106 0 -360 26.5t-353 26.5q-264 0 -480 -134q-222 -139 -222 -322q0 -81 57 -134t146 -53q165 0 288 132t123 313q0 92 19 92q24 0 24 -92q0 -190 -131 -336q-135 -150 -319 -150q-104 0 -176 67t-72 163q0 92 66.5 191
t177.5 169q213 135 526 135q108 0 325 -26.5t369 -26.5q241 0 390 45q20 6 36 6q19 0 19 -14zM1798 1436q0 -13 -26 -37q-157 -144 -316 -404q-261 -426 -448 -580q-211 -173 -514 -173q-200 0 -346 92q-152 97 -152 237q0 123 136 215.5t321 92.5q130 0 249 -50
q65 -26 121 -64.5t56 -57.5t-17 -19q-9 0 -33 21q-152 131 -383 131q-167 0 -286 -79.5t-119 -187.5q0 -101 100 -165q105 -68 279 -68q265 0 518 178q120 84 216 194q67 76 251 320q200 266 281 338q89 80 96 80q16 0 16 -14z" />
    <glyph glyph-name="afii10021" unicode="&#x414;" horiz-adv-x="1593" 
d="M2488 1434q0 -17 -16 -17q-12 0 -70 29q-102 51 -229 51q-207 0 -428 -141q63 -106 63 -221q0 -147 -67 -311q-74 -180 -207 -322q-239 -256 -547 -256q-99 0 -248 43q-150 -47 -336 -47q-168 0 -279 28q-116 30 -116 78q0 80 234 80q140 0 354 -57q245 89 440 280
q83 81 307 364q184 232 338 349q-118 133 -344 133q-326 0 -618 -217q-260 -194 -260 -440q0 -117 63 -184q60 -64 158 -64q217 0 397 237q137 182 137 484q0 22 15 22q20 0 20 -73q0 -263 -157 -477q-169 -230 -410 -230q-115 0 -187 74q-77 79 -77 213q0 252 277 470
q287 226 648 226q235 0 375 -147q228 149 453 149q144 0 244 -55q73 -41 73 -51zM1767 1137q0 92 -59 192q-122 -103 -262 -335q-177 -292 -248 -380q-166 -204 -393 -301q115 -32 178 -32q291 0 537.5 270t246.5 586zM516 344q-186 41 -295 41q-174 0 -174 -39
q0 -20 63.5 -35.5t137.5 -15.5q102 0 268 49z" />
    <glyph glyph-name="afii10022" unicode="&#x415;" horiz-adv-x="1174" 
d="M1597 1341q0 -188 -319 -361q-326 -176 -717 -185q-127 -163 -127 -301q0 -126 111 -177q36 97 127 230q98 143 240.5 236.5t261.5 93.5q112 0 112 -105q0 -189 -198 -362q-193 -168 -386 -168q-57 0 -135 18q-49 -137 -59 -254q-6 -65 -23 -65q-16 0 -16 22
q0 123 59 309q-97 35 -154 115q-61 83 -61 197q0 105 68 221q-162 26 -264 111q-109 92 -109 221q0 138 148 239q158 107 399 107q287 0 575 -154q151 154 312 154q66 0 110.5 -40t44.5 -102zM1556 1341q0 97 -110 97q-146 0 -279 -129q18 -12 64.5 -44t50.5 -34
q29 -19 29 -33t-13 -14q-8 0 -24 12q-95 71 -133 84q-56 -76 -56 -125q0 -5 1 -16.5t1 -16.5q105 -13 105 -59q0 -37 -43 -37q-51 0 -84 55q-131 -19 -264 -91q-124 -67 -205 -154q369 15 664.5 171.5t295.5 333.5zM1155 1065q0 15 -47 18q19 -26 37 -26q10 0 10 8z
M1106 1298q-284 146 -569 146q-206 0 -350 -94q-140 -90 -140 -211q0 -119 110 -204q101 -77 249 -95q82 112 247 192q186 89 396 92q0 96 57 174zM1243 768q0 70 -82 70q-75 0 -179 -58q-107 -59 -187 -147q-143 -156 -211 -330q55 -18 118 -18q181 0 347 147
q87 78 141 174q53 93 53 162z" />
    <glyph glyph-name="afii10025" unicode="&#x417;" horiz-adv-x="1139" 
d="M1638 1221q0 -234 -174 -417.5t-456 -252.5q22 -55 22 -107q0 -30 -2 -45q131 38 221 113q25 20 33 20q12 0 12 -12q0 -36 -105 -96q-91 -51 -167 -74q-45 -223 -340 -463q-159 -129 -320.5 -207.5t-267.5 -78.5q-81 0 -132 34q-54 37 -54 101q0 175 317 375
q172 108 693 258q34 83 34 139q0 6 -4 31q-69 -9 -90 -9q-160 0 -160 82q0 72 111 72q103 0 174 -90q205 61 377 276q176 221 176 430q0 101 -73 161q-76 63 -212 63q-222 0 -428.5 -190t-206.5 -388q0 -78 51 -126t134 -48q133 0 250 115q122 120 147 295l4 24q6 39 21 39
q20 0 20 -26q0 -184 -137.5 -336t-304.5 -152q-102 0 -165 59.5t-63 155.5q0 221 221 422t453 201q173 0 282 -98t109 -250zM930 582q-36 61 -131 61q-54 0 -54 -33q0 -39 95 -39q42 0 90 11zM891 311q-442 -119 -647 -245q-295 -182 -295 -330q0 -40 33 -68t90 -28
q182 0 428 203q243 201 391 468z" />
    <glyph glyph-name="afii10026" unicode="&#x418;" horiz-adv-x="1442" 
d="M1860 1268l-560 -711q-133 -169 -133 -229q0 -31 39 -31q86 0 186 75q3 2 153 135q8 7 18 7q14 0 14 -12q0 -23 -127 -128q-146 -120 -250 -120q-127 0 -127 115q0 37 10 75q-234 -202 -360 -202q-63 0 -106 39q-46 41 -46 106q0 109 152 260q242 241 332 367
q110 153 110 280q0 95 -83.5 151t-219.5 56q-294 0 -545 -162t-251 -354q0 -88 61 -143.5t152 -55.5q171 0 337 151q171 155 177 335q1 53 20 53q23 0 23 -31q0 -193 -176 -368q-178 -178 -384 -178q-105 0 -177 67t-72 174q0 206 263.5 378.5t569.5 172.5q354 0 354 -297
q0 -240 -364 -610q-141 -143 -148 -151q-61 -69 -61 -113q0 -76 86 -76q110 0 283 149q140 121 272 293l410 533h168z" />
    <glyph glyph-name="afii10027" unicode="&#x419;" horiz-adv-x="1442" 
d="M1860 1268l-560 -711q-133 -169 -133 -229q0 -31 39 -31q86 0 186 75q3 2 153 135q8 7 18 7q14 0 14 -12q0 -23 -127 -128q-146 -120 -250 -120q-127 0 -127 115q0 37 10 75q-234 -202 -360 -202q-63 0 -106 39q-46 41 -46 106q0 109 152 260q242 241 332 367
q110 153 110 280q0 95 -83.5 151t-219.5 56q-294 0 -545 -162t-251 -354q0 -88 61 -143.5t152 -55.5q171 0 337 151q171 155 177 335q1 53 20 53q23 0 23 -31q0 -193 -176 -368q-178 -178 -384 -178q-105 0 -177 67t-72 174q0 206 263.5 378.5t569.5 172.5q354 0 354 -297
q0 -240 -364 -610q-141 -143 -148 -151q-61 -69 -61 -113q0 -76 86 -76q110 0 283 149q140 121 272 293l410 533h168zM1402 1532q0 -5 -5 46q-3 33 7 59q15 37 55 46q66 0 66 -55q0 -39 -19 -63q-13 -14 -55 -36q17 -43 82 -51q90 -11 204 75q37 29 63 51t45 36q28 29 40 29
t12 -9q0 -13 -36 -49q-33 -29 -59 -52t-48 -39q-105 -83 -224 -80q-101 4 -128 92z" />
    <glyph glyph-name="afii10028" unicode="&#x41a;" horiz-adv-x="1403" 
d="M2636 1477q0 -17 -19 -17q3 0 -66 22.5t-157 22.5q-186 0 -355 -108q-165 -106 -368 -353q-149 -180 -282 -233q22 -51 22 -123q0 -160 -182 -471q-135 -230 -135 -338q0 -99 80 -171q83 -75 202 -75q144 0 268 130q128 133 128 296q0 65 -41 107.5t-107 42.5
q-122 0 -229 -139q-102 -131 -105 -263q0 -30 -16 -30q-21 0 -21 37q0 146 113 286q118 146 258 146q83 0 134.5 -54t51.5 -139q0 -181 -135.5 -320t-306.5 -139q-153 0 -250.5 105.5t-97.5 267.5q0 160 115 332q215 323 215 455q0 18 -7 43q-51 -13 -112 -13
q-114 -240 -310 -388q-205 -154 -432 -154q-200 0 -341 106q-134 102 -134 232q0 125 122 212t306 87q146 0 273 -58q47 -21 109 -67q73 -55 73 -82q0 -13 -12 -13q-9 0 -49 37q-158 144 -394 144q-164 0 -274.5 -75.5t-110.5 -184.5q0 -110 90.5 -185.5t219.5 -75.5
q190 0 392 131.5t376 370.5q-31 22 -31 56q0 55 110 55q120 168 166 237q-290 -211 -530 -211q-140 0 -244 82.5t-104 188.5q0 145 169 240q159 90 378 90q307 0 526 -158l57 61q34 39 47 39q21 0 21 -16q0 -13 -31 -41q-21 -20 -63 -66q94 -85 94 -106q0 -19 -19 -19
q-13 0 -41 33q-14 17 -63 60q-103 -127 -152 -204q-36 -58 -129 -235q45 -27 72 -61q125 48 272 223q209 248 372 356q182 119 384 119q58 0 141 -18q99 -22 99 -49zM1546 1370q-213 150 -495 150q-206 0 -354 -81q-156 -84 -156 -210q0 -91 90 -159.5t211 -68.5
q171 0 360 102q182 97 344 267zM1327 834q-17 25 -47 40l-29 -51q31 0 76 11zM1190 899q-47 -3 -47 -27q0 -9 14 -20z" />
    <glyph glyph-name="afii10030" unicode="&#x41c;" horiz-adv-x="1669" 
d="M2515 1585q0 -15 -114 -102q-171 -130 -277 -225q-194 -172 -344 -359q-428 -534 -428 -895q0 -136 82 -226.5t202 -90.5q138 0 259 111q126 115 126 259q0 74 -57.5 126.5t-132.5 52.5q-174 0 -275 -238q-10 -25 -24 -25q-12 0 -12 17q0 35 42 105q40 67 80 106
q81 75 189 75q91 0 159 -62q70 -66 70 -159q0 -163 -134 -287q-130 -120 -290 -120q-162 0 -278.5 130.5t-116.5 305.5q0 253 357 696q351 436 780 729q10 8 47 33q-443 -201 -1002 -903q-247 -311 -288 -311q-15 0 -15 14q0 12 23 35q218 219 347 465q189 358 345 575
q-163 -177 -303 -395q-248 -387 -449 -541q-219 -168 -510 -168q-198 0 -358 97q-172 104 -172 254q0 117 126.5 204.5t307.5 87.5q141 0 266 -57q65 -29 126 -74q65 -48 65 -71q0 -17 -16 -17q-10 0 -33 23q-164 155 -416 155q-157 0 -269 -73.5t-112 -175.5
q0 -105 109 -175q114 -73 297 -73q419 0 837 459q61 66 309 380q110 139 210 234q104 98 145 98q16 0 16 -12q0 -16 -74 -102q-162 -191 -366 -586q307 341 514 497q87 66 203 131q146 80 211 80q16 0 16 -12z" />
    <glyph glyph-name="afii10031" unicode="&#x41d;" horiz-adv-x="1327" 
d="M2679 1425q0 -84 -90 -182q-93 -100 -252 -184q-150 -79 -306 -114q-124 -28 -372 -52q-678 -684 -678 -1010q0 -122 84 -199t215 -77q148 0 274 121q158 151 158 297q0 69 -47 115t-119 46q-124 0 -200 -92q-138 -165 -140 -272q0 -45 -22 -45q-19 0 -19 30
q0 153 128 287q124 129 251 129q92 0 150.5 -55t58.5 -141q0 -181 -166 -330q-153 -137 -307 -137q-161 0 -267 112t-106 283q0 379 584 919q-95 -9 -264 -32q-195 -327 -354 -444q-176 -130 -492 -154q-72 -129 -105 -252q-7 -27 -22 -27q-18 0 -18 23q0 85 96 256
q-169 0 -303 103q-142 109 -142 263q0 125 108 204t286 79q255 0 481 -199q159 104 368 166q55 65 181 209q-228 -137 -437 -137q-167 0 -285 81.5t-118 196.5q0 134 132 223t319 89q298 0 624 -226q7 5 19 15q25 21 50 43q45 37 52 37q12 0 12 -13q0 -25 -77 -92
q-6 -4 -19 -16q103 -82 103 -101q0 -16 -17 -16q-10 0 -119 84q-110 -103 -161 -163q-47 -57 -132 -185q82 15 287 35q704 616 1002 616q57 0 95 -32t38 -83zM2638 1423q0 74 -94 74q-272 0 -836 -557q366 29 602 152q152 78 242 171q86 89 86 160zM1511 1266
q-312 217 -585 217q-176 0 -293 -79.5t-117 -193.5q0 -96 100 -164q102 -71 254 -71q313 0 641 291zM1085 805q-174 -60 -294 -139q20 -29 20 -41q0 -17 -18 -17q-9 0 -39 31q-179 -136 -297 -285q236 74 413 222q97 80 215 229zM727 670q-85 88 -218 138q-119 44 -233 44
q-157 0 -251.5 -66t-94.5 -174q0 -114 103 -201t250 -87q42 0 106 12q141 186 338 334z" />
    <glyph glyph-name="afii10032" unicode="&#x41e;" horiz-adv-x="946" 
d="M1444 1317q0 -179 -248 -350q4 -25 4 -39q0 -202 -258 -443q-262 -243 -489 -243q-4 0 -41 4v-27q0 -151 37 -285q2 -7 2 -16q0 -18 -19 -18q-21 0 -35 69q-30 152 -30 262v27q-179 72 -179 281q0 316 342 618q172 152 371 242t361 90q78 0 130 -52.5t52 -119.5z
M1399 1319q0 52 -35.5 90.5t-89.5 38.5q-174 0 -415 -178q-224 -166 -389 -395q-173 -239 -173 -404q0 -93 74 -149q28 294 222 538q200 252 427 252q50 0 97 -28.5t65 -73.5q97 56 157 139.5t60 169.5zM1153 948q-141 -57 -223 -57q-29 0 -29 20q0 16 62 25q83 13 180 55
q-33 80 -129 80q-205 0 -401 -258q-193 -254 -199 -516q30 -10 51 -10q214 0 453 234q235 231 235 427z" />
    <glyph glyph-name="afii10034" unicode="&#x420;" horiz-adv-x="1024" 
d="M2273 1483q0 -15 -18 -15q-13 0 -29 15q-96 86 -303 86q-200 0 -399 -131q80 -96 80 -217q0 -204 -147.5 -366.5t-332.5 -162.5q-43 0 -104 17q-107 -191 -320 -323q-234 -144 -491 -144q-209 0 -352.5 89.5t-143.5 215.5t140 221q136 92 307 92q141 0 268 -63
q59 -30 121 -85q65 -58 65 -87q0 -19 -18 -19q-9 0 -21 15q-153 196 -409 196q-151 0 -274 -76q-132 -80 -132 -192q0 -96 110 -174q114 -80 265 -80q195 0 406 136q198 127 368 347q-41 48 -41 92q0 25 21 25q7 0 21 -31q18 -40 20 -43l8 -12q19 26 94 135q244 355 428 500
q-115 90 -297 90q-318 0 -570 -160q-247 -156 -247 -344q0 -70 62 -126q65 -60 159 -60q197 0 345 160q143 154 143 346q0 32 -6.5 57t-6.5 31q0 14 15 14q41 0 41 -123q0 -197 -163 -360.5t-368 -163.5q-120 0 -197 74q-69 67 -69 155q0 212 260 379q264 170 613 170
q196 0 321 -113q210 140 436 140q99 0 214 -37q128 -41 128 -90zM1561 1214q0 108 -70 199q-138 -110 -213 -220q-53 -79 -152 -290q-37 -79 -84 -158q45 -12 80 -12q169 0 305 152q134 149 134 329z" />
    <glyph glyph-name="afii10035" unicode="&#x421;" horiz-adv-x="1139" 
d="M1780 1411q0 -150 -318 -332q-193 -110 -413 -183q-245 -81 -445 -87q-96 -147 -96 -274q0 -154 72 -209q109 242 265 394q153 150 288 150q54 0 92.5 -41.5t38.5 -101.5q0 -182 -179 -336q-171 -149 -356 -149q-59 0 -127 22q-61 -181 -61 -295q0 -41 -21 -41
q-18 0 -18 41q0 151 59 312q-178 92 -178 305q0 113 66 229q-181 21 -308 117q-133 100 -133 231q0 154 183 259q175 100 417 100q306 0 559 -123q277 123 437 123q176 0 176 -111zM1741 1415q0 66 -92 66q-149 0 -396 -131q97 -67 119 -100q4 -6 4 -9q0 -12 -12 -12
q-8 0 -18 8q-83 65 -129 92q-380 -210 -584 -477q378 18 797 252q311 174 311 311zM1120 1376q-250 103 -510 103q-231 0 -397 -90.5t-166 -223.5q0 -121 125 -211q121 -88 299 -102q203 306 649 524zM1225 729q0 41 -27 73t-68 32q-120 0 -267 -147q-152 -154 -247 -384
q57 -24 117 -24q167 0 328 143q164 147 164 307z" />
    <glyph glyph-name="afii10037" unicode="&#x423;" horiz-adv-x="1288" 
d="M1774 1128l-560 -706q-120 -159 -317 -395q62 -35 156 -119q110 -98 110 -137q0 -19 -16 -19q-10 0 -37 33q-100 122 -246 209q-433 -461 -870 -461q-168 0 -281.5 64.5t-113.5 160.5q0 155 224.5 272t524.5 117q225 0 430 -69q55 63 168 211q-92 -47 -172 -47
q-184 0 -184 147q0 111 151 260q233 229 328 361q115 159 115 286q0 95 -83 151t-220 56q-294 0 -545.5 -162t-251.5 -354q0 -88 61 -143.5t152 -55.5q179 0 346 156t168 330q0 53 23 53q20 0 20 -31q0 -200 -175.5 -373t-381.5 -173q-106 0 -177 66q-75 69 -75 175
q0 206 265 379q262 172 569 172q354 0 354 -297q0 -155 -123 -333q-79 -114 -248 -283q-203 -203 -203 -258q0 -80 123 -80q99 0 195 71q93 70 219 234l410 532h168zM750 43q-185 61 -408 61q-284 0 -494 -107q-204 -105 -204 -241q0 -80 93.5 -128t239.5 -48q222 0 401 109
q177 106 372 354z" />
    <glyph glyph-name="afii10039" unicode="&#x425;" horiz-adv-x="1327" 
d="M2284 1460q0 -18 -19 -18q-9 0 -40 10t-54 10q-219 0 -464 -189q-211 -164 -536 -548q33 -4 35 -4q10 0 25.5 5t23.5 5q17 0 17 -14q0 -39 -84 -39q-31 0 -51 4q-154 -185 -154 -297q0 -104 90 -104q30 0 108 42q113 63 257 187q23 20 32 20q15 0 15 -12q0 -8 -19 -24
q-277 -252 -399 -252q-57 0 -93 41.5t-36 101.5q0 57 41 139q-346 -282 -662 -282q-171 0 -287 80.5t-116 207.5q0 114 102 195q108 86 273 86q10 0 51 -4q0 151 129 317q118 152 287 254q179 107 336 107q129 0 201 -78q69 -75 69 -207q0 -113 -64 -256q265 281 448 407
q218 150 415 150q51 0 87 -13t36 -28zM1307 1253q0 81 -57 135q-60 56 -158 56q-202 0 -411 -169q-138 -111 -230 -247q-66 -96 -66 -227q163 -42 299 -172q132 45 258.5 238.5t126.5 361.5q0 54 10 61q3 2 8 2q21 0 21 -65q0 -165 -127 -367.5t-264 -261.5q14 -17 14 -27
q0 -18 -16 -18q-7 0 -37 27q-62 -21 -100 -21q-95 0 -156.5 57t-77.5 150q-27 4 -65 4q-146 0 -240 -73q-88 -70 -88 -169q0 -104 96 -175q99 -74 252 -74q342 0 717 432q-8 2 -21 2q-9 0 -25.5 -3t-21.5 -3q-20 0 -20 16q0 12 24.5 25.5t57.5 13.5q13 0 43 -8
q254 299 254 499zM643 614q-104 98 -252 144q38 -156 182 -156q27 0 70 12z" />
    <glyph glyph-name="afii10029" unicode="&#x41b;" horiz-adv-x="1518" 
d="M733 788q8 10 86 -60.5t78 -92.5q0 -17 -14 -17t-29 23q-39 59 -102 96l-35 19q-126 57 -271 57q-146 0 -261 -80t-115 -180q0 -97 102 -169.5t242 -72.5q172 0 433 128q186 104 429 370q31 31 160 180q203 236 372 359q79 57 184 105t156 48q21 0 21 -16q0 -22 -86 -105
q-531 -510 -705 -1044l-16 -51q-33 -115 -33 -219q0 -176 102 -305q108 -138 273 -138q141 0 252.5 120.5t111.5 270.5q0 78 -45 124t-114 46q-123 0 -216.5 -111t-93.5 -257q0 -27 -14 -27q-11 0 -14.5 13.5t-3.5 50.5q0 144 104.5 256t235.5 112q86 0 143 -61t57 -150
q0 -173 -130 -303q-125 -125 -279 -125q-188 0 -319 164q-128 159 -128 375q0 51 35 215l78 209q213 432 750 915q-102 -17 -235 -114q-119 -88 -215.5 -201t-172.5 -229q-113 -175 -152 -228q-205 -249 -458 -383q-148 -63 -322 -63q-227 0 -380 92q-148 89 -148 213
q0 122 126 212.5t302 90.5q144 0 274 -62z" />
    <glyph glyph-name="afii10017" unicode="&#x410;" horiz-adv-x="1518" 
d="M2169 1485q0 -22 -86 -105q-531 -510 -705 -1044q102 49 217 147q60 52 68 52q12 0 12 -17q0 -21 -109 -106q-116 -90 -204 -127q-33 -115 -33 -219q0 -176 102 -305q108 -138 273 -138q141 0 252.5 120.5t111.5 270.5q0 78 -45 124t-114 46q-123 0 -216.5 -111
t-93.5 -257q0 -27 -14 -27q-11 0 -14.5 13.5t-3.5 50.5q0 144 104.5 256t235.5 112q86 0 143 -61t57 -150q0 -173 -130 -303q-125 -125 -279 -125q-188 0 -319 164q-128 159 -128 375q0 51 17 133q-59 -12 -125 -12q-135 0 -262 63q-148 -63 -322 -63q-227 0 -380 92
q-148 89 -148 213q0 122 126 212.5t302 90.5q144 0 274 -62q102 156 268 156q161 0 275 -135q31 31 160 180q203 236 372 359q79 57 184 105t156 48q21 0 21 -16zM2114 1460q-102 -17 -235 -114q-119 -88 -215.5 -201t-172.5 -229q-113 -175 -152 -228q21 -67 25 -143
q213 432 750 915zM1247 778q-35 56 -102 90.5t-139 34.5q-150 0 -238 -133q42 -24 85.5 -68.5t43.5 -66.5q0 -17 -14 -17t-29 23q-39 59 -102 96q-25 -43 -25 -106q0 -118 76 -207q230 119 444 354zM1323 496q0 51 -20 143q-169 -200 -371 -309q103 -47 207 -47q65 0 137 16
q10 37 43 139q4 29 4 58zM764 403q-78 107 -78 222q0 66 31 131q-126 57 -271 57q-146 0 -261 -80t-115 -180q0 -97 102 -169.5t242 -72.5q172 0 350 92z" />
    <glyph glyph-name="afii10018" unicode="&#x411;" horiz-adv-x="1782" 
d="M2452 1548q0 -32 -144 -57q-136 -26 -284 -26q-100 0 -339.5 28t-333.5 28q-249 0 -453 -141q-209 -147 -209 -340q0 -86 53.5 -142t137.5 -56q156 0 272 139.5t116 330.5q0 97 18 97q23 0 23 -97q0 -200 -124 -355q-127 -158 -301 -158q-98 0 -166 70.5t-68 172.5
q0 97 62.5 201.5t167.5 178.5q201 143 497 143q102 0 306.5 -28t348.5 -28q227 0 368 47q19 6 34 6q18 0 18 -14zM1717 823q45 -62 45 -133q0 -162 -139.5 -303t-297.5 -141q-70 0 -113.5 41.5t-43.5 113.5q0 103 92 189q123 115 217 115q23 0 23 -15q0 -17 -39 -26
q-106 -27 -179 -105.5t-73 -157.5q0 -118 114 -118q139 0 269.5 134t130.5 273q0 62 -60 122q-46 50 -108 50q-104 -8 -245 -124q-185 -226 -302 -323q-211 -173 -514 -173q-200 0 -346 92q-152 97 -152 237q0 123 136 215.5t321 92.5q130 0 249 -50q65 -26 121 -64.5
t56 -57.5t-17 -19q-9 0 -33 21q-152 131 -383 131q-167 0 -286 -79.5t-119 -187.5q0 -101 100 -165q105 -68 279 -68q265 0 518 178q120 84 216 194q67 76 251 320q200 266 281 338q89 80 96 80q16 0 16 -14q0 -13 -26 -37q-157 -144 -316 -404q-97 -159 -139 -222
q134 134 233 127q85 14 167 -77z" />
    <glyph glyph-name="afii10024" unicode="&#x416;" horiz-adv-x="2133" 
d="M1916 590q-147 -69 -305 -175.5t-328 -229.5q-80 -101 -101 -99t-19 25q2 20 73 111l775 935q-93 -71 -163.5 -120.5t-128.5 -87t-108.5 -68t-103.5 -62.5q-20 -29 -42 -58q-203 -263 -429 -416.5t-529 -224.5q-275 -34 -421 58q-152 97 -152 237q0 123 136 215.5
t321 92.5q130 0 249 -50q65 -26 121 -64.5t56 -57.5t-17 -19q-9 0 -33 21q-152 131 -383 131q-167 0 -286 -79.5t-119 -187.5q0 -101 100 -165q105 -68 279 -68q265 0 514 181.5t351 301.5q45 53 93 112l1 6q1 0 2 0.5t3 0.5q59 74 122 158q150 209 150 336q0 95 -84 151
q-32 22 -80 42l-3 -2q-55 14 -156 14q-262 0 -483 -156q-224 -158 -224 -355q0 -165 206 -236l54 -9q166 0 301 115q140 119 140 276q0 92 -75 134q-50 17 -93 22q-107 0 -194.5 -78.5t-106.5 -189.5q-8 -49 -26 -49q-20 0 -20 24q0 105 102 221q98 111 246 111q44 0 92 -15
q125 -79 125 -184q0 -166 -153.5 -301t-341.5 -135q-57 -8 -119 18q-97 48 -142 116t-45 150q0 217 230 377t416 175t261 -6q249 -62 230 -288q12 -148 -92 -308q50 21 108 54.5t122 76.5t133 95t143 110l50 62q74 93 92 91q15 -1 14 -19q-1 -14 -113 -157l-754 -951
q41 32 96 71t116 80t125 82.5t123 77.5t109 65t84 45q87 77 242 220q704 616 1002 616q57 0 95 -32t38 -83q0 -84 -91 -157q-184 -93 -248 49l25 29q66 -141 205 -43q68 49 68 120q0 74 -94 74q-272 0 -836 -557q-727 -731 -727 -1057q0 -122 84 -199t215 -77q148 0 274 121
q158 151 158 297q0 69 -47 115t-119 46q-124 0 -200 -92q-138 -165 -140 -272q0 -45 -22 -45q-19 0 -19 30q0 153 128 287q124 129 251 129q92 0 150.5 -55t58.5 -141q0 -181 -166 -330q-153 -137 -307 -137q-161 0 -267 112t-106 283q0 249 304 642z" />
    <glyph glyph-name="afii10033" unicode="&#x41f;" horiz-adv-x="1815" 
d="M2509 1536q0 -30 -152 -54q-145 -24 -301 -24q-106 0 -360 26.5t-353 26.5q-264 0 -480 -134q-222 -139 -222 -322q0 -81 57 -134t146 -53q165 0 288 132t123 313q0 92 19 92q24 0 24 -92q0 -190 -131 -336q-135 -150 -319 -150q-104 0 -176 67t-72 163q0 92 66.5 191
t177.5 169q213 135 526 135q108 0 325 -26.5t369 -26.5q241 0 390 45q20 6 36 6q19 0 19 -14zM1798 1436q0 -13 -26 -37q-157 -144 -316 -404q-261 -426 -448 -580q-211 -173 -514 -173q-200 0 -346 92q-152 97 -152 237q0 123 136 215.5t321 92.5q130 0 249 -50
q65 -26 121 -64.5t56 -57.5t-17 -19q-9 0 -33 21q-152 131 -383 131q-167 0 -286 -79.5t-119 -187.5q0 -101 100 -165q105 -68 279 -68q265 0 518 178q120 84 216 194q67 76 251 320q200 266 281 338q89 80 96 80q16 0 16 -14zM1566 734l388 534l105 -4l-493 -671
q-137 -205 -137 -265q0 -31 39 -31q86 0 186 75q3 2 153 135q8 7 18 7q14 0 14 -12q0 -23 -127 -128q-146 -120 -250 -120q-116 7 -86 122t190 358z" />
    <glyph glyph-name="afii10047" unicode="&#x42d;" horiz-adv-x="1405" 
d="M1539 967q150 209 150 336q0 95 -83.5 151t-219.5 56q-294 0 -545 -162t-251 -354q0 -88 61 -143.5t152 -55.5q171 0 337 151q171 155 177 335q1 53 20 53q23 0 23 -31q0 -193 -176 -368q-178 -178 -384 -178q-105 0 -177 67t-72 174q0 206 263.5 378.5t569.5 172.5
q354 0 362 -304q17 -198 -186 -461t-429 -416.5t-529 -224.5q-275 -34 -421 58q-152 97 -152 237q0 123 136 215.5t321 92.5q130 0 249 -50q65 -26 121 -64.5t56 -57.5t-17 -19q-9 0 -33 21q-152 131 -383 131q-167 0 -286 -79.5t-119 -187.5q0 -101 100 -165
q105 -68 279 -68q265 0 514 181.5t351.5 301.5t220.5 277zM1350 761q-24 -73 -140 -73l-88 27q-7 3 -11 3q-15 -10 -60 -41q-55 -25 -18 42q41 57 87 57l96 -37q64 -9 92 19l21 18z" />
    <glyph glyph-name="afii10036" unicode="&#x422;" horiz-adv-x="2133" 
d="M2509 1536q0 -30 -152 -54q-145 -24 -301 -24q-106 0 -360 26.5t-353 26.5q-264 0 -480 -134q-222 -139 -222 -322q0 -81 57 -134t146 -53q165 0 288 132t123 313q0 92 19 92q24 0 24 -92q0 -190 -131 -336q-135 -150 -319 -150q-104 0 -176 67t-72 163q0 92 66.5 191
t177.5 169q213 135 526 135q108 0 325 -26.5t369 -26.5q241 0 390 45q20 6 36 6q19 0 19 -14zM1798 1436q0 -13 -26 -37q-157 -144 -316 -404q-261 -426 -448 -580q-211 -173 -514 -173q-200 0 -346 92q-152 97 -152 237q0 123 136 215.5t321 92.5q130 0 249 -50
q65 -26 121 -64.5t56 -57.5t-17 -19q-9 0 -33 21q-152 131 -383 131q-167 0 -286 -79.5t-119 -187.5q0 -101 100 -165q105 -68 279 -68q265 0 518 178q120 84 216 194q67 76 251 320q200 266 281 338q89 80 96 80q16 0 16 -14zM1843 734l388 534l105 -4l-493 -671
q-137 -205 -137 -265q0 -31 39 -31q86 0 186 75q3 2 153 135q8 7 18 7q14 0 14 -12q0 -23 -127 -128q-146 -120 -250 -120q-116 7 -86 122t190 358zM1287 309l641 990q54 78 68 66.5t7 -33.5l-669 -1042q-50 -31 -47 19z" />
    <glyph glyph-name="H" unicode="H" horiz-adv-x="1327" 
d="M2679 1425q0 -84 -90 -182q-93 -100 -252 -184q-150 -79 -306 -114q-124 -28 -372 -52q-678 -684 -678 -1010q0 -122 84 -199t215 -77q148 0 274 121q158 151 158 297q0 69 -47 115t-119 46q-124 0 -200 -92q-138 -165 -140 -272q0 -45 -22 -45q-19 0 -19 30
q0 153 128 287q124 129 251 129q92 0 150.5 -55t58.5 -141q0 -181 -166 -330q-153 -137 -307 -137q-161 0 -267 112t-106 283q0 379 584 919q-95 -9 -264 -32q-195 -327 -354 -444q-176 -130 -492 -154q-72 -129 -105 -252q-7 -27 -22 -27q-18 0 -18 23q0 85 96 256
q-169 0 -303 103q-142 109 -142 263q0 125 108 204t286 79q255 0 481 -199q159 104 368 166q55 65 181 209q-228 -137 -437 -137q-167 0 -285 81.5t-118 196.5q0 134 132 223t319 89q298 0 624 -226q7 5 19 15q25 21 50 43q45 37 52 37q12 0 12 -13q0 -25 -77 -92
q-6 -4 -19 -16q103 -82 103 -101q0 -16 -17 -16q-10 0 -119 84q-110 -103 -161 -163q-47 -57 -132 -185q82 15 287 35q704 616 1002 616q57 0 95 -32t38 -83zM2638 1423q0 74 -94 74q-272 0 -836 -557q366 29 602 152q152 78 242 171q86 89 86 160zM1511 1266
q-312 217 -585 217q-176 0 -293 -79.5t-117 -193.5q0 -96 100 -164q102 -71 254 -71q313 0 641 291zM1085 805q-174 -60 -294 -139q20 -29 20 -41q0 -17 -18 -17q-9 0 -39 31q-179 -136 -297 -285q236 74 413 222q97 80 215 229zM727 670q-85 88 -218 138q-119 44 -233 44
q-157 0 -251.5 -66t-94.5 -174q0 -114 103 -201t250 -87q42 0 106 12q141 186 338 334z" />
    <glyph glyph-name="afii10038" unicode="&#x424;" horiz-adv-x="2027" 
d="M2017 1534q0 -13 -26 -37q-92 -85 -270 -314q90 35 189 16q3 -1 34 -9l36 -16q156 -77 202 -229q72 -228 -124 -396q-98 -84 -231.5 -119.5t-259.5 -11.5q-59 11 -111.5 57t-68.5 94q-27 53 -20 126q-258 -370 -424 -507q-211 -173 -514 -173q-200 0 -346 92
q-152 97 -152 237q0 123 136 215.5t321 92.5q130 0 249 -50q65 -26 121 -64.5t56 -57.5t-17 -19q-9 0 -33 21q-152 131 -383 131q-167 0 -286 -79.5t-119 -187.5q0 -101 100 -165q105 -68 279 -68q265 0 518 178q120 84 216 194q23 27 62 75q-132 -68 -266 -26q-3 2 -32 13
l-34 19q-143 94 -167 249q-7 40 -5 77q-202 14 -332 84q-161 87 -161 237q0 133 129 223q124 86 297 86q242 0 573 -178q37 -27 69 -52q60 -4 118 -22q57 -17 102 -68q34 -39 47 -77q14 8 27 16q128 76 211 139q107 122 178 188q89 80 96 80q16 0 16 -14zM1423 562
q11 -38 47 -71t78 -42q135 -25 282 67q136 88 210 227q79 147 43 267q-21 67 -87 118q-67 46 -122 48q-100 18 -203 -59q-93 -124 -209 -285q-42 -86 -48 -135q-9 -74 9 -135zM834 1194q109 73 246 93q35 5 68 7q-13 9 -27 19q-283 168 -545 168q-151 0 -262 -72
q-119 -77 -119 -194q0 -127 137 -203q120 -68 318 -80q23 155 184 262zM1340 805q39 50 76 97q26 45 34 75q14 48 14 92q-19 -11 -40 -22q-154 -83 -408 -131q-157 -26 -256 -27q-30 -77 -19 -149q11 -68 69 -126q60 -52 113 -61q125 -37 275 81q17 13 35 30q47 62 107 141z
M1462 1113q-6 38 -37 74.5t-71 50.5q-40 12 -82 13q8 -7 15 -13q67 -59 67 -77q0 -14 -12 -14q-11 0 -56 43q-21 20 -73 58q-70 -10 -148 -46q-148 -72 -243 -203q-25 -35 -43 -69q98 4 225 25q249 44 458 155v3zM1633 1170q-59 -39 -133 -81q8 -35 3 -77q70 86 130 158z
" />
    <glyph glyph-name="glyph266" horiz-adv-x="1024" 
 />
    <glyph glyph-name="logicalnot" unicode="&#xac;" horiz-adv-x="2027" 
d="M2037 1556q-8 -13 -20 -25q-3 -12 -26 -34q-90 -83 -260 -302q87 32 183 14q3 -1 34 -9l36 -16q156 -77 202 -229q72 -228 -124 -396q-98 -84 -231.5 -119.5t-259.5 -11.5q-59 11 -111.5 57t-68.5 94q-26 52 -20 121q-261 -374 -428 -512q-211 -173 -514 -173
q-200 0 -346 92q-152 97 -152 237q0 123 136 215.5t321 92.5q130 0 249 -50q65 -26 121 -64.5t56 -57.5t-17 -19q-9 0 -33 21q-152 131 -383 131q-167 0 -286 -79.5t-119 -187.5q0 -101 100 -165q105 -68 279 -68q265 0 518 178q120 84 216 194q23 27 62 75
q-132 -68 -266 -26q-3 2 -32 13l-34 19q-143 94 -167 249q-37 234 182 379q109 73 246.5 93.5t259.5 -17.5q57 -17 102 -68t54 -100q13 -41 8 -90q250 311 385 441q-155 -67 -457 -120q-187 -34 -456 -7q-173 21 -270 49q-261 75 -375.5 201.5t-43.5 264.5q63 123 229 171
q161 44 327 -5q233 -66 467 -324q51 -76 79 -137q38 -72 29 -89q-7 -12 -19 -9q-9 2 -33 55q-19 44 -101 161q-193 234 -444 307q-146 42 -288 6q-150 -38 -207 -146q-60 -117 37 -225q101 -117 354 -190q107 -32 267 -51q294 -33 581 28q250 53 379 110q52 45 57 45
q11 0 14 -8q12 8 22 16zM1462 1113q-6 38 -37 74.5t-71 50.5q-130 39 -289 -36q-148 -72 -243 -203q-99 -136 -81 -259q11 -68 69 -126q60 -52 113 -61q125 -37 275 81q17 13 35 30q47 62 107 141q39 50 76 97q26 45 34 75q21 73 12 136zM1427 572q11 -38 47 -71t78 -42
q135 -25 282 67q136 88 210 227q79 147 43 267q-21 67 -87 118q-67 46 -122 48q-96 17 -194 -52q-99 -131 -224 -305q-36 -77 -42 -122q-9 -74 9 -135z" />
    <glyph glyph-name="T" unicode="T" horiz-adv-x="1100" 
d="M2509 1536q0 -30 -152 -54q-145 -24 -301 -24q-106 0 -360 26.5t-353 26.5q-264 0 -480 -134q-222 -139 -222 -322q0 -81 57 -134t146 -53q165 0 288 132t123 313q0 92 19 92q24 0 24 -92q0 -190 -131 -336q-135 -150 -319 -150q-104 0 -176 67t-72 163q0 92 66.5 191
t177.5 169q213 135 526 135q108 0 325 -26.5t369 -26.5q241 0 390 45q20 6 36 6q19 0 19 -14zM1798 1436q0 -13 -26 -37q-157 -144 -316 -404q-261 -426 -448 -580q-211 -173 -514 -173q-200 0 -346 92q-152 97 -152 237q0 123 136 215.5t321 92.5q130 0 249 -50
q65 -26 121 -64.5t56 -57.5t-17 -19q-9 0 -33 21q-152 131 -383 131q-167 0 -286 -79.5t-119 -187.5q0 -101 100 -165q105 -68 279 -68q265 0 518 178q120 84 216 194q67 76 251 320q200 266 281 338q89 80 96 80q16 0 16 -14z" />
    <glyph glyph-name="afii10040" unicode="&#x426;" horiz-adv-x="1599" 
d="M1509 479q38 31 35 13q-2 -12 -4 -23q-1 -4 -6 -10q25 -111 -151 -396q-71 -116 -218 -244q-98 -82 -163 -121q-174 -103 -308 -105.5t-188 98.5q-46 89 6 199q51 105 161 171q157 93 432 99q72 -9 122 -21q65 -15 71 -26q5 -10 -3 -15q-6 -4 -51 8q-36 10 -118 18
q-271 8 -441 -92q-96 -57 -143 -148q-50 -98 -9 -176q43 -86 157 -85q124 0 292 100q72 43 162 117q164 141 266 320q107 194 101 284q8 -13 -61 -70q-146 -120 -250 -120q-127 0 -127 115q0 37 10 75q-234 -202 -360 -202q-63 0 -106 39q-46 41 -46 106q0 109 152 260
q242 241 332 367q110 153 110 280q0 95 -83.5 151t-219.5 56q-294 0 -545 -162t-251 -354q0 -88 61 -143.5t152 -55.5q171 0 337 151q171 155 177 335q1 53 20 53q23 0 23 -31q0 -193 -176 -368q-178 -178 -384 -178q-105 0 -177 67t-72 174q0 206 263.5 378.5t569.5 172.5
q354 0 354 -297q0 -240 -364 -610q-141 -143 -148 -151q-61 -69 -61 -113q0 -76 86 -76q110 0 283 149q140 121 272 293l410 533h168l-560 -711q-133 -169 -133 -229q0 -31 39 -31q86 0 186 75q63 38 117 107z" />
    <glyph glyph-name="afii10041" unicode="&#x427;" horiz-adv-x="1361" 
d="M1060 656q-190 -145 -292 -145q-51 0 -86 28q-38 29 -38 76q0 78 124 187q196 174 269 264q90 111 90 202q0 68 -68 108.5t-178 40.5q-239 0 -443 -116.5t-204 -254.5q0 -64 49.5 -104t123.5 -40q139 0 274 109q139 112 144 241q1 38 16 38q19 0 19 -22q0 -139 -143 -265
q-145 -128 -312 -128q-85 0 -143.5 48t-58.5 125q0 149 214 273t462 124q288 0 288 -214q0 -172 -296 -439q-114 -103 -120 -109q-50 -49 -50 -81q0 -55 70 -55q89 0 230 108q114 87 221 211l323 402h168l-560 -711q-133 -169 -133 -229q0 -31 39 -31q86 0 186 75
q3 2 153 135q8 7 18 7q14 0 14 -12q0 -23 -127 -128q-146 -120 -250 -120q-127 0 -127 115q5 97 134 287z" />
    <glyph glyph-name="afii10042" unicode="&#x428;" horiz-adv-x="2062" 
d="M1787 735l410 533h168l-560 -711q-133 -169 -133 -229q0 -31 39 -31q86 0 186 75q3 2 153 135q8 7 18 7q14 0 14 -12q0 -23 -127 -128q-146 -120 -250 -120q-127 0 -127 115q0 37 10 75q-233 -202 -359 -202q-63 0 -106 39q-46 41 -46 106q0 35 16 75
q-244 -220 -370 -220q-63 0 -106 39q-46 41 -46 106q0 109 152 260q242 241 332 367q110 153 110 280q0 95 -83.5 151t-219.5 56q-294 0 -545 -162t-251 -354q0 -88 61 -143.5t152 -55.5q171 0 337 151q171 155 177 335q1 53 20 53q23 0 23 -31q0 -193 -176 -368
q-178 -178 -384 -178q-105 0 -177 67t-72 174q0 206 263.5 378.5t569.5 172.5q354 0 354 -297q0 -240 -364 -610q-141 -143 -148 -151q-61 -69 -61 -113q0 -76 86 -76q110 0 283 149q140 121 272 293l409 533h168l-496 -601q-148 -177 -155 -185q-61 -69 -61 -113
q0 -76 86 -76q110 0 283 149q140 121 271 293z" />
    <glyph glyph-name="afii10043" unicode="&#x429;" horiz-adv-x="2062" 
d="M2056 451v14q-31 -33 -101 -91q-146 -120 -250 -120q-127 0 -127 115q0 37 10 75q-233 -202 -359 -202q-63 0 -106 39q-46 41 -46 106q0 35 16 75q-244 -220 -370 -220q-63 0 -106 39q-46 41 -46 106q0 109 152 260q242 241 332 367q110 153 110 280q0 95 -83.5 151
t-219.5 56q-294 0 -545 -162t-251 -354q0 -88 61 -143.5t152 -55.5q171 0 337 151q171 155 177 335q1 53 20 53q23 0 23 -31q0 -193 -176 -368q-178 -178 -384 -178q-105 0 -177 67t-72 174q0 206 263.5 378.5t569.5 172.5q354 0 354 -297q0 -240 -364 -610
q-141 -143 -148 -151q-61 -69 -61 -113q0 -76 86 -76q110 0 283 149q140 121 272 293l409 533h168l-496 -601q-148 -177 -155 -185q-61 -69 -61 -113q0 -76 86 -76q110 0 283 149q140 121 271 293l410 533h168l-560 -711q-133 -169 -133 -229q0 -31 39 -31q86 0 186 75
q3 2 153 135q8 7 18 7q14 0 14 -12q0 -3 -2 -7q2 -3 2 -6q0 -4 -4 -10q44 -105 -80 -417q-49 -126 -172 -278q-82 -98 -139 -147q-154 -132 -285.5 -158t-201.5 64q-61 80 -29 197q32 112 129 197q138 118 408 172q72 4 124 1q66 -3 74 -13q7 -9 0 -15q-6 -6 -52 -2
q-37 4 -119 -2q-269 -40 -418 -168q-85 -73 -115 -171q-33 -105 21 -175q58 -77 170 -56q122 22 270 150q63 54 139 143q137 168 206 362q72 209 48 288z" />
    <glyph glyph-name="afii10044" unicode="&#x42a;" horiz-adv-x="1935" 
d="M1271 823q205 169 386 172q113 17 223 -92q61 -75 61 -160q0 -194 -187 -363.5t-399 -169.5q-94 0 -152 50t-58 136q0 124 123 227q165 138 291 138q31 0 31 -18q0 -20 -53 -31q-142 -32 -239.5 -126.5t-97.5 -189.5q0 -141 152 -141q187 0 361.5 160.5t174.5 327.5
q0 75 -80 147q-62 60 -145 60q-198 -12 -410 -187q-152 -235 -390 -376q-247 -145 -519 -145q-215 0 -348 93t-133 238q0 139 129.5 236.5t308.5 97.5q233 0 447 -200q43 -41 43 -62q0 -22 -19 -22q-8 0 -37 30q-202 215 -434 215q-160 0 -277.5 -86.5t-117.5 -206.5
q0 -114 89 -186t232 -72q442 0 868 453q137 168 238 302q106 139 137 175q-8 2 37 39q31 32 65 63q-63 -31 -135 -64q-172 -80 -440 -121q-172 -23 -273 -20q-272 7 -414.5 101t-108.5 245q30 135 179 223q145 83 318 77q242 -5 533 -197q69 -60 111 -112q55 -61 50 -79
q-3 -14 -16 -14q-9 0 -45 45q-30 38 -139 131q-245 178 -506 186q-152 4 -281 -67q-135 -74 -163 -193q-29 -128 92 -208q127 -88 390 -96q112 -4 271 18q293 42 556 173q78 39 138 67q14 11 29 22l49 33q82 47 133 37q8 1 10 -6.5t-1.5 -17.5t-10.5 -18.5t-17 -9.5
q-24 -3 -109 -30q-134 -106 -213 -192q-138 -167 -242 -359q-19 -35 -46 -80z" />
    <glyph glyph-name="afii10046" unicode="&#x42c;" horiz-adv-x="1941" 
d="M1956 1503q0 -27 -25.5 -46t-64.5 -19q-23 0 -94 16q-134 -106 -213 -192q92 -65 92 -181q0 -41 -10 -79l15 1q114 9 224 -100q61 -75 61 -160q0 -194 -187 -363.5t-399 -169.5q-94 0 -152 50t-58 136q0 124 123 227q165 138 291 138q31 0 31 -18q0 -20 -53 -31
q-142 -32 -239.5 -126.5t-97.5 -189.5q0 -141 152 -141q187 0 361.5 160.5t174.5 327.5q0 75 -80 147q-62 60 -145 60q-22 -2 -44 -5q-28 -54 -80 -99q-112 -98 -265 -98q-13 0 -28.5 1t-18.5 1q-126 -222 -364 -363q-247 -145 -519 -145q-215 0 -348 93t-133 238
q0 139 129.5 236.5t308.5 97.5q233 0 447 -200q43 -41 43 -62q0 -22 -19 -22q-8 0 -37 30q-202 215 -434 215q-160 0 -277.5 -86.5t-117.5 -206.5q0 -114 89 -186t232 -72q442 0 869 469q-142 73 -142 254q0 190 186 341q183 149 404 149q87 0 223 -31q82 47 123 47
q66 0 66 -43zM1718 1466q-89 19 -170 19q-219 0 -383 -136t-164 -313q0 -154 125 -217q106 119 207 253q106 139 137 175q-8 2 -22 2q-48 0 -95 -32.5t-69 -79.5q-11 -23 -24 -23q-19 0 -19 21q0 51 80 107q75 52 129 52q12 0 57 -8q90 93 211 180zM1604 1077q0 102 -76 148
q-107 -130 -211 -322q-14 -26 -43 -77q167 136 317 168q13 39 13 83zM1503 869q36 29 59 64q-134 -36 -284 -145q133 7 225 81zM1915 1497q0 12 -27 12q-25 0 -65 -22q34 -6 59 -6q33 0 33 16z" />
    <glyph glyph-name="afii10045" unicode="&#x42b;" horiz-adv-x="2429" 
d="M1271 823q205 169 386 172q113 17 223 -92q61 -75 61 -160q0 -46 -11 -91q64 -10 132 -24q14 0 22 -4q32 53 72 114l388 534l105 -4l-493 -671q-137 -205 -137 -265q0 -31 39 -31q86 0 186 75q3 2 153 135q8 7 18 7q14 0 14 -12q0 -23 -127 -128q-146 -120 -250 -120
q-116 7 -86 122q19 75 94 205q-76 12 -143 22q-43 -119 -163 -228q-187 -169 -399 -169q-94 0 -152 50t-58 136q0 124 153 232q210 85 579 33q11 40 11 82q0 75 -80 147q-62 60 -145 60q-198 -12 -410 -187q-152 -235 -390 -376q-247 -145 -519 -145q-215 0 -348 93
t-133 238q0 139 129.5 236.5t308.5 97.5q233 0 447 -200q43 -41 43 -62q0 -22 -19 -22q-8 0 -37 30q-202 215 -434 215q-160 0 -277.5 -86.5t-117.5 -206.5q0 -114 89 -186t232 -72q442 0 868 453q137 168 238 302q106 139 174 214q31 32 65 63q-63 -31 -135 -64
q-172 -80 -440 -121q-172 -23 -273 -20q-272 7 -414.5 101t-108.5 245q30 135 179 223q145 83 318 77q242 -5 533 -197q69 -60 111 -112q55 -61 50 -79q-3 -14 -16 -14q-9 0 -45 45q-30 38 -139 131q-245 178 -506 186q-152 4 -281 -67q-135 -74 -163 -193q-29 -128 92 -208
q127 -88 390 -96q112 -4 271 18q293 42 556 173q78 39 138 67q14 11 29 22l49 33q82 47 133 37q8 1 10 -6.5t-1.5 -17.5t-10.5 -18.5t-17 -9.5q-24 -3 -109 -30q-134 -106 -213 -192q-138 -167 -242 -359q-19 -35 -46 -80zM1345 586q-162 -95 -145 -190q0 -141 152 -141
q187 0 361 160q107 98 148 199q-389 46 -516 -28z" />
    <glyph glyph-name="afii10048" unicode="&#x42e;" horiz-adv-x="2224" 
d="M1511 1266q-312 217 -585 217q-176 0 -293 -79.5t-117 -193.5q0 -96 100 -164q102 -71 254 -71q313 0 641 291zM1085 805q-174 -60 -294 -139q20 -29 20 -41q0 -17 -18 -17q-9 0 -39 31q-179 -136 -297 -285q236 74 413 222q97 80 215 229zM727 670q-85 88 -218 138
q-119 44 -233 44q-157 0 -251.5 -66t-94.5 -174q0 -114 103 -201t250 -87q42 0 106 12q141 186 338 334zM1709 1059q221 215 420 305t361 90q78 0 130 -52.5t52 -119.5q0 -179 -248 -350q4 -25 4 -39q0 -202 -258 -443q-262 -243 -489 -243q-4 0 -41 4v-27q0 -151 37 -285
q2 -7 2 -16q0 -18 -19 -18q-21 0 -35 69q-30 152 -30 262v27q-179 72 -179 281q32 287 263 499l-284 -102l-145 -45q-218 -341 -377 -458q-176 -130 -492 -154q-72 -129 -105 -252q-7 -27 -22 -27q-18 0 -18 23q0 85 96 256q-169 0 -303 103q-142 109 -142 263
q0 125 108 204t286 79q255 0 481 -199q159 104 368 166q55 65 181 209q-228 -137 -437 -137q-167 0 -285 81.5t-118 196.5q0 134 132 223t319 89q298 0 624 -226q7 5 19 15q25 21 50 43q45 37 52 37q12 0 12 -13q0 -25 -77 -92q-6 -4 -19 -16q103 -82 103 -101
q0 -16 -17 -16q-10 0 -119 84q-110 -103 -161 -163l-47 -57q-11 -16 -18 -29l-14 -26t-14.5 -26t-17.5 -29zM2627 1284q0 52 -35.5 90.5t-89.5 38.5q-174 0 -415 -178q-224 -166 -389 -395q-173 -239 -173 -404q0 -93 74 -149q28 294 222 538q200 252 427 252q50 0 97 -28.5
t65 -73.5q97 56 157 139.5t60 169.5zM2381 913q-141 -57 -223 -57q-29 0 -29 20q0 16 62 25q83 13 180 55q-33 80 -129 80q-205 0 -401 -258q-193 -254 -199 -516q30 -10 51 -10q214 0 453 234q235 231 235 427z" />
    <glyph glyph-name="afii10049" unicode="&#x42f;" horiz-adv-x="1780" 
d="M1557 874l31 38q-46 -30 -101 -50l-83 -13q-318 -73 -541 -347q-190 -233 -356 -275q-146 -37 -260 24.5t-145 184.5q-31 159 78 319q110 157 257 197q81 21 143 -16.5t78 -114.5q26 -129 -78.5 -260.5t-264.5 -172.5q-36 -9 -39 9q-2 18 32 26q139 38 237.5 158.5
t76.5 226.5q-13 64 -63.5 93t-116.5 11q-136 -34 -231 -185.5t-68 -285.5q21 -89 111 -140q92 -49 200 -24q92 24 197 138q96 104 194 211q137 143 388 231q-159 65 -196 214q-17 97 17 180q-56 6 -98 15q-249 53 -365.5 168t-62.5 258q49 127 200 187q146 59 305 24
q221 -44 460 -280q27 -36 48 -69q84 9 164 -6q57 -8 105.5 -49t59.5 -85l3 -17q76 29 135 56l40 51l134 17l-590 -774q-260 -366 -264 -446q-3 -40 49 -41q115 1 250 105q6 3 215 180q11 11 25 11q18 0 17 -16q-3 -28 -177 -172q-204 -161 -343 -163q-153 8 -106 160
t299 509zM1207 1433q104 74 239 106q23 5 47 9q-18 24 -41 53q-197 214 -437 265q-140 28 -268 -18q-137 -51 -181 -163q-47 -121 52 -218q104 -107 345 -159q49 -11 109 -18q44 78 135 143zM1146 1021q15 -57 76 -103q61 -40 154.5 -32.5t231.5 87.5q88 75 128 123.5
t71 128.5q20 48 27 75q5 27 7 52q-91 -32 -206 -65q-171 -49 -424 -45h-15q-76 -120 -50 -221zM1836 1422q-9 32 -41.5 61.5t-72.5 37.5q-74 13 -156 -8q6 -10 12 -18q42 -68 34 -87q-5 -12 -18 -11q-8 2 -34 53q-9 19 -33 51q-45 -14 -91 -40q-128 -71 -213 -181
q272 -6 530 78q47 15 88 28q-1 18 -5 36zM1881 1354q4 -19 1.5 -32t-8.5 -24.5t-13.5 -23.5t-13.5 -28l123 158q-41 -19 -92 -38z" />
    <glyph glyph-name="G" unicode="G" horiz-adv-x="1290" 
d="M1864 1280q0 -6 -72 -87q-102 -113 -209 -286q-140 -227 -214 -318q-80 -99 -189 -175q-247 -172 -570 -172q-205 0 -349 89q-155 96 -155 251q0 119 133 208q130 87 300 87q163 0 303 -80q49 -29 109 -89q73 -72 73 -114q0 -14 -14 -14q-11 0 -21 16q-63 111 -179 175
q-119 67 -265 67q-160 0 -276.5 -76.5t-116.5 -179.5q0 -101 100 -180q108 -85 266 -85q243 0 492 155q240 148 387 374q-160 -111 -293 -111q-210 0 -289 183q-126 -21 -227 -21q-271 0 -432.5 87t-161.5 237q0 133 129 223q124 86 297 86q242 0 573 -178q267 213 494 213
q84 0 144.5 -37.5t60.5 -91.5q0 -151 -428 -381q-154 -83 -408 -131q29 -66 94.5 -106t145.5 -40q214 0 460 260q243 256 293 256q15 0 15 -14zM1649 1432q0 39 -49.5 66.5t-124.5 27.5q-203 0 -445 -201q43 -30 97 -79q67 -59 67 -77q0 -14 -12 -14q-11 0 -56 43
q-37 36 -129 100q-159 -150 -159 -274q0 -25 6 -61q282 50 512 186q293 174 293 283zM961 1321q-283 168 -545 168q-151 0 -262 -72q-119 -77 -119 -194q0 -127 137 -203q146 -82 408 -82q111 0 223 16q-6 40 -6 68q0 130 164 299z" />
    <glyph glyph-name="P" unicode="P" horiz-adv-x="1024" 
d="M2273 1483q0 -15 -18 -15q-13 0 -29 15q-96 86 -303 86q-200 0 -399 -131q80 -96 80 -217q0 -204 -147.5 -366.5t-332.5 -162.5q-43 0 -104 17q-107 -191 -320 -323q-234 -144 -491 -144q-209 0 -352.5 89.5t-143.5 215.5t140 221q136 92 307 92q141 0 268 -63
q59 -30 121 -85q65 -58 65 -87q0 -19 -18 -19q-9 0 -21 15q-153 196 -409 196q-151 0 -274 -76q-132 -80 -132 -192q0 -96 110 -174q114 -80 265 -80q195 0 406 136q198 127 368 347q-41 48 -41 92q0 25 21 25q7 0 21 -31q18 -40 20 -43l8 -12q19 26 94 135q244 355 428 500
q-115 90 -297 90q-318 0 -570 -160q-247 -156 -247 -344q0 -70 62 -126q65 -60 159 -60q197 0 345 160q143 154 143 346q0 32 -6.5 57t-6.5 31q0 14 15 14q41 0 41 -123q0 -197 -163 -360.5t-368 -163.5q-120 0 -197 74q-69 67 -69 155q0 212 260 379q264 170 613 170
q196 0 321 -113q210 140 436 140q99 0 214 -37q128 -41 128 -90zM1561 1214q0 108 -70 199q-138 -110 -213 -220q-53 -79 -152 -290q-37 -79 -84 -158q45 -12 80 -12q169 0 305 152q134 149 134 329z" />
    <glyph glyph-name="R" unicode="R" horiz-adv-x="1479" 
d="M2664 1384q0 -16 -16 -16q-10 0 -27 16q-153 162 -389 162q-192 0 -370 -96q90 -100 90 -240q0 -179 -138 -310t-348 -159q7 -49 7 -79q0 -147 -91 -307q-84 -128 -167 -255q-91 -142 -91 -245q0 -123 80 -211q77 -84 178 -84q150 0 284 136t134 292q0 76 -45 123
t-115 47q-121 0 -220.5 -134t-100.5 -292q0 -39 -21 -39q-18 0 -18 41q0 179 108.5 322t253.5 143q87 0 143 -58t56 -149q0 -169 -136 -320q-142 -157 -316 -157q-142 0 -238 110.5t-96 276.5q0 187 192 444q168 225 168 342q0 27 -4 47q-56 0 -121 13q-324 -506 -850 -506
q-228 0 -377 94.5t-149 241.5q0 145 130.5 246.5t313.5 101.5q154 0 285 -72q57 -31 118 -88q70 -65 70 -100q0 -19 -14 -19q-16 0 -37 31q-62 92 -180 148.5t-246 56.5q-161 0 -277 -87q-120 -88 -120 -216q0 -111 98 -186t248 -75q238 0 487 137q237 129 408 339
q-41 34 -41 61l4 12q-75 -46 -117 -62q-60 -22 -143 -22q-113 0 -188.5 75t-75.5 185q0 206 264 373.5t580 167.5q208 0 346 -104q184 108 407 108q150 0 260 -53q66 -32 118 -78.5t52 -73.5zM1901 1214q0 118 -82 209q-229 -162 -449 -546q54 -31 82 -95q188 24 316 144
q133 124 133 288zM1784 1454q-123 86 -307 86q-302 0 -550 -159q-243 -157 -243 -341q0 -93 61 -153t158 -60q177 0 338.5 156.5t165.5 339.5q1 57 23 57q18 0 18 -55q0 -110 -62 -224q-63 -118 -167 -192q24 4 30 4q19 0 43 -6q116 152 291 369q43 46 108 101q87 72 93 77z
M1401 776q-18 33 -53 64l-33 -56q38 -8 86 -8zM1264 872q-58 0 -58 -18q0 -14 19 -29z" />
    <glyph glyph-name="afii10065" unicode="&#x430;" horiz-adv-x="455" 
d="M612 520q0 -12 -24 -33q-75 -69 -150 -139q-119 -102 -178 -102q-50 0 -67 63q-69 -63 -117 -63q-74 0 -74 73q0 89 80 181q91 104 180 104q38 0 82 -49l31 39h125l-219 -289q-13 -16 -13 -18q0 -6 11 -6q55 0 256 200q49 49 63 49t14 -10zM322 524q-23 39 -46 39
q-8 0 -45 -39q-155 -164 -155 -225q0 -14 12 -14q36 0 117 98z" />
    <glyph glyph-name="afii10067" unicode="&#x432;" 
d="M1061 1368q0 -72 -167 -245t-566 -513q-222 -297 -222 -307q0 -16 11 -16q31 0 93 47q56 42 93 88q-2 12 -2 31q0 40 42 84q37 38 56 38q35 0 35 -28q0 -31 -65 -111q31 6 106 44q72 38 70 38q12 0 12 -14q0 -32 -81 -69q-75 -35 -140 -42q-138 -147 -234 -147
q-77 0 -77 82q0 67 61 158q66 97 281 343l304 352q236 255 324 255q66 0 66 -68zM1022 1362q0 29 -31 29q-51 0 -135 -89q-70 -74 -217 -272l-199 -266q582 470 582 598z" />
    <glyph glyph-name="afii10069" unicode="&#x434;" horiz-adv-x="455" 
d="M606 516q0 -9 -45 -51q-184 -172 -297 -238l-327 -440q-165 -221 -267 -221q-57 0 -57 61q0 97 168 281q163 179 389 338l29 43q-61 -43 -113 -43q-74 0 -74 86q0 91 94.5 181.5t194.5 90.5q44 0 76 -51l29 41h122l-200 -277q94 70 229 187q26 22 37 22q12 0 12 -10z
M352 516q-23 47 -49 47q-23 0 -143 -160q-64 -84 -64 -102q0 -12 13 -12q27 0 84 39q63 42 96 92zM98 139q-178 -132 -310 -280q-136 -153 -136 -228q0 -24 20 -24q28 0 89 60.5t114 139.5z" />
    <glyph glyph-name="afii10070" unicode="&#x435;" horiz-adv-x="379" 
d="M506 492q0 -26 -127 -111q-203 -135 -297 -135q-32 0 -57 23.5t-25 58.5q0 86 104 181t195 95q76 0 76 -55q0 -57 -99 -122q-93 -61 -165 -65q-27 -36 -27 -57q0 -16 16 -16q44 0 152 57q98 52 174 109q68 51 74 51t6 -14zM336 547q0 28 -35 28q-34 0 -88 -71l-80 -107
q58 8 130.5 60.5t72.5 89.5z" />
    <glyph glyph-name="afii10073" unicode="&#x437;" 
d="M573 518q0 -10 -16 -24q-179 -161 -422 -326q-32 -96 -85 -172q-44 -62 -163 -189q-102 -109 -195 -174q-81 -57 -118 -57q-59 0 -59 68q0 84 181 271q157 162 380 333q-76 0 -76 39q0 37 41 37q24 0 80 -21q137 144 137 232q0 20 -20 20q-35 0 -97 -59q-17 -17 -28 -17
q-13 0 -13 13q0 18 58 63q65 49 112 49q80 0 80 -102q0 -87 -127 -230l303 238q23 20 33 20q14 0 14 -12zM49 174q-183 -137 -333 -293q-162 -169 -162 -237q0 -29 24 -29q71 0 275 274q63 81 196 285z" />
    <glyph glyph-name="afii10074" unicode="&#x438;" horiz-adv-x="530" 
d="M688 518q0 -8 -18 -24q-271 -248 -375 -248q-60 0 -64 76q-82 -76 -139 -76q-84 0 -84 78q0 45 51 112l121 158h142l-197 -266q-14 -20 -14 -27q0 -12 14 -12q27 0 128 104q89 92 175 201h129l-201 -258q-20 -26 -20 -31q1 -4 6 -4q14 0 98 56q100 66 201 153
q24 20 33 20q14 0 14 -12z" />
    <glyph glyph-name="afii10075" unicode="&#x439;" horiz-adv-x="530" 
d="M688 518q0 -8 -18 -24q-271 -248 -375 -248q-60 0 -64 76q-82 -76 -139 -76q-84 0 -84 78q0 45 51 112l121 158h142l-197 -266q-14 -20 -14 -27q0 -12 14 -12q27 0 128 104q89 92 175 201h129l-201 -258q-20 -26 -20 -31q1 -4 6 -4q14 0 98 56q100 66 201 153
q24 20 33 20q14 0 14 -12zM282 831q0 -4 -4 37q-2 26 6 47q11 29 42 36q51 0 51 -44q0 -31 -14 -50q-10 -11 -43 -29q13 -34 64 -40q69 -9 158 60q28 23 48.5 40.5t34.5 28.5q22 23 31 23q10 0 10 -7q0 -10 -28 -39q-26 -23 -46 -41.5t-37 -31.5q-82 -66 -174 -64
q-78 4 -99 74z" />
    <glyph glyph-name="afii10076" unicode="&#x43a;" horiz-adv-x="530" 
d="M248 537q129 67 184 67q90 0 90 -72q0 -28 -20 -49.5t-43 -21.5q-22 0 -40 18t-18 41q0 29 21 29q16 0 16 -25.5t21 -25.5q24 0 24 32q0 33 -45 33q-47 0 -104 -29q-40 -21 -164 -102l-8 -12q146 57 184 57q43 0 43 -26q0 -18 -35 -64q-51 -67 -51 -74q0 -12 10 -12
q42 0 182 98q115 80 146 111q21 20 33 20q14 0 14 -10q0 -8 -18 -26q-86 -86 -221 -169q-129 -79 -175 -79q-69 0 -69 67q0 32 33 88q-117 -37 -144 -73l-53 -72h-125l275 362h120z" />
    <glyph glyph-name="afii10084" unicode="&#x442;" horiz-adv-x="872" 
d="M1030 518q0 -8 -18 -24q-275 -248 -371 -248q-34 0 -56 23t-22 50q0 51 62 130l80 106q-47 -13 -116 -62q-76 -52 -128 -112l-109 -125h-129l240 299q-142 -53 -238 -166l-112 -133h-123l250 295q-29 -2 -113 -68q-21 -16 -29 -16q-12 0 -12 12q0 18 65 70q70 55 111 55
q70 0 70 -86q118 86 155 86q52 0 52 -55q0 -26 -15 -64q156 119 234 119q61 0 61 -45q0 -18 -14 -37l-139 -186q-15 -19 -15 -27q0 -10 17 -10q23 0 115 60q100 65 198 151q23 20 33 20q16 0 16 -12z" />
    <glyph glyph-name="afii10082" unicode="&#x440;" horiz-adv-x="530" 
d="M690 518q0 -8 -18 -24q-279 -248 -357 -248q-32 0 -55.5 20.5t-23.5 50.5q0 48 63 129q21 27 82 111q-53 -11 -154 -92q-79 -63 -137 -125l-401 -557h-140l893 1151h66l-309 -436q145 106 225 106q65 0 65 -45q0 -20 -18 -45l-133 -178q-12 -17 -12 -27t12 -10
q47 0 305 211q25 20 33 20q14 0 14 -12z" />
    <glyph glyph-name="afii10083" unicode="&#x441;" 
d="M545 492q0 -19 -91 -84q-74 -52 -128 -82q-144 -80 -222 -80q-94 0 -94 96q0 84 96.5 173t190.5 89q70 0 70 -59q0 -40 -27 -69.5t-61 -29.5q-46 0 -46 74q-145 -153 -145 -219q0 -16 21 -16q92 0 263.5 110.5t157.5 110.5q15 0 15 -14z" />
    <glyph glyph-name="afii10085" unicode="&#x443;" horiz-adv-x="494" 
d="M649 518q0 -10 -16 -24q-167 -149 -414 -283l-323 -426q-100 -131 -161 -178q-52 -39 -108 -39q-55 0 -55 59q0 97 179 292q173 188 384 331l19 26q-44 -30 -82 -30q-82 0 -82 82q0 47 47 108l121 158h141l-195 -264q-16 -23 -16 -29q0 -12 12 -12q30 0 131 103
q97 98 175 202h131l-220 -270q142 67 285 186q25 20 33 20q14 0 14 -12zM57 139q-177 -130 -315 -288q-133 -154 -133 -220q0 -24 22 -24q28 0 89.5 61t113.5 139z" />
    <glyph glyph-name="afii10087" unicode="&#x445;" horiz-adv-x="530" 
d="M688 518q0 -8 -18 -24q-120 -109 -243 -182q-113 -66 -163 -66q-69 0 -69 104q-69 -104 -127 -104t-58 59q0 25 18.5 44.5t41.5 19.5q26 0 26 -23q0 -20 -16 -20q-3 0 -8.5 1t-10.5 1q-20 0 -20 -23q0 -22 25 -22q50 0 133 145q12 86 12 96q0 11 -6 11q-9 0 -78 -52
q-22 -16 -29 -16q-12 0 -12 12q0 10 84 80q54 45 98 45q49 0 49 -74q77 74 111 74q64 0 64 -65q0 -25 -20 -45.5t-44 -20.5q-45 0 -45 33q0 18 18 18q7 0 14 -7t13 -7q29 0 29 31q0 28 -27 28q-23 0 -125 -112q-6 -68 -6 -131q0 -17 12 -17q30 0 124 54q109 63 206 147
q24 20 33 20q14 0 14 -12z" />
    <glyph glyph-name="afii10089" unicode="&#x447;" 
d="M573 518q0 -10 -16 -24q-274 -248 -373 -248q-78 0 -78 71q0 49 138 240l-35 10q-88 -100 -111 -100q-12 0 -12 12q0 11 29 37q46 42 86 92q43 56 55 56q16 0 16 -15q0 -9 -8 -18l-28 -33q40 -8 86 -8q43 0 43 -25q0 -15 -19 -41l-137 -188q-14 -20 -14 -27q0 -10 14 -10
q65 0 317 211q25 20 33 20q14 0 14 -12z" />
    <glyph glyph-name="afii10081" unicode="&#x43f;" horiz-adv-x="645" 
d="M801 518q0 -10 -17 -24q-284 -248 -372 -248q-33 0 -55.5 22t-22.5 49q0 50 65 132q36 43 78 106q-46 -13 -116 -62q-76 -53 -128 -112l-108 -125h-135l252 297q-39 -5 -115 -70q-19 -16 -29 -16q-12 0 -12 12q0 18 65 70q70 55 111 55q68 0 68 -86q120 86 200 86
q62 0 62 -45q0 -19 -17 -41l-139 -182q-14 -19 -14 -27q0 -10 14 -10q63 0 318 211q24 20 32 20q15 0 15 -12z" />
    <glyph glyph-name="afii10080" unicode="&#x43e;" 
d="M551 498q0 -25 -133 -111q-220 -141 -314 -141t-94 86q0 94 100 183t209 89q82 0 82 -84q0 -38 -30 -89q-28 -45 -62 -73q102 49 191 129q27 25 39 25t12 -14zM336 547q0 22 -17 22q-43 0 -131 -123q-94 -132 -94 -149q0 -12 15 -12q20 0 62 33q49 39 91 98
q74 104 74 131z" />
    <glyph glyph-name="afii10066" unicode="&#x431;" 
d="M71 477q103 119 220 291q112 161 190 219q110 81 274 81t177 47h15q0 -99 -125 -126q-42 -8 -197 -8q-93 0 -182 -81q-47 -45 -133 -161q-39 -56 -126 -171q66 36 135 36q82 0 82 -84q0 -38 -30 -89q-28 -45 -62 -73q102 49 191 129q27 25 39 25t12 -14q0 -25 -133 -111
q-220 -141 -314 -141t-94 86q0 75 63 146zM262 416q74 104 74 131q0 22 -17 22q-43 0 -131 -123q-94 -132 -94 -149q0 -12 15 -12q20 0 43 12q-12 18 -7.5 34t16.5 25t27 8.5t24 -14.5z" />
    <glyph glyph-name="afii10023" unicode="&#x401;" horiz-adv-x="1174" 
d="M1597 1341q0 -188 -319 -361q-326 -176 -717 -185q-127 -163 -127 -301q0 -126 111 -177q36 97 127 230q98 143 240.5 236.5t261.5 93.5q112 0 112 -105q0 -189 -198 -362q-193 -168 -386 -168q-57 0 -135 18q-49 -137 -59 -254q-6 -65 -23 -65q-16 0 -16 22
q0 123 59 309q-97 35 -154 115q-61 83 -61 197q0 105 68 221q-162 26 -264 111q-109 92 -109 221q0 138 148 239q158 107 399 107q287 0 575 -154q151 154 312 154q66 0 110.5 -40t44.5 -102zM1556 1341q0 97 -110 97q-146 0 -279 -129q18 -12 64.5 -44t50.5 -34
q29 -19 29 -33t-13 -14q-8 0 -24 12q-95 71 -133 84q-56 -76 -56 -125q0 -5 1 -16.5t1 -16.5q105 -13 105 -59q0 -37 -43 -37q-51 0 -84 55q-131 -19 -264 -91q-124 -67 -205 -154q369 15 664.5 171.5t295.5 333.5zM1155 1065q0 15 -47 18q19 -26 37 -26q10 0 10 8z
M1106 1298q-284 146 -569 146q-206 0 -350 -94q-140 -90 -140 -211q0 -119 110 -204q101 -77 249 -95q82 112 247 192q186 89 396 92q0 96 57 174zM1243 768q0 70 -82 70q-75 0 -179 -58q-107 -59 -187 -147q-143 -156 -211 -330q55 -18 118 -18q181 0 347 147
q87 78 141 174q53 93 53 162zM1593 1626q0 -41 -43 -41q-26 0 -26 27q0 43 43 43q26 0 26 -29zM1444 1628q0 -16 -14.5 -29.5t-30.5 -13.5q-29 0 -29 29q0 43 43 43q31 0 31 -29z" />
    <glyph glyph-name="afii10071" unicode="&#x451;" horiz-adv-x="379" 
d="M414 741q0 -41 -43 -41q-27 0 -27 27q0 43 43 43q27 0 27 -29zM264 743q0 -16 -14.5 -29.5t-30.5 -13.5q-29 0 -29 29q0 43 43 43q31 0 31 -29zM506 492q0 -26 -127 -111q-197 -131 -295 -131q-32 0 -57 23.5t-25 58.5q0 84 92.5 167t184.5 83q75 0 75 -56
q0 -50 -92 -107q-86 -53 -151 -57q-25 -33 -25 -51t16 -18q44 0 151 55q98 51 173 107q68 51 74 51t6 -14zM315 524q0 29 -34 29q-31 0 -68 -49l-80 -107q55 8 118.5 52t63.5 75z" />
    <glyph glyph-name="afii10068" unicode="&#x433;" horiz-adv-x="374" 
d="M473 448q-210 -202 -289 -202q-78 0 -78 71q0 49 131 187q102 121 -68 19q-84 -82 -101 -82q-29 7 -19 32l78 71q57 43 114 59q36 14 65 14q65 0 65 -45q0 -20 -18 -45l-133 -178q-12 -17 -12 -27t12 -10q47 0 214 155z" />
    <glyph glyph-name="afii10072" unicode="&#x436;" horiz-adv-x="1031" 
d="M478 287l-138 -8l138 173l58 70q-40 -26 -133 -88h-1q-24 -43 -72 -87q-96 -89 -190 -89q-70 0 -70 59q0 40 27 69.5t61 29.5q46 0 46 -74q103 53 147 141.5t-35 94t-182 -86.5l-25 10q110 124 233 115q85 0 85 -96q0 -15 -3 -30q68 41 166 102l-1 -7l9 11h127l-182 -228
q55 34 125 77q23 35 61 70q97 89 191 89q70 0 70 -59q0 -40 -27 -69.5t-61 -29.5q-46 0 -46 74q-145 -153 -145 -219q0 -16 21 -16q92 0 263 110q167 108 158 111q15 0 15 -14q0 -19 -91 -84q-74 -52 -128 -82q-144 -80 -222 -80q-94 0 -94 96q0 25 9 52q-6 -4 -11 -8
q-36 -22 -149 -98h-1v3z" />
    <glyph glyph-name="afii10078" unicode="&#x43c;" horiz-adv-x="777" 
d="M306 403q-239 -195 -320 -135q-35 49 10 126q57 86 110 82.5t-23 -61.5t-67 -106t130 35q81 50 181 140l107 110h129l-240 -299q142 53 238 166l112 133h123l-205 -234q-73 -99 24 -54.5t202 145.5q24 20 33 20q14 0 14 -12q0 -8 -18 -24q-152 -163 -286 -191
q-95 0 -67 95q-132 -100 -194 -93q-52 0 -53 58q-7 35 60 99z" />
    <glyph glyph-name="m" unicode="m" horiz-adv-x="872" 
d="M1030 518q0 -8 -18 -24q-275 -248 -371 -248q-34 0 -56 23t-22 50q0 51 62 130l80 106q-47 -13 -116 -62q-76 -52 -128 -112l-109 -125h-129l240 299q-142 -53 -238 -166l-112 -133h-123l250 295q-29 -2 -113 -68q-21 -16 -29 -16q-12 0 -12 12q0 18 65 70q70 55 111 55
q70 0 70 -86q118 86 155 86q52 0 52 -55q0 -26 -15 -64q156 119 234 119q61 0 61 -45q0 -18 -14 -37l-139 -186q-15 -19 -15 -27q0 -10 17 -10q23 0 115 60q100 65 198 151q23 20 33 20q16 0 16 -12z" />
    <glyph glyph-name="afii10077" unicode="&#x43b;" horiz-adv-x="547" 
d="M282 374q-215 -166 -296 -106q-35 49 10 126q57 86 110 82.5t-23 -61.5t-67 -106t130 35q81 50 181 140l107 110h129l-175 -209q-92 -114 5 -69.5t202 145.5q24 20 33 20q14 0 14 -12q0 -8 -18 -24q-152 -163 -286 -191q-95 0 -56 120z" />
    <glyph glyph-name="afii10097" unicode="&#x44f;" horiz-adv-x="547" 
d="M282 374q-215 -166 -296 -106q-35 49 25 152q42 64 72 64t-23 -63.5t-44 -111.5t137 22q41 25 80 57q-7 -1 -13 -1q-65 0 -65 55q0 62 69.5 119t145.5 57q48 0 56 -40l22 22h89l-166 -208q-75 -121 22 -76.5t202 145.5q24 20 33 20q14 0 14 -12q0 -8 -18 -24
q-152 -163 -286 -191q-95 0 -56 120zM382 581q0 15 -12 15q-30 0 -91 -80q-65 -85 -65 -96q0 -8 10 -8q13 0 43 22q35 25 64 63q51 66 51 84z" />
    <glyph glyph-name="afii10079" unicode="&#x43d;" horiz-adv-x="530" 
d="M169 410l-84 -142h-117l99 163l113 163l124 3l-90 -126l124 2q42 60 90 121h129l-201 -258q-20 -26 -20 -31q1 -4 6 -4q14 0 98 56q100 66 201 153q24 20 33 20q14 0 14 -12q0 -8 -18 -24q-271 -248 -375 -248q-80 5 -20 132q17 28 36 56l-126 -2z" />
    <glyph glyph-name="afii10086" unicode="&#x444;" horiz-adv-x="650" 
d="M-198 -212l352 468q-29 -11 -55 -11q-94 0 -94 86q0 94 100 183t209 89q54 0 73 -38l277 369h66l-246 -346q34 14 63 15q94 0 94 -86q0 -65 -47 -127q68 41 131 97q27 25 39 25t12 -14q0 -25 -133 -111q-74 -48 -134 -79q-85 -63 -177 -63q-50 0 -70 31l-351 -493z
M331 546q0 22 -17 22q-67 -3 -155 -109t-70 -163q0 -12 15 -12q20 0 62 33q49 39 91 98q74 104 74 131zM315 302q0 -22 17 -22q67 3 155 109t70 163q0 12 -15 12q-20 0 -62 -33q-49 -39 -91 -98q-74 -104 -74 -131z" />
    <glyph glyph-name="afii10088" unicode="&#x446;" horiz-adv-x="530" 
d="M484 336q-2 -3 -8.5 -6t-11.5 -11.5t-5.5 -25t10.5 -45.5q27 -90 26 -146q2 -145 -118 -261q-121 -118 -273 -113q-142 0 -217 113q-24 63 -23 79.5t2 25.5q-2 99 77 169.5t191 68.5q91 -4 159 -72q13 -58 12 -66q0 -35 -41 -83q-45 -52 -86 -50q-17 0 -18 13q0 9 19 15
q38 13 64 43t26 86q-44 88 -140 82q-101 3 -166.5 -60.5t-46.5 -205.5q59 -123 183 -128q142 -4 252 100t108 246q0 54 -16 113q-20 56 -12 90q-84 -61 -136 -61q-60 0 -64 76q-82 -76 -139 -76q-84 0 -84 78q0 45 51 112l121 158h142l-197 -266q-14 -20 -14 -27
q0 -12 14 -12q27 0 128 104q89 92 175 201h129l-201 -258q-20 -26 -20 -31q1 -4 6 -4q14 0 98 56q100 66 201 153q24 20 33 20q14 0 14 -12q0 -8 -18 -24l-133 -116z" />
    <glyph glyph-name="afii10090" unicode="&#x448;" horiz-adv-x="752" 
d="M244 332q-101 -86 -158 -86q-84 0 -84 78q0 45 51 112l121 158h142l-197 -266q-14 -20 -14 -27q0 -12 14 -12q27 0 128 104q89 92 170 201h142l-197 -266q-14 -20 -14 -27q0 -12 14 -12q27 0 128 104q89 92 175 201h129l-201 -258q-20 -26 -20 -31q1 -4 6 -4q14 0 98 56
q100 66 201 153q24 20 33 20q14 0 14 -12q0 -8 -18 -24q-271 -248 -375 -248q-60 0 -64 76q-82 -76 -139 -76q-84 0 -85 86z" />
    <glyph glyph-name="afii10091" unicode="&#x449;" horiz-adv-x="752" 
d="M709 248q27 -90 26 -146q2 -145 -118 -261q-121 -118 -273 -113q-142 0 -217 113q-24 63 -23 79.5t2 25.5q-2 99 77 169.5t191 68.5q91 -4 159 -72q13 -58 12 -66q0 -35 -41 -83q-45 -52 -86 -50q-17 0 -18 13q0 9 19 15q38 13 64 43t26 86q-44 88 -140 82
q-101 3 -166.5 -60.5t-46.5 -205.5q59 -123 183 -128q142 -4 252 100t108 246q0 54 -16 113q-20 56 -30 80q-65 -51 -121 -51q-60 0 -64 76q-82 -76 -139 -76q-84 0 -85 86q-101 -86 -158 -86q-84 0 -84 78q0 45 51 112l121 158h142l-197 -266q-14 -20 -14 -27q0 -12 14 -12
q27 0 128 104q89 92 170 201h142l-197 -266q-14 -20 -14 -27q0 -12 14 -12q27 0 128 104q89 92 175 201h129l-201 -258q-20 -26 -20 -31q1 -4 6 -4q14 0 98 56q100 66 201 153q24 20 33 20q14 0 14 -12q0 -8 -18 -24q-125 -115 -218 -180z" />
    <glyph glyph-name="u" unicode="u" horiz-adv-x="530" 
d="M688 518q0 -8 -18 -24q-271 -248 -375 -248q-60 0 -64 76q-82 -76 -139 -76q-84 0 -84 78q0 45 51 112l121 158h142l-197 -266q-14 -20 -14 -27q0 -12 14 -12q27 0 128 104q89 92 175 201h129l-201 -258q-20 -26 -20 -31q1 -4 6 -4q14 0 98 56q100 66 201 153
q24 20 33 20q14 0 14 -12z" />
    <glyph glyph-name="afii10052" unicode="&#x403;" horiz-adv-x="1100" 
d="M2509 1536q0 -30 -152 -54q-145 -24 -301 -24q-106 0 -360 26.5t-353 26.5q-264 0 -480 -134q-222 -139 -222 -322q0 -81 57 -134t146 -53q165 0 288 132t123 313q0 92 19 92q24 0 24 -92q0 -190 -131 -336q-135 -150 -319 -150q-104 0 -176 67t-72 163q0 92 66.5 191
t177.5 169q213 135 526 135q108 0 325 -26.5t369 -26.5q241 0 390 45q20 6 36 6q19 0 19 -14zM1798 1436q0 -13 -26 -37q-157 -144 -316 -404q-261 -426 -448 -580q-211 -173 -514 -173q-200 0 -346 92q-152 97 -152 237q0 123 136 215.5t321 92.5q130 0 249 -50
q65 -26 121 -64.5t56 -57.5t-17 -19q-9 0 -33 21q-152 131 -383 131q-167 0 -286 -79.5t-119 -187.5q0 -101 100 -165q105 -68 279 -68q265 0 518 178q120 84 216 194q67 76 251 320q200 266 281 338q89 80 96 80q16 0 16 -14zM2277 1704q0 -19 -32 -39l-113 -68
q-11 -8 -29 -8q-14 0 -14 10q0 9 18 23l101 76q30 22 49 22q20 0 20 -16z" />
    <glyph glyph-name="afii10100" unicode="&#x453;" horiz-adv-x="374" 
d="M473 448q-210 -202 -289 -202q-78 0 -78 71q0 49 131 187q102 121 -68 19q-84 -82 -101 -82q-29 7 -19 32l78 71q57 43 114 59q36 14 65 14q65 0 65 -45q0 -20 -18 -45l-133 -178q-12 -17 -12 -27t12 -10q47 0 214 155zM434 831q0 -19 -32 -39l-113 -68q-11 -8 -29 -8
q-14 0 -14 10q0 9 18 23l101 76q30 22 49 22q20 0 20 -16z" />
    <glyph glyph-name="afii10061" unicode="&#x40c;" horiz-adv-x="1403" 
d="M2636 1477q0 -17 -19 -17q3 0 -66 22.5t-157 22.5q-186 0 -355 -108q-165 -106 -368 -353q-149 -180 -282 -233q22 -51 22 -123q0 -160 -182 -471q-135 -230 -135 -338q0 -99 80 -171q83 -75 202 -75q144 0 268 130q128 133 128 296q0 65 -41 107.5t-107 42.5
q-122 0 -229 -139q-102 -131 -105 -263q0 -30 -16 -30q-21 0 -21 37q0 146 113 286q118 146 258 146q83 0 134.5 -54t51.5 -139q0 -181 -135.5 -320t-306.5 -139q-153 0 -250.5 105.5t-97.5 267.5q0 160 115 332q215 323 215 455q0 18 -7 43q-51 -13 -112 -13
q-114 -240 -310 -388q-205 -154 -432 -154q-200 0 -341 106q-134 102 -134 232q0 125 122 212t306 87q146 0 273 -58q47 -21 109 -67q73 -55 73 -82q0 -13 -12 -13q-9 0 -49 37q-158 144 -394 144q-164 0 -274.5 -75.5t-110.5 -184.5q0 -110 90.5 -185.5t219.5 -75.5
q190 0 392 131.5t376 370.5q-31 22 -31 56q0 55 110 55q120 168 166 237q-290 -211 -530 -211q-140 0 -244 82.5t-104 188.5q0 145 169 240q159 90 378 90q307 0 526 -158l57 61q34 39 47 39q21 0 21 -16q0 -13 -31 -41q-21 -20 -63 -66q94 -85 94 -106q0 -19 -19 -19
q-13 0 -41 33q-14 17 -63 60q-103 -127 -152 -204q-36 -58 -129 -235q45 -27 72 -61q125 48 272 223q209 248 372 356q182 119 384 119q58 0 141 -18q99 -22 99 -49zM1546 1370q-213 150 -495 150q-206 0 -354 -81q-156 -84 -156 -210q0 -91 90 -159.5t211 -68.5
q171 0 360 102q182 97 344 267zM1327 834q-17 25 -47 40l-29 -51q31 0 76 11zM1190 899q-47 -3 -47 -27q0 -9 14 -20zM2110 1749q0 -19 -32 -39l-113 -68q-11 -8 -29 -8q-14 0 -14 10q0 9 18 23l101 76q30 22 49 22q20 0 20 -16z" />
    <glyph glyph-name="afii10062" unicode="&#x40e;" horiz-adv-x="1288" 
d="M1774 1128l-560 -706q-120 -159 -317 -395q62 -35 156 -119q110 -98 110 -137q0 -19 -16 -19q-10 0 -37 33q-100 122 -246 209q-433 -461 -870 -461q-168 0 -281.5 64.5t-113.5 160.5q0 155 224.5 272t524.5 117q225 0 430 -69q55 63 168 211q-92 -47 -172 -47
q-184 0 -184 147q0 111 151 260q233 229 328 361q115 159 115 286q0 95 -83 151t-220 56q-294 0 -545.5 -162t-251.5 -354q0 -88 61 -143.5t152 -55.5q179 0 346 156t168 330q0 53 23 53q20 0 20 -31q0 -200 -175.5 -373t-381.5 -173q-106 0 -177 66q-75 69 -75 175
q0 206 265 379q262 172 569 172q354 0 354 -297q0 -155 -123 -333q-79 -114 -248 -283q-203 -203 -203 -258q0 -80 123 -80q99 0 195 71q93 70 219 234l410 532h168zM750 43q-185 61 -408 61q-284 0 -494 -107q-204 -105 -204 -241q0 -80 93.5 -128t239.5 -48q222 0 401 109
q177 106 372 354zM1402 1532q0 -5 -5 46q-3 33 7 59q15 37 55 46q66 0 66 -55q0 -39 -19 -63q-13 -14 -55 -36q17 -43 82 -51q90 -11 204 75q37 29 63 51t45 36q28 29 40 29t12 -9q0 -13 -36 -49q-33 -29 -59 -52t-48 -39q-105 -83 -224 -80q-101 4 -128 92z" />
    <glyph glyph-name="afii10110" unicode="&#x45e;" horiz-adv-x="494" 
d="M649 518q0 -10 -16 -24q-167 -149 -414 -283l-323 -426q-100 -131 -161 -178q-52 -39 -108 -39q-55 0 -55 59q0 97 179 292q173 188 384 331l19 26q-44 -30 -82 -30q-82 0 -82 82q0 47 47 108l121 158h141l-195 -264q-16 -23 -16 -29q0 -12 12 -12q30 0 131 103
q97 98 175 202h131l-220 -270q142 67 285 186q25 20 33 20q14 0 14 -12zM57 139q-177 -130 -315 -288q-133 -154 -133 -220q0 -24 22 -24q28 0 89.5 61t113.5 139zM282 831q0 -4 -4 37q-2 26 6 47q11 29 42 36q51 0 51 -44q0 -31 -14 -50q-10 -11 -43 -29q13 -34 64 -40
q69 -9 158 60q28 23 48.5 40.5t34.5 28.5q22 23 31 23q10 0 10 -7q0 -10 -28 -39q-26 -23 -46 -41.5t-37 -31.5q-82 -66 -174 -64q-78 4 -99 74z" />
    <glyph glyph-name="afii10057" unicode="&#x408;" horiz-adv-x="1176" 
d="M2189 1491q0 -30 -33 -51t-79 -21q-49 0 -160 27q-87 -56 -262 -191q88 -63 88 -174q0 -176 -158 -319.5t-352 -143.5q-31 0 -51 5q-155 -259 -252 -398q79 -15 220 -69q177 -68 177 -113q0 -18 -18 -18q-11 0 -25 10q-148 107 -383 151q-210 -320 -504 -510
q-301 -194 -600 -194q-137 0 -218 56t-81 153q0 223 348 396q338 169 748 169q75 0 176 -8q104 125 313 403q-72 37 -118.5 109.5t-46.5 159.5q0 230 243.5 411.5t546.5 181.5q91 0 203 -24q116 59 180 59q43 0 70.5 -17t27.5 -40zM2144 1487q0 20 -57 20q-36 0 -113 -32
q93 -17 111 -17q59 0 59 29zM1858 1458q-56 15 -160 15q-270 0 -498 -166q-231 -168 -231 -377q0 -175 145 -238q282 372 465 551q-27 8 -61 8q-110 0 -200 -83.5t-110 -200.5q-8 -52 -26 -52q-21 0 -21 25q0 111 105 234q101 118 254 118q45 0 94 -16q114 103 244 182z
M1692 1085q0 98 -70 140q-128 -138 -203 -238q-81 -109 -209 -317h27q171 0 310 122q145 127 145 293zM735 207q-86 6 -147 6q-373 0 -707 -164.5t-334 -353.5q0 -68 54 -111q57 -47 153 -47q213 0 486 191q262 182 495 479z" />
    <glyph glyph-name="afii10145" unicode="&#x40f;" horiz-adv-x="1442" 
d="M1860 1268l-560 -711q-133 -169 -133 -229q0 -31 39 -31q86 0 186 75q3 2 153 135q8 7 18 7q14 0 14 -12q0 -23 -127 -128q-146 -120 -250 -120q-127 0 -127 115q0 37 10 75q-234 -202 -360 -202q-63 0 -106 39q-46 41 -46 106q0 109 152 260q242 241 332 367
q110 153 110 280q0 95 -83.5 151t-219.5 56q-294 0 -545 -162t-251 -354q0 -88 61 -143.5t152 -55.5q171 0 337 151q171 155 177 335q1 53 20 53q23 0 23 -31q0 -193 -176 -368q-178 -178 -384 -178q-105 0 -177 67t-72 174q0 206 263.5 378.5t569.5 172.5q354 0 354 -297
q0 -240 -364 -610q-141 -143 -148 -151q-61 -69 -61 -113q0 -76 86 -76q110 0 283 149q140 121 272 293l410 533h168zM1024 336q36 66 33 48q-2 -12 -4 -23q-1 -4 -6 -10q25 -111 -151 -396q-71 -116 -218 -244q-98 -82 -163 -121q-174 -103 -308 -105.5t-188 98.5
q-46 89 6 199q51 105 161 171q157 93 432 99q72 -9 122 -21q65 -15 71 -26q5 -10 -3 -15q-6 -4 -51 8q-36 10 -118 18q-271 8 -441 -92q-96 -57 -143 -148q-50 -98 -9 -176q43 -86 157 -85q124 0 292 100q72 43 162 117q164 141 266 320q107 194 101 284z" />
    <glyph glyph-name="afii10053" unicode="&#x404;" horiz-adv-x="1264" 
d="M253 691q-150 -209 -150 -336q0 -95 83.5 -151t219.5 -56q294 0 545 162t251 354q0 88 -61 143.5t-152 55.5q-171 0 -337 -151q-171 -155 -177 -335q-1 -53 -20 -53q-23 0 -23 31q0 193 176 368q178 178 384 178q105 0 177 -67t72 -174q0 -206 -263.5 -378.5
t-569.5 -172.5q-354 0 -362 304q-17 198 186 461t429 416.5t529 224.5q275 34 421 -58q152 -97 152 -237q0 -123 -136 -215.5t-321 -92.5q-130 0 -249 50q-65 26 -121 64.5t-56 57.5t17 19q9 0 33 -21q152 -131 383 -131q167 0 286 79.5t119 187.5q0 101 -100 165
q-105 68 -279 68q-265 0 -514 -181.5t-351.5 -301.5t-220.5 -277zM442 897q24 73 140 73l88 -27q7 -3 11 -3q15 10 60 41q55 25 18 -42q-41 -57 -87 -57l-96 37q-64 9 -92 -19l-21 -18z" />
    <glyph glyph-name="glyph320" horiz-adv-x="1024" 
 />
    <glyph glyph-name="afii10050" unicode="&#x490;" horiz-adv-x="1100" 
d="M2570 1702q-123 -203 -240.5 -223.5t-273.5 -20.5q-106 0 -360 26.5t-353 26.5q-264 0 -480 -134q-222 -139 -222 -322q0 -81 57 -134t146 -53q165 0 288 132t123 313q0 92 19 92q24 0 24 -92q0 -190 -131 -336q-135 -150 -319 -150q-104 0 -176 67t-72 163
q0 92 66.5 191t177.5 169q213 135 526 135q108 0 325 -26.5t369 -26.5q312 -16 388 111t118 92zM1798 1436q0 -13 -26 -37q-157 -144 -316 -404q-261 -426 -448 -580q-211 -173 -514 -173q-200 0 -346 92q-152 97 -152 237q0 123 136 215.5t321 92.5q130 0 249 -50
q65 -26 121 -64.5t56 -57.5t-17 -19q-9 0 -33 21q-152 131 -383 131q-167 0 -286 -79.5t-119 -187.5q0 -101 100 -165q105 -68 279 -68q265 0 518 178q120 84 216 194q67 76 251 320q200 266 281 338q89 80 96 80q16 0 16 -14z" />
    <glyph glyph-name="afii10098" unicode="&#x491;" horiz-adv-x="374" 
d="M398 730q1 -7 -91 -113q64 -1 64 -45q0 -20 -18 -45l-133 -178q-12 -17 -12 -27t12 -10q47 0 214 155l39 -19q-210 -202 -289 -202q-78 0 -78 71q0 49 131 187q57 68 28 65q-63 -70 -73 -71q-6 -1 -7 2q-1 4 21 44q-17 -9 -37 -21q-84 -82 -101 -82q-29 7 -19 32l78 71
q55 42 111 58q51 91 55 107q7 22 13 26q-4 -1 75 1q16 1 17 -6zM307 736l-1 -1z" />
    <glyph glyph-name="afii10101" unicode="&#x454;" 
d="M545 492q0 -19 -91 -84q-74 -52 -128 -82q-144 -80 -222 -80q-94 0 -94 96q0 84 96.5 173t190.5 89q70 0 70 -59q0 -40 -27 -69.5t-61 -29.5q-46 0 -46 74q-58 -61 -93 -108q16 4 38 4l52 -15q4 -2 6 -2l36 24q32 14 10 -25q-24 -32 -51 -32l-57 21q-37 5 -54 -11l-8 -7
q-24 -41 -24 -68q0 -16 21 -16q92 0 263 110q167 108 158 111q15 0 15 -14z" />
    <glyph glyph-name="afii61352" unicode="&#x2116;" horiz-adv-x="2246" 
d="M2669 1346q0 -19 -15 -19q-9 0 -57 32q-58 39 -110 59q-83 32 -179 32q-642 0 -1390 -1155q-12 -19 -23 -19q-12 0 -12 15q0 55 68 258q57 171 110 297q93 224 233 420q-106 -115 -196 -271q-243 -415 -444 -578q-216 -175 -519 -175q-191 0 -339 92q-156 98 -156 237
q0 123 135 215.5t321 92.5q124 0 248 -50q65 -25 120.5 -64t55.5 -58t-14 -19q-11 0 -35 21q-152 131 -381 131q-167 0 -287 -80t-120 -187q0 -101 100 -165q105 -68 278 -68q283 0 504 161q200 147 482 531q133 182 219 271q27 27 107 89q93 72 116 72q14 0 14 -12
q0 -11 -33 -45q-168 -174 -282.5 -394t-224.5 -583q713 1065 1339 1065q103 0 205 -41q69 -28 118 -63q44 -31 44 -45zM2275 764l-8 -62q-76 -72 -171 -72q-48 0 -113 40.5t-97 40.5q-78 0 -171 -79l7 63q76 75 172 75q41 0 106.5 -42t106.5 -42q48 0 91 25q39 27 77 53z
M2533 1263q0 -111 -161 -309q-113 -138 -226 -138q-112 0 -112 111t154.5 257t272.5 146q72 0 72 -67zM2512 1262q0 44 -44 44q-94 0 -224 -145t-130 -243q0 -71 60 -71q84 0 198 141q140 174 140 274z" />
    <glyph glyph-name="afii10056" unicode="&#x407;" horiz-adv-x="1139" 
d="M1864 1667q0 -41 -52 -41q-28 0 -28 27q0 43 49 43q31 0 31 -29zM1692 1669q0 -16 -17 -29.5t-35 -13.5q-32 0 -32 29q0 43 49 43q35 0 35 -29zM1956 1503q0 -27 -25.5 -46t-64.5 -19q-23 0 -94 16q-134 -106 -213 -192q92 -65 92 -181q0 -137 -112 -235t-265 -98
q-19 0 -47 2q-126 -222 -364 -363q-247 -145 -519 -145q-215 0 -348 93t-133 238q0 139 129.5 236.5t308.5 97.5q233 0 447 -200q43 -41 43 -62q0 -22 -19 -22q-8 0 -37 30q-202 215 -434 215q-160 0 -277.5 -86.5t-117.5 -206.5q0 -114 89 -186t232 -72q442 0 869 469
q-142 73 -142 254q0 190 186 341q183 149 404 149q87 0 223 -31q82 47 123 47q66 0 66 -43zM1915 1497q0 12 -27 12q-25 0 -65 -22q34 -6 59 -6q33 0 33 16zM1718 1466q-89 19 -170 19q-219 0 -383 -136t-164 -313q0 -154 125 -217q106 119 207 253q106 139 137 175
q-8 2 -22 2q-48 0 -95 -32.5t-69 -79.5q-11 -23 -24 -23q-19 0 -19 21q0 51 80 107q75 52 129 52q12 0 57 -8q90 93 211 180zM1604 1077q0 102 -76 148q-107 -130 -211 -322q-19 -35 -64 -115q150 0 250.5 81.5t100.5 207.5z" />
    <glyph glyph-name="uni0406" unicode="&#x406;" horiz-adv-x="1212" 
d="M1956 1503q0 -27 -25.5 -46t-64.5 -19q-23 0 -94 16q-134 -106 -213 -192q92 -65 92 -181q0 -137 -112 -235t-265 -98q-13 0 -28.5 1t-18.5 1q-126 -222 -364 -363q-247 -145 -519 -145q-215 0 -348 93t-133 238q0 139 129.5 236.5t308.5 97.5q233 0 447 -200
q43 -41 43 -62q0 -22 -19 -22q-8 0 -37 30q-202 215 -434 215q-160 0 -277.5 -86.5t-117.5 -206.5q0 -114 89 -186t232 -72q442 0 869 469q-142 73 -142 254q0 190 186 341q183 149 404 149q87 0 223 -31q82 47 123 47q66 0 66 -43zM1915 1497q0 12 -27 12q-25 0 -65 -22
q34 -6 59 -6q33 0 33 16zM1718 1466q-89 19 -170 19q-219 0 -383 -136t-164 -313q0 -154 125 -217q106 119 207 253q106 139 137 175q-8 2 -22 2q-48 0 -95 -32.5t-69 -79.5q-11 -23 -24 -23q-19 0 -19 21q0 51 80 107q75 52 129 52q12 0 57 -8q90 93 211 180zM1604 1077
q0 102 -76 148q-107 -130 -211 -322q-19 -35 -64 -115q150 0 250.5 81.5t100.5 207.5z" />
    <glyph glyph-name="afii10103" unicode="&#x456;" horiz-adv-x="303" 
d="M385 766q0 -66 -66 -66q-25 0 -44 19.5t-19 44.5q0 26 19 45.5t47 19.5q63 0 63 -63zM461 518q0 -7 -19 -24q-269 -248 -360 -248q-37 0 -60.5 27t-23.5 69q0 51 61 119l121 133h127l-188 -223q-37 -44 -37 -62q0 -12 14 -12q66 0 318 213q24 20 32 20q15 0 15 -12z" />
    <glyph glyph-name="afii10054" unicode="&#x405;" horiz-adv-x="985" 
d="M2101 1423q0 -200 -308 -403q-293 -193 -607 -232q-148 -275 -304 -399q-186 -147 -452 -147q-197 0 -314.5 84.5t-117.5 218.5q0 117 108 205t256 88q124 0 263 -68q55 -27 124 -79q78 -59 78 -83q0 -18 -20 -18q-14 0 -27 14q-76 85 -188.5 137t-220.5 52
q-135 0 -231.5 -75t-96.5 -177q0 -104 84 -168t219 -64q192 0 355 114q156 108 319 345q-82 -4 -107 -4q-259 0 -427 113q-173 115 -173 303q0 155 151 270q156 119 380 119q172 0 351 -62t302 -164q247 216 434 216q77 0 123.5 -37.5t46.5 -98.5zM2058 1421q0 97 -135 97
q-148 0 -391 -207q84 -77 84 -97q0 -18 -17 -18q-14 0 -40 29q-30 32 -58 55q-91 -97 -144 -181q-43 -67 -145 -263q280 37 555 216q291 189 291 369zM1464 1315q-268 211 -614 211q-196 0 -338 -96q-147 -99 -147 -246q0 -167 156 -273q153 -104 388 -104q63 0 140 6
q188 289 415 502z" />
    <glyph glyph-name="afii10102" unicode="&#x455;" 
d="M551 498q0 -14 -131 -111q-191 -141 -330 -141q-117 0 -117 80q0 46 64 112l170 176q0 37 24 37l17 -4q60 45 102 45q19 0 19 -16q0 -19 -37 -35q-27 -12 -47 -27q43 -59 43 -122q0 -76 -39 -144q158 87 211 139q24 25 39 25q12 0 12 -14zM268 532q0 22 -14 48l-166 -174
q-49 -52 -49 -82q0 -39 80 -39q64 46 106.5 114.5t42.5 132.5z" />
    <glyph glyph-name="afii10105" unicode="&#x458;" horiz-adv-x="455" 
d="M473 766q0 -66 -63 -66q-26 0 -45 19.5t-19 44.5q0 65 64 65q63 0 63 -63zM612 518q0 -10 -16 -24q-113 -99 -266 -205l-221 -154l-107 -147q-108 -150 -223 -256q-128 -117 -199 -117q-55 0 -55 63q0 85 130 220q121 125 322 262l246 411q-68 -68 -114 -104
q-16 -12 -27 -14q-14 0 -14 10t57 61q42 38 72 70h198l-235 -365q305 190 405 281q23 20 33 20q14 0 14 -12zM-59 82q-377 -279 -377 -401q0 -27 24 -27q45 0 110 77q52 62 179 255z" />
    <glyph glyph-name="afii10104" unicode="&#x457;" horiz-adv-x="303" 
d="M369 741q0 -41 -43 -41q-27 0 -27 27q0 43 43 43q27 0 27 -29zM219 743q0 -16 -14.5 -29.5t-30.5 -13.5q-29 0 -29 29q0 43 43 43q31 0 31 -29zM461 518q0 -7 -19 -24q-264 -244 -358 -244q-37 0 -61.5 26.5t-24.5 65.5q0 51 61 119l121 133h127l-188 -223
q-35 -42 -35 -58q0 -12 14 -12q68 0 316 209q24 20 32 20q15 0 15 -12z" />
    <glyph glyph-name="afii10060" unicode="&#x40b;" horiz-adv-x="1497" 
d="M1798 1436q0 -13 -26 -37q-157 -144 -316 -404q-40 -65 -78 -124q49 -34 88 -130q7 -49 7 -79q0 -147 -91 -307q-84 -128 -167 -255q-91 -142 -91 -245q0 -123 80 -211q77 -84 178 -84q150 0 284 136t134 292q0 76 -45 123t-115 47q-121 0 -220.5 -134t-100.5 -292
q0 -39 -21 -39q-18 0 -18 41q0 179 108.5 322t253.5 143q87 0 143 -58t56 -149q0 -169 -136 -320q-142 -157 -316 -157q-142 0 -238 110.5t-96 276.5q0 187 192 444q168 225 168 342q0 27 -4 47q-26 67 -57 99q-197 -296 -346 -419q-211 -173 -514 -173q-200 0 -346 92
q-152 97 -152 237q0 123 136 215.5t321 92.5q130 0 249 -50q65 -26 121 -64.5t56 -57.5t-17 -19q-9 0 -33 21q-152 131 -383 131q-167 0 -286 -79.5t-119 -187.5q0 -101 100 -165q105 -68 279 -68q265 0 518 178q120 84 216 194q67 76 251 320q200 266 281 338q89 80 96 80
q16 0 16 -14zM2509 1536q0 -30 -152 -54q-145 -24 -301 -24q-106 0 -360 26.5t-353 26.5q-264 0 -480 -134q-222 -139 -222 -322q0 -81 57 -134t146 -53q165 0 288 132t123 313q0 92 19 92q24 0 24 -92q0 -190 -131 -336q-135 -150 -319 -150q-104 0 -176 67t-72 163
q0 92 66.5 191t177.5 169q213 135 526 135q108 0 325 -26.5t369 -26.5q241 0 390 45q20 6 36 6q19 0 19 -14z" />
    <glyph glyph-name="afii10108" unicode="&#x45b;" horiz-adv-x="494" 
d="M711 941l-8 -62q-76 -72 -171 -72q-35 0 -79 21l-47 -64l-173 -232l32 17q89 45 136 45q48 0 48 -33q0 -14 -35 -67l-95 -144q-24 -37 -24 -41q0 -12 6 -12q15 0 126 77q115 81 175 136q22 20 33 20q14 0 14 -12q0 -10 -16 -24q-276 -248 -359 -248q-67 0 -67 63
q0 65 96 205q-120 -47 -178 -127l-96 -131h-125l473 615q-34 17 -55 17q-78 0 -171 -79l7 63q76 75 172 75q34 0 84 -29q398 516 363 424h63q-35 -37 -238 -312l-114 -154q31 -13 55 -13q48 0 91 25q39 27 77 53zM847 1342q5 11 -7 0h7z" />
    <glyph glyph-name="afii10059" unicode="&#x40a;" horiz-adv-x="2069" 
d="M1699 825q126 18 247 -103q67 -84 67 -179q0 -217 -206.5 -406t-440.5 -189q-103 0 -167.5 56t-64.5 152q0 31 7 61q35 307 350 657q-95 -9 -264 -32q-195 -327 -354 -444q-176 -130 -492 -154q-72 -129 -105 -252q-7 -27 -22 -27q-18 0 -18 23q0 85 96 256
q-169 0 -303 103q-142 109 -142 263q0 125 108 204t286 79q255 0 481 -199q159 104 368 166q55 65 181 209q-228 -137 -437 -137q-167 0 -285 81.5t-118 196.5q0 134 132 223t319 89q298 0 624 -226q7 5 19 15q25 21 50 43q45 37 52 37q12 0 12 -13q0 -25 -77 -92
q-6 -4 -19 -16q103 -82 103 -101q0 -16 -17 -16q-10 0 -119 84q-110 -103 -161 -163q-47 -57 -132 -185q82 15 287 35q704 616 1002 616q57 0 95 -32t38 -83q0 -84 -90 -182q-93 -100 -252 -184q-150 -79 -306 -114q-124 -28 -372 -52q-51 -48 -96 -95q73 31 136 27z
M1195 179q0 -181 168 -181q206 0 399 179.5t193 365.5q0 83 -78.5 157t-169.5 74q-108 -8 -243 -86q-121 -143 -187 -273q178 148 314 148q34 0 34 -20q0 -22 -57 -35q-157 -36 -265 -141q-61 -60 -88 -119zM1511 1266q-312 217 -585 217q-176 0 -293 -79.5t-117 -193.5
q0 -96 100 -164q102 -71 254 -71q313 0 641 291zM727 670q-85 88 -218 138q-119 44 -233 44q-157 0 -251.5 -66t-94.5 -174q0 -114 103 -201t250 -87q42 0 106 12q141 186 338 334zM2638 1423q0 74 -94 74q-272 0 -836 -557q366 29 602 152q152 78 242 171q86 89 86 160z
M1085 805q-174 -60 -294 -139q20 -29 20 -41q0 -17 -18 -17q-9 0 -39 31q-179 -136 -297 -285q236 74 413 222q97 80 215 229z" />
    <glyph glyph-name="afii10058" unicode="&#x409;" horiz-adv-x="1984" 
d="M1734 833q85 14 167 -77q45 -62 45 -133q0 -162 -139.5 -303t-297.5 -141q-70 0 -114 41q-5 6 -10 11q-135 147 61.5 476t667.5 753q-102 -17 -235 -114q-119 -88 -215.5 -201t-172.5 -229q-113 -175 -152 -228q-205 -249 -458 -383q-148 -63 -322 -63q-227 0 -380 92
q-148 89 -148 213q0 122 126 212.5t302 90.5q144 0 274 -62q8 10 86 -60.5t78 -92.5q0 -17 -14 -17t-29 23q-39 59 -102 96l-35 19q-126 57 -271 57q-146 0 -261 -80t-115 -180q0 -97 102 -169.5t242 -72.5q172 0 433 128q186 104 429 370q31 31 160 180q203 236 372 359
q79 57 184 105t156 48q21 0 21 -16q0 -22 -86 -105q-308 -296 -496 -600q81 57 147 53zM1661 638q23 0 23 -15q0 -17 -39 -26q-106 -27 -179 -105.5t-73 -157.5q0 -118 114 -118q139 0 253.5 111t130.5 234.5t-37 178.5t-126 51.5t-182 -80.5q-51 -88 -91 -178
q116 105 206 105z" />
    <glyph glyph-name="afii10109" unicode="&#x45c;" horiz-adv-x="530" 
d="M248 537q129 67 184 67q90 0 90 -72q0 -28 -20 -49.5t-43 -21.5q-22 0 -40 18t-18 41q0 29 21 29q16 0 16 -25.5t21 -25.5q24 0 24 32q0 33 -45 33q-47 0 -104 -29q-40 -21 -164 -102l-8 -12q146 57 184 57q43 0 43 -26q0 -18 -35 -64q-51 -67 -51 -74q0 -12 10 -12
q42 0 182 98q115 80 146 111q21 20 33 20q14 0 14 -10q0 -8 -18 -26q-86 -86 -221 -169q-129 -79 -175 -79q-69 0 -69 67q0 32 33 88q-117 -37 -144 -73l-53 -72h-125l275 362h120zM587 915q0 -19 -32 -39l-113 -68q-11 -8 -29 -8q-14 0 -14 10q0 9 18 23l101 76
q30 22 49 22q20 0 20 -16z" />
    <glyph glyph-name="afii10193" unicode="&#x45f;" horiz-adv-x="530" 
d="M688 518q0 -8 -18 -24q-271 -248 -375 -248q-60 0 -64 76q-82 -76 -139 -76q-84 0 -84 78q0 45 51 112l121 158h142l-197 -266q-14 -20 -14 -27q0 -12 14 -12q27 0 128 104q89 92 175 201h129l-201 -258q-20 -26 -20 -31q1 -4 6 -4q14 0 98 56q100 66 201 153
q24 20 33 20q14 0 14 -12zM185 268q10 -24 30 -80q16 -59 16 -113q2 -142 -108 -246t-252 -100q-124 5 -183 128q-19 142 46.5 205.5t166.5 60.5q96 6 140 -82q0 -56 -26 -86t-64 -43q-19 -6 -19 -15q1 -13 18 -13q41 -2 86 50q41 48 41 83q1 8 -12 66q-68 68 -159 72
q-112 2 -191 -68.5t-77 -169.5q-1 -9 -2 -25.5t23 -79.5q75 -113 217 -113q152 -5 273 113q120 116 118 261q1 56 -26 146l-20 66z" />
    <glyph glyph-name="afii10092" unicode="&#x44a;" horiz-adv-x="508" 
d="M175 246q-69 4 -69 71q0 40 94 177q20 30 44 63l-35 10q-88 -100 -111 -100q-12 0 -12 12q0 11 29 37q46 42 86 92q43 56 55 56q16 0 16 -15q0 -9 -8 -18l-28 -33q40 -8 86 -8q43 0 43 -25q0 -15 -19 -41l-26 -35q15 2 29 2q59 0 59 -58q0 -23 -16 -53q20 12 33 20
q41 26 140 98q53 10 42.5 -4t-314.5 -210q-39 -24 -81 -34zM361 452q0 15 -12 15q-34 12 -92.5 -60.5t-58 -90t10.5 -17.5q15 0 38 11q-6 14 -1.5 27t14 21t22 9.5t23.5 -8.5l2 3q54 71 54 90z" />
    <glyph glyph-name="afii10099" unicode="&#x452;" horiz-adv-x="494" 
d="M886 1405l-284 -375l-114 -155q38 -12 55 -12q48 0 91 25q39 27 77 53l-8 -62q-76 -72 -171 -72q-25 0 -77 24l-164 -221l-58 -78l32 17q89 45 136 45q48 0 48 -33q0 -14 -128 -240q-212 -353 -452 -512l-35 25q162 57 373 475q26 58 96 205q-120 -47 -178 -127l-96 -131
h-125l473 614q-40 18 -55 18q-78 0 -171 -79l7 63q76 75 172 75q25 0 81 -33l405 498z" />
    <glyph glyph-name="uniE008" unicode="&#xe008;" horiz-adv-x="1024" 
 />
    <glyph glyph-name="afii10094" unicode="&#x44c;" horiz-adv-x="380" 
d="M250 329q-108 -90 -168 -83q-37 0 -60.5 27t-23.5 69q0 51 61 119l121 133h127l-88 -97q15 2 29 2q59 0 59 -58q0 -23 -27 -64q93 45 215 155q26 25 35 25q14 1 14 -12q0 -8 -18 -24q-171 -154 -276 -192zM260 460q0 15 -12 15q-34 12 -92.5 -60.5t-58 -90t10.5 -17.5
q15 0 38 11q-6 14 -1.5 27t14 21t22 9.5t23.5 -8.5l2 3q54 71 54 90z" />
    </font>
</defs>
</svg>
